<svg version="1.1" viewBox="0.0 0.0 642.0 202.3989501312336" fill="none" stroke="none" stroke-linecap="square" stroke-miterlimit="10" xmlns:xlink="http://www.w3.org/1999/xlink" xmlns="http://www.w3.org/2000/svg"><clipPath id="p.0"><path d="m0 0l642.0 0l0 202.39896l-642.0 0l0 -202.39896z" clip-rule="nonzero"/></clipPath><g clip-path="url(#p.0)"><path fill="#000000" fill-opacity="0.0" d="m0 0l642.0 0l0 202.39896l-642.0 0z" fill-rule="evenodd"/><path fill="#00ffff" fill-opacity="0.1854" d="m235.69029 61.5l87.999985 0l0 119.590546l-87.999985 0z" fill-rule="evenodd"/><path fill="#efefef" d="m265.28793 92.9l28.804688 0l0 19.199997l-28.804688 0l0 -19.199997z" fill-rule="nonzero"/><path fill="#000000" fill-opacity="0.0" d="m265.28793 91.49437l9.6015625 0l0 21.101562l-9.6015625 0l0 -21.101562z" fill-rule="nonzero"/><path fill="#000000" d="m270.06918 97.759995l-1.453125 0l0 2.046875l-2.21875 0l0 1.109375l2.21875 0l0 4.59375q0 0.78125 0.203125 1.34375q0.21875 0.546875 0.578125 0.890625q0.359375 0.34375 0.84375 0.515625q0.484375 0.15625 1.046875 0.15625q0.34375 0 0.671875 -0.03125q0.34375 -0.03125 0.65625 -0.09375q0.296875 -0.0625 0.546875 -0.140625q0.265625 -0.078125 0.453125 -0.1875l-0.203125 -1.03125q-0.140625 0.03125 -0.34375 0.078125q-0.203125 0.046875 -0.4375 0.078125q-0.25 0.046875 -0.5 0.078125q-0.25 0.015625 -0.484375 0.015625q-0.3125 0 -0.609375 -0.078125q-0.28125 -0.078125 -0.5 -0.265625q-0.21875 -0.1875 -0.34375 -0.5q-0.125 -0.328125 -0.125 -0.828125l0 -4.59375l3.21875 0l0 -1.109375l-3.21875 0l0 -2.046875z" fill-rule="nonzero"/><path fill="#010000" fill-opacity="0.0" d="m274.8895 91.49437l19.203125 0l0 21.101562l-19.203125 0l0 -21.101562z" fill-rule="nonzero"/><path fill="#000000" d="m275.84262 103.947495l0 0.171875q0 0.921875 0.265625 1.703125q0.265625 0.78125 0.765625 1.359375q0.5 0.578125 1.203125 0.90625q0.71875 0.328125 1.625 0.328125q0.890625 0 1.59375 -0.328125q0.71875 -0.328125 1.21875 -0.90625q0.484375 -0.578125 0.75 -1.359375q0.265625 -0.78125 0.265625 -1.703125l0 -0.171875q0 -0.90625 -0.265625 -1.6875q-0.265625 -0.796875 -0.75 -1.375q-0.5 -0.578125 -1.21875 -0.90625q-0.71875 -0.328125 -1.609375 -0.328125q-0.890625 0 -1.609375 0.328125q-0.703125 0.328125 -1.203125 0.90625q-0.5 0.578125 -0.765625 1.375q-0.265625 0.78125 -0.265625 1.6875zm1.453125 0.171875l0 -0.171875q0 -0.609375 0.140625 -1.171875q0.15625 -0.578125 0.453125 -1.0q0.296875 -0.4375 0.734375 -0.6875q0.453125 -0.25 1.0625 -0.25q0.59375 0 1.046875 0.25q0.453125 0.25 0.75 0.6875q0.296875 0.421875 0.453125 1.0q0.15625 0.5625 0.15625 1.171875l0 0.171875q0 0.625 -0.15625 1.203125q-0.140625 0.5625 -0.4375 0.984375q-0.3125 0.4375 -0.765625 0.6875q-0.4375 0.25 -1.03125 0.25q-0.609375 0 -1.0625 -0.25q-0.453125 -0.25 -0.75 -0.6875q-0.296875 -0.421875 -0.453125 -0.984375q-0.140625 -0.578125 -0.140625 -1.203125zm8.5546875 7.390625l1.4375 0l0 -4.0625q0.15625 0.171875 0.328125 0.3125q0.1875 0.140625 0.390625 0.265625q0.34375 0.1875 0.75 0.28125q0.421875 0.109375 0.90625 0.109375q0.796875 0 1.421875 -0.328125q0.625 -0.328125 1.046875 -0.90625q0.421875 -0.578125 0.640625 -1.359375q0.21875 -0.796875 0.21875 -1.703125l0 -0.15625q0 -0.953125 -0.21875 -1.734375q-0.21875 -0.796875 -0.640625 -1.375q-0.421875 -0.5625 -1.046875 -0.875q-0.625 -0.328125 -1.4375 -0.328125q-0.46875 0 -0.875 0.09375q-0.390625 0.09375 -0.71875 0.28125q-0.234375 0.125 -0.4375 0.3125q-0.203125 0.171875 -0.375 0.390625l-0.078125 -0.921875l-1.3125 0l0 11.703125zm5.6875 -7.546875l0 0.15625q0 0.625 -0.140625 1.1875q-0.125 0.5625 -0.40625 0.984375q-0.28125 0.4375 -0.71875 0.6875q-0.4375 0.25 -1.046875 0.25q-0.375 0 -0.6875 -0.09375q-0.296875 -0.09375 -0.546875 -0.25q-0.21875 -0.140625 -0.390625 -0.34375q-0.171875 -0.203125 -0.3125 -0.4375l0 -4.078125q0.15625 -0.265625 0.34375 -0.484375q0.203125 -0.21875 0.453125 -0.359375q0.21875 -0.15625 0.5 -0.234375q0.296875 -0.078125 0.625 -0.078125q0.609375 0 1.046875 0.25q0.4375 0.25 0.734375 0.671875q0.28125 0.4375 0.40625 1.0q0.140625 0.546875 0.140625 1.171875z" fill-rule="nonzero"/><path fill="#efefef" d="m255.68639 112.1l48.007797 0l0 19.200005l-48.007797 0l0 -19.200005z" fill-rule="nonzero"/><path fill="#000000" fill-opacity="0.0" d="m255.68639 110.694374l48.007797 0l0 21.101555l-48.007797 0l0 -21.101555z" fill-rule="nonzero"/><path fill="#000000" d="m262.59262 118.850624q-0.921875 0 -1.65625 0.40625q-0.71875 0.390625 -1.234375 1.09375l0 -0.21875l-0.0625 -1.125l-1.375 0l0 8.453125l1.453125 0l0 -5.421875q0.140625 -0.390625 0.34375 -0.703125q0.21875 -0.328125 0.515625 -0.546875q0.3125 -0.25 0.734375 -0.375q0.4375 -0.125 0.96875 -0.125q0.421875 0 0.796875 0.046875q0.375 0.03125 0.796875 0.125l0.203125 -1.40625q-0.21875 -0.09375 -0.65625 -0.140625q-0.4375 -0.0625 -0.828125 -0.0625zm4.2890625 0.15625l0 1.25l2.875 0l0 5.953125l-2.875 0l0 1.25l7.078125 0l0 -1.25l-2.765625 0l0 -7.203125l-4.3125 0zm2.6875 -2.21875q0 0.34375 0.203125 0.578125q0.21875 0.234375 0.65625 0.234375q0.4375 0 0.65625 -0.234375q0.21875 -0.234375 0.21875 -0.578125q0 -0.203125 -0.0625 -0.359375q-0.0625 -0.171875 -0.1875 -0.28125q-0.109375 -0.09375 -0.265625 -0.15625q-0.15625 -0.0625 -0.359375 -0.0625q-0.203125 0 -0.359375 0.0625q-0.15625 0.0625 -0.265625 0.15625q-0.125 0.125 -0.1875 0.296875q-0.046875 0.15625 -0.046875 0.34375zm6.4140625 6.375l0 0.15625q0 0.90625 0.234375 1.703125q0.234375 0.78125 0.671875 1.359375q0.4375 0.578125 1.0625 0.90625q0.625 0.328125 1.390625 0.328125q0.46875 0 0.859375 -0.109375q0.40625 -0.09375 0.734375 -0.265625q0.203125 -0.125 0.390625 -0.28125q0.1875 -0.15625 0.34375 -0.34375l0 0.734375q0 0.546875 -0.15625 0.9687424q-0.15625 0.421875 -0.4375 0.703125q-0.296875 0.296875 -0.71875 0.4375q-0.40625 0.15625 -0.921875 0.15625q-0.296875 0 -0.59375 -0.0625q-0.28125 -0.0625 -0.5625 -0.1875q-0.296875 -0.140625 -0.578125 -0.359375q-0.28125 -0.21875 -0.546875 -0.546875l-0.75 0.875q0.296875 0.40625 0.6875 0.6875q0.40625 0.28125 0.84375 0.453125q0.4375 0.171875 0.859375 0.234375q0.421875 0.078125 0.75 0.078125q0.796875 0 1.453125 -0.234375q0.65625 -0.234375 1.125 -0.6875q0.46875 -0.453125 0.734375 -1.109375q0.265625 -0.640625 0.265625 -1.4843674l0 -8.265625l-1.3125 0l-0.078125 0.921875q-0.140625 -0.1875 -0.3125 -0.34375q-0.171875 -0.15625 -0.359375 -0.28125q-0.34375 -0.21875 -0.765625 -0.328125q-0.421875 -0.125 -0.9375 -0.125q-0.78125 0 -1.40625 0.328125q-0.625 0.3125 -1.0625 0.875q-0.4375 0.578125 -0.671875 1.375q-0.234375 0.78125 -0.234375 1.734375zm1.453125 0.15625l0 -0.15625q0 -0.625 0.125 -1.171875q0.125 -0.5625 0.40625 -1.0q0.28125 -0.421875 0.703125 -0.671875q0.4375 -0.25 1.046875 -0.25q0.359375 0 0.65625 0.09375q0.296875 0.09375 0.546875 0.25q0.234375 0.15625 0.421875 0.375q0.1875 0.21875 0.328125 0.484375l0 3.875q-0.140625 0.28125 -0.328125 0.515625q-0.1875 0.21875 -0.421875 0.375q-0.234375 0.171875 -0.546875 0.265625q-0.296875 0.078125 -0.671875 0.078125q-0.59375 0 -1.03125 -0.234375q-0.421875 -0.25 -0.703125 -0.671875q-0.28125 -0.421875 -0.40625 -0.96875q-0.125 -0.5625 -0.125 -1.1875zm9.8671875 -3.0625l0 -4.796875l-1.453125 0l0 12.0l1.453125 0l0 -6.140625q0.15625 -0.25 0.34375 -0.453125q0.203125 -0.21875 0.4375 -0.375q0.296875 -0.203125 0.640625 -0.3125q0.359375 -0.109375 0.75 -0.109375q0.484375 0 0.84375 0.140625q0.375 0.125 0.609375 0.40625q0.234375 0.25 0.34375 0.625q0.125 0.375 0.125 0.875l0 5.34375l1.4375 0l0 -5.328125q0 -0.84375 -0.203125 -1.46875q-0.203125 -0.625 -0.59375 -1.03125q-0.375 -0.40625 -0.921875 -0.59375q-0.546875 -0.1875 -1.203125 -0.1875q-0.515625 0 -0.96875 0.140625q-0.4375 0.140625 -0.8125 0.421875q-0.234375 0.15625 -0.453125 0.375q-0.203125 0.21875 -0.375 0.46875zm11.5703125 -3.296875l-1.453125 0l0 2.046875l-2.21875 0l0 1.109375l2.21875 0l0 4.59375q0 0.78125 0.203125 1.34375q0.21875 0.546875 0.578125 0.890625q0.359375 0.34375 0.84375 0.515625q0.484375 0.15625 1.046875 0.15625q0.34375 0 0.671875 -0.03125q0.34375 -0.03125 0.65625 -0.09375q0.296875 -0.0625 0.546875 -0.140625q0.265625 -0.078125 0.453125 -0.1875l-0.203125 -1.03125q-0.140625 0.03125 -0.34375 0.078125q-0.203125 0.046875 -0.4375 0.078125q-0.25 0.046875 -0.5 0.078125q-0.25 0.015625 -0.484375 0.015625q-0.3125 0 -0.609375 -0.078125q-0.28125 -0.078125 -0.5 -0.265625q-0.21875 -0.1875 -0.34375 -0.5q-0.125 -0.328125 -0.125 -0.828125l0 -4.59375l3.21875 0l0 -1.109375l-3.21875 0l0 -2.046875z" fill-rule="nonzero"/><path fill="#efefef" d="m250.8856 131.3l57.60936 0l0 19.199997l-57.60936 0l0 -19.199997z" fill-rule="nonzero"/><path fill="#000000" fill-opacity="0.0" d="m250.8856 129.89438l57.60936 0l0 21.101562l-57.60936 0l0 -21.101562z" fill-rule="nonzero"/><path fill="#000000" d="m259.41684 142.51938l0 -0.15625q0 -0.671875 -0.109375 -1.265625q-0.109375 -0.59375 -0.328125 -1.09375q-0.203125 -0.4375 -0.46875 -0.78125q-0.265625 -0.359375 -0.59375 -0.609375q-0.375 -0.265625 -0.84375 -0.40625q-0.453125 -0.15625 -1.0 -0.15625q-0.43748474 0 -0.81248474 0.09375q-0.375 0.078125 -0.6875 0.234375q-0.25 0.140625 -0.46875 0.328125q-0.21875 0.171875 -0.40625 0.40625l0 -4.453125l-1.4375 0l0 12.0l1.328125 0l0.0625 -0.96875q0.140625 0.1875 0.296875 0.34375q0.15625 0.140625 0.328125 0.265625q0.359375 0.25 0.8125 0.375q0.453125 0.140625 0.99998474 0.140625q0.46875 0 0.875 -0.125q0.421875 -0.109375 0.765625 -0.328125q0.46875 -0.296875 0.8125 -0.765625q0.34375 -0.46875 0.546875 -1.046875q0.15625 -0.453125 0.234375 -0.953125q0.09375 -0.515625 0.09375 -1.078125zm-1.453125 -0.15625l0 0.15625q0 0.375 -0.046875 0.734375q-0.046875 0.359375 -0.140625 0.671875q-0.125 0.421875 -0.34375 0.765625q-0.203125 0.328125 -0.515625 0.546875q-0.234375 0.171875 -0.53125 0.265625q-0.296875 0.078125 -0.65623474 0.078125q-0.375 0 -0.6875 -0.09375q-0.3125 -0.09375 -0.5625 -0.28125q-0.25 -0.171875 -0.453125 -0.40625q-0.1875 -0.25 -0.328125 -0.53125l0 -3.6875q0.140625 -0.28125 0.328125 -0.515625q0.1875 -0.25 0.4375 -0.421875q0.25 -0.171875 0.5625 -0.265625q0.3125 -0.109375 0.6875 -0.109375q0.34373474 0 0.62498474 0.078125q0.28125 0.078125 0.5 0.21875q0.328125 0.203125 0.546875 0.546875q0.234375 0.34375 0.375 0.75q0.109375 0.34375 0.15625 0.71875q0.046875 0.375 0.046875 0.78125zm3.4765625 -0.015625l0 0.171875q0 0.921875 0.265625 1.703125q0.265625 0.78125 0.765625 1.359375q0.5 0.578125 1.203125 0.90625q0.71875 0.328125 1.625 0.328125q0.890625 0 1.59375 -0.328125q0.71875 -0.328125 1.21875 -0.90625q0.484375 -0.578125 0.75 -1.359375q0.265625 -0.78125 0.265625 -1.703125l0 -0.171875q0 -0.90625 -0.265625 -1.6875q-0.265625 -0.796875 -0.75 -1.375q-0.5 -0.578125 -1.21875 -0.90625q-0.71875 -0.328125 -1.609375 -0.328125q-0.890625 0 -1.609375 0.328125q-0.703125 0.328125 -1.203125 0.90625q-0.5 0.578125 -0.765625 1.375q-0.265625 0.78125 -0.265625 1.6875zm1.453125 0.171875l0 -0.171875q0 -0.609375 0.140625 -1.171875q0.15625 -0.578125 0.453125 -1.0q0.296875 -0.4375 0.734375 -0.6875q0.453125 -0.25 1.0625 -0.25q0.59375 0 1.046875 0.25q0.453125 0.25 0.75 0.6875q0.296875 0.421875 0.453125 1.0q0.15625 0.5625 0.15625 1.171875l0 0.171875q0 0.625 -0.15625 1.203125q-0.140625 0.5625 -0.4375 0.984375q-0.3125 0.4375 -0.765625 0.6875q-0.4375 0.25 -1.03125 0.25q-0.609375 0 -1.0625 -0.25q-0.453125 -0.25 -0.75 -0.6875q-0.296875 -0.421875 -0.453125 -0.984375q-0.140625 -0.578125 -0.140625 -1.203125zm11.9765625 -6.359375l-1.453125 0l0 2.046875l-2.21875 0l0 1.109375l2.21875 0l0 4.59375q0 0.78125 0.203125 1.34375q0.21875 0.546875 0.578125 0.890625q0.359375 0.34375 0.84375 0.515625q0.484375 0.15625 1.046875 0.15625q0.34375 0 0.671875 -0.03125q0.34375 -0.03125 0.65625 -0.09375q0.296875 -0.0625 0.546875 -0.140625q0.265625 -0.078125 0.453125 -0.1875l-0.203125 -1.03125q-0.140625 0.03125 -0.34375 0.078125q-0.203125 0.046875 -0.4375 0.078125q-0.25 0.046875 -0.5 0.078125q-0.25 0.015625 -0.484375 0.015625q-0.3125 0 -0.609375 -0.078125q-0.28125 -0.078125 -0.5 -0.265625q-0.21875 -0.1875 -0.34375 -0.5q-0.125 -0.328125 -0.125 -0.828125l0 -4.59375l3.21875 0l0 -1.109375l-3.21875 0l0 -2.046875zm9.6015625 0l-1.453125 0l0 2.046875l-2.21875 0l0 1.109375l2.21875 0l0 4.59375q0 0.78125 0.203125 1.34375q0.21875 0.546875 0.578125 0.890625q0.359375 0.34375 0.84375 0.515625q0.484375 0.15625 1.046875 0.15625q0.34375 0 0.671875 -0.03125q0.34375 -0.03125 0.65625 -0.09375q0.296875 -0.0625 0.546875 -0.140625q0.265625 -0.078125 0.453125 -0.1875l-0.203125 -1.03125q-0.140625 0.03125 -0.34375 0.078125q-0.203125 0.046875 -0.4375 0.078125q-0.25 0.046875 -0.5 0.078125q-0.25 0.015625 -0.484375 0.015625q-0.3125 0 -0.609375 -0.078125q-0.28125 -0.078125 -0.5 -0.265625q-0.21875 -0.1875 -0.34375 -0.5q-0.125 -0.328125 -0.125 -0.828125l0 -4.59375l3.21875 0l0 -1.109375l-3.21875 0l0 -2.046875zm5.7734375 6.1875l0 0.171875q0 0.921875 0.265625 1.703125q0.265625 0.78125 0.765625 1.359375q0.5 0.578125 1.203125 0.90625q0.71875 0.328125 1.625 0.328125q0.890625 0 1.59375 -0.328125q0.71875 -0.328125 1.21875 -0.90625q0.484375 -0.578125 0.75 -1.359375q0.265625 -0.78125 0.265625 -1.703125l0 -0.171875q0 -0.90625 -0.265625 -1.6875q-0.265625 -0.796875 -0.75 -1.375q-0.5 -0.578125 -1.21875 -0.90625q-0.71875 -0.328125 -1.609375 -0.328125q-0.890625 0 -1.609375 0.328125q-0.703125 0.328125 -1.203125 0.90625q-0.5 0.578125 -0.765625 1.375q-0.265625 0.78125 -0.265625 1.6875zm1.453125 0.171875l0 -0.171875q0 -0.609375 0.140625 -1.171875q0.15625 -0.578125 0.453125 -1.0q0.296875 -0.4375 0.734375 -0.6875q0.453125 -0.25 1.0625 -0.25q0.59375 0 1.046875 0.25q0.453125 0.25 0.75 0.6875q0.296875 0.421875 0.453125 1.0q0.15625 0.5625 0.15625 1.171875l0 0.171875q0 0.625 -0.15625 1.203125q-0.140625 0.5625 -0.4375 0.984375q-0.3125 0.4375 -0.765625 0.6875q-0.4375 0.25 -1.03125 0.25q-0.609375 0 -1.0625 -0.25q-0.453125 -0.25 -0.75 -0.6875q-0.296875 -0.421875 -0.453125 -0.984375q-0.140625 -0.578125 -0.140625 -1.203125zm9.2265625 -4.3125l-1.296875 0l0 8.453125l1.375 0l0 -6.734375q0.046875 -0.125 0.109375 -0.234375q0.078125 -0.109375 0.1875 -0.1875q0.125 -0.109375 0.3125 -0.171875q0.203125 -0.0625 0.453125 -0.0625q0.234375 0 0.40625 0.0625q0.1875 0.0625 0.296875 0.1875q0.125 0.125 0.1875 0.328125q0.0625 0.203125 0.0625 0.46875l0 6.34375l1.375 0l0 -6.328125q0 -0.046875 0 -0.078125q0 -0.046875 0 -0.078125q0.015625 -0.203125 0.078125 -0.359375q0.078125 -0.15625 0.203125 -0.28125q0.125 -0.125 0.3125 -0.1875q0.1875 -0.078125 0.453125 -0.078125q0.234375 0 0.421875 0.0625q0.1875 0.0625 0.3125 0.1875q0.109375 0.140625 0.171875 0.34375q0.0625 0.203125 0.0625 0.46875l0 6.328125l1.375 0l0 -6.3125q0 -0.609375 -0.140625 -1.0625q-0.140625 -0.453125 -0.40625 -0.734375q-0.234375 -0.25 -0.59375 -0.375q-0.34375 -0.125 -0.78125 -0.125q-0.328125 0 -0.59375 0.078125q-0.265625 0.078125 -0.484375 0.21875q-0.171875 0.109375 -0.328125 0.265625q-0.140625 0.15625 -0.25 0.34375q-0.09375 -0.203125 -0.21875 -0.359375q-0.109375 -0.15625 -0.265625 -0.265625q-0.203125 -0.140625 -0.46875 -0.203125q-0.265625 -0.078125 -0.609375 -0.078125q-0.59375 0 -1.015625 0.25q-0.40625 0.25 -0.671875 0.703125l-0.03125 -0.796875z" fill-rule="nonzero"/><path fill="#efefef" d="m260.48715 150.5l38.40625 0l0 19.199997l-38.40625 0l0 -19.199997z" fill-rule="nonzero"/><path fill="#000000" fill-opacity="0.0" d="m260.48715 149.09436l38.40625 0l0 21.101562l-38.40625 0l0 -21.101562z" fill-rule="nonzero"/><path fill="#000000" d="m262.0809 153.85999l0 1.25l2.875 0l0 9.5l-2.875 0l0 1.25l7.078125 0l0 -1.25l-2.765625 0l0 -10.75l-4.3125 0zm13.1015625 12.15625q1.234375 0 2.078125 -0.5q0.84375 -0.5 1.265625 -1.140625l-0.890625 -0.6875q-0.390625 0.515625 -1.0 0.828125q-0.59375 0.3125 -1.375 0.3125q-0.578125 0 -1.0625 -0.21875q-0.484375 -0.21875 -0.828125 -0.59375q-0.34375 -0.359375 -0.53125 -0.828125q-0.1875 -0.46875 -0.25 -1.09375l0 -0.046875l6.046875 0l0 -0.65625q0 -0.875 -0.234375 -1.625q-0.21875 -0.765625 -0.671875 -1.328125q-0.453125 -0.5625 -1.140625 -0.875q-0.671875 -0.3125 -1.59375 -0.3125q-0.71875 0 -1.421875 0.296875q-0.6875 0.296875 -1.21875 0.84375q-0.546875 0.5625 -0.875 1.375q-0.328125 0.8125 -0.328125 1.828125l0 0.328125q0 0.890625 0.296875 1.640625q0.296875 0.75 0.828125 1.296875q0.53125 0.546875 1.265625 0.859375q0.75 0.296875 1.640625 0.296875zm-0.1875 -7.578125q0.5625 0 0.953125 0.203125q0.40625 0.203125 0.671875 0.53125q0.265625 0.328125 0.40625 0.78125q0.15625 0.4375 0.15625 0.828125l0 0.078125l-4.546875 0q0.09375 -0.59375 0.296875 -1.03125q0.21875 -0.453125 0.53125 -0.765625q0.3125 -0.3125 0.703125 -0.46875q0.390625 -0.15625 0.828125 -0.15625zm8.2109375 7.421875l1.453125 0l0 -7.34375l3.265625 0l0 -1.109375l-3.265625 0l0 -0.59375q0 -0.53125 0.140625 -0.921875q0.140625 -0.40625 0.40625 -0.65625q0.25 -0.25 0.625 -0.359375q0.375 -0.125 0.875 -0.125q0.484375 0 0.90625 0.078125q0.421875 0.078125 0.75 0.1875l0.171875 -1.1875q-0.203125 -0.0625 -0.40625 -0.09375q-0.1875 -0.046875 -0.390625 -0.09375q-0.296875 -0.046875 -0.609375 -0.078125q-0.296875 -0.046875 -0.609375 -0.046875q-0.75 0 -1.359375 0.21875q-0.609375 0.203125 -1.03125 0.625q-0.4375 0.40625 -0.6875 1.03125q-0.234375 0.609375 -0.234375 1.421875l0 0.59375l-2.328125 0l0 1.109375l2.328125 0l0 7.34375zm10.8671875 -10.5l-1.453125 0l0 2.046875l-2.21875 0l0 1.109375l2.21875 0l0 4.59375q0 0.78125 0.203125 1.34375q0.21875 0.546875 0.578125 0.890625q0.359375 0.34375 0.84375 0.515625q0.484375 0.15625 1.046875 0.15625q0.34375 0 0.671875 -0.03125q0.34375 -0.03125 0.65625 -0.09375q0.296875 -0.0625 0.546875 -0.140625q0.265625 -0.078125 0.453125 -0.1875l-0.203125 -1.03125q-0.140625 0.03125 -0.34375 0.078125q-0.203125 0.046875 -0.4375 0.078125q-0.25 0.046875 -0.5 0.078125q-0.25 0.015625 -0.484375 0.015625q-0.3125 0 -0.609375 -0.078125q-0.28125 -0.078125 -0.5 -0.265625q-0.21875 -0.1875 -0.34375 -0.5q-0.125 -0.328125 -0.125 -0.828125l0 -4.59375l3.21875 0l0 -1.109375l-3.21875 0l0 -2.046875z" fill-rule="nonzero"/><path fill="#000000" fill-opacity="0.0" d="m298.8934 149.09436l0 0l0 21.101562l0 0l0 -21.101562z" fill-rule="nonzero"/><path fill="#cfe2f3" d="m451.3832 58.24672l101.00784 0l0 89.102356l-101.00784 0z" fill-rule="evenodd"/><path stroke="#000000" stroke-width="1.0" stroke-linejoin="round" stroke-linecap="butt" d="m451.3832 58.24672l101.00784 0l0 89.102356l-101.00784 0z" fill-rule="evenodd"/><path fill="#000000" fill-opacity="0.0" d="m426.00787 102.7979l19.968506 0" fill-rule="evenodd"/><path stroke="#ff0000" stroke-width="1.0" stroke-linejoin="round" stroke-linecap="butt" d="m426.00787 102.7979l13.968506 0" fill-rule="evenodd"/><path fill="#ff0000" stroke="#ff0000" stroke-width="1.0" stroke-linecap="butt" d="m439.97638 104.44963l4.538086 -1.6517334l-4.538086 -1.6517258z" fill-rule="evenodd"/><path fill="#000000" fill-opacity="0.0" d="m578.7743 102.34121l-20.97638 0.9133835" fill-rule="evenodd"/><path stroke="#ff0000" stroke-width="1.0" stroke-linejoin="round" stroke-linecap="butt" d="m578.7743 102.34121l-14.982117 0.65237427" fill-rule="evenodd"/><path fill="#ff0000" stroke="#ff0000" stroke-width="1.0" stroke-linecap="butt" d="m563.72034 101.34341l-4.461914 1.8475876l4.605652 1.4527512z" fill-rule="evenodd"/><path fill="#000000" fill-opacity="0.0" d="m501.4462 33.0l0.881897 19.811024" fill-rule="evenodd"/><path stroke="#ff0000" stroke-width="1.0" stroke-linejoin="round" stroke-linecap="butt" d="m501.4462 33.0l0.6150818 13.816959" fill-rule="evenodd"/><path fill="#ff0000" stroke="#ff0000" stroke-width="1.0" stroke-linecap="butt" d="m500.41116 46.890415l1.8518982 4.4601517l1.4483032 -4.6070595z" fill-rule="evenodd"/><path fill="#000000" fill-opacity="0.0" d="m502.70602 173.00525l-1.6377869 -20.220474" fill-rule="evenodd"/><path stroke="#ff0000" stroke-width="1.0" stroke-linejoin="round" stroke-linecap="butt" d="m502.70602 173.00525l-1.1534119 -14.240051" fill-rule="evenodd"/><path fill="#ff0000" stroke="#ff0000" stroke-width="1.0" stroke-linecap="butt" d="m503.19897 158.63184l-2.0126953 -4.389923l-1.2799988 4.6566315z" fill-rule="evenodd"/><path fill="#000000" fill-opacity="0.0" d="m451.3832 0l101.00784 0l0 42.015747l-101.00784 0z" fill-rule="evenodd"/><path fill="#efefef" d="m485.09378 9.0l33.5867 0l0 22.399998l-33.5867 0l0 -22.399998z" fill-rule="nonzero"/><path fill="#000000" fill-opacity="0.0" d="m485.09378 7.3710175l33.5867 0l0 24.604752l-33.5867 0l0 -24.604752z" fill-rule="nonzero"/><path fill="#000000" d="m490.6719 14.669998l-1.703125 0l0 2.390625l-2.578125 0l0 1.3125l2.578125 0l0 5.34375q0 0.921875 0.234375 1.5625q0.25 0.640625 0.671875 1.046875q0.421875 0.40625 0.984375 0.59375q0.578125 0.1875 1.234375 0.1875q0.390625 0 0.78125 -0.046875q0.40625 -0.03125 0.75 -0.109375q0.359375 -0.0625 0.65625 -0.15625q0.296875 -0.09375 0.515625 -0.21875l-0.234375 -1.203125q-0.15625 0.046875 -0.40625 0.09375q-0.234375 0.046875 -0.515625 0.09375q-0.28125 0.046875 -0.578125 0.078125q-0.28125 0.03125 -0.546875 0.03125q-0.375 0 -0.71875 -0.09375q-0.328125 -0.09375 -0.578125 -0.3125q-0.265625 -0.21875 -0.40625 -0.59375q-0.140625 -0.375 -0.140625 -0.953125l0 -5.34375l3.75 0l0 -1.3125l-3.75 0l0 -2.390625zm6.726837 7.234375l0 0.203125q0 1.0625 0.3125 1.96875q0.3125 0.90625 0.890625 1.59375q0.578125 0.671875 1.40625 1.0625q0.84375 0.375 1.890625 0.375q1.03125 0 1.859375 -0.375q0.828125 -0.390625 1.40625 -1.0625q0.578125 -0.6875 0.890625 -1.59375q0.3125 -0.90625 0.3125 -1.96875l0 -0.203125q0 -1.0625 -0.3125 -1.984375q-0.3125 -0.921875 -0.890625 -1.59375q-0.578125 -0.671875 -1.421875 -1.046875q-0.828125 -0.390625 -1.875 -0.390625q-1.03125 0 -1.859375 0.390625q-0.828125 0.375 -1.40625 1.046875q-0.578125 0.671875 -0.890625 1.59375q-0.3125 0.921875 -0.3125 1.984375zm1.6875 0.203125l0 -0.203125q0 -0.71875 0.171875 -1.375q0.171875 -0.671875 0.53125 -1.171875q0.34375 -0.5 0.859375 -0.796875q0.515625 -0.296875 1.21875 -0.296875q0.703125 0 1.21875 0.296875q0.53125 0.296875 0.890625 0.796875q0.34375 0.5 0.515625 1.171875q0.1875 0.65625 0.1875 1.375l0 0.203125q0 0.71875 -0.171875 1.390625q-0.171875 0.65625 -0.515625 1.15625q-0.359375 0.5 -0.890625 0.796875q-0.515625 0.28125 -1.203125 0.28125q-0.703125 0 -1.234375 -0.28125q-0.53125 -0.296875 -0.875 -0.796875q-0.359375 -0.5 -0.53125 -1.15625q-0.171875 -0.671875 -0.171875 -1.390625zm9.976807 8.609375l1.6875 0l0 -4.75q0.171875 0.203125 0.375 0.375q0.21875 0.171875 0.453125 0.3125q0.390625 0.21875 0.875 0.328125q0.5 0.125 1.0625 0.125q0.921875 0 1.640625 -0.375q0.734375 -0.390625 1.234375 -1.0625q0.484375 -0.6875 0.734375 -1.59375q0.265625 -0.921875 0.265625 -1.96875l0 -0.203125q0 -1.09375 -0.265625 -2.015625q-0.25 -0.9375 -0.734375 -1.59375q-0.5 -0.671875 -1.234375 -1.03125q-0.71875 -0.375 -1.671875 -0.375q-0.53125 0 -1.0 0.109375q-0.46875 0.109375 -0.859375 0.328125q-0.265625 0.140625 -0.515625 0.359375q-0.234375 0.203125 -0.421875 0.453125l-0.09375 -1.078125l-1.53125 0l0 13.65625zm6.640625 -8.8125l0 0.203125q0 0.71875 -0.171875 1.375q-0.15625 0.65625 -0.484375 1.15625q-0.328125 0.5 -0.84375 0.796875q-0.5 0.296875 -1.203125 0.296875q-0.4375 0 -0.796875 -0.109375q-0.359375 -0.109375 -0.640625 -0.3125q-0.265625 -0.15625 -0.46875 -0.390625q-0.1875 -0.234375 -0.34375 -0.515625l0 -4.75q0.171875 -0.296875 0.390625 -0.546875q0.234375 -0.265625 0.53125 -0.4375q0.265625 -0.171875 0.59375 -0.265625q0.328125 -0.09375 0.71875 -0.09375q0.71875 0 1.21875 0.296875q0.515625 0.28125 0.84375 0.78125q0.328125 0.5 0.484375 1.15625q0.171875 0.640625 0.171875 1.359375z" fill-rule="nonzero"/><path fill="#000000" fill-opacity="0.0" d="m518.6805 7.3710175l0 0l0 24.604752l0 0l0 -24.604752z" fill-rule="nonzero"/><path fill="#000000" fill-opacity="0.0" d="m451.3832 163.58005l101.00784 0l0 42.015747l-101.00784 0z" fill-rule="evenodd"/><path fill="#efefef" d="m468.3004 172.58005l67.17346 0l0 22.40001l-67.17346 0l0 -22.40001z" fill-rule="nonzero"/><path fill="#000000" fill-opacity="0.0" d="m468.3004 170.95107l67.17346 0l0 24.604752l-67.17346 0l0 -24.604752z" fill-rule="nonzero"/><path fill="#000000" d="m478.2379 185.68755l0 -0.203125q0 -0.765625 -0.125 -1.453125q-0.125 -0.703125 -0.375 -1.28125q-0.234375 -0.515625 -0.546875 -0.921875q-0.3125 -0.421875 -0.703125 -0.703125q-0.4375 -0.3125 -0.984375 -0.484375q-0.53125 -0.171875 -1.15625 -0.171875q-0.515625 0 -0.953125 0.09375q-0.4375 0.09375 -0.796875 0.296875q-0.296875 0.15625 -0.5625 0.375q-0.25 0.203125 -0.453125 0.46875l0 -5.203125l-1.6875 0l0 14.0l1.546875 0l0.078125 -1.125q0.171875 0.21875 0.34375 0.390625q0.1875 0.171875 0.390625 0.3125q0.421875 0.296875 0.9375 0.453125q0.53125 0.15625 1.171875 0.15625q0.546875 0 1.015625 -0.140625q0.484375 -0.140625 0.890625 -0.390625q0.5625 -0.34375 0.953125 -0.890625q0.390625 -0.546875 0.640625 -1.21875q0.1875 -0.53125 0.28125 -1.125q0.09375 -0.59375 0.09375 -1.234375zm-1.6875 -0.203125l0 0.203125q0 0.4375 -0.0625 0.859375q-0.046875 0.40625 -0.15625 0.78125q-0.15625 0.46875 -0.40625 0.875q-0.234375 0.390625 -0.609375 0.640625q-0.265625 0.203125 -0.609375 0.3125q-0.34375 0.09375 -0.765625 0.09375q-0.4375 0 -0.8125 -0.109375q-0.359375 -0.109375 -0.640625 -0.328125q-0.296875 -0.203125 -0.53125 -0.484375q-0.21875 -0.28125 -0.375 -0.609375l0 -4.3125q0.15625 -0.328125 0.375 -0.59375q0.21875 -0.28125 0.515625 -0.5q0.28125 -0.1875 0.640625 -0.296875q0.375 -0.125 0.8125 -0.125q0.390625 0 0.71875 0.09375q0.328125 0.09375 0.59375 0.25q0.390625 0.234375 0.65625 0.640625q0.265625 0.390625 0.421875 0.875q0.125 0.390625 0.171875 0.84375q0.0625 0.4375 0.0625 0.890625zm4.054962 0l0 0.203125q0 1.0625 0.3125 1.96875q0.3125 0.90625 0.890625 1.59375q0.578125 0.671875 1.40625 1.0625q0.84375 0.375 1.890625 0.375q1.03125 0 1.859375 -0.375q0.828125 -0.390625 1.40625 -1.0625q0.578125 -0.6875 0.890625 -1.59375q0.3125 -0.90625 0.3125 -1.96875l0 -0.203125q0 -1.0625 -0.3125 -1.984375q-0.3125 -0.921875 -0.890625 -1.59375q-0.578125 -0.671875 -1.421875 -1.046875q-0.828125 -0.390625 -1.875 -0.390625q-1.03125 0 -1.859375 0.390625q-0.828125 0.375 -1.40625 1.046875q-0.578125 0.671875 -0.890625 1.59375q-0.3125 0.921875 -0.3125 1.984375zm1.6875 0.203125l0 -0.203125q0 -0.71875 0.171875 -1.375q0.171875 -0.671875 0.53125 -1.171875q0.34375 -0.5 0.859375 -0.796875q0.515625 -0.296875 1.21875 -0.296875q0.703125 0 1.21875 0.296875q0.53125 0.296875 0.890625 0.796875q0.34375 0.5 0.515625 1.171875q0.1875 0.65625 0.1875 1.375l0 0.203125q0 0.71875 -0.171875 1.390625q-0.171875 0.65625 -0.515625 1.15625q-0.359375 0.5 -0.890625 0.796875q-0.515625 0.28125 -1.203125 0.28125q-0.703125 0 -1.234375 -0.28125q-0.53125 -0.296875 -0.875 -0.796875q-0.359375 -0.5 -0.53125 -1.15625q-0.171875 -0.671875 -0.171875 -1.390625zm13.976807 -7.4375l-1.703125 0l0 2.390625l-2.578125 0l0 1.3125l2.578125 0l0 5.34375q0 0.921875 0.234375 1.5625q0.25 0.640625 0.671875 1.046875q0.421875 0.40625 0.984375 0.59375q0.578125 0.1875 1.234375 0.1875q0.390625 0 0.78125 -0.046875q0.40625 -0.03125 0.75 -0.109375q0.359375 -0.0625 0.65625 -0.15625q0.296875 -0.09375 0.515625 -0.21875l-0.234375 -1.203125q-0.15625 0.046875 -0.40625 0.09375q-0.234375 0.046875 -0.515625 0.09375q-0.28125 0.046875 -0.578125 0.078125q-0.28125 0.03125 -0.546875 0.03125q-0.375 0 -0.71875 -0.09375q-0.328125 -0.09375 -0.578125 -0.3125q-0.265625 -0.21875 -0.40625 -0.59375q-0.140625 -0.375 -0.140625 -0.953125l0 -5.34375l3.75 0l0 -1.3125l-3.75 0l0 -2.390625zm11.195587 0l-1.703125 0l0 2.390625l-2.578125 0l0 1.3125l2.578125 0l0 5.34375q0 0.921875 0.234375 1.5625q0.25 0.640625 0.671875 1.046875q0.421875 0.40625 0.984375 0.59375q0.578125 0.1875 1.234375 0.1875q0.390625 0 0.78125 -0.046875q0.40625 -0.03125 0.75 -0.109375q0.359375 -0.0625 0.65625 -0.15625q0.296875 -0.09375 0.515625 -0.21875l-0.234375 -1.203125q-0.15625 0.046875 -0.40625 0.09375q-0.234375 0.046875 -0.515625 0.09375q-0.28125 0.046875 -0.578125 0.078125q-0.28125 0.03125 -0.546875 0.03125q-0.375 0 -0.71875 -0.09375q-0.328125 -0.09375 -0.578125 -0.3125q-0.265625 -0.21875 -0.40625 -0.59375q-0.140625 -0.375 -0.140625 -0.953125l0 -5.34375l3.75 0l0 -1.3125l-3.75 0l0 -2.390625zm6.7268066 7.234375l0 0.203125q0 1.0625 0.3125 1.96875q0.3125 0.90625 0.890625 1.59375q0.578125 0.671875 1.40625 1.0625q0.84375 0.375 1.890625 0.375q1.03125 0 1.859375 -0.375q0.828125 -0.390625 1.40625 -1.0625q0.578125 -0.6875 0.890625 -1.59375q0.3125 -0.90625 0.3125 -1.96875l0 -0.203125q0 -1.0625 -0.3125 -1.984375q-0.3125 -0.921875 -0.890625 -1.59375q-0.578125 -0.671875 -1.421875 -1.046875q-0.828125 -0.390625 -1.875 -0.390625q-1.03125 0 -1.859375 0.390625q-0.828125 0.375 -1.40625 1.046875q-0.578125 0.671875 -0.890625 1.59375q-0.3125 0.921875 -0.3125 1.984375zm1.6875 0.203125l0 -0.203125q0 -0.71875 0.171875 -1.375q0.171875 -0.671875 0.53125 -1.171875q0.34375 -0.5 0.859375 -0.796875q0.515625 -0.296875 1.21875 -0.296875q0.703125 0 1.21875 0.296875q0.53125 0.296875 0.890625 0.796875q0.34375 0.5 0.515625 1.171875q0.1875 0.65625 0.1875 1.375l0 0.203125q0 0.71875 -0.171875 1.390625q-0.171875 0.65625 -0.515625 1.15625q-0.359375 0.5 -0.890625 0.796875q-0.515625 0.28125 -1.203125 0.28125q-0.703125 0 -1.234375 -0.28125q-0.53125 -0.296875 -0.875 -0.796875q-0.359375 -0.5 -0.53125 -1.15625q-0.171875 -0.671875 -0.171875 -1.390625zm10.758057 -5.046875l-1.515625 0l0 9.859375l1.609375 0l0 -7.84375q0.046875 -0.140625 0.125 -0.265625q0.09375 -0.140625 0.21875 -0.234375q0.15625 -0.125 0.375 -0.1875q0.21875 -0.078125 0.53125 -0.078125q0.265625 0 0.46875 0.078125q0.203125 0.0625 0.34375 0.203125q0.15625 0.15625 0.21875 0.390625q0.0625 0.234375 0.0625 0.546875l0 7.390625l1.609375 0l0 -7.375q0 -0.0625 0 -0.09375q0 -0.046875 0 -0.09375q0.03125 -0.21875 0.109375 -0.40625q0.078125 -0.1875 0.21875 -0.34375q0.15625 -0.125 0.375 -0.203125q0.21875 -0.09375 0.515625 -0.09375q0.28125 0 0.484375 0.078125q0.21875 0.0625 0.375 0.21875q0.140625 0.15625 0.203125 0.390625q0.078125 0.234375 0.078125 0.546875l0 7.375l1.59375 0l0 -7.359375q0 -0.71875 -0.171875 -1.234375q-0.15625 -0.53125 -0.453125 -0.859375q-0.28125 -0.28125 -0.703125 -0.421875q-0.40625 -0.15625 -0.921875 -0.15625q-0.359375 0 -0.6875 0.09375q-0.3125 0.09375 -0.5625 0.25q-0.203125 0.125 -0.375 0.3125q-0.171875 0.1875 -0.296875 0.390625q-0.109375 -0.21875 -0.25 -0.40625q-0.140625 -0.1875 -0.3125 -0.3125q-0.234375 -0.15625 -0.546875 -0.234375q-0.3125 -0.09375 -0.703125 -0.09375q-0.6875 0 -1.1875 0.296875q-0.484375 0.28125 -0.78125 0.8125l-0.046875 -0.9375z" fill-rule="nonzero"/><path fill="#000000" fill-opacity="0.0" d="m535.4739 170.95107l0 0l0 24.604752l0 0l0 -24.604752z" fill-rule="nonzero"/><path fill="#000000" fill-opacity="0.0" d="m332.0 80.44882l101.00787 0l0 42.015747l-101.00787 0z" fill-rule="evenodd"/><path fill="#efefef" d="m379.2256 89.44882l44.782288 0l0 22.399994l-44.782288 0l0 -22.399994z" fill-rule="nonzero"/><path fill="#000000" fill-opacity="0.0" d="m379.2256 87.81984l44.782288 0l0 24.604752l-44.782288 0l0 -24.604752z" fill-rule="nonzero"/><path fill="#000000" d="m381.06934 93.36882l0 1.46875l3.359375 0l0 11.078125l-3.359375 0l0 1.453125l8.265625 0l0 -1.453125l-3.21875 0l0 -12.546875l-5.046875 0zm15.289307 14.1875q1.4375 0 2.421875 -0.578125q0.984375 -0.578125 1.46875 -1.328125l-1.03125 -0.796875q-0.46875 0.59375 -1.171875 0.96875q-0.6875 0.359375 -1.59375 0.359375q-0.6875 0 -1.25 -0.25q-0.5625 -0.265625 -0.96875 -0.71875q-0.390625 -0.40625 -0.609375 -0.953125q-0.21875 -0.546875 -0.28125 -1.265625l0 -0.078125l7.03125 0l0 -0.75q0 -1.03125 -0.265625 -1.90625q-0.25 -0.890625 -0.78125 -1.546875q-0.53125 -0.640625 -1.328125 -1.0q-0.796875 -0.375 -1.859375 -0.375q-0.84375 0 -1.65625 0.34375q-0.796875 0.34375 -1.4375 0.984375q-0.625 0.65625 -1.015625 1.609375q-0.375 0.9375 -0.375 2.125l0 0.390625q0 1.03125 0.34375 1.90625q0.34375 0.875 0.96875 1.5q0.609375 0.640625 1.484375 1.0q0.875 0.359375 1.90625 0.359375zm-0.21875 -8.84375q0.65625 0 1.125 0.234375q0.46875 0.234375 0.765625 0.625q0.3125 0.375 0.484375 0.90625q0.171875 0.515625 0.171875 0.984375l0 0.078125l-5.296875 0q0.09375 -0.6875 0.34375 -1.203125q0.265625 -0.53125 0.625 -0.890625q0.359375 -0.359375 0.8125 -0.546875q0.453125 -0.1875 0.96875 -0.1875zm9.570587 8.65625l1.703125 0l0 -8.546875l3.796875 0l0 -1.3125l-3.796875 0l0 -0.6875q0 -0.625 0.15625 -1.078125q0.15625 -0.46875 0.46875 -0.765625q0.296875 -0.28125 0.734375 -0.421875q0.4375 -0.140625 1.015625 -0.140625q0.5625 0 1.0625 0.09375q0.5 0.09375 0.875 0.21875l0.1875 -1.390625q-0.234375 -0.0625 -0.46875 -0.109375q-0.21875 -0.046875 -0.453125 -0.09375q-0.34375 -0.0625 -0.703125 -0.109375q-0.34375 -0.046875 -0.703125 -0.046875q-0.875 0 -1.59375 0.25q-0.703125 0.25 -1.203125 0.734375q-0.515625 0.484375 -0.796875 1.203125q-0.28125 0.703125 -0.28125 1.65625l0 0.6875l-2.703125 0l0 1.3125l2.703125 0l0 8.546875zm12.679962 -12.25l-1.703125 0l0 2.390625l-2.578125 0l0 1.3125l2.578125 0l0 5.34375q0 0.921875 0.234375 1.5625q0.25 0.640625 0.671875 1.046875q0.421875 0.40625 0.984375 0.59375q0.578125 0.1875 1.234375 0.1875q0.390625 0 0.78125 -0.046875q0.40625 -0.03125 0.75 -0.109375q0.359375 -0.0625 0.65625 -0.15625q0.296875 -0.09375 0.515625 -0.21875l-0.234375 -1.203125q-0.15625 0.046875 -0.40625 0.09375q-0.234375 0.046875 -0.515625 0.09375q-0.28125 0.046875 -0.578125 0.078125q-0.28125 0.03125 -0.546875 0.03125q-0.375 0 -0.71875 -0.09375q-0.328125 -0.09375 -0.578125 -0.3125q-0.265625 -0.21875 -0.40625 -0.59375q-0.140625 -0.375 -0.140625 -0.953125l0 -5.34375l3.75 0l0 -1.3125l-3.75 0l0 -2.390625z" fill-rule="nonzero"/><path fill="#000000" fill-opacity="0.0" d="m424.00787 87.81984l0 0l0 24.604752l0 0l0 -24.604752z" fill-rule="nonzero"/><path fill="#000000" fill-opacity="0.0" d="m570.7664 80.44882l101.00787 0l0 42.015747l-101.00787 0z" fill-rule="evenodd"/><path fill="#efefef" d="m579.7664 89.44882l55.977844 0l0 22.399994l-55.977844 0l0 -22.399994z" fill-rule="nonzero"/><path fill="#000000" fill-opacity="0.0" d="m579.7664 87.81984l55.977844 0l0 24.604752l-55.977844 0l0 -24.604752z" fill-rule="nonzero"/><path fill="#000000" d="m587.8133 97.33757q-1.078125 0 -1.921875 0.46875q-0.84375 0.46875 -1.4375 1.265625l-0.015625 -0.234375l-0.078125 -1.328125l-1.59375 0l0 9.859375l1.6875 0l0 -6.328125q0.171875 -0.453125 0.421875 -0.8125q0.25 -0.375 0.578125 -0.625q0.375 -0.296875 0.875 -0.4375q0.5 -0.15625 1.125 -0.15625q0.484375 0 0.921875 0.046875q0.453125 0.046875 0.9375 0.15625l0.234375 -1.640625q-0.265625 -0.109375 -0.765625 -0.171875q-0.5 -0.0625 -0.96875 -0.0625zm4.9924316 0.171875l0 1.46875l3.359375 0l0 6.9375l-3.359375 0l0 1.453125l8.265625 0l0 -1.453125l-3.21875 0l0 -8.40625l-5.046875 0zm3.140625 -2.578125q0 0.40625 0.25 0.6875q0.25 0.265625 0.765625 0.265625q0.5 0 0.75 -0.265625q0.25 -0.28125 0.25 -0.6875q0 -0.234375 -0.078125 -0.421875q-0.0625 -0.1875 -0.203125 -0.328125q-0.125 -0.109375 -0.3125 -0.171875q-0.171875 -0.078125 -0.40625 -0.078125q-0.25 0 -0.4375 0.078125q-0.171875 0.0625 -0.296875 0.171875q-0.140625 0.140625 -0.21875 0.34375q-0.0625 0.1875 -0.0625 0.40625zm7.4924316 7.421875l0 0.203125q0 1.046875 0.265625 1.96875q0.28125 0.90625 0.78125 1.59375q0.5 0.671875 1.234375 1.0625q0.734375 0.375 1.625 0.375q0.546875 0 1.0 -0.125q0.46875 -0.109375 0.859375 -0.3125q0.234375 -0.140625 0.453125 -0.3125q0.21875 -0.1875 0.40625 -0.40625l0 0.84375q0 0.640625 -0.1875 1.125q-0.171875 0.5 -0.515625 0.828125q-0.34375 0.328125 -0.828125 0.5q-0.484375 0.171875 -1.078125 0.171875q-0.34375 0 -0.6875 -0.0625q-0.328125 -0.0625 -0.671875 -0.21875q-0.328125 -0.15625 -0.65625 -0.421875q-0.328125 -0.25 -0.640625 -0.625l-0.875 1.0q0.34375 0.484375 0.8125 0.8125q0.46875 0.328125 0.96875 0.515625q0.5 0.203125 0.984375 0.28125q0.5 0.09375 0.890625 0.09375q0.921875 0 1.6875 -0.28125q0.765625 -0.265625 1.328125 -0.78125q0.546875 -0.53125 0.84375 -1.296875q0.3125 -0.75 0.3125 -1.71875l0 -9.65625l-1.53125 0l-0.078125 1.078125q-0.171875 -0.21875 -0.375 -0.390625q-0.1875 -0.1875 -0.40625 -0.328125q-0.40625 -0.265625 -0.90625 -0.390625q-0.5 -0.140625 -1.09375 -0.140625q-0.90625 0 -1.640625 0.375q-0.734375 0.359375 -1.234375 1.03125q-0.515625 0.65625 -0.78125 1.59375q-0.265625 0.921875 -0.265625 2.015625zm1.671875 0.203125l0 -0.203125q0 -0.71875 0.15625 -1.359375q0.15625 -0.65625 0.484375 -1.15625q0.3125 -0.5 0.8125 -0.78125q0.515625 -0.296875 1.21875 -0.296875q0.421875 0 0.765625 0.109375q0.34375 0.09375 0.625 0.28125q0.296875 0.1875 0.515625 0.453125q0.21875 0.25 0.375 0.5625l0 4.515625q-0.15625 0.3125 -0.375 0.578125q-0.21875 0.265625 -0.5 0.453125q-0.28125 0.203125 -0.640625 0.3125q-0.34375 0.09375 -0.78125 0.09375q-0.703125 0 -1.203125 -0.28125q-0.5 -0.296875 -0.8125 -0.78125q-0.328125 -0.5 -0.484375 -1.140625q-0.15625 -0.640625 -0.15625 -1.359375zm11.508118 -3.578125l0 -5.609375l-1.6875 0l0 14.0l1.6875 0l0 -7.15625q0.1875 -0.296875 0.421875 -0.53125q0.234375 -0.25 0.5 -0.421875q0.34375 -0.25 0.75 -0.375q0.421875 -0.125 0.875 -0.125q0.5625 -0.015625 0.984375 0.15625q0.421875 0.15625 0.703125 0.46875q0.265625 0.296875 0.40625 0.734375q0.140625 0.4375 0.140625 1.03125l0 6.21875l1.6875 0l0 -6.203125q0 -1.0 -0.25 -1.71875q-0.234375 -0.71875 -0.6875 -1.203125q-0.4375 -0.46875 -1.078125 -0.6875q-0.625 -0.21875 -1.40625 -0.21875q-0.59375 0 -1.125 0.171875q-0.515625 0.15625 -0.953125 0.484375q-0.265625 0.1875 -0.515625 0.4375q-0.25 0.25 -0.453125 0.546875zm13.508057 -3.859375l-1.703125 0l0 2.390625l-2.578125 0l0 1.3125l2.578125 0l0 5.34375q0 0.921875 0.234375 1.5625q0.25 0.640625 0.671875 1.046875q0.421875 0.40625 0.984375 0.59375q0.578125 0.1875 1.234375 0.1875q0.390625 0 0.78125 -0.046875q0.40625 -0.03125 0.75 -0.109375q0.359375 -0.0625 0.65625 -0.15625q0.296875 -0.09375 0.515625 -0.21875l-0.234375 -1.203125q-0.15625 0.046875 -0.40625 0.09375q-0.234375 0.046875 -0.515625 0.09375q-0.28125 0.046875 -0.578125 0.078125q-0.28125 0.03125 -0.546875 0.03125q-0.375 0 -0.71875 -0.09375q-0.328125 -0.09375 -0.578125 -0.3125q-0.265625 -0.21875 -0.40625 -0.59375q-0.140625 -0.375 -0.140625 -0.953125l0 -5.34375l3.75 0l0 -1.3125l-3.75 0l0 -2.390625z" fill-rule="nonzero"/><path fill="#000000" fill-opacity="0.0" d="m635.74426 87.81984l0 0l0 24.604752l0 0l0 -24.604752z" fill-rule="nonzero"/><path fill="#000000" fill-opacity="0.0" d="m0 57.095802l453.82678 0l0 42.015747l-453.82678 0z" fill-rule="evenodd"/><path fill="#efefef" d="m9.0 66.0958l324.6715 0l0 22.399994l-324.6715 0l0 -22.399994z" fill-rule="nonzero"/><path fill="#000000" fill-opacity="0.0" d="m9.0 64.46682l324.6715 0l0 24.604752l-324.6715 0l0 -24.604752z" fill-rule="nonzero"/><path fill="#000000" d="m18.9375 79.2033l0 -0.203125q0 -0.765625 -0.125 -1.453125q-0.125 -0.703125 -0.375 -1.28125q-0.234375 -0.515625 -0.546875 -0.921875q-0.3125 -0.421875 -0.703125 -0.703125q-0.4375 -0.3125 -0.984375 -0.484375q-0.53125 -0.171875 -1.15625 -0.171875q-0.515625 0 -0.953125 0.09375q-0.4375 0.09375 -0.796875 0.296875q-0.296875 0.15625 -0.5625 0.375q-0.25 0.203125 -0.453125 0.46875l0 -5.203125l-1.6875 0l0 14.0l1.546875 0l0.078125 -1.125q0.171875 0.21875 0.34375 0.390625q0.1875 0.171875 0.390625 0.3125q0.421875 0.296875 0.9375 0.453125q0.53125 0.15625 1.171875 0.15625q0.546875 0 1.015625 -0.140625q0.484375 -0.140625 0.890625 -0.390625q0.5625 -0.34375 0.953125 -0.890625q0.390625 -0.546875 0.640625 -1.21875q0.1875 -0.53125 0.28125 -1.125q0.09375 -0.59375 0.09375 -1.234375zm-1.6875 -0.203125l0 0.203125q0 0.4375 -0.0625 0.859375q-0.046875 0.40625 -0.15625 0.78125q-0.15625 0.46875 -0.40625 0.875q-0.234375 0.390625 -0.609375 0.640625q-0.265625 0.203125 -0.609375 0.3125q-0.34375 0.09375 -0.765625 0.09375q-0.4375 0 -0.8125 -0.109375q-0.359375 -0.109375 -0.640625 -0.328125q-0.296875 -0.203125 -0.53125 -0.484375q-0.21875 -0.28125 -0.375 -0.609375l0 -4.3125q0.15625 -0.328125 0.375 -0.59375q0.21875 -0.28125 0.515625 -0.5q0.28125 -0.1875 0.640625 -0.296875q0.375 -0.125 0.8125 -0.125q0.390625 0 0.71875 0.09375q0.328125 0.09375 0.59375 0.25q0.390625 0.234375 0.65625 0.640625q0.265625 0.390625 0.421875 0.875q0.125 0.390625 0.171875 0.84375q0.0625 0.4375 0.0625 0.890625zm11.008072 5.015625l1.75 0l0 -0.140625q-0.15625 -0.421875 -0.25 -0.96875q-0.09375 -0.546875 -0.09375 -1.046875l0 -4.578125q0 -0.828125 -0.296875 -1.4375q-0.296875 -0.625 -0.8125 -1.046875q-0.53125 -0.40625 -1.25 -0.609375q-0.71875 -0.203125 -1.5625 -0.203125q-0.921875 0 -1.65625 0.25q-0.71875 0.25 -1.21875 0.65625q-0.5 0.421875 -0.78125 0.953125q-0.265625 0.515625 -0.265625 1.046875l1.6875 0q0 -0.3125 0.140625 -0.59375q0.15625 -0.28125 0.4375 -0.5q0.265625 -0.203125 0.65625 -0.328125q0.40625 -0.140625 0.90625 -0.140625q0.546875 0 0.96875 0.140625q0.4375 0.140625 0.734375 0.390625q0.296875 0.25 0.453125 0.609375q0.171875 0.34375 0.171875 0.796875l0 0.78125l-1.828125 0q-1.03125 0 -1.875 0.203125q-0.828125 0.1875 -1.421875 0.59375q-0.59375 0.40625 -0.921875 1.015625q-0.3125 0.609375 -0.3125 1.421875q0 0.625 0.234375 1.15625q0.25 0.53125 0.6875 0.90625q0.4375 0.40625 1.0625 0.640625q0.640625 0.21875 1.4375 0.21875q0.46875 0 0.890625 -0.109375q0.4375 -0.09375 0.828125 -0.265625q0.375 -0.171875 0.6875 -0.390625q0.3125 -0.234375 0.5625 -0.5q0.03125 0.3125 0.09375 0.609375q0.0625 0.28125 0.15625 0.46875zm-2.984375 -1.28125q-0.484375 0 -0.859375 -0.125q-0.375 -0.140625 -0.625 -0.359375q-0.234375 -0.21875 -0.359375 -0.53125q-0.125 -0.3125 -0.125 -0.671875q0 -0.390625 0.140625 -0.6875q0.140625 -0.296875 0.40625 -0.515625q0.390625 -0.3125 1.03125 -0.453125q0.65625 -0.15625 1.53125 -0.15625l1.5625 0l0 2.0q-0.140625 0.28125 -0.40625 0.5625q-0.25 0.265625 -0.59375 0.46875q-0.34375 0.203125 -0.78125 0.34375q-0.421875 0.125 -0.921875 0.125zm11.898697 0.09375q-0.796875 0 -1.328125 -0.3125q-0.53125 -0.3125 -0.84375 -0.828125q-0.328125 -0.5 -0.46875 -1.125q-0.140625 -0.640625 -0.140625 -1.28125l0 -0.390625q0 -0.625 0.140625 -1.25q0.140625 -0.640625 0.46875 -1.15625q0.328125 -0.5 0.859375 -0.8125q0.53125 -0.3125 1.3125 -0.3125q0.515625 0 0.953125 0.171875q0.4375 0.171875 0.765625 0.484375q0.3125 0.296875 0.5 0.6875q0.1875 0.390625 0.203125 0.84375l1.59375 0q0 -0.75 -0.3125 -1.40625q-0.296875 -0.65625 -0.828125 -1.140625q-0.53125 -0.46875 -1.265625 -0.734375q-0.734375 -0.28125 -1.609375 -0.28125q-1.109375 0 -1.953125 0.40625q-0.84375 0.390625 -1.390625 1.0625q-0.5625 0.6875 -0.859375 1.578125q-0.28125 0.890625 -0.28125 1.859375l0 0.390625q0 0.984375 0.28125 1.875q0.296875 0.875 0.859375 1.5625q0.546875 0.671875 1.390625 1.078125q0.84375 0.40625 1.953125 0.40625q0.78125 0 1.5 -0.265625q0.71875 -0.28125 1.28125 -0.734375q0.5625 -0.4375 0.890625 -1.03125q0.328125 -0.609375 0.34375 -1.265625l-1.59375 0q-0.015625 0.40625 -0.21875 0.765625q-0.203125 0.34375 -0.546875 0.609375q-0.328125 0.265625 -0.765625 0.40625q-0.4375 0.140625 -0.890625 0.140625zm9.945572 -3.40625l3.625 4.59375l2.140625 0l-4.609375 -5.75l4.0 -4.109375l-2.046875 0l-3.234375 3.25l-1.109375 1.1875l0 -8.578125l-1.6875 0l0 14.0l1.6875 0l0 -3.40625l1.234375 -1.1875zm7.945572 -0.421875l0 0.203125q0 1.046875 0.265625 1.96875q0.28125 0.90625 0.78125 1.59375q0.5 0.671875 1.234375 1.0625q0.734375 0.375 1.625 0.375q0.546875 0 1.0 -0.125q0.46875 -0.109375 0.859375 -0.3125q0.234375 -0.140625 0.453125 -0.3125q0.21875 -0.1875 0.40625 -0.40625l0 0.84375q0 0.640625 -0.1875 1.125q-0.171875 0.5 -0.515625 0.828125q-0.34375 0.328125 -0.828125 0.5q-0.484375 0.171875 -1.078125 0.171875q-0.34375 0 -0.6875 -0.0625q-0.328125 -0.0625 -0.671875 -0.21875q-0.328125 -0.15625 -0.65625 -0.421875q-0.328125 -0.25 -0.640625 -0.625l-0.875 1.0q0.34375 0.484375 0.8125 0.8125q0.46875 0.328125 0.96875 0.515625q0.5 0.203125 0.984375 0.28125q0.5 0.09375 0.890625 0.09375q0.921875 0 1.6875 -0.28125q0.765625 -0.265625 1.328125 -0.78125q0.546875 -0.53125 0.84375 -1.296875q0.3125 -0.75 0.3125 -1.71875l0 -9.65625l-1.53125 0l-0.078125 1.078125q-0.171875 -0.21875 -0.375 -0.390625q-0.1875 -0.1875 -0.40625 -0.328125q-0.40625 -0.265625 -0.90625 -0.390625q-0.5 -0.140625 -1.09375 -0.140625q-0.90625 0 -1.640625 0.375q-0.734375 0.359375 -1.234375 1.03125q-0.515625 0.65625 -0.78125 1.59375q-0.265625 0.921875 -0.265625 2.015625zm1.671875 0.203125l0 -0.203125q0 -0.71875 0.15625 -1.359375q0.15625 -0.65625 0.484375 -1.15625q0.3125 -0.5 0.8125 -0.78125q0.515625 -0.296875 1.21875 -0.296875q0.421875 0 0.765625 0.109375q0.34375 0.09375 0.625 0.28125q0.296875 0.1875 0.515625 0.453125q0.21875 0.25 0.375 0.5625l0 4.515625q-0.15625 0.3125 -0.375 0.578125q-0.21875 0.265625 -0.5 0.453125q-0.28125 0.203125 -0.640625 0.3125q-0.34375 0.09375 -0.78125 0.09375q-0.703125 0 -1.203125 -0.28125q-0.5 -0.296875 -0.8125 -0.78125q-0.328125 -0.5 -0.484375 -1.140625q-0.15625 -0.640625 -0.15625 -1.359375zm16.289322 -5.21875q-1.078125 0 -1.921875 0.46875q-0.84375 0.46875 -1.4375 1.265625l-0.015625 -0.234375l-0.078125 -1.328125l-1.59375 0l0 9.859375l1.6875 0l0 -6.328125q0.171875 -0.453125 0.421875 -0.8125q0.25 -0.375 0.578125 -0.625q0.375 -0.296875 0.875 -0.4375q0.5 -0.15625 1.125 -0.15625q0.484375 0 0.921875 0.046875q0.453125 0.046875 0.9375 0.15625l0.234375 -1.640625q-0.265625 -0.109375 -0.765625 -0.171875q-0.5 -0.0625 -0.96875 -0.0625zm4.258072 5.015625l0 0.203125q0 1.0625 0.3125 1.96875q0.3125 0.90625 0.890625 1.59375q0.578125 0.671875 1.40625 1.0625q0.84375 0.375 1.890625 0.375q1.03125 0 1.859375 -0.375q0.828125 -0.390625 1.40625 -1.0625q0.578125 -0.6875 0.890625 -1.59375q0.3125 -0.90625 0.3125 -1.96875l0 -0.203125q0 -1.0625 -0.3125 -1.984375q-0.3125 -0.921875 -0.890625 -1.59375q-0.578125 -0.671875 -1.421875 -1.046875q-0.828125 -0.390625 -1.875 -0.390625q-1.03125 0 -1.859375 0.390625q-0.828125 0.375 -1.40625 1.046875q-0.578125 0.671875 -0.890625 1.59375q-0.3125 0.921875 -0.3125 1.984375zm1.6875 0.203125l0 -0.203125q0 -0.71875 0.171875 -1.375q0.171875 -0.671875 0.53125 -1.171875q0.34375 -0.5 0.859375 -0.796875q0.515625 -0.296875 1.21875 -0.296875q0.703125 0 1.21875 0.296875q0.53125 0.296875 0.890625 0.796875q0.34375 0.5 0.515625 1.171875q0.1875 0.65625 0.1875 1.375l0 0.203125q0 0.71875 -0.171875 1.390625q-0.171875 0.65625 -0.515625 1.15625q-0.359375 0.5 -0.890625 0.796875q-0.515625 0.28125 -1.203125 0.28125q-0.703125 0 -1.234375 -0.28125q-0.53125 -0.296875 -0.875 -0.796875q-0.359375 -0.5 -0.53125 -1.15625q-0.171875 -0.671875 -0.171875 -1.390625zm16.476822 4.8125l1.53125 0l0 -9.859375l-1.6875 0l0 7.078125q-0.140625 0.3125 -0.34375 0.578125q-0.203125 0.265625 -0.484375 0.46875q-0.328125 0.234375 -0.78125 0.375q-0.4375 0.125 -1.0 0.125q-0.484375 0 -0.859375 -0.125q-0.359375 -0.140625 -0.625 -0.453125q-0.25 -0.3125 -0.375 -0.828125q-0.125 -0.53125 -0.125 -1.34375l0 -5.875l-1.6875 0l0 5.859375q0 1.109375 0.234375 1.890625q0.25 0.78125 0.6875 1.296875q0.453125 0.515625 1.078125 0.765625q0.625 0.234375 1.40625 0.234375q0.96875 0 1.703125 -0.40625q0.734375 -0.40625 1.234375 -1.140625l0.09375 1.359375zm4.695572 0l1.6875 0l0 -7.0625q0.171875 -0.328125 0.40625 -0.59375q0.234375 -0.265625 0.515625 -0.453125q0.328125 -0.234375 0.71875 -0.359375q0.40625 -0.140625 0.875 -0.140625q0.546875 0 0.953125 0.125q0.421875 0.125 0.703125 0.40625q0.28125 0.296875 0.421875 0.75q0.15625 0.453125 0.15625 1.109375l0 6.21875l1.6875 0l0 -6.265625q0 -0.96875 -0.25 -1.6875q-0.234375 -0.71875 -0.6875 -1.1875q-0.4375 -0.453125 -1.078125 -0.671875q-0.625 -0.21875 -1.40625 -0.21875q-0.5625 0 -1.078125 0.171875q-0.515625 0.15625 -0.953125 0.4375q-0.296875 0.1875 -0.5625 0.453125q-0.25 0.265625 -0.46875 0.5625l-0.125 -1.453125l-1.515625 0l0 9.859375zm10.883072 -5.015625l0 0.203125q0 1.046875 0.28125 1.96875q0.28125 0.90625 0.796875 1.59375q0.5 0.671875 1.21875 1.0625q0.734375 0.375 1.625 0.375q0.921875 0 1.59375 -0.3125q0.6875 -0.3125 1.1875 -0.90625l0.0625 1.03125l1.546875 0l0 -14.0l-1.6875 0l0 5.125q-0.46875 -0.578125 -1.140625 -0.859375q-0.65625 -0.296875 -1.546875 -0.296875q-0.890625 0 -1.625 0.375q-0.734375 0.359375 -1.234375 1.03125q-0.515625 0.65625 -0.796875 1.59375q-0.28125 0.921875 -0.28125 2.015625zm1.6875 0.203125l0 -0.203125q0 -0.71875 0.15625 -1.359375q0.15625 -0.65625 0.484375 -1.15625q0.3125 -0.5 0.8125 -0.78125q0.515625 -0.296875 1.21875 -0.296875q0.828125 0 1.375 0.390625q0.5625 0.390625 0.890625 0.984375l0 4.578125q-0.328125 0.640625 -0.890625 1.03125q-0.546875 0.375 -1.390625 0.375q-0.703125 0 -1.203125 -0.28125q-0.5 -0.296875 -0.8125 -0.78125q-0.328125 -0.5 -0.484375 -1.140625q-0.15625 -0.640625 -0.15625 -1.359375zm17.195572 -0.296875l0 -1.390625l-6.96875 0l0 1.390625l6.96875 0zm3.820572 8.90625l1.6875 0l0 -4.75q0.171875 0.203125 0.375 0.375q0.21875 0.171875 0.453125 0.3125q0.390625 0.21875 0.875 0.328125q0.5 0.125 1.0625 0.125q0.921875 0 1.640625 -0.375q0.734375 -0.390625 1.234375 -1.0625q0.484375 -0.6875 0.734375 -1.59375q0.265625 -0.921875 0.265625 -1.96875l0 -0.203125q0 -1.09375 -0.265625 -2.015625q-0.25 -0.9375 -0.734375 -1.59375q-0.5 -0.671875 -1.234375 -1.03125q-0.71875 -0.375 -1.671875 -0.375q-0.53125 0 -1.0 0.109375q-0.46875 0.109375 -0.859375 0.328125q-0.265625 0.140625 -0.515625 0.359375q-0.234375 0.203125 -0.421875 0.453125l-0.09375 -1.078125l-1.53125 0l0 13.65625zm6.640625 -8.8125l0 0.203125q0 0.71875 -0.171875 1.375q-0.15625 0.65625 -0.484375 1.15625q-0.328125 0.5 -0.84375 0.796875q-0.5 0.296875 -1.203125 0.296875q-0.4375 0 -0.796875 -0.109375q-0.359375 -0.109375 -0.640625 -0.3125q-0.265625 -0.15625 -0.46875 -0.390625q-0.1875 -0.234375 -0.34375 -0.515625l0 -4.75q0.171875 -0.296875 0.390625 -0.546875q0.234375 -0.265625 0.53125 -0.4375q0.265625 -0.171875 0.59375 -0.265625q0.328125 -0.09375 0.71875 -0.09375q0.71875 0 1.21875 0.296875q0.515625 0.28125 0.84375 0.78125q0.328125 0.5 0.484375 1.15625q0.171875 0.640625 0.171875 1.359375zm4.086197 0l0 0.203125q0 1.0625 0.3125 1.96875q0.3125 0.90625 0.890625 1.59375q0.578125 0.671875 1.40625 1.0625q0.84375 0.375 1.890625 0.375q1.03125 0 1.859375 -0.375q0.828125 -0.390625 1.40625 -1.0625q0.578125 -0.6875 0.890625 -1.59375q0.3125 -0.90625 0.3125 -1.96875l0 -0.203125q0 -1.0625 -0.3125 -1.984375q-0.3125 -0.921875 -0.890625 -1.59375q-0.578125 -0.671875 -1.421875 -1.046875q-0.828125 -0.390625 -1.875 -0.390625q-1.03125 0 -1.859375 0.390625q-0.828125 0.375 -1.40625 1.046875q-0.578125 0.671875 -0.890625 1.59375q-0.3125 0.921875 -0.3125 1.984375zm1.6875 0.203125l0 -0.203125q0 -0.71875 0.171875 -1.375q0.171875 -0.671875 0.53125 -1.171875q0.34375 -0.5 0.859375 -0.796875q0.515625 -0.296875 1.21875 -0.296875q0.703125 0 1.21875 0.296875q0.53125 0.296875 0.890625 0.796875q0.34375 0.5 0.515625 1.171875q0.1875 0.65625 0.1875 1.375l0 0.203125q0 0.71875 -0.171875 1.390625q-0.171875 0.65625 -0.515625 1.15625q-0.359375 0.5 -0.890625 0.796875q-0.515625 0.28125 -1.203125 0.28125q-0.703125 0 -1.234375 -0.28125q-0.53125 -0.296875 -0.875 -0.796875q-0.359375 -0.5 -0.53125 -1.15625q-0.171875 -0.671875 -0.171875 -1.390625zm16.539322 2.203125q0 0.234375 -0.09375 0.453125q-0.09375 0.203125 -0.265625 0.375q-0.28125 0.28125 -0.78125 0.4375q-0.5 0.15625 -1.171875 0.15625q-0.4375 0 -0.875 -0.078125q-0.4375 -0.09375 -0.796875 -0.3125q-0.359375 -0.21875 -0.609375 -0.578125q-0.234375 -0.359375 -0.265625 -0.875l-1.6875 0q0 0.625 0.28125 1.21875q0.296875 0.578125 0.84375 1.015625q0.53125 0.4375 1.3125 0.71875q0.78125 0.265625 1.796875 0.265625q0.875 0 1.609375 -0.203125q0.734375 -0.21875 1.265625 -0.609375q0.53125 -0.375 0.8125 -0.90625q0.296875 -0.546875 0.296875 -1.203125q0 -0.609375 -0.265625 -1.0625q-0.25 -0.46875 -0.734375 -0.828125q-0.5 -0.34375 -1.21875 -0.59375q-0.71875 -0.25 -1.625 -0.453125q-0.6875 -0.125 -1.140625 -0.265625q-0.453125 -0.15625 -0.71875 -0.34375q-0.28125 -0.171875 -0.390625 -0.40625q-0.109375 -0.234375 -0.109375 -0.515625q0 -0.28125 0.140625 -0.546875q0.140625 -0.265625 0.40625 -0.46875q0.265625 -0.203125 0.671875 -0.3125q0.40625 -0.125 0.953125 -0.125q0.515625 0 0.921875 0.15625q0.421875 0.140625 0.71875 0.375q0.28125 0.234375 0.4375 0.546875q0.171875 0.296875 0.171875 0.625l1.6875 0q0 -0.65625 -0.28125 -1.21875q-0.265625 -0.5625 -0.78125 -0.96875q-0.515625 -0.421875 -1.25 -0.65625q-0.71875 -0.234375 -1.625 -0.234375q-0.859375 0 -1.5625 0.234375q-0.703125 0.21875 -1.21875 0.609375q-0.5 0.390625 -0.78125 0.921875q-0.28125 0.515625 -0.28125 1.109375q0 0.609375 0.265625 1.078125q0.28125 0.453125 0.78125 0.796875q0.484375 0.34375 1.171875 0.59375q0.703125 0.234375 1.5625 0.421875q0.6875 0.125 1.140625 0.296875q0.46875 0.171875 0.75 0.375q0.28125 0.203125 0.40625 0.4375q0.125 0.234375 0.125 0.546875zm4.898697 -7.25l0 1.46875l3.359375 0l0 6.9375l-3.359375 0l0 1.453125l8.265625 0l0 -1.453125l-3.21875 0l0 -8.40625l-5.046875 0zm3.140625 -2.578125q0 0.40625 0.25 0.6875q0.25 0.265625 0.765625 0.265625q0.5 0 0.75 -0.265625q0.25 -0.28125 0.25 -0.6875q0 -0.234375 -0.078125 -0.421875q-0.0625 -0.1875 -0.203125 -0.328125q-0.125 -0.109375 -0.3125 -0.171875q-0.171875 -0.078125 -0.40625 -0.078125q-0.25 0 -0.4375 0.078125q-0.171875 0.0625 -0.296875 0.171875q-0.140625 0.140625 -0.21875 0.34375q-0.0625 0.1875 -0.0625 0.40625zm11.789322 0.1875l-1.703125 0l0 2.390625l-2.578125 0l0 1.3125l2.578125 0l0 5.34375q0 0.921875 0.234375 1.5625q0.25 0.640625 0.671875 1.046875q0.421875 0.40625 0.984375 0.59375q0.578125 0.1875 1.234375 0.1875q0.390625 0 0.78125 -0.046875q0.40625 -0.03125 0.75 -0.109375q0.359375 -0.0625 0.65625 -0.15625q0.296875 -0.09375 0.515625 -0.21875l-0.234375 -1.203125q-0.15625 0.046875 -0.40625 0.09375q-0.234375 0.046875 -0.515625 0.09375q-0.28125 0.046875 -0.578125 0.078125q-0.28125 0.03125 -0.546875 0.03125q-0.375 0 -0.71875 -0.09375q-0.328125 -0.09375 -0.578125 -0.3125q-0.265625 -0.21875 -0.40625 -0.59375q-0.140625 -0.375 -0.140625 -0.953125l0 -5.34375l3.75 0l0 -1.3125l-3.75 0l0 -2.390625zm7.461197 2.390625l0 1.46875l3.359375 0l0 6.9375l-3.359375 0l0 1.453125l8.265625 0l0 -1.453125l-3.21875 0l0 -8.40625l-5.046875 0zm3.140625 -2.578125q0 0.40625 0.25 0.6875q0.25 0.265625 0.765625 0.265625q0.5 0 0.75 -0.265625q0.25 -0.28125 0.25 -0.6875q0 -0.234375 -0.078125 -0.421875q-0.0625 -0.1875 -0.203125 -0.328125q-0.125 -0.109375 -0.3125 -0.171875q-0.171875 -0.078125 -0.40625 -0.078125q-0.25 0 -0.4375 0.078125q-0.171875 0.0625 -0.296875 0.171875q-0.140625 0.140625 -0.21875 0.34375q-0.0625 0.1875 -0.0625 0.40625zm7.320572 7.421875l0 0.203125q0 1.0625 0.3125 1.96875q0.3125 0.90625 0.890625 1.59375q0.578125 0.671875 1.40625 1.0625q0.84375 0.375 1.890625 0.375q1.03125 0 1.859375 -0.375q0.828125 -0.390625 1.40625 -1.0625q0.578125 -0.6875 0.890625 -1.59375q0.3125 -0.90625 0.3125 -1.96875l0 -0.203125q0 -1.0625 -0.3125 -1.984375q-0.3125 -0.921875 -0.890625 -1.59375q-0.578125 -0.671875 -1.421875 -1.046875q-0.828125 -0.390625 -1.875 -0.390625q-1.03125 0 -1.859375 0.390625q-0.828125 0.375 -1.40625 1.046875q-0.578125 0.671875 -0.890625 1.59375q-0.3125 0.921875 -0.3125 1.984375zm1.6875 0.203125l0 -0.203125q0 -0.71875 0.171875 -1.375q0.171875 -0.671875 0.53125 -1.171875q0.34375 -0.5 0.859375 -0.796875q0.515625 -0.296875 1.21875 -0.296875q0.703125 0 1.21875 0.296875q0.53125 0.296875 0.890625 0.796875q0.34375 0.5 0.515625 1.171875q0.1875 0.65625 0.1875 1.375l0 0.203125q0 0.71875 -0.171875 1.390625q-0.171875 0.65625 -0.515625 1.15625q-0.359375 0.5 -0.890625 0.796875q-0.515625 0.28125 -1.203125 0.28125q-0.703125 0 -1.234375 -0.28125q-0.53125 -0.296875 -0.875 -0.796875q-0.359375 -0.5 -0.53125 -1.15625q-0.171875 -0.671875 -0.171875 -1.390625zm9.976822 4.8125l1.6875 0l0 -7.0625q0.171875 -0.328125 0.40625 -0.59375q0.234375 -0.265625 0.515625 -0.453125q0.328125 -0.234375 0.71875 -0.359375q0.40625 -0.140625 0.875 -0.140625q0.546875 0 0.953125 0.125q0.421875 0.125 0.703125 0.40625q0.28125 0.296875 0.421875 0.75q0.15625 0.453125 0.15625 1.109375l0 6.21875l1.6875 0l0 -6.265625q0 -0.96875 -0.25 -1.6875q-0.234375 -0.71875 -0.6875 -1.1875q-0.4375 -0.453125 -1.078125 -0.671875q-0.625 -0.21875 -1.40625 -0.21875q-0.5625 0 -1.078125 0.171875q-0.515625 0.15625 -0.953125 0.4375q-0.296875 0.1875 -0.5625 0.453125q-0.25 0.265625 -0.46875 0.5625l-0.125 -1.453125l-1.515625 0l0 9.859375zm14.586197 -1.09375q0 0.53125 0.328125 0.90625q0.34375 0.359375 1.0 0.359375q0.640625 0 0.984375 -0.359375q0.34375 -0.375 0.34375 -0.90625q0 -0.546875 -0.34375 -0.921875q-0.328125 -0.375 -0.984375 -0.375q-0.671875 0 -1.0 0.390625q-0.328125 0.375 -0.328125 0.90625zm0 -7.984375q0 0.53125 0.328125 0.90625q0.34375 0.359375 1.0 0.359375q0.640625 0 0.984375 -0.359375q0.34375 -0.375 0.34375 -0.90625q0 -0.546875 -0.34375 -0.921875q-0.328125 -0.375 -0.984375 -0.375q-0.671875 0 -1.0 0.390625q-0.328125 0.375 -0.328125 0.90625zm22.188019 2.921875l4.0 6.15625l2.0625 0l-4.953125 -7.453125l4.640625 -5.8125l-2.046875 0l-3.890625 4.875l-1.296875 1.609375l0 -6.484375l-1.71875 0l0 13.265625l1.71875 0l0 -4.484375l1.484375 -1.671875zm15.383072 1.046875l0 -1.390625l-6.96875 0l0 1.390625l6.96875 0zm4.523712 5.109375l1.734375 0l1.609375 -9.421875l0.109375 -0.578125l0.09375 0.5625l1.609375 9.4375l1.71875 0l1.609375 -13.265625l-1.59375 0l-0.953125 9.125l-0.0625 0.546875l-0.09375 -0.53125l-1.609375 -9.140625l-1.46875 0l-1.609375 9.125l-0.09375 0.546875l-0.0625 -0.53125l-0.953125 -9.140625l-1.59375 0l1.609375 13.265625zm19.133057 -5.859375l0 -1.515625q-0.015625 -0.71875 -0.140625 -1.4375q-0.109375 -0.734375 -0.34375 -1.40625q-0.25 -0.671875 -0.625 -1.25q-0.359375 -0.59375 -0.859375 -1.03125q-0.515625 -0.4375 -1.1875 -0.6875q-0.65625 -0.265625 -1.484375 -0.265625q-0.8125 0 -1.484375 0.265625q-0.65625 0.25 -1.15625 0.6875q-0.515625 0.4375 -0.890625 1.03125q-0.359375 0.578125 -0.59375 1.25q-0.25 0.6875 -0.375 1.40625q-0.109375 0.71875 -0.109375 1.4375l0 1.515625q0 0.703125 0.125 1.421875q0.125 0.71875 0.359375 1.390625q0.234375 0.671875 0.609375 1.265625q0.375 0.59375 0.890625 1.03125q0.515625 0.4375 1.171875 0.6875q0.65625 0.25 1.484375 0.25q0.8125 0 1.46875 -0.25q0.671875 -0.25 1.171875 -0.6875q0.515625 -0.4375 0.875 -1.015625q0.375 -0.59375 0.609375 -1.265625q0.234375 -0.671875 0.34375 -1.390625q0.125 -0.734375 0.140625 -1.4375zm-1.671875 -1.53125l0 1.53125q-0.015625 0.46875 -0.0625 0.984375q-0.046875 0.515625 -0.171875 1.015625q-0.140625 0.515625 -0.359375 0.984375q-0.203125 0.453125 -0.53125 0.796875q-0.328125 0.359375 -0.78125 0.578125q-0.453125 0.203125 -1.03125 0.203125q-0.59375 0 -1.046875 -0.203125q-0.4375 -0.21875 -0.765625 -0.578125q-0.328125 -0.34375 -0.546875 -0.8125q-0.21875 -0.46875 -0.359375 -0.96875q-0.140625 -0.5 -0.203125 -1.015625q-0.0625 -0.53125 -0.0625 -0.984375l0 -1.53125q0 -0.46875 0.0625 -0.984375q0.0625 -0.515625 0.203125 -1.03125q0.125 -0.5 0.34375 -0.953125q0.21875 -0.46875 0.546875 -0.8125q0.328125 -0.359375 0.765625 -0.5625q0.453125 -0.203125 1.03125 -0.203125q0.59375 0 1.03125 0.203125q0.453125 0.203125 0.78125 0.546875q0.328125 0.359375 0.546875 0.828125q0.21875 0.453125 0.359375 0.953125q0.125 0.5 0.171875 1.015625q0.0625 0.515625 0.078125 1.0zm8.617432 1.984375l2.609375 5.40625l1.78125 0l0 -0.109375l-2.8125 -5.671875q0.546875 -0.234375 1.0 -0.5625q0.46875 -0.34375 0.796875 -0.78125q0.328125 -0.4375 0.5 -0.96875q0.1875 -0.546875 0.1875 -1.1875q0 -1.0 -0.34375 -1.734375q-0.34375 -0.75 -0.953125 -1.25q-0.625 -0.484375 -1.453125 -0.734375q-0.8125 -0.25 -1.75 -0.265625l-3.875 0l0 13.265625l1.671875 0l0 -5.40625l2.640625 0zm-2.640625 -1.390625l0 -5.078125l2.203125 0q0.625 0 1.125 0.171875q0.515625 0.15625 0.890625 0.484375q0.375 0.328125 0.578125 0.8125q0.21875 0.46875 0.21875 1.109375q0 0.59375 -0.21875 1.0625q-0.21875 0.453125 -0.59375 0.78125q-0.375 0.3125 -0.875 0.484375q-0.5 0.15625 -1.078125 0.171875l-2.25 0zm9.273682 6.796875l3.078125 0q0.953125 -0.015625 1.78125 -0.234375q0.828125 -0.21875 1.484375 -0.625q0.609375 -0.390625 1.109375 -0.9375q0.5 -0.5625 0.828125 -1.25q0.328125 -0.65625 0.484375 -1.4375q0.171875 -0.78125 0.171875 -1.65625l0 -0.96875q0 -0.921875 -0.1875 -1.71875q-0.171875 -0.796875 -0.515625 -1.46875q-0.359375 -0.796875 -0.984375 -1.40625q-0.625 -0.609375 -1.4375 -0.984375q-0.59375 -0.265625 -1.28125 -0.40625q-0.6875 -0.15625 -1.453125 -0.171875l-3.078125 0l0 13.265625zm1.71875 -11.875l1.359375 0q0.625 0 1.15625 0.140625q0.53125 0.125 0.953125 0.359375q0.609375 0.328125 1.015625 0.84375q0.421875 0.515625 0.65625 1.15625q0.203125 0.484375 0.296875 1.0625q0.09375 0.5625 0.09375 1.1875l0 0.984375q0 0.609375 -0.09375 1.171875q-0.09375 0.5625 -0.265625 1.046875q-0.21875 0.59375 -0.578125 1.078125q-0.359375 0.46875 -0.84375 0.796875q-0.46875 0.3125 -1.078125 0.484375q-0.59375 0.171875 -1.3125 0.1875l-1.359375 0l0 -10.5zm24.156738 2.796875q0 0.53125 0.328125 0.90625q0.34375 0.359375 1.0 0.359375q0.640625 0 0.984375 -0.359375q0.34375 -0.375 0.34375 -0.90625q0 -0.546875 -0.34375 -0.921875q-0.328125 -0.375 -0.984375 -0.375q-0.671875 0 -1.0 0.390625q-0.328125 0.375 -0.328125 0.90625zm2.171875 8.6875l0 -1.609375l-1.828125 0l0 1.640625q0 0.765625 -0.1875 1.484375q-0.1875 0.71875 -0.625 1.359375l1.046875 0.578125q0.734375 -0.65625 1.15625 -1.609375q0.4375 -0.9375 0.4375 -1.84375z" fill-rule="nonzero"/><path fill="#000000" fill-opacity="0.0" d="m333.6715 64.46682l0 0l0 24.604752l0 0l0 -24.604752z" fill-rule="nonzero"/><path fill="#ff9900" fill-opacity="0.3483" d="m235.69029 24.505249l87.999985 0l0 38.771652l-87.999985 0z" fill-rule="evenodd"/><path fill="#666666" d="m253.63951 48.86525l-1.40625 0l0 -8.96875q-0.515625 0.484375 -1.34375 0.96875q-0.8125 0.484375 -1.46875 0.734375l0 -1.359375q1.171875 -0.5625 2.046875 -1.34375q0.890625 -0.796875 1.265625 -1.53125l0.90625 0l0 11.5zm3.4296722 -2.484375l1.390625 -0.21875q0.109375 0.84375 0.640625 1.296875q0.546875 0.4375 1.5 0.4375q0.96875 0 1.4375 -0.390625q0.46875 -0.40625 0.46875 -0.9375q0 -0.46875 -0.40625 -0.75q-0.296875 -0.1875 -1.4375 -0.46875q-1.546875 -0.390625 -2.15625 -0.671875q-0.59375 -0.296875 -0.90625 -0.796875q-0.296875 -0.5 -0.296875 -1.109375q0 -0.5625 0.25 -1.03125q0.25 -0.46875 0.6875 -0.78125q0.328125 -0.25 0.890625 -0.40625q0.578125 -0.171875 1.21875 -0.171875q0.984375 0 1.71875 0.28125q0.734375 0.28125 1.078125 0.765625q0.359375 0.46875 0.5 1.28125l-1.375 0.1875q-0.09375 -0.640625 -0.546875 -1.0q-0.453125 -0.359375 -1.265625 -0.359375q-0.96875 0 -1.390625 0.328125q-0.40625 0.3125 -0.40625 0.734375q0 0.28125 0.171875 0.5q0.171875 0.21875 0.53125 0.375q0.21875 0.078125 1.25 0.359375q1.484375 0.390625 2.078125 0.65625q0.59375 0.25 0.921875 0.734375q0.34375 0.484375 0.34375 1.203125q0 0.703125 -0.421875 1.328125q-0.40625 0.609375 -1.1875 0.953125q-0.765625 0.34375 -1.734375 0.34375q-1.625 0 -2.46875 -0.671875q-0.84375 -0.671875 -1.078125 -2.0zm11.625 1.21875l0.203125 1.25q-0.59375 0.125 -1.0625 0.125q-0.765625 0 -1.1875 -0.234375q-0.421875 -0.25 -0.59375 -0.640625q-0.171875 -0.40625 -0.171875 -1.671875l0 -4.765625l-1.03125 0l0 -1.09375l1.03125 0l0 -2.0625l1.40625 -0.84375l0 2.90625l1.40625 0l0 1.09375l-1.40625 0l0 4.84375q0 0.609375 0.0625 0.78125q0.078125 0.171875 0.25 0.28125q0.171875 0.09375 0.484375 0.09375q0.234375 0 0.609375 -0.0625zm8.125 1.265625l-3.15625 -8.296875l1.484375 0l1.78125 4.96875q0.296875 0.796875 0.53125 1.671875q0.1875 -0.65625 0.53125 -1.578125l1.84375 -5.0625l1.4375 0l-3.140625 8.296875l-1.3125 0zm11.109375 -1.03125q-0.78125 0.671875 -1.5 0.953125q-0.71875 0.265625 -1.546875 0.265625q-1.375 0 -2.109375 -0.671875q-0.734375 -0.671875 -0.734375 -1.703125q0 -0.609375 0.28125 -1.109375q0.28125 -0.515625 0.71875 -0.8125q0.453125 -0.3125 1.015625 -0.46875q0.421875 -0.109375 1.25 -0.203125q1.703125 -0.203125 2.515625 -0.484375q0 -0.296875 0 -0.375q0 -0.859375 -0.390625 -1.203125q-0.546875 -0.484375 -1.609375 -0.484375q-0.984375 0 -1.46875 0.359375q-0.46875 0.34375 -0.6875 1.21875l-1.375 -0.1875q0.1875 -0.875 0.609375 -1.421875q0.4375 -0.546875 1.25 -0.828125q0.8125 -0.296875 1.875 -0.296875q1.0625 0 1.71875 0.25q0.671875 0.25 0.984375 0.625q0.3125 0.375 0.4375 0.953125q0.078125 0.359375 0.078125 1.296875l0 1.875q0 1.96875 0.078125 2.484375q0.09375 0.515625 0.359375 1.0l-1.46875 0q-0.21875 -0.4375 -0.28125 -1.03125zm-0.109375 -3.140625q-0.765625 0.3125 -2.296875 0.53125q-0.875 0.125 -1.234375 0.28125q-0.359375 0.15625 -0.5625 0.46875q-0.1875 0.296875 -0.1875 0.65625q0 0.5625 0.421875 0.9375q0.4375 0.375 1.25 0.375q0.8125 0 1.4375 -0.34375q0.640625 -0.359375 0.9375 -0.984375q0.234375 -0.46875 0.234375 -1.40625l0 -0.515625zm3.5703125 4.171875l0 -11.453125l1.40625 0l0 11.453125l-1.40625 0zm9.0234375 0l0 -1.21875q-0.96875 1.40625 -2.640625 1.40625q-0.734375 0 -1.375 -0.28125q-0.625 -0.28125 -0.9375 -0.703125q-0.3125 -0.4375 -0.4375 -1.046875q-0.078125 -0.421875 -0.078125 -1.3125l0 -5.140625l1.40625 0l0 4.59375q0 1.109375 0.078125 1.484375q0.140625 0.5625 0.5625 0.875q0.4375 0.3125 1.0625 0.3125q0.640625 0 1.1875 -0.3125q0.5625 -0.328125 0.78125 -0.890625q0.234375 -0.5625 0.234375 -1.625l0 -4.4375l1.40625 0l0 8.296875l-1.25 0zm9.1328125 -2.671875l1.453125 0.171875q-0.34375 1.28125 -1.28125 1.984375q-0.921875 0.703125 -2.359375 0.703125q-1.828125 0 -2.890625 -1.125q-1.0625 -1.125 -1.0625 -3.140625q0 -2.09375 1.078125 -3.25q1.078125 -1.15625 2.796875 -1.15625q1.65625 0 2.703125 1.140625q1.0625 1.125 1.0625 3.171875q0 0.125 0 0.375l-6.1875 0q0.078125 1.375 0.765625 2.109375q0.703125 0.71875 1.734375 0.71875q0.78125 0 1.328125 -0.40625q0.546875 -0.40625 0.859375 -1.296875zm-4.609375 -2.28125l4.625 0q-0.09375 -1.046875 -0.53125 -1.5625q-0.671875 -0.8125 -1.734375 -0.8125q-0.96875 0 -1.640625 0.65625q-0.65625 0.640625 -0.71875 1.71875z" fill-rule="nonzero"/><path fill="#000000" fill-opacity="0.0" d="m356.0 -24.0l1.0078735 264.0" fill-rule="evenodd"/><path stroke="#666666" stroke-width="4.0" stroke-linejoin="round" stroke-linecap="butt" stroke-dasharray="16.0,12.0" d="m356.0 -24.0l1.0078735 264.0" fill-rule="evenodd"/></g></svg>