<svg version="1.1" viewBox="0.0 0.0 627.3018372703413 319.9711286089239" fill="none" stroke="none" stroke-linecap="square" stroke-miterlimit="10" xmlns:xlink="http://www.w3.org/1999/xlink" xmlns="http://www.w3.org/2000/svg"><clipPath id="p.0"><path d="m0 0l627.3018 0l0 319.97113l-627.3018 0l0 -319.97113z" clip-rule="nonzero"/></clipPath><g clip-path="url(#p.0)"><path fill="#000000" fill-opacity="0.0" d="m0 0l627.3018 0l0 319.97113l-627.3018 0z" fill-rule="evenodd"/><path fill="#000000" fill-opacity="0.0" d="m220.95801 45.12861l0 32.572144l188.50394 0l0 32.561714" fill-rule="evenodd"/><path stroke="#c2c2c2" stroke-width="2.0" stroke-miterlimit="8.0" stroke-linecap="butt" d="m220.95801 45.12861l0 32.572144l188.50394 0l0 32.561714" fill-rule="evenodd"/><path fill="#000000" fill-opacity="0.0" d="m37.55118 110.272964l0 -32.572136l183.40158 0l0 -32.56172" fill-rule="evenodd"/><path stroke="#c2c2c2" stroke-width="2.0" stroke-miterlimit="8.0" stroke-linecap="butt" d="m37.55118 110.272964l0 -32.572136l183.40158 0l0 -32.56172" fill-rule="evenodd"/><path fill="#000000" fill-opacity="0.0" d="m409.45407 148.72966l0 37.427826l113.00784 0l0 37.43831" fill-rule="evenodd"/><path stroke="#c2c2c2" stroke-width="2.0" stroke-miterlimit="8.0" stroke-linecap="butt" d="m409.45407 148.72966l0 37.427826l113.00784 0l0 37.43831" fill-rule="evenodd"/><path fill="#000000" fill-opacity="0.0" d="m314.86353 223.5853l0 -37.427826l94.58267 0l0 -37.43831" fill-rule="evenodd"/><path stroke="#c2c2c2" stroke-width="2.0" stroke-miterlimit="8.0" stroke-linecap="butt" d="m314.86353 223.5853l0 -37.427826l94.58267 0l0 -37.43831" fill-rule="evenodd"/><path fill="#000000" fill-opacity="0.0" d="m140.09186 6.671916l161.7323 0l0 38.45669l-161.7323 0z" fill-rule="evenodd"/><path stroke="#a72a1e" stroke-width="2.0" stroke-linejoin="round" stroke-linecap="butt" d="m140.09186 6.671916l161.7323 0l0 38.45669l-161.7323 0z" fill-rule="evenodd"/><path fill="#a72a1e" d="m185.68637 24.731514q-0.265625 -0.03125 -0.59375 -0.03125q-1.1875 0 -1.609375 1.0l0 5.0l-1.203125 0l0 -7.046875l1.171875 0l0.03125 0.8125q0.578125 -0.9375 1.671875 -0.9375q0.34375 0 0.53125 0.09375l0 1.109375zm0.66101074 2.390625q0 -1.046875 0.40625 -1.875q0.40625 -0.828125 1.125 -1.265625q0.734375 -0.453125 1.65625 -0.453125q1.4375 0 2.328125 1.0q0.890625 0.984375 0.890625 2.640625l0 0.09375q0 1.015625 -0.390625 1.84375q-0.390625 0.8125 -1.125 1.265625q-0.734375 0.453125 -1.6875 0.453125q-1.421875 0 -2.3125 -0.984375q-0.890625 -1.0 -0.890625 -2.640625l0 -0.078125zm1.203125 0.140625q0 1.171875 0.546875 1.875q0.546875 0.703125 1.453125 0.703125q0.921875 0 1.453125 -0.71875q0.546875 -0.71875 0.546875 -2.0q0 -1.171875 -0.546875 -1.890625q-0.546875 -0.71875 -1.46875 -0.71875q-0.890625 0 -1.4375 0.71875q-0.546875 0.703125 -0.546875 2.03125zm6.3980713 -0.140625q0 -1.046875 0.40625 -1.875q0.40625 -0.828125 1.125 -1.265625q0.734375 -0.453125 1.65625 -0.453125q1.4375 0 2.328125 1.0q0.890625 0.984375 0.890625 2.640625l0 0.09375q0 1.015625 -0.390625 1.84375q-0.390625 0.8125 -1.125 1.265625q-0.734375 0.453125 -1.6875 0.453125q-1.421875 0 -2.3125 -0.984375q-0.890625 -1.0 -0.890625 -2.640625l0 -0.078125zm1.203125 0.140625q0 1.171875 0.546875 1.875q0.546875 0.703125 1.453125 0.703125q0.921875 0 1.453125 -0.71875q0.546875 -0.71875 0.546875 -2.0q0 -1.171875 -0.546875 -1.890625q-0.546875 -0.71875 -1.46875 -0.71875q-0.890625 0 -1.4375 0.71875q-0.546875 0.703125 -0.546875 2.03125zm8.351196 -5.3125l0 1.703125l1.3125 0l0 0.9375l-1.3125 0l0 4.359375q0 0.421875 0.171875 0.640625q0.171875 0.21875 0.59375 0.21875q0.21875 0 0.578125 -0.078125l0 0.96875q-0.46875 0.125 -0.921875 0.125q-0.8125 0 -1.21875 -0.484375q-0.40625 -0.484375 -0.40625 -1.390625l0 -4.359375l-1.28125 0l0 -0.9375l1.28125 0l0 -1.703125l1.203125 0zm5.7313995 5.171875q0 -1.625 0.765625 -2.609375q0.765625 -0.984375 2.0 -0.984375q1.25 0 1.96875 0.84375l0 -3.671875l1.203125 0l0 10.0l-1.109375 0l-0.0625 -0.75q-0.71875 0.875 -2.0 0.875q-1.234375 0 -2.0 -1.0q-0.765625 -1.0 -0.765625 -2.609375l0 -0.09375zm1.203125 0.140625q0 1.1875 0.484375 1.875q0.5 0.671875 1.375 0.671875q1.140625 0 1.671875 -1.03125l0 -3.234375q-0.546875 -1.0 -1.65625 -1.0q-0.890625 0 -1.390625 0.6875q-0.484375 0.6875 -0.484375 2.03125zm7.9072266 3.4375l-1.203125 0l0 -7.046875l1.203125 0l0 7.046875zm-1.296875 -8.90625q0 -0.296875 0.171875 -0.5q0.1875 -0.203125 0.53125 -0.203125q0.359375 0 0.53125 0.203125q0.1875 0.203125 0.1875 0.5q0 0.296875 -0.1875 0.5q-0.171875 0.1875 -0.53125 0.1875q-0.34375 0 -0.53125 -0.1875q-0.171875 -0.203125 -0.171875 -0.5zm6.625046 2.9375q-0.265625 -0.03125 -0.59375 -0.03125q-1.1875 0 -1.609375 1.0l0 5.0l-1.203125 0l0 -7.046875l1.171875 0l0.03125 0.8125q0.578125 -0.9375 1.671875 -0.9375q0.34375 0 0.53125 0.09375l0 1.109375zm3.901886 6.09375q-1.421875 0 -2.328125 -0.9375q-0.890625 -0.9375 -0.890625 -2.515625l0 -0.21875q0 -1.046875 0.390625 -1.859375q0.40625 -0.828125 1.125 -1.296875q0.71875 -0.46875 1.5625 -0.46875q1.375 0 2.125 0.90625q0.765625 0.90625 0.765625 2.59375l0 0.5l-4.765625 0q0.015625 1.03125 0.59375 1.671875q0.59375 0.640625 1.484375 0.640625q0.640625 0 1.078125 -0.25q0.453125 -0.265625 0.78125 -0.6875l0.734375 0.5625q-0.875 1.359375 -2.65625 1.359375zm-0.140625 -6.3125q-0.734375 0 -1.234375 0.53125q-0.484375 0.53125 -0.609375 1.484375l3.53125 0l0 -0.078125q-0.046875 -0.921875 -0.5 -1.421875q-0.4375 -0.515625 -1.1875 -0.515625zm7.1079254 5.328125q0.640625 0 1.125 -0.390625q0.484375 -0.390625 0.53125 -0.96875l1.140625 0q-0.03125 0.609375 -0.421875 1.15625q-0.375 0.546875 -1.015625 0.875q-0.640625 0.3125 -1.359375 0.3125q-1.4375 0 -2.296875 -0.953125q-0.84375 -0.96875 -0.84375 -2.625l0 -0.203125q0 -1.03125 0.375 -1.828125q0.390625 -0.796875 1.09375 -1.234375q0.703125 -0.453125 1.671875 -0.453125q1.171875 0 1.953125 0.71875q0.796875 0.703125 0.84375 1.828125l-1.140625 0q-0.046875 -0.671875 -0.515625 -1.109375q-0.46875 -0.453125 -1.140625 -0.453125q-0.921875 0 -1.4375 0.671875q-0.5 0.65625 -0.5 1.90625l0 0.21875q0 1.21875 0.5 1.875q0.515625 0.65625 1.4375 0.65625zm5.7889404 -7.890625l0 1.703125l1.3125 0l0 0.9375l-1.3125 0l0 4.359375q0 0.421875 0.171875 0.640625q0.171875 0.21875 0.59375 0.21875q0.21875 0 0.578125 -0.078125l0 0.96875q-0.46875 0.125 -0.921875 0.125q-0.8125 0 -1.21875 -0.484375q-0.40625 -0.484375 -0.40625 -1.390625l0 -4.359375l-1.28125 0l0 -0.9375l1.28125 0l0 -1.703125l1.203125 0zm2.2704468 5.171875q0 -1.046875 0.40625 -1.875q0.40625 -0.828125 1.125 -1.265625q0.734375 -0.453125 1.65625 -0.453125q1.4375 0 2.328125 1.0q0.890625 0.984375 0.890625 2.640625l0 0.09375q0 1.015625 -0.390625 1.84375q-0.390625 0.8125 -1.125 1.265625q-0.734375 0.453125 -1.6875 0.453125q-1.421875 0 -2.3125 -0.984375q-0.890625 -1.0 -0.890625 -2.640625l0 -0.078125zm1.203125 0.140625q0 1.171875 0.546875 1.875q0.546875 0.703125 1.453125 0.703125q0.921875 0 1.453125 -0.71875q0.546875 -0.71875 0.546875 -2.0q0 -1.171875 -0.546875 -1.890625q-0.546875 -0.71875 -1.46875 -0.71875q-0.890625 0 -1.4375 0.71875q-0.546875 0.703125 -0.546875 2.03125zm10.116821 -2.53125q-0.265625 -0.03125 -0.59375 -0.03125q-1.1875 0 -1.609375 1.0l0 5.0l-1.203125 0l0 -7.046875l1.171875 0l0.03125 0.8125q0.578125 -0.9375 1.671875 -0.9375q0.34375 0 0.53125 0.09375l0 1.109375zm3.5334015 4.203125l1.640625 -5.28125l1.28125 0l-2.828125 8.140625q-0.65625 1.75 -2.09375 1.75l-0.21875 -0.015625l-0.453125 -0.09375l0 -0.96875l0.328125 0.03125q0.609375 0 0.953125 -0.25q0.34375 -0.25 0.5625 -0.90625l0.265625 -0.71875l-2.515625 -6.96875l1.3125 0l1.765625 5.28125z" fill-rule="nonzero"/><path fill="#000000" fill-opacity="0.0" d="m-3.425197 110.272964l81.95275 0l0 38.456696l-81.95275 0z" fill-rule="evenodd"/><path fill="#a72a1e" d="m8.824962 134.30132l-1.203125 0l0 -7.046875l1.203125 0l0 7.046875zm-1.296875 -8.90625q0 -0.296875 0.171875 -0.5q0.1875 -0.203125 0.53125 -0.203125q0.359375 0 0.53125 0.203125q0.1875 0.203125 0.1875 0.5q0 0.296875 -0.1875 0.5q-0.171875 0.1875 -0.53125 0.1875q-0.34375 0 -0.53125 -0.1875q-0.171875 -0.203125 -0.171875 -0.5zm4.359421 1.859375l0.046875 0.890625q0.796875 -1.015625 2.109375 -1.015625q2.234374 0 2.249999 2.515625l0 4.65625l-1.203124 0l0 -4.65625q-0.015625 -0.765625 -0.359375 -1.125q-0.328125 -0.375 -1.0625 -0.375q-0.578125 0 -1.03125 0.3125q-0.4375 0.3125 -0.6875 0.828125l0 5.015625l-1.203125 0l0 -7.046875l1.140625 0zm5.932021 3.46875q0 -1.625 0.765625 -2.609375q0.765625 -0.984375 2.0 -0.984375q1.25 0 1.96875 0.84375l0 -3.671875l1.203125 0l0 10.0l-1.109375 0l-0.0625 -0.75q-0.71875 0.875 -2.0 0.875q-1.234375 0 -2.0 -1.0q-0.765625 -1.0 -0.765625 -2.609375l0 -0.09375zm1.203125 0.140625q0 1.1875 0.484375 1.875q0.5 0.671875 1.375 0.671875q1.140625 0 1.671875 -1.03125l0 -3.234375q-0.546875 -1.0 -1.65625 -1.0q-0.890625 0 -1.390625 0.6875q-0.484375 0.6875 -0.484375 2.03125zm9.516602 3.5625q-1.421875 0 -2.328125 -0.9375q-0.890625 -0.9375 -0.890625 -2.515625l0 -0.21875q0 -1.046875 0.390625 -1.859375q0.40625 -0.828125 1.125 -1.296875q0.71875 -0.46875 1.5625 -0.46875q1.3750019 0 2.125002 0.90625q0.765625 0.90625 0.765625 2.59375l0 0.5l-4.765627 0q0.015625 1.03125 0.59375 1.671875q0.59375 0.640625 1.4843769 0.640625q0.640625 0 1.078125 -0.25q0.453125 -0.265625 0.78125 -0.6875l0.734375 0.5625q-0.875 1.359375 -2.656252 1.359375zm-0.140625 -6.3125q-0.734375 0 -1.234375 0.53125q-0.484375 0.53125 -0.609375 1.484375l3.531252 0l0 -0.078125q-0.046875 -0.921875 -0.5 -1.421875q-0.4375 -0.515625 -1.1875019 -0.515625zm6.6548023 1.71875l1.546875 -2.578125l1.40625 0l-2.296875 3.484375l2.375 3.5625l-1.390625 0l-1.625 -2.640625l-1.625 2.640625l-1.40625 0l2.375 -3.5625l-2.296875 -3.484375l1.390625 0l1.546875 2.578125zm4.2617493 3.84375q0 -0.3125 0.1875 -0.515625q0.1875 -0.21875 0.546875 -0.21875q0.375 0 0.5625 0.21875q0.203125 0.203125 0.203125 0.515625q0 0.296875 -0.203125 0.5q-0.1875 0.203125 -0.5625 0.203125q-0.359375 0 -0.546875 -0.203125q-0.1875 -0.203125 -0.1875 -0.5zm4.6796265 -5.5625q0.8125 -0.984375 2.09375 -0.984375q2.234375 0 2.25 2.515625l0 4.65625l-1.203125 0l0 -4.65625q-0.015625 -0.765625 -0.359375 -1.125q-0.328125 -0.375 -1.0625 -0.375q-0.578125 0 -1.03125 0.3125q-0.4375 0.3125 -0.6875 0.828125l0 5.015625l-1.203125 0l0 -10.0l1.203125 0l0 3.8125zm7.7783813 -2.5625l0 1.703125l1.3125 0l0 0.9375l-1.3125 0l0 4.359375q0 0.421875 0.171875 0.640625q0.171875 0.21875 0.59375 0.21875q0.21875 0 0.578125 -0.078125l0 0.96875q-0.46875 0.125 -0.921875 0.125q-0.8125 0 -1.21875 -0.484375q-0.40625 -0.484375 -0.40625 -1.390625l0 -4.359375l-1.28125 0l0 -0.9375l1.28125 0l0 -1.703125l1.203125 0zm3.853775 1.703125l0.03125 0.78125q0.765625 -0.90625 2.09375 -0.90625q1.46875 0 2.0 1.125q0.359375 -0.5 0.921875 -0.8125q0.5625 -0.3125 1.328125 -0.3125q2.3125038 0 2.3593788 2.453125l0 4.71875l-1.2031288 0l0 -4.640625q0 -0.765625 -0.34375 -1.140625q-0.34375 -0.375 -1.171875 -0.375q-0.65625 0 -1.109375 0.40625q-0.4375 0.40625 -0.515625 1.078125l0 4.671875l-1.203125 0l0 -4.609375q0 -1.546875 -1.5 -1.546875q-1.1875 0 -1.625 1.015625l0 5.140625l-1.203125 0l0 -7.046875l1.140625 0zm11.853519 7.046875l-1.203125 0l0 -10.0l1.203125 0l0 10.0z" fill-rule="nonzero"/><path fill="#000000" fill-opacity="0.0" d="m328.7139 110.272964l161.48032 0l0 38.456696l-161.48032 0z" fill-rule="evenodd"/><path stroke="#a72a1e" stroke-width="2.0" stroke-linejoin="round" stroke-linecap="butt" d="m328.7139 110.272964l161.48032 0l0 38.456696l-161.48032 0z" fill-rule="evenodd"/><path fill="#a72a1e" d="m395.07892 134.30132q-0.109375 -0.203125 -0.171875 -0.734375q-0.84375 0.859375 -2.015625 0.859375q-1.03125 0 -1.703125 -0.578125q-0.671875 -0.59375 -0.671875 -1.5q0 -1.09375 0.828125 -1.703125q0.84375 -0.609375 2.359375 -0.609375l1.171875 0l0 -0.5625q0 -0.625 -0.375 -1.0q-0.375 -0.375 -1.109375 -0.375q-0.640625 0 -1.078125 0.328125q-0.4375 0.328125 -0.4375 0.78125l-1.203125 0q0 -0.515625 0.359375 -1.0q0.375 -0.5 1.015625 -0.78125q0.65625 -0.296875 1.421875 -0.296875q1.21875 0 1.90625 0.609375q0.6875 0.609375 0.71875 1.671875l0 3.25q0 0.96875 0.234375 1.53125l0 0.109375l-1.25 0zm-2.0 -0.921875q0.5625 0 1.0625 -0.28125q0.515625 -0.296875 0.734375 -0.765625l0 -1.453125l-0.9375 0q-2.21875 0 -2.21875 1.296875q0 0.5625 0.375 0.890625q0.390625 0.3125 0.984375 0.3125zm8.999786 -0.953125q0 -0.484375 -0.375 -0.75q-0.359375 -0.265625 -1.28125 -0.453125q-0.90625 -0.203125 -1.453125 -0.46875q-0.53125 -0.28125 -0.796875 -0.65625q-0.25 -0.390625 -0.25 -0.90625q0 -0.859375 0.734375 -1.453125q0.734375 -0.609375 1.875 -0.609375q1.1875 0 1.9375 0.625q0.75 0.609375 0.75 1.578125l-1.21875 0q0 -0.5 -0.421875 -0.859375q-0.421875 -0.359375 -1.046875 -0.359375q-0.65625 0 -1.03125 0.296875q-0.375 0.28125 -0.375 0.75q0 0.421875 0.34375 0.65625q0.34375 0.21875 1.25 0.421875q0.90625 0.203125 1.453125 0.484375q0.5625 0.265625 0.828125 0.671875q0.28125 0.390625 0.28125 0.953125q0 0.9375 -0.765625 1.515625q-0.75 0.5625 -1.953125 0.5625q-0.84375 0 -1.5 -0.296875q-0.640625 -0.296875 -1.015625 -0.828125q-0.359375 -0.546875 -0.359375 -1.171875l1.203125 0q0.03125 0.609375 0.484375 0.96875q0.453125 0.34375 1.1875 0.34375q0.6875 0 1.09375 -0.265625q0.421875 -0.28125 0.421875 -0.75zm6.8723145 0q0 -0.484375 -0.375 -0.75q-0.359375 -0.265625 -1.28125 -0.453125q-0.90625 -0.203125 -1.453125 -0.46875q-0.53125 -0.28125 -0.796875 -0.65625q-0.25 -0.390625 -0.25 -0.90625q0 -0.859375 0.734375 -1.453125q0.734375 -0.609375 1.875 -0.609375q1.1875 0 1.9375 0.625q0.75 0.609375 0.75 1.578125l-1.21875 0q0 -0.5 -0.421875 -0.859375q-0.421875 -0.359375 -1.046875 -0.359375q-0.65625 0 -1.03125 0.296875q-0.375 0.28125 -0.375 0.75q0 0.421875 0.34375 0.65625q0.34375 0.21875 1.25 0.421875q0.90625 0.203125 1.453125 0.484375q0.5625 0.265625 0.828125 0.671875q0.28125 0.390625 0.28125 0.953125q0 0.9375 -0.765625 1.515625q-0.75 0.5625 -1.953125 0.5625q-0.84375 0 -1.5 -0.296875q-0.640625 -0.296875 -1.015625 -0.828125q-0.359375 -0.546875 -0.359375 -1.171875l1.203125 0q0.03125 0.609375 0.484375 0.96875q0.453125 0.34375 1.1875 0.34375q0.6875 0 1.09375 -0.265625q0.421875 -0.28125 0.421875 -0.75zm5.6848145 2.0q-1.421875 0 -2.328125 -0.9375q-0.890625 -0.9375 -0.890625 -2.515625l0 -0.21875q0 -1.046875 0.390625 -1.859375q0.40625 -0.828125 1.125 -1.296875q0.71875 -0.46875 1.5625 -0.46875q1.375 0 2.125 0.90625q0.765625 0.90625 0.765625 2.59375l0 0.5l-4.765625 0q0.015625 1.03125 0.59375 1.671875q0.59375 0.640625 1.484375 0.640625q0.640625 0 1.078125 -0.25q0.453125 -0.265625 0.78125 -0.6875l0.734375 0.5625q-0.875 1.359375 -2.65625 1.359375zm-0.140625 -6.3125q-0.734375 0 -1.234375 0.53125q-0.484375 0.53125 -0.609375 1.484375l3.53125 0l0 -0.078125q-0.046875 -0.921875 -0.5 -1.421875q-0.4375 -0.515625 -1.1875 -0.515625zm5.92041 -2.5625l0 1.703125l1.3125 0l0 0.9375l-1.3125 0l0 4.359375q0 0.421875 0.171875 0.640625q0.171875 0.21875 0.59375 0.21875q0.21875 0 0.578125 -0.078125l0 0.96875q-0.46875 0.125 -0.921875 0.125q-0.8125 0 -1.21875 -0.484375q-0.40625 -0.484375 -0.40625 -1.390625l0 -4.359375l-1.28125 0l0 -0.9375l1.28125 0l0 -1.703125l1.203125 0zm6.8225403 6.875q0 -0.484375 -0.375 -0.75q-0.359375 -0.265625 -1.28125 -0.453125q-0.90625 -0.203125 -1.453125 -0.46875q-0.53125 -0.28125 -0.796875 -0.65625q-0.25 -0.390625 -0.25 -0.90625q0 -0.859375 0.734375 -1.453125q0.734375 -0.609375 1.875 -0.609375q1.1875 0 1.9375 0.625q0.75 0.609375 0.75 1.578125l-1.21875 0q0 -0.5 -0.421875 -0.859375q-0.421875 -0.359375 -1.046875 -0.359375q-0.65625 0 -1.03125 0.296875q-0.375 0.28125 -0.375 0.75q0 0.421875 0.34375 0.65625q0.34375 0.21875 1.25 0.421875q0.90625 0.203125 1.453125 0.484375q0.5625 0.265625 0.828125 0.671875q0.28125 0.390625 0.28125 0.953125q0 0.9375 -0.765625 1.515625q-0.75 0.5625 -1.953125 0.5625q-0.84375 0 -1.5 -0.296875q-0.640625 -0.296875 -1.015625 -0.828125q-0.359375 -0.546875 -0.359375 -1.171875l1.203125 0q0.03125 0.609375 0.484375 0.96875q0.453125 0.34375 1.1875 0.34375q0.6875 0 1.09375 -0.265625q0.421875 -0.28125 0.421875 -0.75z" fill-rule="nonzero"/><path fill="#000000" fill-opacity="0.0" d="m441.70602 223.5853l161.48032 0l0 38.456696l-161.48032 0z" fill-rule="evenodd"/><path stroke="#a72a1e" stroke-width="2.0" stroke-linejoin="round" stroke-linecap="butt" d="m441.70602 223.5853l161.48032 0l0 38.456696l-161.48032 0z" fill-rule="evenodd"/><path fill="#a72a1e" d="m502.87656 247.61365l-1.203125 0l0 -7.046875l1.203125 0l0 7.046875zm-1.296875 -8.90625q0 -0.296875 0.171875 -0.5q0.1875 -0.203125 0.53125 -0.203125q0.359375 0 0.53125 0.203125q0.1875 0.203125 0.1875 0.5q0 0.296875 -0.1875 0.5q-0.171875 0.1875 -0.53125 0.1875q-0.34375 0 -0.53125 -0.1875q-0.171875 -0.203125 -0.171875 -0.5zm4.359436 1.859375l0.03125 0.78125q0.765625 -0.90625 2.09375 -0.90625q1.46875 0 2.0 1.125q0.359375 -0.5 0.921875 -0.8125q0.5625 -0.3125 1.3280945 -0.3125q2.3125 0 2.359375 2.453125l0 4.71875l-1.203125 0l0 -4.640625q0 -0.765625 -0.34375 -1.140625q-0.34375 -0.375 -1.1718445 -0.375q-0.65625 0 -1.109375 0.40625q-0.4375 0.40625 -0.515625 1.078125l0 4.671875l-1.203125 0l0 -4.609375q0 -1.546875 -1.5 -1.546875q-1.1875 0 -1.625 1.015625l0 5.140625l-1.203125 0l0 -7.046875l1.140625 0zm14.90036 7.046875q-0.109375 -0.203125 -0.171875 -0.734375q-0.84375 0.859375 -2.015625 0.859375q-1.03125 0 -1.703125 -0.578125q-0.671875 -0.59375 -0.671875 -1.5q0 -1.09375 0.828125 -1.703125q0.84375 -0.609375 2.359375 -0.609375l1.171875 0l0 -0.5625q0 -0.625 -0.375 -1.0q-0.375 -0.375 -1.109375 -0.375q-0.640625 0 -1.078125 0.328125q-0.4375 0.328125 -0.4375 0.78125l-1.203125 0q0 -0.515625 0.359375 -1.0q0.375 -0.5 1.015625 -0.78125q0.65625 -0.296875 1.421875 -0.296875q1.21875 0 1.90625 0.609375q0.6875 0.609375 0.71875 1.671875l0 3.25q0 0.96875 0.234375 1.53125l0 0.109375l-1.25 0zm-2.0 -0.921875q0.5625 0 1.0625 -0.28125q0.515625 -0.296875 0.734375 -0.765625l0 -1.453125l-0.9375 0q-2.21875 0 -2.21875 1.296875q0 0.5625 0.375 0.890625q0.390625 0.3125 0.984375 0.3125zm4.609192 -2.65625q0 -1.640625 0.75 -2.609375q0.765625 -0.984375 2.03125 -0.984375q1.28125 0 2.015625 0.90625l0.046875 -0.78125l1.109375 0l0 6.875q0 1.375 -0.8125 2.15625q-0.8125 0.78125 -2.1875 0.78125q-0.75 0 -1.484375 -0.328125q-0.734375 -0.3125 -1.109375 -0.875l0.625 -0.734375q0.765625 0.96875 1.890625 0.96875q0.875 0 1.359375 -0.5q0.5 -0.5 0.5 -1.390625l0 -0.609375q-0.71875 0.828125 -1.96875 0.828125q-1.234375 0 -2.0 -0.984375q-0.765625 -1.0 -0.765625 -2.71875zm1.203125 0.140625q0 1.1875 0.484375 1.875q0.5 0.671875 1.375 0.671875q1.140625 0 1.671875 -1.03125l0 -3.21875q-0.546875 -1.015625 -1.65625 -1.015625q-0.875 0 -1.375 0.6875q-0.5 0.6875 -0.5 2.03125zm9.477539 3.5625q-1.421875 0 -2.328125 -0.9375q-0.890625 -0.9375 -0.890625 -2.515625l0 -0.21875q0 -1.046875 0.390625 -1.859375q0.40625 -0.828125 1.125 -1.296875q0.71875 -0.46875 1.5625 -0.46875q1.375 0 2.125 0.90625q0.765625 0.90625 0.765625 2.59375l0 0.5l-4.765625 0q0.015625 1.03125 0.59375 1.671875q0.59375 0.640625 1.484375 0.640625q0.640625 0 1.078125 -0.25q0.453125 -0.265625 0.78125 -0.6875l0.734375 0.5625q-0.875 1.359375 -2.65625 1.359375zm-0.140625 -6.3125q-0.734375 0 -1.234375 0.53125q-0.484375 0.53125 -0.609375 1.484375l3.53125 0l0 -0.078125q-0.046875 -0.921875 -0.5 -1.421875q-0.4375 -0.515625 -1.1875 -0.515625zm8.38916 4.3125q0 -0.484375 -0.375 -0.75q-0.359375 -0.265625 -1.28125 -0.453125q-0.90625 -0.203125 -1.453125 -0.46875q-0.53125 -0.28125 -0.796875 -0.65625q-0.25 -0.390625 -0.25 -0.90625q0 -0.859375 0.734375 -1.453125q0.734375 -0.609375 1.875 -0.609375q1.1875 0 1.9375 0.625q0.75 0.609375 0.75 1.578125l-1.21875 0q0 -0.5 -0.421875 -0.859375q-0.421875 -0.359375 -1.046875 -0.359375q-0.65625 0 -1.03125 0.296875q-0.375 0.28125 -0.375 0.75q0 0.421875 0.34375 0.65625q0.34375 0.21875 1.25 0.421875q0.90625 0.203125 1.453125 0.484375q0.5625 0.265625 0.828125 0.671875q0.28125 0.390625 0.28125 0.953125q0 0.9375 -0.765625 1.515625q-0.75 0.5625 -1.953125 0.5625q-0.84375 0 -1.5 -0.296875q-0.640625 -0.296875 -1.015625 -0.828125q-0.359375 -0.546875 -0.359375 -1.171875l1.203125 0q0.03125 0.609375 0.484375 0.96875q0.453125 0.34375 1.1875 0.34375q0.6875 0 1.09375 -0.265625q0.421875 -0.28125 0.421875 -0.75z" fill-rule="nonzero"/><path fill="#000000" fill-opacity="0.0" d="m234.12335 223.5853l161.48032 0l0 38.456696l-161.48032 0z" fill-rule="evenodd"/><path stroke="#a72a1e" stroke-width="2.0" stroke-linejoin="round" stroke-linecap="butt" d="m234.12335 223.5853l161.48032 0l0 38.456696l-161.48032 0z" fill-rule="evenodd"/><path fill="#a72a1e" d="m308.23737 246.75427q0.640625 0 1.125 -0.390625q0.484375 -0.390625 0.53125 -0.96875l1.140625 0q-0.03125 0.609375 -0.421875 1.15625q-0.375 0.546875 -1.015625 0.875q-0.640625 0.3125 -1.359375 0.3125q-1.4375 0 -2.296875 -0.953125q-0.84375 -0.96875 -0.84375 -2.625l0 -0.203125q0 -1.03125 0.375 -1.828125q0.390625 -0.796875 1.09375 -1.234375q0.703125 -0.453125 1.671875 -0.453125q1.171875 0 1.953125 0.71875q0.796875 0.703125 0.84375 1.828125l-1.140625 0q-0.046875 -0.671875 -0.515625 -1.109375q-0.46875 -0.453125 -1.140625 -0.453125q-0.921875 0 -1.4375 0.671875q-0.5 0.65625 -0.5 1.90625l0 0.21875q0 1.21875 0.5 1.875q0.515625 0.65625 1.4375 0.65625zm8.25769 -1.015625q0 -0.484375 -0.375 -0.75q-0.359375 -0.265625 -1.28125 -0.453125q-0.90625 -0.203125 -1.453125 -0.46875q-0.53125 -0.28125 -0.796875 -0.65625q-0.25 -0.390625 -0.25 -0.90625q0 -0.859375 0.734375 -1.453125q0.734375 -0.609375 1.875 -0.609375q1.1875 0 1.9375 0.625q0.75 0.609375 0.75 1.578125l-1.21875 0q0 -0.5 -0.421875 -0.859375q-0.421875 -0.359375 -1.046875 -0.359375q-0.65625 0 -1.03125 0.296875q-0.375 0.28125 -0.375 0.75q0 0.421875 0.34375 0.65625q0.34375 0.21875 1.25 0.421875q0.90625 0.203125 1.453125 0.484375q0.5625 0.265625 0.828125 0.671875q0.28125 0.390625 0.28125 0.953125q0 0.9375 -0.765625 1.515625q-0.75 0.5625 -1.953125 0.5625q-0.84375 0 -1.5 -0.296875q-0.640625 -0.296875 -1.015625 -0.828125q-0.359375 -0.546875 -0.359375 -1.171875l1.203125 0q0.03125 0.609375 0.484375 0.96875q0.453125 0.34375 1.1875 0.34375q0.6875 0 1.09375 -0.265625q0.421875 -0.28125 0.421875 -0.75zm6.8723145 0q0 -0.484375 -0.375 -0.75q-0.359375 -0.265625 -1.28125 -0.453125q-0.90625 -0.203125 -1.453125 -0.46875q-0.53125 -0.28125 -0.796875 -0.65625q-0.25 -0.390625 -0.25 -0.90625q0 -0.859375 0.734375 -1.453125q0.734375 -0.609375 1.875 -0.609375q1.1875 0 1.9375 0.625q0.75 0.609375 0.75 1.578125l-1.21875 0q0 -0.5 -0.421875 -0.859375q-0.421875 -0.359375 -1.046875 -0.359375q-0.65625 0 -1.03125 0.296875q-0.375 0.28125 -0.375 0.75q0 0.421875 0.34375 0.65625q0.34375 0.21875 1.25 0.421875q0.90625 0.203125 1.453125 0.484375q0.5625 0.265625 0.828125 0.671875q0.28125 0.390625 0.28125 0.953125q0 0.9375 -0.765625 1.515625q-0.75 0.5625 -1.953125 0.5625q-0.84375 0 -1.5 -0.296875q-0.640625 -0.296875 -1.015625 -0.828125q-0.359375 -0.546875 -0.359375 -1.171875l1.203125 0q0.03125 0.609375 0.484375 0.96875q0.453125 0.34375 1.1875 0.34375q0.6875 0 1.09375 -0.265625q0.421875 -0.28125 0.421875 -0.75z" fill-rule="nonzero"/><path fill="#000000" fill-opacity="0.0" d="m26.540682 223.5853l161.48032 0l0 38.456696l-161.48032 0z" fill-rule="evenodd"/><path stroke="#a72a1e" stroke-width="2.0" stroke-linejoin="round" stroke-linecap="butt" d="m26.540682 223.5853l161.48032 0l0 38.456696l-161.48032 0z" fill-rule="evenodd"/><path fill="#a72a1e" d="m104.40975 240.56677l0 7.859375q0 2.03125 -1.84375 2.03125q-0.390625 0 -0.734375 -0.109375l0 -0.96875q0.203125 0.046875 0.546875 0.046875q0.40625 0 0.609375 -0.21875q0.21875 -0.21875 0.21875 -0.75l0 -7.890625l1.203125 0zm-1.328125 -1.859375q0 -0.296875 0.171875 -0.5q0.1875 -0.203125 0.53125 -0.203125q0.34375 0 0.53125 0.203125q0.1875 0.203125 0.1875 0.5q0 0.296875 -0.1875 0.5q-0.1875 0.1875 -0.546875 0.1875q-0.34375 0 -0.515625 -0.1875q-0.171875 -0.203125 -0.171875 -0.5zm7.369858 7.03125q0 -0.484375 -0.375 -0.75q-0.359375 -0.265625 -1.28125 -0.453125q-0.90625 -0.203125 -1.453125 -0.46875q-0.53125 -0.28125 -0.796875 -0.65625q-0.25 -0.390625 -0.25 -0.90625q0 -0.859375 0.734375 -1.453125q0.734375 -0.609375 1.875 -0.609375q1.1875 0 1.9375 0.625q0.75 0.609375 0.75 1.578125l-1.21875 0q0 -0.5 -0.421875 -0.859375q-0.421875 -0.359375 -1.046875 -0.359375q-0.65625 0 -1.03125 0.296875q-0.375 0.28125 -0.375 0.75q0 0.421875 0.34375 0.65625q0.34375 0.21875 1.25 0.421875q0.90625 0.203125 1.453125 0.484375q0.5625 0.265625 0.828125 0.671875q0.28125 0.390625 0.28125 0.953125q0 0.9375 -0.765625 1.515625q-0.75 0.5625 -1.953125 0.5625q-0.84375 0 -1.5 -0.296875q-0.640625 -0.296875 -1.015625 -0.828125q-0.359375 -0.546875 -0.359375 -1.171875l1.203125 0q0.03125 0.609375 0.484375 0.96875q0.453125 0.34375 1.1875 0.34375q0.6875 0 1.09375 -0.265625q0.421875 -0.28125 0.421875 -0.75z" fill-rule="nonzero"/><path fill="#000000" fill-opacity="0.0" d="m107.28084 223.5853l0 -37.427826l302.17322 0l0 -37.43831" fill-rule="evenodd"/><path stroke="#c2c2c2" stroke-width="2.0" stroke-miterlimit="8.0" stroke-linecap="butt" d="m107.28084 223.5853l0 -37.427826l302.17322 0l0 -37.43831" fill-rule="evenodd"/><path fill="#000000" fill-opacity="0.0" d="m234.12335 288.87665l161.48032 0l0 38.456696l-161.48032 0z" fill-rule="evenodd"/><path fill="#a72a1e" d="m293.8509 311.03q0 -0.484375 -0.375 -0.75q-0.359375 -0.265625 -1.28125 -0.453125q-0.90625 -0.203125 -1.453125 -0.46875q-0.53125 -0.28125 -0.796875 -0.65625q-0.25 -0.390625 -0.25 -0.90625q0 -0.859375 0.734375 -1.453125q0.734375 -0.609375 1.875 -0.609375q1.1875 0 1.9375 0.625q0.75 0.609375 0.75 1.578125l-1.21875 0q0 -0.5 -0.421875 -0.859375q-0.421875 -0.359375 -1.046875 -0.359375q-0.65625 0 -1.03125 0.296875q-0.375 0.28125 -0.375 0.75q0 0.421875 0.34375 0.65625q0.34375 0.21875 1.25 0.421875q0.90625 0.203125 1.453125 0.484375q0.5625 0.265625 0.828125 0.671875q0.28125 0.390625 0.28125 0.953125q0 0.9375 -0.765625 1.515625q-0.75 0.5625 -1.953125 0.5625q-0.84375 0 -1.5 -0.296875q-0.640625 -0.296875 -1.015625 -0.828125q-0.359375 -0.546875 -0.359375 -1.171875l1.203125 0q0.03125 0.609375 0.484375 0.96875q0.453125 0.34375 1.1875 0.34375q0.6875 0 1.09375 -0.265625q0.421875 -0.28125 0.421875 -0.75zm4.4035645 -6.875l0 1.703125l1.3125 0l0 0.9375l-1.3125 0l0 4.359375q0 0.421875 0.171875 0.640625q0.171875 0.21875 0.59375 0.21875q0.21875 0 0.578125 -0.078125l0 0.96875q-0.46875 0.125 -0.921875 0.125q-0.8125 0 -1.21875 -0.484375q-0.40625 -0.484375 -0.40625 -1.390625l0 -4.359375l-1.28125 0l0 -0.9375l1.28125 0l0 -1.703125l1.203125 0zm5.025635 6.984375l1.640625 -5.28125l1.28125 0l-2.828125 8.140625q-0.65625 1.75 -2.09375 1.75l-0.21875 -0.015625l-0.453125 -0.09375l0 -0.96875l0.328125 0.03125q0.609375 0 0.953125 -0.25q0.34375 -0.25 0.5625 -0.90625l0.265625 -0.71875l-2.515625 -6.96875l1.3125 0l1.765625 5.28125zm5.3061523 1.765625l-1.203125 0l0 -10.0l1.203125 0l0 10.0zm4.8437805 0.125q-1.421875 0 -2.328125 -0.9375q-0.890625 -0.9375 -0.890625 -2.515625l0 -0.21875q0 -1.046875 0.390625 -1.859375q0.40625 -0.828125 1.125 -1.296875q0.71875 -0.46875 1.5625 -0.46875q1.375 0 2.125 0.90625q0.765625 0.90625 0.765625 2.59375l0 0.5l-4.765625 0q0.015625 1.03125 0.59375 1.671875q0.59375 0.640625 1.484375 0.640625q0.640625 0 1.078125 -0.25q0.453125 -0.265625 0.78125 -0.6875l0.734375 0.5625q-0.875 1.359375 -2.65625 1.359375zm-0.140625 -6.3125q-0.734375 0 -1.234375 0.53125q-0.484375 0.53125 -0.609375 1.484375l3.53125 0l0 -0.078125q-0.046875 -0.921875 -0.5 -1.421875q-0.4375 -0.515625 -1.1875 -0.515625zm4.3110657 5.5625q0 -0.3125 0.1875 -0.515625q0.1875 -0.21875 0.546875 -0.21875q0.375 0 0.5625 0.21875q0.203125 0.203125 0.203125 0.515625q0 0.296875 -0.203125 0.5q-0.1875 0.203125 -0.5625 0.203125q-0.359375 0 -0.546875 -0.203125q-0.1875 -0.203125 -0.1875 -0.5zm6.3046265 -0.234375q0.640625 0 1.125 -0.390625q0.484375 -0.390625 0.53125 -0.96875l1.140625 0q-0.03125 0.609375 -0.421875 1.15625q-0.375 0.546875 -1.015625 0.875q-0.640625 0.3125 -1.359375 0.3125q-1.4375 0 -2.296875 -0.953125q-0.84375 -0.96875 -0.84375 -2.625l0 -0.203125q0 -1.03125 0.375 -1.828125q0.390625 -0.796875 1.09375 -1.234375q0.703125 -0.453125 1.671875 -0.453125q1.171875 0 1.953125 0.71875q0.796875 0.703125 0.84375 1.828125l-1.140625 0q-0.046875 -0.671875 -0.515625 -1.109375q-0.46875 -0.453125 -1.140625 -0.453125q-0.921875 0 -1.4375 0.671875q-0.5 0.65625 -0.5 1.90625l0 0.21875q0 1.21875 0.5 1.875q0.515625 0.65625 1.4375 0.65625zm8.25769 -1.015625q0 -0.484375 -0.375 -0.75q-0.359375 -0.265625 -1.28125 -0.453125q-0.90625 -0.203125 -1.453125 -0.46875q-0.53125 -0.28125 -0.796875 -0.65625q-0.25 -0.390625 -0.25 -0.90625q0 -0.859375 0.734375 -1.453125q0.734375 -0.609375 1.875 -0.609375q1.1875 0 1.9375 0.625q0.75 0.609375 0.75 1.578125l-1.21875 0q0 -0.5 -0.421875 -0.859375q-0.421875 -0.359375 -1.046875 -0.359375q-0.65625 0 -1.03125 0.296875q-0.375 0.28125 -0.375 0.75q0 0.421875 0.34375 0.65625q0.34375 0.21875 1.25 0.421875q0.90625 0.203125 1.453125 0.484375q0.5625 0.265625 0.828125 0.671875q0.28125 0.390625 0.28125 0.953125q0 0.9375 -0.765625 1.515625q-0.75 0.5625 -1.953125 0.5625q-0.84375 0 -1.5 -0.296875q-0.640625 -0.296875 -1.015625 -0.828125q-0.359375 -0.546875 -0.359375 -1.171875l1.203125 0q0.03125 0.609375 0.484375 0.96875q0.453125 0.34375 1.1875 0.34375q0.6875 0 1.09375 -0.265625q0.421875 -0.28125 0.421875 -0.75zm6.8723145 0q0 -0.484375 -0.375 -0.75q-0.359375 -0.265625 -1.28125 -0.453125q-0.90625 -0.203125 -1.453125 -0.46875q-0.53125 -0.28125 -0.796875 -0.65625q-0.25 -0.390625 -0.25 -0.90625q0 -0.859375 0.734375 -1.453125q0.734375 -0.609375 1.875 -0.609375q1.1875 0 1.9375 0.625q0.75 0.609375 0.75 1.578125l-1.21875 0q0 -0.5 -0.421875 -0.859375q-0.421875 -0.359375 -1.046875 -0.359375q-0.65625 0 -1.03125 0.296875q-0.375 0.28125 -0.375 0.75q0 0.421875 0.34375 0.65625q0.34375 0.21875 1.25 0.421875q0.90625 0.203125 1.453125 0.484375q0.5625 0.265625 0.828125 0.671875q0.28125 0.390625 0.28125 0.953125q0 0.9375 -0.765625 1.515625q-0.75 0.5625 -1.953125 0.5625q-0.84375 0 -1.5 -0.296875q-0.640625 -0.296875 -1.015625 -0.828125q-0.359375 -0.546875 -0.359375 -1.171875l1.203125 0q0.03125 0.609375 0.484375 0.96875q0.453125 0.34375 1.1875 0.34375q0.6875 0 1.09375 -0.265625q0.421875 -0.28125 0.421875 -0.75z" fill-rule="nonzero"/><path fill="#000000" fill-opacity="0.0" d="m26.540682 288.87665l161.48032 0l0 38.456696l-161.48032 0z" fill-rule="evenodd"/><path fill="#a72a1e" d="m88.80302 311.03q0 -0.484375 -0.375 -0.75q-0.359375 -0.265625 -1.28125 -0.453125q-0.90625 -0.203125 -1.453125 -0.46875q-0.53125 -0.28125 -0.796875 -0.65625q-0.25 -0.390625 -0.25 -0.90625q0 -0.859375 0.734375 -1.453125q0.734375 -0.609375 1.875 -0.609375q1.1875 0 1.9375 0.625q0.75 0.609375 0.75 1.578125l-1.21875 0q0 -0.5 -0.421875 -0.859375q-0.421875 -0.359375 -1.046875 -0.359375q-0.65625 0 -1.03125 0.296875q-0.375 0.28125 -0.375 0.75q0 0.421875 0.34375 0.65625q0.34375 0.21875 1.25 0.421875q0.90625 0.203125 1.453125 0.484375q0.5625 0.265625 0.828125 0.671875q0.28125 0.390625 0.28125 0.953125q0 0.9375 -0.765625 1.515625q-0.75 0.5625 -1.953125 0.5625q-0.84375 0 -1.5 -0.296875q-0.640625 -0.296875 -1.015625 -0.828125q-0.359375 -0.546875 -0.359375 -1.171875l1.203125 0q0.03125 0.609375 0.484375 0.96875q0.453125 0.34375 1.1875 0.34375q0.6875 0 1.09375 -0.265625q0.421875 -0.28125 0.421875 -0.75zm5.5910645 1.015625q0.640625 0 1.125 -0.390625q0.484375 -0.390625 0.53125 -0.96875l1.140625 0q-0.03125 0.609375 -0.421875 1.15625q-0.375 0.546875 -1.015625 0.875q-0.640625 0.3125 -1.359375 0.3125q-1.4375 0 -2.296875 -0.953125q-0.84375 -0.96875 -0.84375 -2.625l0 -0.203125q0 -1.03125 0.375 -1.828125q0.390625 -0.796875 1.09375 -1.234375q0.703125 -0.453125 1.671875 -0.453125q1.171875 0 1.953125 0.71875q0.796875 0.703125 0.84375 1.828125l-1.140625 0q-0.046875 -0.671875 -0.515625 -1.109375q-0.46875 -0.453125 -1.140625 -0.453125q-0.921875 0 -1.4375 0.671875q-0.5 0.65625 -0.5 1.90625l0 0.21875q0 1.21875 0.5 1.875q0.515625 0.65625 1.4375 0.65625zm7.5545654 -5.109375q-0.265625 -0.03125 -0.59375 -0.03125q-1.1875 0 -1.609375 1.0l0 5.0l-1.203125 0l0 -7.046875l1.171875 0l0.03125 0.8125q0.578125 -0.9375 1.671875 -0.9375q0.34375 0 0.53125 0.09375l0 1.109375zm2.416214 5.96875l-1.203125 0l0 -7.046875l1.203125 0l0 7.046875zm-1.296875 -8.90625q0 -0.296875 0.171875 -0.5q0.1875 -0.203125 0.53125 -0.203125q0.359375 0 0.53125 0.203125q0.1875 0.203125 0.1875 0.5q0 0.296875 -0.1875 0.5q-0.171875 0.1875 -0.53125 0.1875q-0.34375 0 -0.53125 -0.1875q-0.171875 -0.203125 -0.171875 -0.5zm9.171921 5.46875q0 1.609375 -0.734375 2.59375q-0.734375 0.96875 -2.0 0.96875q-1.28125 0 -2.015625 -0.8125l0 3.390625l-1.203125 0l0 -9.75l1.109375 0l0.046875 0.78125q0.75 -0.90625 2.046875 -0.90625q1.265625 0 2.0 0.953125q0.75 0.953125 0.75 2.671875l0 0.109375zm-1.203125 -0.140625q0 -1.1875 -0.515625 -1.875q-0.5 -0.703125 -1.390625 -0.703125q-1.09375 0 -1.640625 0.96875l0 3.375q0.546875 0.953125 1.65625 0.953125q0.875 0 1.375 -0.671875q0.515625 -0.6875 0.515625 -2.046875zm4.3681793 -5.171875l0 1.703125l1.3125 0l0 0.9375l-1.3125 0l0 4.359375q0 0.421875 0.171875 0.640625q0.171875 0.21875 0.59375 0.21875q0.21875 0 0.578125 -0.078125l0 0.96875q-0.46875 0.125 -0.921875 0.125q-0.8125 0 -1.21875 -0.484375q-0.40625 -0.484375 -0.40625 -1.390625l0 -4.359375l-1.28125 0l0 -0.9375l1.28125 0l0 -1.703125l1.203125 0zm2.7444 8.125q0 -0.3125 0.1875 -0.515625q0.1875 -0.21875 0.546875 -0.21875q0.375 0 0.5625 0.21875q0.203125 0.203125 0.203125 0.515625q0 0.296875 -0.203125 0.5q-0.1875 0.203125 -0.5625 0.203125q-0.359375 0 -0.546875 -0.203125q-0.1875 -0.203125 -0.1875 -0.5zm4.7265015 -6.421875l0 7.859375q0 2.03125 -1.84375 2.03125q-0.390625 0 -0.734375 -0.109375l0 -0.96875q0.203125 0.046875 0.546875 0.046875q0.40625 0 0.609375 -0.21875q0.21875 -0.21875 0.21875 -0.75l0 -7.890625l1.203125 0zm-1.328125 -1.859375q0 -0.296875 0.171875 -0.5q0.1875 -0.203125 0.53125 -0.203125q0.34375 0 0.53125 0.203125q0.1875 0.203125 0.1875 0.5q0 0.296875 -0.1875 0.5q-0.1875 0.1875 -0.546875 0.1875q-0.34375 0 -0.515625 -0.1875q-0.171875 -0.203125 -0.171875 -0.5zm7.3698654 7.03125q0 -0.484375 -0.375 -0.75q-0.359375 -0.265625 -1.2812576 -0.453125q-0.90625 -0.203125 -1.453125 -0.46875q-0.53125 -0.28125 -0.796875 -0.65625q-0.25 -0.390625 -0.25 -0.90625q0 -0.859375 0.734375 -1.453125q0.734375 -0.609375 1.875 -0.609375q1.1875076 0 1.9375076 0.625q0.75 0.609375 0.75 1.578125l-1.21875 0q0 -0.5 -0.421875 -0.859375q-0.42188263 -0.359375 -1.0468826 -0.359375q-0.65625 0 -1.03125 0.296875q-0.375 0.28125 -0.375 0.75q0 0.421875 0.34375 0.65625q0.34375 0.21875 1.25 0.421875q0.9062576 0.203125 1.4531326 0.484375q0.5625 0.265625 0.828125 0.671875q0.28125 0.390625 0.28125 0.953125q0 0.9375 -0.765625 1.515625q-0.75 0.5625 -1.9531326 0.5625q-0.84375 0 -1.5 -0.296875q-0.640625 -0.296875 -1.015625 -0.828125q-0.359375 -0.546875 -0.359375 -1.171875l1.203125 0q0.03125 0.609375 0.484375 0.96875q0.453125 0.34375 1.1875 0.34375q0.6875076 0 1.0937576 -0.265625q0.421875 -0.28125 0.421875 -0.75z" fill-rule="nonzero"/><path fill="#000000" fill-opacity="0.0" d="m441.70602 288.87665l161.48032 0l0 38.456696l-161.48032 0z" fill-rule="evenodd"/><path fill="#a72a1e" d="m495.97873 309.4675q0 1.609375 -0.734375 2.59375q-0.734375 0.96875 -2.0 0.96875q-1.28125 0 -2.015625 -0.8125l0 3.390625l-1.203125 0l0 -9.75l1.109375 0l0.046875 0.78125q0.75 -0.90625 2.046875 -0.90625q1.265625 0 2.0 0.953125q0.75 0.953125 0.75 2.671875l0 0.109375zm-1.203125 -0.140625q0 -1.1875 -0.515625 -1.875q-0.5 -0.703125 -1.390625 -0.703125q-1.09375 0 -1.640625 0.96875l0 3.375q0.546875 0.953125 1.65625 0.953125q0.875 0 1.375 -0.671875q0.515625 -0.6875 0.515625 -2.046875zm4.0400696 3.578125l-1.203125 0l0 -7.046875l1.203125 0l0 7.046875zm-1.296875 -8.90625q0 -0.296875 0.171875 -0.5q0.1875 -0.203125 0.53125 -0.203125q0.359375 0 0.53125 0.203125q0.1875 0.203125 0.1875 0.5q0 0.296875 -0.1875 0.5q-0.171875 0.1875 -0.53125 0.1875q-0.34375 0 -0.53125 -0.1875q-0.171875 -0.203125 -0.171875 -0.5zm6.0469055 8.046875q0.640625 0 1.125 -0.390625q0.484375 -0.390625 0.53125 -0.96875l1.140625 0q-0.03125 0.609375 -0.421875 1.15625q-0.375 0.546875 -1.015625 0.875q-0.640625 0.3125 -1.359375 0.3125q-1.4375 0 -2.296875 -0.953125q-0.84375 -0.96875 -0.84375 -2.625l0 -0.203125q0 -1.03125 0.375 -1.828125q0.390625 -0.796875 1.09375 -1.234375q0.703125 -0.453125 1.671875 -0.453125q1.171875 0 1.953125 0.71875q0.796875 0.703125 0.84375 1.828125l-1.140625 0q-0.046875 -0.671875 -0.515625 -1.109375q-0.46875 -0.453125 -1.140625 -0.453125q-0.921875 0 -1.4375 0.671875q-0.5 0.65625 -0.5 1.90625l0 0.21875q0 1.21875 0.5 1.875q0.515625 0.65625 1.4375 0.65625zm5.7889404 -7.890625l0 1.703125l1.3125 0l0 0.9375l-1.3125 0l0 4.359375q0 0.421875 0.171875 0.640625q0.171875 0.21875 0.59375 0.21875q0.21875 0 0.578125 -0.078125l0 0.96875q-0.46875 0.125 -0.921875 0.125q-0.8125 0 -1.21875 -0.484375q-0.40625 -0.484375 -0.40625 -1.390625l0 -4.359375l-1.28125 0l0 -0.9375l1.28125 0l0 -1.703125l1.203125 0zm7.0725403 8.046875q-0.703125 0.828125 -2.0625 0.828125q-1.140625 0 -1.734375 -0.640625q-0.578125 -0.65625 -0.578125 -1.9375l0 -4.59375l1.203125 0l0 4.546875q0 1.609375 1.296875 1.609375q1.375 0 1.828125 -1.03125l0 -5.125l1.21875 0l0 7.046875l-1.15625 0l-0.015625 -0.703125zm6.394287 -5.265625q-0.265625 -0.03125 -0.59375 -0.03125q-1.1875 0 -1.609375 1.0l0 5.0l-1.203125 0l0 -7.046875l1.171875 0l0.03125 0.8125q0.578125 -0.9375 1.671875 -0.9375q0.34375 0 0.53125 0.09375l0 1.109375zm3.9018555 6.09375q-1.421875 0 -2.328125 -0.9375q-0.890625 -0.9375 -0.890625 -2.515625l0 -0.21875q0 -1.046875 0.390625 -1.859375q0.40625 -0.828125 1.125 -1.296875q0.71875 -0.46875 1.5625 -0.46875q1.375 0 2.125 0.90625q0.765625 0.90625 0.765625 2.59375l0 0.5l-4.765625 0q0.015625 1.03125 0.59375 1.671875q0.59375 0.640625 1.484375 0.640625q0.640625 0 1.078125 -0.25q0.453125 -0.265625 0.78125 -0.6875l0.734375 0.5625q-0.875 1.359375 -2.65625 1.359375zm-0.140625 -6.3125q-0.734375 0 -1.234375 0.53125q-0.484375 0.53125 -0.609375 1.484375l3.53125 0l0 -0.078125q-0.046875 -0.921875 -0.5 -1.421875q-0.4375 -0.515625 -1.1875 -0.515625zm4.311035 5.5625q0 -0.3125 0.1875 -0.515625q0.1875 -0.21875 0.546875 -0.21875q0.375 0 0.5625 0.21875q0.203125 0.203125 0.203125 0.515625q0 0.296875 -0.203125 0.5q-0.1875 0.203125 -0.5625 0.203125q-0.359375 0 -0.546875 -0.203125q-0.1875 -0.203125 -0.1875 -0.5zm9.429626 -2.8125q0 1.609375 -0.734375 2.59375q-0.734375 0.96875 -2.0 0.96875q-1.28125 0 -2.015625 -0.8125l0 3.390625l-1.203125 0l0 -9.75l1.109375 0l0.046875 0.78125q0.75 -0.90625 2.046875 -0.90625q1.265625 0 2.0 0.953125q0.75 0.953125 0.75 2.671875l0 0.109375zm-1.203125 -0.140625q0 -1.1875 -0.515625 -1.875q-0.5 -0.703125 -1.390625 -0.703125q-1.09375 0 -1.640625 0.96875l0 3.375q0.546875 0.953125 1.65625 0.953125q0.875 0 1.375 -0.671875q0.515625 -0.6875 0.515625 -2.046875zm3.868225 -3.46875l0.046875 0.890625q0.796875 -1.015625 2.109375 -1.015625q2.234375 0 2.25 2.515625l0 4.65625l-1.203125 0l0 -4.65625q-0.015625 -0.765625 -0.359375 -1.125q-0.328125 -0.375 -1.0625 -0.375q-0.578125 0 -1.03125 0.3125q-0.4375 0.3125 -0.6875 0.828125l0 5.015625l-1.203125 0l0 -7.046875l1.140625 0zm5.932007 3.46875q0 -1.640625 0.75 -2.609375q0.765625 -0.984375 2.03125 -0.984375q1.28125 0 2.015625 0.90625l0.046875 -0.78125l1.109375 0l0 6.875q0 1.375 -0.8125 2.15625q-0.8125 0.78125 -2.1875 0.78125q-0.75 0 -1.484375 -0.328125q-0.734375 -0.3125 -1.109375 -0.875l0.625 -0.734375q0.765625 0.96875 1.890625 0.96875q0.875 0 1.359375 -0.5q0.5 -0.5 0.5 -1.390625l0 -0.609375q-0.71875 0.828125 -1.96875 0.828125q-1.234375 0 -2.0 -0.984375q-0.765625 -1.0 -0.765625 -2.71875zm1.203125 0.140625q0 1.1875 0.484375 1.875q0.5 0.671875 1.375 0.671875q1.140625 0 1.671875 -1.03125l0 -3.21875q-0.546875 -1.015625 -1.65625 -1.015625q-0.875 0 -1.375 0.6875q-0.5 0.6875 -0.5 2.03125z" fill-rule="nonzero"/><path fill="#000000" fill-opacity="0.0" d="m70.40157 110.272964l117.70078 0l0 38.456696l-117.70078 0z" fill-rule="evenodd"/><path fill="#a72a1e" d="m84.31022 134.42632q-1.421875 0 -2.328125 -0.9375q-0.890625 -0.9375 -0.890625 -2.515625l0 -0.21875q0 -1.046875 0.390625 -1.859375q0.40625 -0.828125 1.125 -1.296875q0.71875 -0.46875 1.5625 -0.46875q1.375 0 2.125 0.90625q0.765625 0.90625 0.765625 2.59375l0 0.5l-4.765625 0q0.015625 1.03125 0.59375 1.671875q0.59375 0.640625 1.484375 0.640625q0.640625 0 1.078125 -0.25q0.453125 -0.265625 0.78125 -0.6875l0.734375 0.5625q-0.875 1.359375 -2.65625 1.359375zm-0.140625 -6.3125q-0.734375 0 -1.234375 0.53125q-0.484375 0.53125 -0.609375 1.484375l3.53125 0l0 -0.078125q-0.046875 -0.921875 -0.5 -1.421875q-0.4375 -0.515625 -1.1875 -0.515625zm6.523285 4.546875l1.75 -5.40625l1.21875 0l-2.515625 7.046875l-0.921875 0l-2.546875 -7.046875l1.21875 0l1.796875 5.40625zm6.96492 1.765625q-1.421875 0 -2.328125 -0.9375q-0.890625 -0.9375 -0.890625 -2.515625l0 -0.21875q0 -1.046875 0.390625 -1.859375q0.40625 -0.828125 1.125 -1.296875q0.71875 -0.46875 1.5625 -0.46875q1.375 0 2.125 0.90625q0.765625 0.90625 0.765625 2.59375l0 0.5l-4.765625 0q0.015625 1.03125 0.59375 1.671875q0.59375 0.640625 1.484375 0.640625q0.640625 0 1.078125 -0.25q0.453125 -0.265625 0.78125 -0.6875l0.734375 0.5625q-0.875 1.359375 -2.65625 1.359375zm-0.140625 -6.3125q-0.734375 0 -1.234375 0.53125q-0.484375 0.53125 -0.609375 1.484375l3.53125 0l0 -0.078125q-0.046875 -0.921875 -0.5 -1.421875q-0.4375 -0.515625 -1.1875 -0.515625zm7.6860504 0.21875q-0.265625 -0.03125 -0.59375 -0.03125q-1.1875 0 -1.609375 1.0l0 5.0l-1.203125 0l0 -7.046875l1.171875 0l0.03125 0.8125q0.578125 -0.9375 1.671875 -0.9375q0.34375 0 0.53125 0.09375l0 1.109375zm3.5334015 4.203125l1.640625 -5.28125l1.28125 0l-2.828125 8.140625q-0.65625 1.75 -2.09375 1.75l-0.21875 -0.015625l-0.453125 -0.09375l0 -0.96875l0.328125 0.03125q0.609375 0 0.953125 -0.25q0.34375 -0.25 0.5625 -0.90625l0.265625 -0.71875l-2.515625 -6.96875l1.3125 0l1.765625 5.28125zm9.071762 2.75l-5.953125 0l0 -0.984375l5.953125 0l0 0.984375zm0.62265015 -4.5625q0 -1.046875 0.40625 -1.875q0.40625 -0.828125 1.125 -1.265625q0.734375 -0.453125 1.65625 -0.453125q1.4375 0 2.328125 1.0q0.890625 0.984375 0.890625 2.640625l0 0.09375q0 1.015625 -0.390625 1.84375q-0.390625 0.8125 -1.125 1.265625q-0.734375 0.453125 -1.6875 0.453125q-1.421875 0 -2.3125 -0.984375q-0.890625 -1.0 -0.890625 -2.640625l0 -0.078125zm1.203125 0.140625q0 1.171875 0.546875 1.875q0.546875 0.703125 1.453125 0.703125q0.921875 0 1.453125 -0.71875q0.546875 -0.71875 0.546875 -2.0q0 -1.171875 -0.546875 -1.890625q-0.546875 -0.71875 -1.46875 -0.71875q-0.890625 0 -1.4375 0.71875q-0.546875 0.703125 -0.546875 2.03125zm8.351196 -5.3125l0 1.703125l1.3125076 0l0 0.9375l-1.3125076 0l0 4.359375q0 0.421875 0.17188263 0.640625q0.171875 0.21875 0.59375 0.21875q0.21875 0 0.578125 -0.078125l0 0.96875q-0.46875 0.125 -0.921875 0.125q-0.8125076 0 -1.2187576 -0.484375q-0.40625 -0.484375 -0.40625 -1.390625l0 -4.359375l-1.28125 0l0 -0.9375l1.28125 0l0 -1.703125l1.203125 0zm3.9162827 2.5625q0.8125 -0.984375 2.09375 -0.984375q2.234375 0 2.25 2.515625l0 4.65625l-1.203125 0l0 -4.65625q-0.015625 -0.765625 -0.359375 -1.125q-0.328125 -0.375 -1.0625 -0.375q-0.578125 0 -1.03125 0.3125q-0.4375 0.3125 -0.6875 0.828125l0 5.015625l-1.203125 0l0 -10.0l1.203125 0l0 3.8125zm9.059631 6.3125q-1.421875 0 -2.328125 -0.9375q-0.890625 -0.9375 -0.890625 -2.515625l0 -0.21875q0 -1.046875 0.390625 -1.859375q0.40625 -0.828125 1.125 -1.296875q0.71875 -0.46875 1.5625 -0.46875q1.375 0 2.125 0.90625q0.765625 0.90625 0.765625 2.59375l0 0.5l-4.765625 0q0.015625 1.03125 0.59375 1.671875q0.59375 0.640625 1.484375 0.640625q0.640625 0 1.078125 -0.25q0.453125 -0.265625 0.78125 -0.6875l0.734375 0.5625q-0.875 1.359375 -2.65625 1.359375zm-0.140625 -6.3125q-0.734375 0 -1.234375 0.53125q-0.484375 0.53125 -0.609375 1.484375l3.53125 0l0 -0.078125q-0.046875 -0.921875 -0.5 -1.421875q-0.4375 -0.515625 -1.1875 -0.515625zm7.6860504 0.21875q-0.265625 -0.03125 -0.59375 -0.03125q-1.1875 0 -1.609375 1.0l0 5.0l-1.203125 0l0 -7.046875l1.171875 0l0.03125 0.8125q0.578125 -0.9375 1.671875 -0.9375q0.34375 0 0.53125 0.09375l0 1.109375zm0.33418274 5.34375q0 -0.3125 0.1875 -0.515625q0.1875 -0.21875 0.546875 -0.21875q0.375 0 0.5625 0.21875q0.203125 0.203125 0.203125 0.515625q0 0.296875 -0.203125 0.5q-0.1875 0.203125 -0.5625 0.203125q-0.359375 0 -0.546875 -0.203125q-0.1875 -0.203125 -0.1875 -0.5zm4.6796265 -5.5625q0.8125 -0.984375 2.09375 -0.984375q2.234375 0 2.25 2.515625l0 4.65625l-1.203125 0l0 -4.65625q-0.015625 -0.765625 -0.359375 -1.125q-0.328125 -0.375 -1.0625 -0.375q-0.578125 0 -1.03125 0.3125q-0.4375 0.3125 -0.6875 0.828125l0 5.015625l-1.203125 0l0 -10.0l1.203125 0l0 3.8125zm7.7783813 -2.5625l0 1.703125l1.3125 0l0 0.9375l-1.3125 0l0 4.359375q0 0.421875 0.171875 0.640625q0.171875 0.21875 0.59375 0.21875q0.21875 0 0.578125 -0.078125l0 0.96875q-0.46875 0.125 -0.921875 0.125q-0.8125 0 -1.21875 -0.484375q-0.40625 -0.484375 -0.40625 -1.390625l0 -4.359375l-1.28125 0l0 -0.9375l1.28125 0l0 -1.703125l1.203125 0zm3.853775 1.703125l0.03125 0.78125q0.765625 -0.90625 2.09375 -0.90625q1.46875 0 2.0 1.125q0.359375 -0.5 0.921875 -0.8125q0.5625 -0.3125 1.328125 -0.3125q2.3125 0 2.359375 2.453125l0 4.71875l-1.203125 0l0 -4.640625q0 -0.765625 -0.34375 -1.140625q-0.34375 -0.375 -1.171875 -0.375q-0.65625 0 -1.109375 0.40625q-0.4375 0.40625 -0.515625 1.078125l0 4.671875l-1.203125 0l0 -4.609375q0 -1.546875 -1.5 -1.546875q-1.1875 0 -1.625 1.015625l0 5.140625l-1.203125 0l0 -7.046875l1.140625 0zm11.853516 7.046875l-1.203125 0l0 -10.0l1.203125 0l0 10.0z" fill-rule="nonzero"/><path fill="#000000" fill-opacity="0.0" d="m129.07874 110.272964l0 -15.994881l0.34646606 0l0 -16.00512" fill-rule="evenodd"/><path stroke="#c2c2c2" stroke-width="2.0" stroke-miterlimit="8.0" stroke-linecap="butt" d="m129.07874 110.272964l0 -15.994881l0.34646606 0l0 -16.00512" fill-rule="evenodd"/><path fill="#000000" fill-opacity="0.0" d="m107.28084 262.042l0 13.417328l0.06299591 0l0 13.417328" fill-rule="evenodd"/><path stroke="#c2c2c2" stroke-width="2.0" stroke-miterlimit="8.0" stroke-linecap="butt" d="m107.28084 262.042l0 13.417328l0.06299591 0l0 13.417328" fill-rule="evenodd"/><path fill="#000000" fill-opacity="0.0" d="m314.86353 288.87665l0 -13.417328l0.06298828 0l0 -13.417328" fill-rule="evenodd"/><path stroke="#c2c2c2" stroke-width="2.0" stroke-miterlimit="8.0" stroke-linecap="butt" d="m314.86353 288.87665l0 -13.417328l0.06298828 0l0 -13.417328" fill-rule="evenodd"/><path fill="#000000" fill-opacity="0.0" d="m522.44617 288.87665l0 -13.417328l0.06304932 0l0 -13.417328" fill-rule="evenodd"/><path stroke="#c2c2c2" stroke-width="2.0" stroke-miterlimit="8.0" stroke-linecap="butt" d="m522.44617 288.87665l0 -13.417328l0.06304932 0l0 -13.417328" fill-rule="evenodd"/><path fill="#000000" fill-opacity="0.0" d="m192.63255 110.272964l117.70079 0l0 38.456696l-117.70079 0z" fill-rule="evenodd"/><path fill="#a72a1e" d="m206.21068 130.47319l-2.234375 0l0 3.828125l-1.25 0l0 -9.46875l3.140625 0q1.59375 0 2.453125 0.734375q0.875 0.71875 0.875 2.109375q0 0.890625 -0.484375 1.546875q-0.484375 0.65625 -1.328125 0.984375l2.21875 4.015625l0 0.078125l-1.34375 0l-2.046875 -3.828125zm-2.234375 -1.03125l1.921875 0q0.9375 0 1.484375 -0.46875q0.546875 -0.484375 0.546875 -1.296875q0 -0.875 -0.53125 -1.34375q-0.515625 -0.46875 -1.5 -0.484375l-1.921875 0l0 3.59375zm12.315811 0.484375l-4.109375 0l0 3.359375l4.78125 0l0 1.015625l-6.03125 0l0 -9.46875l5.953125 0l0 1.015625l-4.703125 0l0 3.046875l4.109375 0l0 1.03125zm7.450165 1.90625l-3.96875 0l-0.890625 2.46875l-1.28125 0l3.609375 -9.46875l1.09375 0l3.625 9.46875l-1.28125 0l-0.90625 -2.46875zm-3.59375 -1.03125l3.234375 0l-1.625 -4.4375l-1.609375 4.4375zm7.053894 3.5l0 -9.46875l2.6875 0q1.234375 0 2.171875 0.546875q0.953125 0.546875 1.46875 1.5625q0.53125 1.0 0.53125 2.296875l0 0.609375q0 1.34375 -0.515625 2.359375q-0.515625 1.0 -1.484375 1.546875q-0.953125 0.53125 -2.234375 0.546875l-2.625 0zm1.25 -8.453125l0 7.4375l1.3125 0q1.453125 0 2.25 -0.890625q0.8125 -0.90625 0.8125 -2.578125l0 -0.546875q0 -1.609375 -0.765625 -2.5q-0.75 -0.90625 -2.140625 -0.921875l-1.46875 0zm9.115082 -1.015625l3.09375 7.71875l3.09375 -7.71875l1.625 0l0 9.46875l-1.25 0l0 -3.6875l0.109375 -3.984375l-3.109375 7.671875l-0.953125 0l-3.109375 -7.65625l0.125 3.96875l0 3.6875l-1.25 0l0 -9.46875l1.625 0zm15.370453 5.09375l-4.109375 0l0 3.359375l4.78125 0l0 1.015625l-6.03125 0l0 -9.46875l5.953125 0l0 1.015625l-4.703125 0l0 3.046875l4.109375 0l0 1.03125zm2.0595398 3.75q0 -0.3125 0.1875 -0.515625q0.1875 -0.21875 0.546875 -0.21875q0.375 0 0.5625 0.21875q0.203125 0.203125 0.203125 0.515625q0 0.296875 -0.203125 0.5q-0.1875 0.203125 -0.5625 0.203125q-0.359375 0 -0.546875 -0.203125q-0.1875 -0.203125 -0.1875 -0.5zm4.6171265 -6.421875l0.03125 0.78125q0.765625 -0.90625 2.09375 -0.90625q1.46875 0 2.0 1.125q0.359375 -0.5 0.921875 -0.8125q0.5625 -0.3125 1.328125 -0.3125q2.3125 0 2.359375 2.453125l0 4.71875l-1.203125 0l0 -4.640625q0 -0.765625 -0.34375 -1.140625q-0.34375 -0.375 -1.171875 -0.375q-0.65625 0 -1.109375 0.40625q-0.4375 0.40625 -0.515625 1.078125l0 4.671875l-1.203125 0l0 -4.609375q0 -1.546875 -1.5 -1.546875q-1.1875 0 -1.625 1.015625l0 5.140625l-1.203125 0l0 -7.046875l1.140625 0zm10.259766 3.46875q0 -1.625 0.765625 -2.609375q0.765625 -0.984375 2.0 -0.984375q1.25 0 1.96875 0.84375l0 -3.671875l1.203125 0l0 10.0l-1.109375 0l-0.0625 -0.75q-0.71875 0.875 -2.0 0.875q-1.234375 0 -2.0 -1.0q-0.765625 -1.0 -0.765625 -2.609375l0 -0.09375zm1.203125 0.140625q0 1.1875 0.484375 1.875q0.5 0.671875 1.375 0.671875q1.140625 0 1.671875 -1.03125l0 -3.234375q-0.546875 -1.0 -1.65625 -1.0q-0.890625 0 -1.390625 0.6875q-0.484375 0.6875 -0.484375 2.03125z" fill-rule="nonzero"/><path fill="#000000" fill-opacity="0.0" d="m242.50131 110.272964l0 -16.0l0.3464508 0l0 -16.0" fill-rule="evenodd"/><path stroke="#c2c2c2" stroke-width="2.0" stroke-miterlimit="8.0" stroke-linecap="butt" d="m242.50131 110.272964l0 -16.0l0.3464508 0l0 -16.0" fill-rule="evenodd"/></g></svg>