<svg version="1.1" viewBox="0.0 0.0 287.90551181102364 141.76115485564304" fill="none" stroke="none" stroke-linecap="square" stroke-miterlimit="10" xmlns:xlink="http://www.w3.org/1999/xlink" xmlns="http://www.w3.org/2000/svg"><clipPath id="p.0"><path d="m0 0l287.90552 0l0 141.76115l-287.90552 0l0 -141.76115z" clip-rule="nonzero"/></clipPath><g clip-path="url(#p.0)"><path fill="#000000" fill-opacity="0.0" d="m0 0l287.90552 0l0 141.76115l-287.90552 0z" fill-rule="evenodd"/><path fill="#000000" fill-opacity="0.0" d="m-5.2283463 35.404198l644.0 0l0 51.716537l-644.0 0z" fill-rule="evenodd"/><path fill="#efefef" d="m3.7716537 44.404198l271.938 0l0 32.0l-271.938 0l0 -32.0z" fill-rule="nonzero"/><path fill="#000000" fill-opacity="0.0" d="m3.7716537 42.072403l271.938 0l0 35.155533l-271.938 0l0 -35.155533z" fill-rule="nonzero"/><path fill="#000000" d="m12.037278 68.316696q-1.140625 0 -1.90625 -0.453125q-0.75 -0.453125 -1.203125 -1.171875q-0.46875 -0.71875 -0.671875 -1.625q-0.203125 -0.90625 -0.203125 -1.828125l0 -0.546875q0 -0.90625 0.203125 -1.796875q0.203125 -0.90625 0.671875 -1.640625q0.46875 -0.71875 1.21875 -1.15625q0.765625 -0.453125 1.890625 -0.453125q0.734375 0 1.359375 0.25q0.625 0.234375 1.09375 0.671875q0.453125 0.421875 0.71875 1.0q0.265625 0.5625 0.28125 1.203125l2.265626 0q0 -1.078125 -0.421875 -2.015625q-0.421875 -0.9375 -1.1875 -1.625q-0.76562595 -0.671875 -1.812501 -1.0625q-1.046875 -0.40625 -2.296875 -0.40625q-1.59375 0 -2.796875 0.578125q-1.203125 0.5625 -1.9999995 1.53125q-0.796875 0.96875 -1.203125 2.25q-0.40625 1.28125 -0.40625 2.671875l0 0.546875q0 1.40625 0.40625 2.671875q0.40625 1.265625 1.203125 2.234375q0.7968745 0.96875 1.9999995 1.546875q1.203125 0.578125 2.796875 0.578125q1.125 0 2.140625 -0.375q1.03125 -0.390625 1.828126 -1.046875q0.796875 -0.640625 1.265625 -1.484375q0.484375 -0.859375 0.484375 -1.796875l-2.265626 0q-0.015625 0.578125 -0.3125 1.09375q-0.296875 0.5 -0.765625 0.859375q-0.484375 0.375 -1.109375 0.59375q-0.609375 0.203125 -1.265625 0.203125zm9.324479 -5.484375l0 0.28125q0 1.53125 0.4375 2.828125q0.4375 1.296875 1.28125 2.265625q0.8125 0.96875 2.0 1.515625q1.203125 0.546875 2.6875 0.546875q1.484375 0 2.671875 -0.546875q1.1875 -0.546875 2.015623 -1.515625q0.828125 -0.96875 1.265625 -2.265625q0.4375 -1.296875 0.4375 -2.828125l0 -0.28125q0 -1.515625 -0.4375 -2.828125q-0.4375 -1.3125 -1.265625 -2.28125q-0.8281231 -0.953125 -2.031248 -1.5q-1.1875 -0.5625 -2.671875 -0.5625q-1.484375 0 -2.671875 0.5625q-1.1875 0.546875 -2.0 1.5q-0.84375 0.96875 -1.28125 2.28125q-0.4375 1.3125 -0.4375 2.828125zm2.40625 0.28125l0 -0.28125q0 -1.03125 0.234375 -1.96875q0.25 -0.953125 0.765625 -1.65625q0.5 -0.71875 1.234375 -1.140625q0.734375 -0.421875 1.75 -0.421875q1.0 0 1.75 0.421875q0.75 0.421875 1.25 1.140625q0.5 0.703125 0.75 1.65625q0.25 0.9375 0.25 1.96875l0 0.28125q0 1.046875 -0.25 2.0q-0.234375 0.9375 -0.734375 1.65625q-0.515625 0.703125 -1.265625 1.125q-0.734375 0.421875 -1.734375 0.421875q-1.0 0 -1.75 -0.421875q-0.75 -0.421875 -1.25 -1.125q-0.515625 -0.71875 -0.765625 -1.65625q-0.234375 -0.953125 -0.234375 -2.0zm14.636976 -13.109375l0 2.109375l4.796875 0l0 15.8125l-4.796875 0l0 2.078125l11.796875 0l0 -2.078125l-4.59375 0l0 -17.921875l-7.203125 0zm14.949478 12.828125l0 0.28125q0 1.53125 0.4375 2.828125q0.4375 1.296875 1.28125 2.265625q0.8125 0.96875 2.0 1.515625q1.203125 0.546875 2.6875 0.546875q1.484375 0 2.671875 -0.546875q1.1875 -0.546875 2.015625 -1.515625q0.828125 -0.96875 1.265625 -2.265625q0.4375 -1.296875 0.4375 -2.828125l0 -0.28125q0 -1.515625 -0.4375 -2.828125q-0.4375 -1.3125 -1.265625 -2.28125q-0.828125 -0.953125 -2.03125 -1.5q-1.1875 -0.5625 -2.671875 -0.5625q-1.484375 0 -2.671875 0.5625q-1.1875 0.546875 -2.0 1.5q-0.84375 0.96875 -1.28125 2.28125q-0.4375 1.3125 -0.4375 2.828125zm2.40625 0.28125l0 -0.28125q0 -1.03125 0.234375 -1.96875q0.25 -0.953125 0.765625 -1.65625q0.5 -0.71875 1.234375 -1.140625q0.734375 -0.421875 1.75 -0.421875q1.0 0 1.75 0.421875q0.75 0.421875 1.25 1.140625q0.5 0.703125 0.75 1.65625q0.25 0.9375 0.25 1.96875l0 0.28125q0 1.046875 -0.25 2.0q-0.234375 0.9375 -0.734375 1.65625q-0.515625 0.703125 -1.265625 1.125q-0.734375 0.421875 -1.734375 0.421875q-1.0 0 -1.75 -0.421875q-0.75 -0.421875 -1.25 -1.125q-0.515625 -0.71875 -0.765625 -1.65625q-0.234375 -0.953125 -0.234375 -2.0zm23.496353 -7.453125q-1.546875 0 -2.75 0.671875q-1.203125 0.671875 -2.0625 1.828125l-0.015625 -0.359375l-0.09375 -1.875l-2.296875 0l0 14.078125l2.421875 0l0 -9.03125q0.234375 -0.65625 0.59375 -1.171875q0.359375 -0.53125 0.84375 -0.90625q0.53125 -0.40625 1.234375 -0.625q0.71875 -0.21875 1.609375 -0.21875q0.6875 0 1.3125 0.078125q0.640625 0.0625 1.34375 0.21875l0.328125 -2.34375q-0.375 -0.15625 -1.09375 -0.25q-0.71875 -0.09375 -1.375 -0.09375zm11.605728 12.78125q0 0.75 0.46875 1.28125q0.484375 0.53125 1.421875 0.53125q0.921875 0 1.40625 -0.515625q0.5 -0.53125 0.5 -1.296875q0 -0.78125 -0.484375 -1.3125q-0.484375 -0.546875 -1.421875 -0.546875q-0.953125 0 -1.421875 0.546875q-0.46875 0.546875 -0.46875 1.3125zm0 -11.40625q0 0.75 0.46875 1.28125q0.484375 0.53125 1.421875 0.53125q0.921875 0 1.40625 -0.515625q0.5 -0.53125 0.5 -1.296875q0 -0.78125 -0.484375 -1.3125q-0.484375 -0.546875 -1.421875 -0.546875q-0.953125 0 -1.421875 0.546875q-0.46875 0.546875 -0.46875 1.3125zm34.086456 7.625l-1.046875 5.34375l1.859375 0l1.046875 -5.34375l3.28125 0l0 -1.78125l-2.9375 0l0.890625 -4.609375l3.015625 0l0 -1.796875l-2.65625 0l1.0625 -5.421875l-1.859375 0l-1.0625 5.421875l-3.4375 0l1.0625 -5.421875l-1.859375 0l-1.0625 5.421875l-3.71875 0l0 1.796875l3.359375 0l-0.890625 4.609375l-3.453125 0l0 1.78125l3.109375 0l-1.046875 5.34375l1.859375 0l1.046875 -5.34375l3.4375 0zm-3.09375 -1.78125l0.890625 -4.609375l3.4375 0l-0.890625 4.609375l-3.4375 0zm24.043228 -0.125l0 -4.4375q0 -1.8125 -0.421875 -3.203125q-0.40625 -1.40625 -1.1875 -2.375q-0.796875 -0.953125 -1.9375 -1.453125q-1.140625 -0.5 -2.59375 -0.5q-1.4375 0 -2.578125 0.5q-1.140625 0.5 -1.921875 1.453125q-0.796875 0.96875 -1.21875 2.375q-0.40625 1.390625 -0.40625 3.203125l0 4.4375q0 1.8125 0.40625 3.21875q0.421875 1.390625 1.21875 2.34375q0.796875 0.96875 1.9375 1.46875q1.140625 0.484375 2.59375 0.484375q1.453125 0 2.578125 -0.5q1.140625 -0.5 1.921875 -1.453125q0.78125 -0.953125 1.1875 -2.34375q0.421875 -1.40625 0.421875 -3.21875zm-9.84375 -0.484375q0 -0.328125 0 -0.65625q0 -0.328125 0 -0.65625l0 -3.171875q0 -1.328125 0.265625 -2.328125q0.265625 -1.015625 0.8125 -1.65625q0.453125 -0.515625 1.109375 -0.78125q0.65625 -0.265625 1.515625 -0.265625q0.84375 0 1.484375 0.25q0.65625 0.25 1.09375 0.75q0.453125 0.46875 0.71875 1.203125q0.265625 0.71875 0.375 1.65625l-7.375 5.65625zm7.421875 1.0q0 1.390625 -0.28125 2.421875q-0.265625 1.015625 -0.875 1.65625q-0.4375 0.46875 -1.078125 0.71875q-0.640625 0.25 -1.453125 0.25q-0.78125 0 -1.40625 -0.21875q-0.625 -0.234375 -1.0625 -0.6875q-0.484375 -0.46875 -0.796875 -1.1875q-0.296875 -0.71875 -0.40625 -1.671875l7.359375 -5.640625q0 0.375 0 0.921875q0 0.546875 0 0.75l0 2.6875zm18.418228 -0.515625l0 -4.4375q0 -1.8125 -0.421875 -3.203125q-0.40625 -1.40625 -1.1875 -2.375q-0.796875 -0.953125 -1.9375 -1.453125q-1.140625 -0.5 -2.59375 -0.5q-1.4375 0 -2.578125 0.5q-1.140625 0.5 -1.921875 1.453125q-0.796875 0.96875 -1.21875 2.375q-0.40625 1.390625 -0.40625 3.203125l0 4.4375q0 1.8125 0.40625 3.21875q0.421875 1.390625 1.21875 2.34375q0.796875 0.96875 1.9375 1.46875q1.140625 0.484375 2.59375 0.484375q1.453125 0 2.578125 -0.5q1.140625 -0.5 1.921875 -1.453125q0.78125 -0.953125 1.1875 -2.34375q0.421875 -1.40625 0.421875 -3.21875zm-9.84375 -0.484375q0 -0.328125 0 -0.65625q0 -0.328125 0 -0.65625l0 -3.171875q0 -1.328125 0.265625 -2.328125q0.265625 -1.015625 0.8125 -1.65625q0.453125 -0.515625 1.109375 -0.78125q0.65625 -0.265625 1.515625 -0.265625q0.84375 0 1.484375 0.25q0.65625 0.25 1.09375 0.75q0.453125 0.46875 0.71875 1.203125q0.265625 0.71875 0.375 1.65625l-7.375 5.65625zm7.421875 1.0q0 1.390625 -0.28125 2.421875q-0.265625 1.015625 -0.875 1.65625q-0.4375 0.46875 -1.078125 0.71875q-0.640625 0.25 -1.453125 0.25q-0.78125 0 -1.40625 -0.21875q-0.625 -0.234375 -1.0625 -0.6875q-0.484375 -0.46875 -0.796875 -1.1875q-0.296875 -0.71875 -0.40625 -1.671875l7.359375 -5.640625q0 0.375 0 0.921875q0 0.546875 0 0.75l0 2.6875zm18.418228 -0.515625l0 -4.4375q0 -1.8125 -0.421875 -3.203125q-0.40625 -1.40625 -1.1875 -2.375q-0.796875 -0.953125 -1.9375 -1.453125q-1.140625 -0.5 -2.59375 -0.5q-1.4375 0 -2.578125 0.5q-1.140625 0.5 -1.921875 1.453125q-0.796875 0.96875 -1.21875 2.375q-0.40625 1.390625 -0.40625 3.203125l0 4.4375q0 1.8125 0.40625 3.21875q0.421875 1.390625 1.21875 2.34375q0.796875 0.96875 1.9375 1.46875q1.140625 0.484375 2.59375 0.484375q1.453125 0 2.578125 -0.5q1.140625 -0.5 1.921875 -1.453125q0.78125 -0.953125 1.1875 -2.34375q0.421875 -1.40625 0.421875 -3.21875zm-9.84375 -0.484375q0 -0.328125 0 -0.65625q0 -0.328125 0 -0.65625l0 -3.171875q0 -1.328125 0.265625 -2.328125q0.265625 -1.015625 0.8125 -1.65625q0.453125 -0.515625 1.109375 -0.78125q0.65625 -0.265625 1.515625 -0.265625q0.84375 0 1.484375 0.25q0.65625 0.25 1.09375 0.75q0.453125 0.46875 0.71875 1.203125q0.265625 0.71875 0.375 1.65625l-7.375 5.65625zm7.421875 1.0q0 1.390625 -0.28125 2.421875q-0.265625 1.015625 -0.875 1.65625q-0.4375 0.46875 -1.078125 0.71875q-0.640625 0.25 -1.453125 0.25q-0.78125 0 -1.40625 -0.21875q-0.625 -0.234375 -1.0625 -0.6875q-0.484375 -0.46875 -0.796875 -1.1875q-0.296875 -0.71875 -0.40625 -1.671875l7.359375 -5.640625q0 0.375 0 0.921875q0 0.546875 0 0.75l0 2.6875zm18.418228 -0.515625l0 -4.4375q0 -1.8125 -0.421875 -3.203125q-0.40625 -1.40625 -1.1875 -2.375q-0.796875 -0.953125 -1.9375 -1.453125q-1.140625 -0.5 -2.59375 -0.5q-1.4375 0 -2.578125 0.5q-1.140625 0.5 -1.921875 1.453125q-0.796875 0.96875 -1.21875 2.375q-0.40625 1.390625 -0.40625 3.203125l0 4.4375q0 1.8125 0.40625 3.21875q0.421875 1.390625 1.21875 2.34375q0.796875 0.96875 1.9375 1.46875q1.140625 0.484375 2.59375 0.484375q1.453125 0 2.578125 -0.5q1.140625 -0.5 1.921875 -1.453125q0.78125 -0.953125 1.1875 -2.34375q0.421875 -1.40625 0.421875 -3.21875zm-9.84375 -0.484375q0 -0.328125 0 -0.65625q0 -0.328125 0 -0.65625l0 -3.171875q0 -1.328125 0.265625 -2.328125q0.265625 -1.015625 0.8125 -1.65625q0.453125 -0.515625 1.109375 -0.78125q0.65625 -0.265625 1.515625 -0.265625q0.84375 0 1.484375 0.25q0.65625 0.25 1.09375 0.75q0.453125 0.46875 0.71875 1.203125q0.265625 0.71875 0.375 1.65625l-7.375 5.65625zm7.421875 1.0q0 1.390625 -0.28125 2.421875q-0.265625 1.015625 -0.875 1.65625q-0.4375 0.46875 -1.078125 0.71875q-0.640625 0.25 -1.453125 0.25q-0.78125 0 -1.40625 -0.21875q-0.625 -0.234375 -1.0625 -0.6875q-0.484375 -0.46875 -0.796875 -1.1875q-0.296875 -0.71875 -0.40625 -1.671875l7.359375 -5.640625q0 0.375 0 0.921875q0 0.546875 0 0.75l0 2.6875zm18.418228 -0.515625l0 -4.4375q0 -1.8125 -0.421875 -3.203125q-0.40625 -1.40625 -1.1875 -2.375q-0.796875 -0.953125 -1.9375 -1.453125q-1.140625 -0.5 -2.59375 -0.5q-1.4375 0 -2.578125 0.5q-1.140625 0.5 -1.921875 1.453125q-0.796875 0.96875 -1.21875 2.375q-0.40625 1.390625 -0.40625 3.203125l0 4.4375q0 1.8125 0.40625 3.21875q0.421875 1.390625 1.21875 2.34375q0.796875 0.96875 1.9375 1.46875q1.140625 0.484375 2.59375 0.484375q1.453125 0 2.578125 -0.5q1.140625 -0.5 1.921875 -1.453125q0.78125 -0.953125 1.1875 -2.34375q0.421875 -1.40625 0.421875 -3.21875zm-9.84375 -0.484375q0 -0.328125 0 -0.65625q0 -0.328125 0 -0.65625l0 -3.171875q0 -1.328125 0.265625 -2.328125q0.265625 -1.015625 0.8125 -1.65625q0.453125 -0.515625 1.109375 -0.78125q0.65625 -0.265625 1.515625 -0.265625q0.84375 0 1.484375 0.25q0.65625 0.25 1.09375 0.75q0.453125 0.46875 0.71875 1.203125q0.265625 0.71875 0.375 1.65625l-7.375 5.65625zm7.421875 1.0q0 1.390625 -0.28125 2.421875q-0.265625 1.015625 -0.875 1.65625q-0.4375 0.46875 -1.078125 0.71875q-0.640625 0.25 -1.453125 0.25q-0.78125 0 -1.40625 -0.21875q-0.625 -0.234375 -1.0625 -0.6875q-0.484375 -0.46875 -0.796875 -1.1875q-0.296875 -0.71875 -0.40625 -1.671875l7.359375 -5.640625q0 0.375 0 0.921875q0 0.546875 0 0.75l0 2.6875zm18.418228 -0.515625l0 -4.4375q0 -1.8125 -0.421875 -3.203125q-0.40625 -1.40625 -1.1875 -2.375q-0.796875 -0.953125 -1.9375 -1.453125q-1.140625 -0.5 -2.59375 -0.5q-1.4375 0 -2.578125 0.5q-1.140625 0.5 -1.921875 1.453125q-0.796875 0.96875 -1.21875 2.375q-0.40625 1.390625 -0.40625 3.203125l0 4.4375q0 1.8125 0.40625 3.21875q0.421875 1.390625 1.21875 2.34375q0.796875 0.96875 1.9375 1.46875q1.140625 0.484375 2.59375 0.484375q1.453125 0 2.578125 -0.5q1.140625 -0.5 1.921875 -1.453125q0.78125 -0.953125 1.1875 -2.34375q0.421875 -1.40625 0.421875 -3.21875zm-9.84375 -0.484375q0 -0.328125 0 -0.65625q0 -0.328125 0 -0.65625l0 -3.171875q0 -1.328125 0.265625 -2.328125q0.265625 -1.015625 0.8125 -1.65625q0.453125 -0.515625 1.109375 -0.78125q0.65625 -0.265625 1.515625 -0.265625q0.84375 0 1.484375 0.25q0.65625 0.25 1.09375 0.75q0.453125 0.46875 0.71875 1.203125q0.265625 0.71875 0.375 1.65625l-7.375 5.65625zm7.421875 1.0q0 1.390625 -0.28125 2.421875q-0.265625 1.015625 -0.875 1.65625q-0.4375 0.46875 -1.078125 0.71875q-0.640625 0.25 -1.453125 0.25q-0.78125 0 -1.40625 -0.21875q-0.625 -0.234375 -1.0625 -0.6875q-0.484375 -0.46875 -0.796875 -1.1875q-0.296875 -0.71875 -0.40625 -1.671875l7.359375 -5.640625q0 0.375 0 0.921875q0 0.546875 0 0.75l0 2.6875zm18.418228 -0.515625l0 -4.4375q0 -1.8125 -0.421875 -3.203125q-0.40625 -1.40625 -1.1875 -2.375q-0.796875 -0.953125 -1.9375 -1.453125q-1.140625 -0.5 -2.59375 -0.5q-1.4375 0 -2.578125 0.5q-1.140625 0.5 -1.921875 1.453125q-0.796875 0.96875 -1.21875 2.375q-0.40625 1.390625 -0.40625 3.203125l0 4.4375q0 1.8125 0.40625 3.21875q0.421875 1.390625 1.21875 2.34375q0.796875 0.96875 1.9375 1.46875q1.140625 0.484375 2.59375 0.484375q1.453125 0 2.578125 -0.5q1.140625 -0.5 1.921875 -1.453125q0.78125 -0.953125 1.1875 -2.34375q0.421875 -1.40625 0.421875 -3.21875zm-9.84375 -0.484375q0 -0.328125 0 -0.65625q0 -0.328125 0 -0.65625l0 -3.171875q0 -1.328125 0.265625 -2.328125q0.265625 -1.015625 0.8125 -1.65625q0.453125 -0.515625 1.109375 -0.78125q0.65625 -0.265625 1.515625 -0.265625q0.84375 0 1.484375 0.25q0.65625 0.25 1.09375 0.75q0.453125 0.46875 0.71875 1.203125q0.265625 0.71875 0.375 1.65625l-7.375 5.65625zm7.421875 1.0q0 1.390625 -0.28125 2.421875q-0.265625 1.015625 -0.875 1.65625q-0.4375 0.46875 -1.078125 0.71875q-0.640625 0.25 -1.453125 0.25q-0.78125 0 -1.40625 -0.21875q-0.625 -0.234375 -1.0625 -0.6875q-0.484375 -0.46875 -0.796875 -1.1875q-0.296875 -0.71875 -0.40625 -1.671875l7.359375 -5.640625q0 0.375 0 0.921875q0 0.546875 0 0.75l0 2.6875zm18.418259 -0.515625l0 -4.4375q0 -1.8125 -0.421875 -3.203125q-0.40625 -1.40625 -1.1875 -2.375q-0.79689026 -0.953125 -1.9375153 -1.453125q-1.140625 -0.5 -2.59375 -0.5q-1.4375153 0 -2.5781403 0.5q-1.140625 0.5 -1.921875 1.453125q-0.796875 0.96875 -1.21875 2.375q-0.40625 1.390625 -0.40625 3.203125l0 4.4375q0 1.8125 0.40625 3.21875q0.421875 1.390625 1.21875 2.34375q0.796875 0.96875 1.9375 1.46875q1.140625 0.484375 2.5937653 0.484375q1.453125 0 2.578125 -0.5q1.140625 -0.5 1.9218903 -1.453125q0.78125 -0.953125 1.1875 -2.34375q0.421875 -1.40625 0.421875 -3.21875zm-9.8437805 -0.484375q0 -0.328125 0 -0.65625q0 -0.328125 0 -0.65625l0 -3.171875q0 -1.328125 0.265625 -2.328125q0.265625 -1.015625 0.8125 -1.65625q0.453125 -0.515625 1.109375 -0.78125q0.65626526 -0.265625 1.5156403 -0.265625q0.84375 0 1.484375 0.25q0.65625 0.25 1.09375 0.75q0.453125 0.46875 0.71875 1.203125q0.265625 0.71875 0.375 1.65625l-7.3750153 5.65625zm7.4218903 1.0q0 1.390625 -0.28125 2.421875q-0.265625 1.015625 -0.875 1.65625q-0.4375 0.46875 -1.078125 0.71875q-0.640625 0.25 -1.453125 0.25q-0.78125 0 -1.4062653 -0.21875q-0.625 -0.234375 -1.0625 -0.6875q-0.484375 -0.46875 -0.796875 -1.1875q-0.296875 -0.71875 -0.40625 -1.671875l7.3593903 -5.640625q0 0.375 0 0.921875q0 0.546875 0 0.75l0 2.6875zm11.246353 -6.234375q0 0.75 0.46875 1.28125q0.484375 0.53125 1.421875 0.53125q0.921875 0 1.40625 -0.515625q0.5 -0.53125 0.5 -1.296875q0 -0.78125 -0.484375 -1.3125q-0.484375 -0.546875 -1.421875 -0.546875q-0.953125 0 -1.421875 0.546875q-0.46875 0.546875 -0.46875 1.3125zm3.109375 12.40625l0 -2.28125l-2.625 0l0 2.328125q0 1.09375 -0.265625 2.125q-0.25 1.03125 -0.875 1.9375l1.5 0.828125q1.03125 -0.921875 1.640625 -2.28125q0.625 -1.359375 0.625 -2.65625z" fill-rule="nonzero"/><path fill="#000000" fill-opacity="0.0" d="m275.70966 42.072403l0 0l0 35.155533l0 0l0 -35.155533z" fill-rule="nonzero"/><path fill="#ff0000" fill-opacity="0.3687" d="m133.95013 38.33858l31.968506 0l0 67.93701l-31.968506 0z" fill-rule="evenodd"/><path fill="#00ff00" fill-opacity="0.2458" d="m165.91864 38.33858l30.362198 0l0 79.18111l-30.362198 0z" fill-rule="evenodd"/><path fill="#9cdcfe" fill-opacity="0.4469" d="m196.28084 38.33858l31.968506 0l0 67.93701l-31.968506 0z" fill-rule="evenodd"/><path fill="#ff0000" fill-opacity="0.3687" d="m78.33071 87.120735l55.622047 0l0 19.149605l-55.622047 0z" fill-rule="evenodd"/><path fill="#666666" d="m97.369446 103.09554l0 -6.90625l1.0625 0l0 1.046875q0.40625 -0.734375 0.734375 -0.96875q0.34375 -0.234375 0.765625 -0.234375q0.59375 0 1.203125 0.375l-0.40625 1.078125q-0.4375 -0.25 -0.859375 -0.25q-0.390625 0 -0.703125 0.234375q-0.296875 0.234375 -0.421875 0.640625q-0.203125 0.625 -0.203125 1.359375l0 3.625l-1.171875 0zm9.18837 -2.21875l1.203125 0.140625q-0.28125 1.0625 -1.0625 1.65625q-0.765625 0.578125 -1.96875 0.578125q-1.515625 0 -2.40625 -0.9375q-0.890625 -0.9375 -0.890625 -2.609375q0 -1.75 0.890625 -2.703125q0.90625 -0.96875 2.34375 -0.96875q1.390625 0 2.265625 0.9375q0.875 0.9375 0.875 2.65625q0 0.109375 0 0.3125l-5.15625 0q0.0625 1.140625 0.640625 1.75q0.578125 0.59375 1.4375 0.59375q0.65625 0 1.109375 -0.328125q0.453125 -0.34375 0.71875 -1.078125zm-3.84375 -1.90625l3.859375 0q-0.078125 -0.859375 -0.4375 -1.296875q-0.5625 -0.6875 -1.453125 -0.6875q-0.8125 0 -1.359375 0.546875q-0.546875 0.53125 -0.609375 1.4375zm11.006226 4.125l0 -0.875q-0.65625 1.03125 -1.9375 1.03125q-0.8125 0 -1.515625 -0.453125q-0.6875 -0.453125 -1.078125 -1.265625q-0.375 -0.828125 -0.375 -1.890625q0 -1.03125 0.34375 -1.875q0.34375 -0.84375 1.03125 -1.28125q0.703125 -0.453125 1.546875 -0.453125q0.625 0 1.109375 0.265625q0.5 0.25 0.796875 0.671875l0 -3.421875l1.171875 0l0 9.546875l-1.09375 0zm-3.703125 -3.453125q0 1.328125 0.5625 1.984375q0.5625 0.65625 1.328125 0.65625q0.765625 0 1.296875 -0.625q0.53125 -0.625 0.53125 -1.90625q0 -1.421875 -0.546875 -2.078125q-0.546875 -0.671875 -1.34375 -0.671875q-0.78125 0 -1.3125 0.640625q-0.515625 0.625 -0.515625 2.0z" fill-rule="nonzero"/><path fill="#00ff00" fill-opacity="0.2458" d="m153.28871 117.519684l55.622055 0l0 19.149612l-55.622055 0z" fill-rule="evenodd"/><path fill="#666666" d="m164.71185 134.07262l1.140625 0.15625q0.078125 0.53125 0.40625 0.78125q0.4375 0.3125 1.1875 0.3125q0.8125 0 1.25 -0.328125q0.453125 -0.3125 0.609375 -0.90625q0.09375 -0.359375 0.078125 -1.5q-0.765625 0.90625 -1.90625 0.90625q-1.4375 0 -2.21875 -1.03125q-0.78125 -1.03125 -0.78125 -2.46875q0 -0.984375 0.359375 -1.8125q0.359375 -0.84375 1.03125 -1.296875q0.6875 -0.453125 1.609375 -0.453125q1.21875 0 2.015625 0.984375l0 -0.828125l1.078125 0l0 5.96875q0 1.609375 -0.328125 2.28125q-0.328125 0.6875 -1.046875 1.078125q-0.703125 0.390625 -1.75 0.390625q-1.234375 0 -2.0 -0.5625q-0.75 -0.5625 -0.734375 -1.671875zm0.984375 -4.15625q0 1.359375 0.53125 1.984375q0.546875 0.625 1.359375 0.625q0.796875 0 1.34375 -0.625q0.546875 -0.625 0.546875 -1.953125q0 -1.265625 -0.5625 -1.90625q-0.5625 -0.640625 -1.359375 -0.640625q-0.765625 0 -1.3125 0.640625q-0.546875 0.625 -0.546875 1.875zm6.6312256 3.578125l0 -6.90625l1.0625 0l0 1.046875q0.40625 -0.734375 0.734375 -0.96875q0.34375 -0.234375 0.765625 -0.234375q0.59375 0 1.203125 0.375l-0.40625 1.078125q-0.4375 -0.25 -0.859375 -0.25q-0.390625 0 -0.703125 0.234375q-0.296875 0.234375 -0.421875 0.640625q-0.203125 0.625 -0.203125 1.359375l0 3.625l-1.171875 0zm9.18837 -2.21875l1.203125 0.140625q-0.28125 1.0625 -1.0625 1.65625q-0.765625 0.578125 -1.96875 0.578125q-1.515625 0 -2.40625 -0.9375q-0.890625 -0.9375 -0.890625 -2.609375q0 -1.75 0.890625 -2.703125q0.90625 -0.96875 2.34375 -0.96875q1.390625 0 2.265625 0.9375q0.875 0.9375 0.875 2.65625q0 0.109375 0 0.3125l-5.15625 0q0.0625 1.140625 0.640625 1.75q0.578125 0.59375 1.4375 0.59375q0.65625 0 1.109375 -0.328125q0.453125 -0.34375 0.71875 -1.078125zm-3.84375 -1.90625l3.859375 0q-0.078125 -0.859375 -0.4375 -1.296875q-0.5625 -0.6875 -1.453125 -0.6875q-0.8125 0 -1.359375 0.546875q-0.546875 0.53125 -0.609375 1.4375zm11.256226 1.90625l1.203125 0.140625q-0.28125 1.0625 -1.0625 1.65625q-0.765625 0.578125 -1.96875 0.578125q-1.515625 0 -2.40625 -0.9375q-0.890625 -0.9375 -0.890625 -2.609375q0 -1.75 0.890625 -2.703125q0.90625 -0.96875 2.34375 -0.96875q1.390625 0 2.265625 0.9375q0.875 0.9375 0.875 2.65625q0 0.109375 0 0.3125l-5.15625 0q0.0625 1.140625 0.640625 1.75q0.578125 0.59375 1.4375 0.59375q0.65625 0 1.109375 -0.328125q0.453125 -0.34375 0.71875 -1.078125zm-3.84375 -1.90625l3.859375 0q-0.078125 -0.859375 -0.4375 -1.296875q-0.5625 -0.6875 -1.453125 -0.6875q-0.8125 0 -1.359375 0.546875q-0.546875 0.53125 -0.609375 1.4375zm6.5218506 4.125l0 -6.90625l1.0625 0l0 0.984375q0.75 -1.140625 2.1875 -1.140625q0.625 0 1.15625 0.21875q0.53125 0.21875 0.78125 0.59375q0.265625 0.359375 0.375 0.859375q0.0625 0.328125 0.0625 1.140625l0 4.25l-1.171875 0l0 -4.203125q0 -0.71875 -0.140625 -1.0625q-0.140625 -0.359375 -0.484375 -0.5625q-0.34375 -0.21875 -0.8125 -0.21875q-0.75 0 -1.296875 0.46875q-0.546875 0.46875 -0.546875 1.796875l0 3.78125l-1.171875 0z" fill-rule="nonzero"/><path fill="#9cdcfe" fill-opacity="0.4469" d="m228.24934 87.120735l55.622055 0l0 19.149605l-55.622055 0z" fill-rule="evenodd"/><path fill="#666666" d="m245.41423 103.09554l-1.078125 0l0 -9.546875l1.171875 0l0 3.40625q0.734375 -0.921875 1.890625 -0.921875q0.640625 0 1.203125 0.265625q0.578125 0.25 0.9375 0.71875q0.375 0.453125 0.578125 1.109375q0.203125 0.65625 0.203125 1.40625q0 1.78125 -0.875 2.75q-0.875 0.96875 -2.109375 0.96875q-1.21875 0 -1.921875 -1.015625l0 0.859375zm0 -3.5q0 1.234375 0.328125 1.78125q0.5625 0.90625 1.5 0.90625q0.765625 0 1.328125 -0.65625q0.5625 -0.671875 0.5625 -2.0q0 -1.34375 -0.546875 -1.984375q-0.53125 -0.65625 -1.296875 -0.65625q-0.765625 0 -1.328125 0.671875q-0.546875 0.671875 -0.546875 1.9375zm6.3187256 3.5l0 -9.546875l1.171875 0l0 9.546875l-1.171875 0zm7.5079803 0l0 -1.015625q-0.8125 1.171875 -2.1875 1.171875q-0.609375 0 -1.1406403 -0.234375q-0.53125 -0.234375 -0.796875 -0.578125q-0.25 -0.359375 -0.359375 -0.875q-0.0625 -0.34375 -0.0625 -1.09375l0 -4.28125l1.171875 0l0 3.828125q0 0.921875 0.0625 1.234375q0.10939026 0.46875 0.46876526 0.734375q0.359375 0.25 0.890625 0.25q0.515625 0 0.984375 -0.265625q0.46875 -0.265625 0.65625 -0.734375q0.1875 -0.46875 0.1875 -1.34375l0 -3.703125l1.171875 0l0 6.90625l-1.046875 0zm7.6156006 -2.21875l1.203125 0.140625q-0.28125 1.0625 -1.0625 1.65625q-0.765625 0.578125 -1.96875 0.578125q-1.515625 0 -2.40625 -0.9375q-0.890625 -0.9375 -0.890625 -2.609375q0 -1.75 0.890625 -2.703125q0.90625 -0.96875 2.34375 -0.96875q1.390625 0 2.265625 0.9375q0.875 0.9375 0.875 2.65625q0 0.109375 0 0.3125l-5.15625 0q0.0625 1.140625 0.640625 1.75q0.578125 0.59375 1.4375 0.59375q0.65625 0 1.109375 -0.328125q0.453125 -0.34375 0.71875 -1.078125zm-3.84375 -1.90625l3.859375 0q-0.078125 -0.859375 -0.4375 -1.296875q-0.5625 -0.6875 -1.453125 -0.6875q-0.8125 0 -1.359375 0.546875q-0.546875 0.53125 -0.609375 1.4375z" fill-rule="nonzero"/><path fill="#ff00ff" fill-opacity="0.2291" d="m228.24934 2.5013123l34.645676 0l0 79.1811l-34.645676 0z" fill-rule="evenodd"/><path fill="#000000" fill-opacity="0.0" d="m273.2756 2.5013123l86.99213 0l0 42.015747l-86.99213 0z" fill-rule="evenodd"/><path fill="#ff00ff" fill-opacity="0.2291" d="m114.456696 2.5013123l113.79527 0l0 19.149607l-113.79527 0z" fill-rule="evenodd"/><path fill="#666666" d="m128.84732 17.616745q-0.65625 0.5625 -1.265625 0.796875q-0.59375 0.21875 -1.28125 0.21875q-1.140625 0 -1.75 -0.546875q-0.609375 -0.5625 -0.609375 -1.4375q0 -0.5 0.21875 -0.921875q0.234375 -0.421875 0.609375 -0.671875q0.375 -0.25 0.84375 -0.390625q0.34375 -0.078125 1.046875 -0.171875q1.421875 -0.171875 2.09375 -0.40625q0 -0.234375 0 -0.296875q0 -0.71875 -0.328125 -1.015625q-0.453125 -0.390625 -1.34375 -0.390625q-0.8125 0 -1.21875 0.296875q-0.390625 0.28125 -0.578125 1.015625l-1.140625 -0.15625q0.15625 -0.734375 0.515625 -1.1875q0.359375 -0.453125 1.03125 -0.6875q0.671875 -0.25 1.5625 -0.25q0.890625 0 1.4375 0.203125q0.5625 0.203125 0.8125 0.53125q0.265625 0.3125 0.375 0.796875q0.046875 0.296875 0.046875 1.078125l0 1.5625q0 1.625 0.078125 2.0625q0.078125 0.4375 0.296875 0.828125l-1.21875 0q-0.1875 -0.359375 -0.234375 -0.859375zm-0.09375 -2.609375q-0.640625 0.265625 -1.921875 0.4375q-0.71875 0.109375 -1.015625 0.25q-0.296875 0.125 -0.46875 0.375q-0.15625 0.25 -0.15625 0.546875q0 0.46875 0.34375 0.78125q0.359375 0.3125 1.046875 0.3125q0.671875 0 1.203125 -0.296875q0.53125 -0.296875 0.78125 -0.8125q0.1875 -0.390625 0.1875 -1.171875l0 -0.421875zm2.9749756 3.46875l0 -9.546875l1.171875 0l0 9.546875l-1.171875 0zm2.976715 2.65625l0 -9.5625l1.078125 0l0 0.890625q0.375 -0.53125 0.84375 -0.78125q0.484375 -0.265625 1.15625 -0.265625q0.875 0 1.546875 0.453125q0.6875 0.453125 1.03125 1.28125q0.34375 0.828125 0.34375 1.828125q0 1.046875 -0.375 1.90625q-0.375 0.84375 -1.109375 1.296875q-0.71875 0.453125 -1.53125 0.453125q-0.578125 0 -1.046875 -0.25q-0.46875 -0.25 -0.765625 -0.625l0 3.375l-1.171875 0zm1.0625 -6.078125q0 1.34375 0.53125 1.984375q0.546875 0.625 1.3125 0.625q0.78125 0 1.34375 -0.65625q0.5625 -0.65625 0.5625 -2.046875q0 -1.3125 -0.546875 -1.96875q-0.546875 -0.671875 -1.296875 -0.671875q-0.75 0 -1.328125 0.703125q-0.578125 0.703125 -0.578125 2.03125zm6.3499756 3.421875l0 -9.546875l1.171875 0l0 3.421875q0.828125 -0.9375 2.078125 -0.9375q0.765625 0 1.328125 0.296875q0.5625 0.296875 0.8125 0.84375q0.25 0.53125 0.25 1.546875l0 4.375l-1.171875 0l0 -4.375q0 -0.890625 -0.390625 -1.28125q-0.375 -0.40625 -1.078125 -0.40625q-0.515625 0 -0.984375 0.28125q-0.453125 0.265625 -0.65625 0.734375q-0.1875 0.453125 -0.1875 1.265625l0 3.78125l-1.171875 0zm11.928101 -0.859375q-0.65625 0.5625 -1.265625 0.796875q-0.59375 0.21875 -1.28125 0.21875q-1.140625 0 -1.75 -0.546875q-0.609375 -0.5625 -0.609375 -1.4375q0 -0.5 0.21875 -0.921875q0.234375 -0.421875 0.609375 -0.671875q0.375 -0.25 0.84375 -0.390625q0.34375 -0.078125 1.046875 -0.171875q1.421875 -0.171875 2.09375 -0.40625q0 -0.234375 0 -0.296875q0 -0.71875 -0.328125 -1.015625q-0.453125 -0.390625 -1.34375 -0.390625q-0.8125 0 -1.21875 0.296875q-0.390625 0.28125 -0.578125 1.015625l-1.140625 -0.15625q0.15625 -0.734375 0.515625 -1.1875q0.359375 -0.453125 1.03125 -0.6875q0.671875 -0.25 1.5625 -0.25q0.890625 0 1.4375 0.203125q0.5625 0.203125 0.8125 0.53125q0.265625 0.3125 0.375 0.796875q0.046875 0.296875 0.046875 1.078125l0 1.5625q0 1.625 0.078125 2.0625q0.078125 0.4375 0.296875 0.828125l-1.21875 0q-0.1875 -0.359375 -0.234375 -0.859375zm-0.09375 -2.609375q-0.640625 0.265625 -1.921875 0.4375q-0.71875 0.109375 -1.015625 0.25q-0.296875 0.125 -0.46875 0.375q-0.15625 0.25 -0.15625 0.546875q0 0.46875 0.34375 0.78125q0.359375 0.3125 1.046875 0.3125q0.671875 0 1.203125 -0.296875q0.53125 -0.296875 0.78125 -0.8125q0.1875 -0.390625 0.1875 -1.171875l0 -0.421875zm8.943588 6.28125q-0.984375 -1.234375 -1.65625 -2.875q-0.65625 -1.640625 -0.65625 -3.390625q0 -1.546875 0.5 -2.96875q0.578125 -1.640625 1.8125 -3.28125l0.828125 0q-0.78125 1.359375 -1.03125 1.9375q-0.40625 0.890625 -0.625 1.875q-0.28125 1.21875 -0.28125 2.4375q0 3.140625 1.9375 6.265625l-0.828125 0zm1.7508698 -6.265625q0 -1.921875 1.078125 -2.84375q0.890625 -0.765625 2.171875 -0.765625q1.421875 0 2.328125 0.9375q0.90625 0.921875 0.90625 2.578125q0 1.328125 -0.40625 2.09375q-0.390625 0.765625 -1.15625 1.1875q-0.765625 0.421875 -1.671875 0.421875q-1.453125 0 -2.359375 -0.921875q-0.890625 -0.9375 -0.890625 -2.6875zm1.203125 0q0 1.328125 0.578125 1.984375q0.59375 0.65625 1.46875 0.65625q0.875 0 1.453125 -0.65625q0.578125 -0.671875 0.578125 -2.03125q0 -1.28125 -0.59375 -1.9375q-0.578125 -0.65625 -1.4375 -0.65625q-0.875 0 -1.46875 0.65625q-0.578125 0.65625 -0.578125 1.984375zm6.6468506 6.109375l0 -9.5625l1.078125 0l0 0.890625q0.375 -0.53125 0.84375 -0.78125q0.484375 -0.265625 1.15625 -0.265625q0.875 0 1.546875 0.453125q0.6875 0.453125 1.03125 1.28125q0.34375 0.828125 0.34375 1.828125q0 1.046875 -0.375 1.90625q-0.375 0.84375 -1.109375 1.296875q-0.71875 0.453125 -1.53125 0.453125q-0.578125 0 -1.046875 -0.25q-0.46875 -0.25 -0.765625 -0.625l0 3.375l-1.171875 0zm1.0625 -6.078125q0 1.34375 0.53125 1.984375q0.546875 0.625 1.3125 0.625q0.78125 0 1.34375 -0.65625q0.5625 -0.65625 0.5625 -2.046875q0 -1.3125 -0.546875 -1.96875q-0.546875 -0.671875 -1.296875 -0.671875q-0.75 0 -1.328125 0.703125q-0.578125 0.703125 -0.578125 2.03125zm8.912476 2.375l0.171875 1.03125q-0.5 0.109375 -0.890625 0.109375q-0.640625 0 -1.0 -0.203125q-0.34375 -0.203125 -0.484375 -0.53125q-0.140625 -0.328125 -0.140625 -1.390625l0 -3.96875l-0.859375 0l0 -0.90625l0.859375 0l0 -1.71875l1.171875 -0.703125l0 2.421875l1.171875 0l0 0.90625l-1.171875 0l0 4.046875q0 0.5 0.046875 0.640625q0.0625 0.140625 0.203125 0.234375q0.140625 0.078125 0.40625 0.078125q0.203125 0 0.515625 -0.046875zm1.1561127 -7.140625l0 -1.359375l1.171875 0l0 1.359375l-1.171875 0zm0 8.1875l0 -6.90625l1.171875 0l0 6.90625l-1.171875 0zm2.507965 -3.453125q0 -1.921875 1.078125 -2.84375q0.890625 -0.765625 2.171875 -0.765625q1.421875 0 2.328125 0.9375q0.90625 0.921875 0.90625 2.578125q0 1.328125 -0.40625 2.09375q-0.390625 0.765625 -1.15625 1.1875q-0.765625 0.421875 -1.671875 0.421875q-1.453125 0 -2.359375 -0.921875q-0.890625 -0.9375 -0.890625 -2.6875zm1.203125 0q0 1.328125 0.578125 1.984375q0.59375 0.65625 1.46875 0.65625q0.875 0 1.453125 -0.65625q0.578125 -0.671875 0.578125 -2.03125q0 -1.28125 -0.59375 -1.9375q-0.578125 -0.65625 -1.4375 -0.65625q-0.875 0 -1.46875 0.65625q-0.578125 0.65625 -0.578125 1.984375zm6.6468506 3.453125l0 -6.90625l1.0625 0l0 0.984375q0.75 -1.140625 2.1875 -1.140625q0.625 0 1.15625 0.21875q0.53125 0.21875 0.78125 0.59375q0.265625 0.359375 0.375 0.859375q0.0625 0.328125 0.0625 1.140625l0 4.25l-1.171875 0l0 -4.203125q0 -0.71875 -0.140625 -1.0625q-0.140625 -0.359375 -0.484375 -0.5625q-0.34375 -0.21875 -0.8125 -0.21875q-0.75 0 -1.296875 0.46875q-0.546875 0.46875 -0.546875 1.796875l0 3.78125l-1.171875 0zm11.928101 -0.859375q-0.65625 0.5625 -1.265625 0.796875q-0.59375 0.21875 -1.28125 0.21875q-1.140625 0 -1.75 -0.546875q-0.609375 -0.5625 -0.609375 -1.4375q0 -0.5 0.21875 -0.921875q0.234375 -0.421875 0.609375 -0.671875q0.375 -0.25 0.84375 -0.390625q0.34375 -0.078125 1.046875 -0.171875q1.421875 -0.171875 2.09375 -0.40625q0 -0.234375 0 -0.296875q0 -0.71875 -0.328125 -1.015625q-0.453125 -0.390625 -1.34375 -0.390625q-0.8125 0 -1.21875 0.296875q-0.390625 0.28125 -0.578125 1.015625l-1.140625 -0.15625q0.15625 -0.734375 0.515625 -1.1875q0.359375 -0.453125 1.03125 -0.6875q0.671875 -0.25 1.5625 -0.25q0.890625 0 1.4375 0.203125q0.5625 0.203125 0.8125 0.53125q0.265625 0.3125 0.375 0.796875q0.046875 0.296875 0.046875 1.078125l0 1.5625q0 1.625 0.078125 2.0625q0.078125 0.4375 0.296875 0.828125l-1.21875 0q-0.1875 -0.359375 -0.234375 -0.859375zm-0.09375 -2.609375q-0.640625 0.265625 -1.921875 0.4375q-0.71875 0.109375 -1.015625 0.25q-0.296875 0.125 -0.46875 0.375q-0.15625 0.25 -0.15625 0.546875q0 0.46875 0.34375 0.78125q0.359375 0.3125 1.046875 0.3125q0.671875 0 1.203125 -0.296875q0.53125 -0.296875 0.78125 -0.8125q0.1875 -0.390625 0.1875 -1.171875l0 -0.421875zm2.9749756 3.46875l0 -9.546875l1.171875 0l0 9.546875l-1.171875 0zm3.74234 2.8125l-0.828125 0q1.9375 -3.125 1.9375 -6.265625q0 -1.21875 -0.28125 -2.421875q-0.21875 -0.984375 -0.609375 -1.875q-0.265625 -0.59375 -1.046875 -1.953125l0.828125 0q1.234375 1.640625 1.8125 3.28125q0.5 1.421875 0.5 2.96875q0 1.75 -0.671875 3.390625q-0.671875 1.640625 -1.640625 2.875z" fill-rule="nonzero"/></g></svg>