<svg version="1.1" viewBox="0.0 0.0 634.0 362.0" fill="none" stroke="none" stroke-linecap="square" stroke-miterlimit="10" xmlns:xlink="http://www.w3.org/1999/xlink" xmlns="http://www.w3.org/2000/svg"><clipPath id="p.0"><path d="m0 0l634.0 0l0 362.0l-634.0 0l0 -362.0z" clip-rule="nonzero"/></clipPath><g clip-path="url(#p.0)"><path fill="#000000" fill-opacity="0.0" d="m0 0l634.0 0l0 362.0l-634.0 0z" fill-rule="evenodd"/><path fill="#000000" fill-opacity="0.0" d="m9.249344 12.12336l271.27557 0l0 132.50394l-271.27557 0z" fill-rule="evenodd"/><path stroke="#00ffff" stroke-width="4.0" stroke-linejoin="round" stroke-linecap="butt" stroke-dasharray="4.0,12.0" d="m9.249344 12.12336l271.27557 0l0 132.50394l-271.27557 0z" fill-rule="evenodd"/><path fill="#000000" d="m18.858719 39.043358l2.015625 -9.671875l1.65625 0l-0.34375 1.59375q0.921875 -1.03125 1.640625 -1.421875q0.734375 -0.390625 1.578125 -0.390625q0.90625 0 1.515625 0.484375q0.609375 0.46875 0.796875 1.328125q0.734375 -0.90625 1.546875 -1.359375q0.8125 -0.453125 1.71875 -0.453125q1.21875 0 1.8125 0.578125q0.609375 0.5625 0.609375 1.609375q0 0.4375 -0.203125 1.46875l-1.3125 6.234375l-1.640625 0l1.328125 -6.390625q0.171875 -0.78125 0.171875 -1.125q0 -0.46875 -0.296875 -0.734375q-0.296875 -0.28125 -0.84375 -0.28125q-0.75 0 -1.515625 0.453125q-0.765625 0.4375 -1.1875 1.171875q-0.421875 0.71875 -0.734375 2.21875l-0.984375 4.6875l-1.65625 0l1.375 -6.53125q0.140625 -0.671875 0.140625 -0.953125q0 -0.46875 -0.296875 -0.75q-0.296875 -0.296875 -0.765625 -0.296875q-0.703125 0 -1.484375 0.453125q-0.765625 0.4375 -1.25 1.234375q-0.46875 0.796875 -0.78125 2.265625l-0.953125 4.578125l-1.65625 0zm22.072052 -1.203125q-0.859375 0.734375 -1.65625 1.078125q-0.78125 0.34375 -1.6875 0.34375q-1.34375 0 -2.171875 -0.78125q-0.8125 -0.796875 -0.8125 -2.03125q0 -0.796875 0.375 -1.421875q0.375 -0.625 0.984375 -1.0q0.609375 -0.390625 1.484375 -0.546875q0.5625 -0.109375 2.109375 -0.171875q1.5625 -0.0625 2.234375 -0.328125q0.1875 -0.671875 0.1875 -1.125q0 -0.578125 -0.421875 -0.90625q-0.5625 -0.453125 -1.671875 -0.453125q-1.03125 0 -1.703125 0.46875q-0.65625 0.453125 -0.953125 1.296875l-1.671875 -0.140625q0.515625 -1.4375 1.609375 -2.203125q1.109375 -0.765625 2.796875 -0.765625q1.796875 0 2.84375 0.859375q0.796875 0.625 0.796875 1.65625q0 0.765625 -0.21875 1.796875l-0.53125 2.40625q-0.265625 1.140625 -0.265625 1.859375q0 0.453125 0.203125 1.3125l-1.671875 0q-0.125 -0.46875 -0.1875 -1.203125zm0.609375 -3.703125q-0.34375 0.140625 -0.75 0.21875q-0.390625 0.0625 -1.3125 0.15625q-1.4375 0.125 -2.03125 0.328125q-0.59375 0.1875 -0.90625 0.625q-0.296875 0.421875 -0.296875 0.9375q0 0.6875 0.484375 1.140625q0.484375 0.4375 1.359375 0.4375q0.828125 0 1.578125 -0.421875q0.75 -0.4375 1.1875 -1.203125q0.4375 -0.78125 0.6875 -2.21875zm3.2507172 4.90625l2.015625 -9.671875l1.453125 0l-0.40625 1.96875q0.75 -1.109375 1.453125 -1.640625q0.71875 -0.546875 1.46875 -0.546875q0.5 0 1.21875 0.359375l-0.671875 1.53125q-0.4375 -0.3125 -0.9375 -0.3125q-0.875 0 -1.78125 0.96875q-0.90625 0.953125 -1.4375 3.46875l-0.8125 3.875l-1.5625 0zm6.118927 0.875l1.671875 0.15625q-0.03125 0.5625 0.125 0.84375q0.15625 0.28125 0.5 0.4375q0.4375 0.203125 1.15625 0.203125q1.484375 0 2.140625 -0.78125q0.4375 -0.515625 0.796875 -2.25l0.171875 -0.78125q-1.296875 1.296875 -2.734375 1.296875q-1.46875 0 -2.46875 -1.078125q-0.984375 -1.078125 -0.984375 -3.0625q0 -1.625 0.78125 -2.984375q0.78125 -1.375 1.859375 -2.0625q1.078125 -0.703125 2.203125 -0.703125q1.90625 0 2.9375 1.796875l0.328125 -1.578125l1.515625 0l-1.953125 9.328125q-0.3125 1.546875 -0.84375 2.40625q-0.515625 0.859375 -1.4375 1.328125q-0.921875 0.484375 -2.140625 0.484375q-1.15625 0 -2.0 -0.3125q-0.84375 -0.296875 -1.265625 -0.875q-0.40625 -0.578125 -0.40625 -1.328125q0 -0.21875 0.046875 -0.484375zm2.0625 -5.15625q0 1.0 0.1875 1.5q0.265625 0.6875 0.765625 1.0625q0.515625 0.375 1.140625 0.375q0.8125 0 1.609375 -0.5625q0.796875 -0.578125 1.296875 -1.765625q0.5 -1.203125 0.5 -2.28125q0 -1.203125 -0.671875 -1.90625q-0.65625 -0.703125 -1.625 -0.703125q-0.609375 0 -1.171875 0.328125q-0.5625 0.3125 -1.046875 0.984375q-0.484375 0.65625 -0.734375 1.578125q-0.25 0.921875 -0.25 1.390625zm10.735092 -7.203125l0.40625 -1.875l1.625 0l-0.390625 1.875l-1.640625 0zm-2.390625 11.484375l2.015625 -9.671875l1.65625 0l-2.03125 9.671875l-1.640625 0zm4.207321 0l2.015625 -9.671875l1.5 0l-0.359375 1.6875q0.96875 -1.0 1.8125 -1.453125q0.859375 -0.453125 1.734375 -0.453125q1.1875 0 1.84375 0.640625q0.671875 0.625 0.671875 1.703125q0 0.53125 -0.234375 1.6875l-1.234375 5.859375l-1.640625 0l1.28125 -6.125q0.1875 -0.890625 0.1875 -1.328125q0 -0.484375 -0.328125 -0.78125q-0.328125 -0.296875 -0.953125 -0.296875q-1.28125 0 -2.265625 0.90625q-0.984375 0.90625 -1.453125 3.125l-0.9375 4.5l-1.640625 0z" fill-rule="nonzero"/><path fill="#000000" d="m87.74167 128.64334l-0.859375 -8.296867l1.359375 0l0.375 3.71875l0.140625 2.09375q0.015625 0.234375 0.046875 0.953125q0.234375 -0.796875 0.390625 -1.21875q0.171875 -0.4375 0.53125 -1.21875l1.984375 -4.328125l1.53125 0l0.28125 4.140625q0.0625 0.953125 0.078125 2.53125q0.390625 -1.046875 1.265625 -2.90625l1.78125 -3.765625l1.421875 0l-4.0625 8.296867l-1.46875 0l-0.3125 -4.8749924q-0.03125 -0.453125 -0.046875 -1.765625q-0.3125 0.84375 -0.75 1.8125l-2.203125 4.8281174l-1.484375 0zm11.9921875 -9.859367l0.328125 -1.59375l1.40625 0l-0.328125 1.59375l-1.40625 0zm-2.0625 9.859367l1.734375 -8.296867l1.40625 0l-1.734375 8.296867l-1.40625 0zm9.1953125 -1.2031174q-1.203125 1.3906174 -2.53125 1.3906174q-1.171875 0 -1.96875 -0.8749924q-0.78125 -0.875 -0.78125 -2.53125q0 -1.515625 0.625 -2.765625q0.625 -1.25 1.546875 -1.875q0.9375 -0.625 1.875 -0.625q1.546875 0 2.34375 1.484375l0.9375 -4.453125l1.40625 0l-2.390625 11.453117l-1.3125 0l0.25 -1.2031174zm-3.875 -2.28125q0 0.875 0.171875 1.375q0.171875 0.5 0.578125 0.828125q0.421875 0.328125 1.0 0.328125q0.96875 0 1.75 -1.0q1.046875 -1.328125 1.046875 -3.28125q0 -0.984375 -0.515625 -1.53125q-0.515625 -0.5625 -1.296875 -0.5625q-0.515625 0 -0.9375 0.234375q-0.40625 0.21875 -0.828125 0.765625q-0.40625 0.546875 -0.6875 1.390625q-0.28125 0.828125 -0.28125 1.453125zm10.4921875 2.328125l-0.234375 1.1718674q-0.515625 0.125 -0.984375 0.125q-0.84375 0 -1.34375 -0.421875q-0.375 -0.3125 -0.375 -0.8437424q0 -0.28125 0.203125 -1.265625l1.0 -4.8125l-1.109375 0l0.21875 -1.09375l1.125 0l0.421875 -2.046875l1.625 -0.96875l-0.640625 3.015625l1.390625 0l-0.234375 1.09375l-1.375 0l-0.96875 4.578125q-0.171875 0.875 -0.171875 1.046875q0 0.25 0.140625 0.390625q0.140625 0.125 0.46875 0.125q0.46875 0 0.84375 -0.09375zm1.1328125 1.1562424l2.390625 -11.453117l1.421875 0l-0.921875 4.390625q0.796875 -0.765625 1.46875 -1.09375q0.6875 -0.328125 1.40625 -0.328125q1.03125 0 1.59375 0.546875q0.578125 0.53125 0.578125 1.421875q0 0.4375 -0.25 1.609375l-1.03125 4.9062424l-1.40625 0l1.046875 -5.0312424q0.234375 -1.09375 0.234375 -1.375q0 -0.40625 -0.28125 -0.65625q-0.28125 -0.265625 -0.8125 -0.265625q-0.765625 0 -1.46875 0.40625q-0.6875 0.40625 -1.09375 1.109375q-0.390625 0.6875 -0.71875 2.25l-0.734375 3.5624924l-1.421875 0zm16.671875 0l1.8125 -8.656242q-1.171875 0.921875 -3.296875 1.484375l0.265625 -1.28125q1.046875 -0.421875 2.078125 -1.09375q1.03125 -0.6875 1.546875 -1.203125q0.3125 -0.3125 0.59375 -0.75l0.8125 0l-2.390625 11.499992l-1.421875 0zm6.1796875 -3.7656174q0 -1.453125 0.421875 -2.953125q0.4375 -1.5 0.96875 -2.390625q0.53125 -0.90625 1.09375 -1.40625q0.578125 -0.515625 1.125 -0.75q0.5625 -0.234375 1.234375 -0.234375q1.3125 0 2.1875 0.984375q0.875 0.96875 0.875 2.8125q0 1.890625 -0.609375 3.75q-0.71875 2.203125 -2.0 3.3124924q-0.984375 0.84375 -2.234375 0.84375q-1.296875 0 -2.1875 -1.0156174q-0.875 -1.015625 -0.875 -2.953125zm1.359375 0.359375q0 1.0625 0.359375 1.65625q0.46875 0.8125 1.40625 0.8125q0.828125 0 1.5 -0.734375q0.96875 -1.046875 1.453125 -3.0625q0.484375 -2.03125 0.484375 -3.3125q0 -1.234375 -0.46875 -1.78125q-0.46875 -0.546875 -1.25 -0.546875q-0.5625 0 -1.046875 0.296875q-0.484375 0.28125 -0.9375 0.984375q-0.625 1.0 -1.09375 2.96875q-0.40625 1.6875 -0.40625 2.71875zm6.2265625 6.5937424l2.40625 -11.484367l1.3125 0l-0.25 1.15625q0.734375 -0.765625 1.296875 -1.046875q0.578125 -0.296875 1.21875 -0.296875q1.1875 0 1.96875 0.859375q0.78125 0.859375 0.78125 2.46875q0 1.296875 -0.4375 2.375q-0.421875 1.0625 -1.046875 1.71875q-0.625 0.6406174 -1.265625 0.9531174q-0.640625 0.296875 -1.3125 0.296875q-1.484375 0 -2.3125 -1.5156174l-0.9375 4.5156174l-1.421875 0zm2.8125 -6.5781174q0 0.921875 0.125 1.28125q0.203125 0.515625 0.640625 0.828125q0.453125 0.3125 1.03125 0.3125q1.21875 0 1.96875 -1.375q0.75 -1.375 0.75 -2.796875q0 -1.0625 -0.5 -1.625q-0.5 -0.578125 -1.25 -0.578125q-0.546875 0 -1.015625 0.28125q-0.453125 0.28125 -0.84375 0.859375q-0.390625 0.5625 -0.65625 1.390625q-0.25 0.8125 -0.25 1.421875zm6.2265625 3.3906174l3.625 -4.2187424l-2.078125 -4.078125l1.5625 0l0.703125 1.46875q0.390625 0.828125 0.703125 1.59375l2.390625 -3.0625l1.734375 0l-3.484375 4.1875l2.09375 4.1093674l-1.5625 0l-0.828125 -1.6874924q-0.265625 -0.546875 -0.609375 -1.34375l-2.46875 3.0312424l-1.78125 0z" fill-rule="nonzero"/><path fill="#000000" fill-opacity="0.0" d="m9.249344 208.02625l271.27557 0l0 148.6614l-271.27557 0z" fill-rule="evenodd"/><path stroke="#93c47d" stroke-width="4.0" stroke-linejoin="round" stroke-linecap="butt" stroke-dasharray="4.0,12.0" d="m9.249344 208.02625l271.27557 0l0 148.6614l-271.27557 0z" fill-rule="evenodd"/><path fill="#000000" d="m87.03841 251.58624l-0.859375 -8.296875l1.359375 0l0.375 3.71875l0.140625 2.09375q0.015625 0.234375 0.046875 0.953125q0.234375 -0.796875 0.390625 -1.21875q0.171875 -0.4375 0.53125 -1.21875l1.984375 -4.328125l1.53125 0l0.28125 4.140625q0.0625 0.953125 0.078125 2.53125q0.390625 -1.046875 1.265625 -2.90625l1.78125 -3.765625l1.421875 0l-4.0625 8.296875l-1.46875 0l-0.3125 -4.875q-0.03125 -0.453125 -0.046875 -1.765625q-0.3125 0.84375 -0.75 1.8125l-2.203125 4.828125l-1.484375 0zm11.9921875 -9.859375l0.328125 -1.59375l1.40625 0l-0.328125 1.59375l-1.40625 0zm-2.0625 9.859375l1.734375 -8.296875l1.40625 0l-1.734375 8.296875l-1.40625 0zm9.1953125 -1.203125q-1.203125 1.390625 -2.53125 1.390625q-1.171875 0 -1.96875 -0.875q-0.78125 -0.875 -0.78125 -2.53125q0 -1.515625 0.625 -2.765625q0.625 -1.25 1.546875 -1.875q0.9375 -0.625 1.875 -0.625q1.546875 0 2.34375 1.484375l0.9375 -4.453125l1.40625 0l-2.390625 11.453125l-1.3125 0l0.25 -1.203125zm-3.875 -2.28125q0 0.875 0.171875 1.375q0.171875 0.5 0.578125 0.828125q0.421875 0.328125 1.0 0.328125q0.96875 0 1.75 -1.0q1.046875 -1.328125 1.046875 -3.28125q0 -0.984375 -0.515625 -1.53125q-0.515625 -0.5625 -1.296875 -0.5625q-0.515625 0 -0.9375 0.234375q-0.40625 0.21875 -0.828125 0.765625q-0.40625 0.546875 -0.6875 1.390625q-0.28125 0.828125 -0.28125 1.453125zm10.4921875 2.328125l-0.234375 1.171875q-0.515625 0.125 -0.984375 0.125q-0.84375 0 -1.34375 -0.421875q-0.375 -0.3125 -0.375 -0.84375q0 -0.28125 0.203125 -1.265625l1.0 -4.8125l-1.109375 0l0.21875 -1.09375l1.125 0l0.421875 -2.046875l1.625 -0.96875l-0.640625 3.015625l1.390625 0l-0.234375 1.09375l-1.375 0l-0.96875 4.578125q-0.171875 0.875 -0.171875 1.046875q0 0.25 0.140625 0.390625q0.140625 0.125 0.46875 0.125q0.46875 0 0.84375 -0.09375zm1.1328125 1.15625l2.390625 -11.453125l1.421875 0l-0.921875 4.390625q0.796875 -0.765625 1.46875 -1.09375q0.6875 -0.328125 1.40625 -0.328125q1.03125 0 1.59375 0.546875q0.578125 0.53125 0.578125 1.421875q0 0.4375 -0.25 1.609375l-1.03125 4.90625l-1.40625 0l1.046875 -5.03125q0.234375 -1.09375 0.234375 -1.375q0 -0.40625 -0.28125 -0.65625q-0.28125 -0.265625 -0.8125 -0.265625q-0.765625 0 -1.46875 0.40625q-0.6875 0.40625 -1.09375 1.109375q-0.390625 0.6875 -0.71875 2.25l-0.734375 3.5625l-1.421875 0zm13.6875 -3.0l1.375 -0.171875q0.15625 1.203125 0.6875 1.71875q0.546875 0.515625 1.40625 0.515625q1.046875 0 1.8125 -0.75q0.765625 -0.75 0.765625 -1.71875q0 -0.84375 -0.578125 -1.390625q-0.5625 -0.546875 -1.53125 -0.546875q-0.109375 0 -0.453125 0.03125l0.25 -1.1875q0.203125 0.03125 0.390625 0.03125q1.203125 0 1.859375 -0.578125q0.65625 -0.59375 0.65625 -1.453125q0 -0.796875 -0.546875 -1.328125q-0.53125 -0.546875 -1.296875 -0.546875q-0.765625 0 -1.375 0.5625q-0.59375 0.546875 -0.765625 1.546875l-1.390625 -0.28125q0.34375 -1.40625 1.3125 -2.171875q0.984375 -0.78125 2.3125 -0.78125q1.40625 0 2.28125 0.859375q0.875 0.84375 0.875 2.078125q0 0.90625 -0.484375 1.59375q-0.46875 0.671875 -1.40625 1.109375q0.671875 0.40625 1.0 0.96875q0.328125 0.5625 0.328125 1.28125q0 1.546875 -1.15625 2.6875q-1.140625 1.125 -2.75 1.125q-1.546875 0 -2.515625 -0.875q-0.953125 -0.875 -1.0625 -2.328125zm9.1640625 -0.765625q0 -1.453125 0.421875 -2.953125q0.4375 -1.5 0.96875 -2.390625q0.53125 -0.90625 1.09375 -1.40625q0.578125 -0.515625 1.125 -0.75q0.5625 -0.234375 1.234375 -0.234375q1.3125 0 2.1875 0.984375q0.875 0.96875 0.875 2.8125q0 1.890625 -0.609375 3.75q-0.71875 2.203125 -2.0 3.3125q-0.984375 0.84375 -2.234375 0.84375q-1.296875 0 -2.1875 -1.015625q-0.875 -1.015625 -0.875 -2.953125zm1.359375 0.359375q0 1.0625 0.359375 1.65625q0.46875 0.8125 1.40625 0.8125q0.828125 0 1.5 -0.734375q0.96875 -1.046875 1.453125 -3.0625q0.484375 -2.03125 0.484375 -3.3125q0 -1.234375 -0.46875 -1.78125q-0.46875 -0.546875 -1.25 -0.546875q-0.5625 0 -1.046875 0.296875q-0.484375 0.28125 -0.9375 0.984375q-0.625 1.0 -1.09375 2.96875q-0.40625 1.6875 -0.40625 2.71875zm6.2265625 6.59375l2.40625 -11.484375l1.3125 0l-0.25 1.15625q0.734375 -0.765625 1.296875 -1.046875q0.578125 -0.296875 1.21875 -0.296875q1.1875 0 1.96875 0.859375q0.78125 0.859375 0.78125 2.46875q0 1.296875 -0.4375 2.375q-0.421875 1.0625 -1.046875 1.71875q-0.625 0.640625 -1.265625 0.953125q-0.640625 0.296875 -1.3125 0.296875q-1.484375 0 -2.3125 -1.515625l-0.9375 4.515625l-1.421875 0zm2.8125 -6.578125q0 0.921875 0.125 1.28125q0.203125 0.515625 0.640625 0.828125q0.453125 0.3125 1.03125 0.3125q1.21875 0 1.96875 -1.375q0.75 -1.375 0.75 -2.796875q0 -1.0625 -0.5 -1.625q-0.5 -0.578125 -1.25 -0.578125q-0.546875 0 -1.015625 0.28125q-0.453125 0.28125 -0.84375 0.859375q-0.390625 0.5625 -0.65625 1.390625q-0.25 0.8125 -0.25 1.421875zm6.2265625 3.390625l3.625 -4.21875l-2.078125 -4.078125l1.5625 0l0.703125 1.46875q0.390625 0.828125 0.703125 1.59375l2.390625 -3.0625l1.734375 0l-3.484375 4.1875l2.09375 4.109375l-1.5625 0l-0.828125 -1.6875q-0.265625 -0.546875 -0.609375 -1.34375l-2.46875 3.03125l-1.78125 0z" fill-rule="nonzero"/><path fill="#000000" d="m18.858719 340.54623l2.015625 -9.671875l1.65625 0l-0.34375 1.59375q0.921875 -1.03125 1.640625 -1.421875q0.734375 -0.390625 1.578125 -0.390625q0.90625 0 1.515625 0.484375q0.609375 0.46875 0.796875 1.328125q0.734375 -0.90625 1.546875 -1.359375q0.8125 -0.453125 1.71875 -0.453125q1.21875 0 1.8125 0.578125q0.609375 0.5625 0.609375 1.609375q0 0.4375 -0.203125 1.46875l-1.3125 6.234375l-1.640625 0l1.328125 -6.390625q0.171875 -0.78125 0.171875 -1.125q0 -0.46875 -0.296875 -0.734375q-0.296875 -0.28125 -0.84375 -0.28125q-0.75 0 -1.515625 0.453125q-0.765625 0.4375 -1.1875 1.171875q-0.421875 0.71875 -0.734375 2.21875l-0.984375 4.6875l-1.65625 0l1.375 -6.53125q0.140625 -0.671875 0.140625 -0.953125q0 -0.46875 -0.296875 -0.75q-0.296875 -0.296875 -0.765625 -0.296875q-0.703125 0 -1.484375 0.453125q-0.765625 0.4375 -1.25 1.234375q-0.46875 0.796875 -0.78125 2.265625l-0.953125 4.578125l-1.65625 0zm22.072052 -1.203125q-0.859375 0.734375 -1.65625 1.078125q-0.78125 0.34375 -1.6875 0.34375q-1.34375 0 -2.171875 -0.78125q-0.8125 -0.796875 -0.8125 -2.03125q0 -0.796875 0.375 -1.421875q0.375 -0.625 0.984375 -1.0q0.609375 -0.390625 1.484375 -0.546875q0.5625 -0.109375 2.109375 -0.171875q1.5625 -0.0625 2.234375 -0.328125q0.1875 -0.671875 0.1875 -1.125q0 -0.578125 -0.421875 -0.90625q-0.5625 -0.453125 -1.671875 -0.453125q-1.03125 0 -1.703125 0.46875q-0.65625 0.453125 -0.953125 1.296875l-1.671875 -0.140625q0.515625 -1.4375 1.609375 -2.203125q1.109375 -0.765625 2.796875 -0.765625q1.796875 0 2.84375 0.859375q0.796875 0.625 0.796875 1.65625q0 0.765625 -0.21875 1.796875l-0.53125 2.40625q-0.265625 1.140625 -0.265625 1.859375q0 0.453125 0.203125 1.3125l-1.671875 0q-0.125 -0.46875 -0.1875 -1.203125zm0.609375 -3.703125q-0.34375 0.140625 -0.75 0.21875q-0.390625 0.0625 -1.3125 0.15625q-1.4375 0.125 -2.03125 0.328125q-0.59375 0.1875 -0.90625 0.625q-0.296875 0.421875 -0.296875 0.9375q0 0.6875 0.484375 1.140625q0.484375 0.4375 1.359375 0.4375q0.828125 0 1.578125 -0.421875q0.75 -0.4375 1.1875 -1.203125q0.4375 -0.78125 0.6875 -2.21875zm3.2507172 4.90625l2.015625 -9.671875l1.453125 0l-0.40625 1.96875q0.75 -1.109375 1.453125 -1.640625q0.71875 -0.546875 1.46875 -0.546875q0.5 0 1.21875 0.359375l-0.671875 1.53125q-0.4375 -0.3125 -0.9375 -0.3125q-0.875 0 -1.78125 0.96875q-0.90625 0.953125 -1.4375 3.46875l-0.8125 3.875l-1.5625 0zm6.118927 0.875l1.671875 0.15625q-0.03125 0.5625 0.125 0.84375q0.15625 0.28125 0.5 0.4375q0.4375 0.203125 1.15625 0.203125q1.484375 0 2.140625 -0.78125q0.4375 -0.515625 0.796875 -2.25l0.171875 -0.78125q-1.296875 1.296875 -2.734375 1.296875q-1.46875 0 -2.46875 -1.078125q-0.984375 -1.078125 -0.984375 -3.0625q0 -1.625 0.78125 -2.984375q0.78125 -1.375 1.859375 -2.0625q1.078125 -0.703125 2.203125 -0.703125q1.90625 0 2.9375 1.796875l0.328125 -1.578125l1.515625 0l-1.953125 9.328125q-0.3125 1.546875 -0.84375 2.40625q-0.515625 0.859375 -1.4375 1.328125q-0.921875 0.484375 -2.140625 0.484375q-1.15625 0 -2.0 -0.3125q-0.84375 -0.296875 -1.265625 -0.875q-0.40625 -0.578125 -0.40625 -1.328125q0 -0.21875 0.046875 -0.484375zm2.0625 -5.15625q0 1.0 0.1875 1.5q0.265625 0.6875 0.765625 1.0625q0.515625 0.375 1.140625 0.375q0.8125 0 1.609375 -0.5625q0.796875 -0.578125 1.296875 -1.765625q0.5 -1.203125 0.5 -2.28125q0 -1.203125 -0.671875 -1.90625q-0.65625 -0.703125 -1.625 -0.703125q-0.609375 0 -1.171875 0.328125q-0.5625 0.3125 -1.046875 0.984375q-0.484375 0.65625 -0.734375 1.578125q-0.25 0.921875 -0.25 1.390625zm10.735092 -7.203125l0.40625 -1.875l1.625 0l-0.390625 1.875l-1.640625 0zm-2.390625 11.484375l2.015625 -9.671875l1.65625 0l-2.03125 9.671875l-1.640625 0zm4.207321 0l2.015625 -9.671875l1.5 0l-0.359375 1.6875q0.96875 -1.0 1.8125 -1.453125q0.859375 -0.453125 1.734375 -0.453125q1.1875 0 1.84375 0.640625q0.671875 0.625 0.671875 1.703125q0 0.53125 -0.234375 1.6875l-1.234375 5.859375l-1.640625 0l1.28125 -6.125q0.1875 -0.890625 0.1875 -1.328125q0 -0.484375 -0.328125 -0.78125q-0.328125 -0.296875 -0.953125 -0.296875q-1.28125 0 -2.265625 0.90625q-0.984375 0.90625 -1.453125 3.125l-0.9375 4.5l-1.640625 0z" fill-rule="nonzero"/><path fill="#000000" fill-opacity="0.0" d="m76.25197 218.40683l0 50.48819" fill-rule="evenodd"/><path stroke="#ff0000" stroke-width="1.0" stroke-linejoin="round" stroke-linecap="butt" d="m76.25197 218.40683l0 44.48819" fill-rule="evenodd"/><path fill="#ff0000" stroke="#ff0000" stroke-width="1.0" stroke-linecap="butt" d="m74.600235 262.89502l1.6517334 4.538086l1.6517334 -4.538086z" fill-rule="evenodd"/><path fill="#000000" fill-opacity="0.0" d="m75.74803 239.91864l0.50393677 -21.51181" fill-rule="evenodd"/><path stroke="#ff0000" stroke-width="1.0" stroke-linejoin="round" stroke-linecap="butt" d="m75.74803 239.91864l0.36341858 -15.513458" fill-rule="evenodd"/><path fill="#ff0000" stroke="#ff0000" stroke-width="1.0" stroke-linecap="butt" d="m77.76273 224.44386l-1.5450058 -4.575531l-1.7575531 4.498169z" fill-rule="evenodd"/><defs><radialGradient id="p.1" gradientUnits="userSpaceOnUse" gradientTransform="matrix(8.55335186730971 0.0 0.0 8.55335186730971 0.0 0.0)" spreadMethod="pad" cx="15.676499254718802" cy="9.554357875681184" fx="15.676499254718802" fy="9.554357875681184" r="8.553351402282715"><stop offset="0.0" stop-color="#dfe9fb"/><stop offset="1.0" stop-color="#6e9be7"/></radialGradient></defs><path fill="url(#p.1)" d="m64.00787 60.71391l140.15749 0l0 42.01575l-140.15749 0z" fill-rule="evenodd"/><path stroke="#000000" stroke-width="1.0" stroke-linejoin="round" stroke-linecap="butt" d="m64.00787 60.71391l140.15749 0l0 42.01575l-140.15749 0z" fill-rule="evenodd"/><path fill="#000000" d="m92.58154 81.50891l0 -1.4375l-5.53125 0l0 -4.265625l6.375 0l0 -1.4375l-8.0625 0l0 13.265625l8.140625 0l0 -1.4375l-6.453125 0l0 -4.6875l5.53125 0zm5.804947 4.6875l0 -11.828125l-1.6875 0l0 13.265625l8.171875 0l0 -1.4375l-6.484375 0zm16.586197 -4.6875l0 -1.4375l-5.53125 0l0 -4.265625l6.375 0l0 -1.4375l-8.0625 0l0 13.265625l8.140625 0l0 -1.4375l-6.453125 0l0 -4.6875l5.53125 0zm5.758072 -7.140625l-2.09375 0l0 13.265625l1.640625 0l0 -5.296875l-0.140625 -5.34375l2.25 6.953125l0.96875 0l2.453125 -7.140625l-0.140625 5.53125l0 5.296875l1.640625 0l0 -13.265625l-2.09375 0l-2.328125 6.640625l-2.15625 -6.640625zm16.633072 7.140625l0 -1.4375l-5.53125 0l0 -4.265625l6.375 0l0 -1.4375l-8.0625 0l0 13.265625l8.140625 0l0 -1.4375l-6.453125 0l0 -4.6875l5.53125 0zm12.211197 6.125l0 -13.265625l-1.703125 0l-0.03125 9.890625l-5.140625 -9.890625l-1.71875 0l0 13.265625l1.703125 0l0.03125 -9.90625l5.15625 9.90625l1.703125 0zm11.836197 -11.828125l0 -1.4375l-9.84375 0l0 1.4375l4.109375 0l0 11.828125l1.640625 0l0 -11.828125l4.09375 0zm10.429947 13.203125l0 -1.375l-8.359375 0l0 1.375l8.359375 0zm8.476822 -1.375l0 -13.265625l-0.125 0l-5.03125 1.9375l0 1.53125l3.46875 -1.3125l0 11.109375l1.6875 0z" fill-rule="nonzero"/><path fill="#000000" fill-opacity="0.0" d="m75.727036 113.002625l-0.4409485 25.795273" fill-rule="evenodd"/><path stroke="#ff0000" stroke-width="1.0" stroke-linejoin="round" stroke-linecap="butt" d="m75.727036 113.002625l-0.3384018 19.796158" fill-rule="evenodd"/><path fill="#ff0000" stroke="#ff0000" stroke-width="1.0" stroke-linecap="butt" d="m73.737144 132.77055l1.5739288 4.5656586l1.7290573 -4.509201z" fill-rule="evenodd"/><path fill="#000000" fill-opacity="0.0" d="m75.47507 124.24147l0.50393677 -21.51181" fill-rule="evenodd"/><path stroke="#ff0000" stroke-width="1.0" stroke-linejoin="round" stroke-linecap="butt" d="m75.47507 124.24147l0.36341858 -15.513466" fill-rule="evenodd"/><path fill="#ff0000" stroke="#ff0000" stroke-width="1.0" stroke-linecap="butt" d="m77.48976 108.76669l-1.5449982 -4.575531l-1.7575607 4.498169z" fill-rule="evenodd"/><defs><radialGradient id="p.2" gradientUnits="userSpaceOnUse" gradientTransform="matrix(8.55335186730971 0.0 0.0 8.55335186730971 0.0 0.0)" spreadMethod="pad" cx="15.737871029357043" cy="33.89348312058755" fx="15.737871029357043" fy="33.89348312058755" r="8.553351402282715"><stop offset="0.0" stop-color="#dcecd5"/><stop offset="1.0" stop-color="#93bc81"/></radialGradient></defs><path fill="url(#p.2)" d="m64.53281 268.89502l140.15749 0l0 42.015747l-140.15749 0z" fill-rule="evenodd"/><path stroke="#000000" stroke-width="1.0" stroke-linejoin="round" stroke-linecap="butt" d="m64.53281 268.89502l140.15749 0l0 42.015747l-140.15749 0z" fill-rule="evenodd"/><path fill="#000000" d="m93.106476 289.69l0 -1.4375l-5.53125 0l0 -4.265625l6.375 0l0 -1.4375l-8.0625 0l0 13.265625l8.140625 0l0 -1.4375l-6.453125 0l0 -4.6875l5.53125 0zm5.804947 4.6875l0 -11.828125l-1.6875 0l0 13.265625l8.171875 0l0 -1.4375l-6.484375 0zm16.586197 -4.6875l0 -1.4375l-5.53125 0l0 -4.265625l6.375 0l0 -1.4375l-8.0625 0l0 13.265625l8.140625 0l0 -1.4375l-6.453125 0l0 -4.6875l5.53125 0zm5.758072 -7.140625l-2.09375 0l0 13.265625l1.640625 0l0 -5.296875l-0.140625 -5.34375l2.25 6.953125l0.96875 0l2.453125 -7.140625l-0.140625 5.53125l0 5.296875l1.640625 0l0 -13.265625l-2.09375 0l-2.328125 6.640625l-2.15625 -6.640625zm16.633072 7.140625l0 -1.4375l-5.53125 0l0 -4.265625l6.375 0l0 -1.4375l-8.0625 0l0 13.265625l8.140625 0l0 -1.4375l-6.453125 0l0 -4.6875l5.53125 0zm12.211197 6.125l0 -13.265625l-1.703125 0l-0.03125 9.890625l-5.140625 -9.890625l-1.71875 0l0 13.265625l1.703125 0l0.03125 -9.90625l5.15625 9.90625l1.703125 0zm11.836197 -11.828125l0 -1.4375l-9.84375 0l0 1.4375l4.109375 0l0 11.828125l1.640625 0l0 -11.828125l4.09375 0zm10.429947 13.203125l0 -1.375l-8.359375 0l0 1.375l8.359375 0zm11.148697 -1.375l0 -1.375l-6.65625 0l3.5625 -3.859375q0.5 -0.546875 0.953125 -1.09375q0.453125 -0.5625 0.796875 -1.125q0.328125 -0.5625 0.53125 -1.140625q0.203125 -0.578125 0.203125 -1.171875q0 -0.796875 -0.28125 -1.46875q-0.28125 -0.671875 -0.796875 -1.15625q-0.515625 -0.5 -1.265625 -0.78125q-0.75 -0.28125 -1.6875 -0.28125q-1.03125 0 -1.828125 0.328125q-0.796875 0.328125 -1.34375 0.890625q-0.546875 0.5625 -0.84375 1.3125q-0.28125 0.734375 -0.28125 1.5625l1.6875 0q0 -0.609375 0.15625 -1.109375q0.15625 -0.515625 0.484375 -0.859375q0.328125 -0.34375 0.8125 -0.53125q0.484375 -0.203125 1.15625 -0.203125q0.546875 0 0.96875 0.1875q0.4375 0.1875 0.75 0.5q0.296875 0.328125 0.453125 0.765625q0.171875 0.421875 0.171875 0.921875q0 0.390625 -0.109375 0.78125q-0.09375 0.375 -0.328125 0.796875q-0.25 0.421875 -0.640625 0.921875q-0.390625 0.5 -0.96875 1.140625l-4.34375 4.828125l0 1.21875l8.6875 0z" fill-rule="nonzero"/><path fill="#000000" fill-opacity="0.0" d="m354.02362 61.278214l271.27557 0l0 132.50394l-271.27557 0z" fill-rule="evenodd"/><path stroke="#00ffff" stroke-width="4.0" stroke-linejoin="round" stroke-linecap="butt" stroke-dasharray="4.0,12.0" d="m354.02362 61.278214l271.27557 0l0 132.50394l-271.27557 0z" fill-rule="evenodd"/><path fill="#000000" d="m363.633 88.19821l2.015625 -9.671875l1.65625 0l-0.34375 1.59375q0.921875 -1.03125 1.640625 -1.421875q0.734375 -0.390625 1.578125 -0.390625q0.90625 0 1.515625 0.484375q0.609375 0.46875 0.796875 1.328125q0.734375 -0.90625 1.546875 -1.359375q0.8125 -0.453125 1.71875 -0.453125q1.21875 0 1.8125 0.578125q0.609375 0.5625 0.609375 1.609375q0 0.4375 -0.203125 1.46875l-1.3125 6.234375l-1.640625 0l1.328125 -6.390625q0.171875 -0.78125 0.171875 -1.125q0 -0.46875 -0.296875 -0.734375q-0.296875 -0.28125 -0.84375 -0.28125q-0.75 0 -1.515625 0.453125q-0.765625 0.4375 -1.1875 1.171875q-0.421875 0.71875 -0.734375 2.21875l-0.984375 4.6875l-1.65625 0l1.375 -6.53125q0.140625 -0.671875 0.140625 -0.953125q0 -0.46875 -0.296875 -0.75q-0.296875 -0.296875 -0.765625 -0.296875q-0.703125 0 -1.484375 0.453125q-0.765625 0.4375 -1.25 1.234375q-0.46875 0.796875 -0.78125 2.265625l-0.953125 4.578125l-1.65625 0zm22.072052 -1.203125q-0.859375 0.734375 -1.65625 1.078125q-0.78125 0.34375 -1.6875 0.34375q-1.34375 0 -2.171875 -0.78125q-0.8125 -0.796875 -0.8125 -2.03125q0 -0.796875 0.375 -1.421875q0.375 -0.625 0.984375 -1.0q0.609375 -0.390625 1.484375 -0.546875q0.5625 -0.109375 2.109375 -0.171875q1.5625 -0.0625 2.234375 -0.328125q0.1875 -0.671875 0.1875 -1.125q0 -0.578125 -0.421875 -0.90625q-0.5625 -0.453125 -1.671875 -0.453125q-1.03125 0 -1.703125 0.46875q-0.65625 0.453125 -0.953125 1.296875l-1.671875 -0.140625q0.515625 -1.4375 1.609375 -2.203125q1.109375 -0.765625 2.796875 -0.765625q1.796875 0 2.84375 0.859375q0.796875 0.625 0.796875 1.65625q0 0.765625 -0.21875 1.796875l-0.53125 2.40625q-0.265625 1.140625 -0.265625 1.859375q0 0.453125 0.203125 1.3125l-1.671875 0q-0.125 -0.46875 -0.1875 -1.203125zm0.609375 -3.703125q-0.34375 0.140625 -0.75 0.21875q-0.390625 0.0625 -1.3125 0.15625q-1.4375 0.125 -2.03125 0.328125q-0.59375 0.1875 -0.90625 0.625q-0.296875 0.421875 -0.296875 0.9375q0 0.6875 0.484375 1.140625q0.484375 0.4375 1.359375 0.4375q0.828125 0 1.578125 -0.421875q0.75 -0.4375 1.1875 -1.203125q0.4375 -0.78125 0.6875 -2.21875zm3.2507324 4.90625l2.015625 -9.671875l1.453125 0l-0.40625 1.96875q0.75 -1.109375 1.453125 -1.640625q0.71875 -0.546875 1.46875 -0.546875q0.5 0 1.21875 0.359375l-0.671875 1.53125q-0.4375 -0.3125 -0.9375 -0.3125q-0.875 0 -1.78125 0.96875q-0.90625 0.953125 -1.4375 3.46875l-0.8125 3.875l-1.5625 0zm6.118927 0.875l1.671875 0.15625q-0.03125 0.5625 0.125 0.84375q0.15625 0.28125 0.5 0.4375q0.4375 0.203125 1.15625 0.203125q1.484375 0 2.140625 -0.78125q0.4375 -0.515625 0.796875 -2.25l0.171875 -0.78125q-1.296875 1.296875 -2.734375 1.296875q-1.46875 0 -2.46875 -1.078125q-0.984375 -1.078125 -0.984375 -3.0625q0 -1.625 0.78125 -2.984375q0.78125 -1.375 1.859375 -2.0625q1.078125 -0.703125 2.203125 -0.703125q1.90625 0 2.9375 1.796875l0.328125 -1.578125l1.515625 0l-1.953125 9.328125q-0.3125 1.546875 -0.84375 2.40625q-0.515625 0.859375 -1.4375 1.328125q-0.921875 0.484375 -2.140625 0.484375q-1.15625 0 -2.0 -0.3125q-0.84375 -0.296875 -1.265625 -0.875q-0.40625 -0.578125 -0.40625 -1.328125q0 -0.21875 0.046875 -0.484375zm2.0625 -5.15625q0 1.0 0.1875 1.5q0.265625 0.6875 0.765625 1.0625q0.515625 0.375 1.140625 0.375q0.8125 0 1.609375 -0.5625q0.796875 -0.578125 1.296875 -1.765625q0.5 -1.203125 0.5 -2.28125q0 -1.203125 -0.671875 -1.90625q-0.65625 -0.703125 -1.625 -0.703125q-0.609375 0 -1.171875 0.328125q-0.5625 0.3125 -1.046875 0.984375q-0.484375 0.65625 -0.734375 1.578125q-0.25 0.921875 -0.25 1.390625zm10.735077 -7.203125l0.40625 -1.875l1.625 0l-0.390625 1.875l-1.640625 0zm-2.390625 11.484375l2.015625 -9.671875l1.65625 0l-2.03125 9.671875l-1.640625 0zm4.2073364 0l2.015625 -9.671875l1.5 0l-0.359375 1.6875q0.96875 -1.0 1.8125 -1.453125q0.859375 -0.453125 1.734375 -0.453125q1.1875 0 1.84375 0.640625q0.671875 0.625 0.671875 1.703125q0 0.53125 -0.234375 1.6875l-1.234375 5.859375l-1.640625 0l1.28125 -6.125q0.1875 -0.890625 0.1875 -1.328125q0 -0.484375 -0.328125 -0.78125q-0.328125 -0.296875 -0.953125 -0.296875q-1.28125 0 -2.265625 0.90625q-0.984375 0.90625 -1.453125 3.125l-0.9375 4.5l-1.640625 0z" fill-rule="nonzero"/><defs><radialGradient id="p.3" gradientUnits="userSpaceOnUse" gradientTransform="matrix(8.55335186730971 0.0 0.0 8.55335186730971 0.0 0.0)" spreadMethod="pad" cx="56.0465457528798" cy="15.482564446861964" fx="56.0465457528798" fy="15.482564446861964" r="8.553351402282715"><stop offset="0.0" stop-color="#dfe9fb"/><stop offset="1.0" stop-color="#6e9be7"/></radialGradient></defs><path fill="url(#p.3)" d="m409.3071 111.419945l140.15744 0l0 42.015755l-140.15744 0z" fill-rule="evenodd"/><path stroke="#000000" stroke-width="1.0" stroke-linejoin="round" stroke-linecap="butt" d="m409.3071 111.419945l140.15744 0l0 42.015755l-140.15744 0z" fill-rule="evenodd"/><path fill="#000000" d="m437.88074 132.21495l0 -1.4375l-5.53125 0l0 -4.2656326l6.375 0l0 -1.4375l-8.0625 0l0 13.265633l8.140625 0l0 -1.4375l-6.453125 0l0 -4.6875l5.53125 0zm5.804962 4.6875l0 -11.828133l-1.6875 0l0 13.265633l8.171875 0l0 -1.4375l-6.484375 0zm16.586182 -4.6875l0 -1.4375l-5.53125 0l0 -4.2656326l6.375 0l0 -1.4375l-8.0625 0l0 13.265633l8.140625 0l0 -1.4375l-6.453125 0l0 -4.6875l5.53125 0zm5.758087 -7.1406326l-2.09375 0l0 13.265633l1.640625 0l0 -5.296875l-0.140625 -5.3437576l2.25 6.9531326l0.96875 0l2.453125 -7.1406326l-0.140625 5.5312576l0 5.296875l1.640625 0l0 -13.265633l-2.09375 0l-2.328125 6.6406326l-2.15625 -6.6406326zm16.633087 7.1406326l0 -1.4375l-5.53125 0l0 -4.2656326l6.375 0l0 -1.4375l-8.0625 0l0 13.265633l8.140625 0l0 -1.4375l-6.453125 0l0 -4.6875l5.53125 0zm12.211182 6.125l0 -13.265633l-1.703125 0l-0.03125 9.890633l-5.140625 -9.890633l-1.71875 0l0 13.265633l1.703125 0l0.03125 -9.90625l5.15625 9.90625l1.703125 0zm11.836212 -11.828133l0 -1.4375l-9.84375 0l0 1.4375l4.109375 0l0 11.828133l1.640625 0l0 -11.828133l4.09375 0zm10.429932 13.203133l0 -1.375l-8.359375 0l0 1.375l8.359375 0zm8.476807 -1.375l0 -13.265633l-0.125 0l-5.03125 1.9375l0 1.5312576l3.46875 -1.3125076l0 11.109383l1.6875 0z" fill-rule="nonzero"/><path fill="#000000" fill-opacity="0.0" d="m354.02362 155.62993l271.27557 0l0 135.74803l-271.27557 0z" fill-rule="evenodd"/><path stroke="#93c47d" stroke-width="4.0" stroke-linejoin="round" stroke-linecap="butt" stroke-dasharray="4.0,12.0" d="m354.02362 155.62993l271.27557 0l0 135.74803l-271.27557 0z" fill-rule="evenodd"/><path fill="#000000" d="m431.81268 179.98993l-0.859375 -8.296875l1.359375 0l0.375 3.71875l0.140625 2.09375q0.015625 0.234375 0.046875 0.953125q0.234375 -0.796875 0.390625 -1.21875q0.171875 -0.4375 0.53125 -1.21875l1.984375 -4.328125l1.53125 0l0.28125 4.140625q0.0625 0.953125 0.078125 2.53125q0.390625 -1.046875 1.265625 -2.90625l1.78125 -3.765625l1.421875 0l-4.0625 8.296875l-1.46875 0l-0.3125 -4.875q-0.03125 -0.453125 -0.046875 -1.765625q-0.3125 0.84375 -0.75 1.8125l-2.203125 4.828125l-1.484375 0zm11.9921875 -9.859375l0.328125 -1.59375l1.40625 0l-0.328125 1.59375l-1.40625 0zm-2.0625 9.859375l1.734375 -8.296875l1.40625 0l-1.734375 8.296875l-1.40625 0zm9.1953125 -1.203125q-1.203125 1.390625 -2.53125 1.390625q-1.171875 0 -1.96875 -0.875q-0.78125 -0.875 -0.78125 -2.53125q0 -1.515625 0.625 -2.765625q0.625 -1.25 1.546875 -1.875q0.9375 -0.625 1.875 -0.625q1.546875 0 2.34375 1.484375l0.9375 -4.453125l1.40625 0l-2.390625 11.453125l-1.3125 0l0.25 -1.203125zm-3.875 -2.28125q0 0.875 0.171875 1.375q0.171875 0.5 0.578125 0.828125q0.421875 0.328125 1.0 0.328125q0.96875 0 1.75 -1.0q1.046875 -1.328125 1.046875 -3.28125q0 -0.984375 -0.515625 -1.53125q-0.515625 -0.5625 -1.296875 -0.5625q-0.515625 0 -0.9375 0.234375q-0.40625 0.21875 -0.828125 0.765625q-0.40625 0.546875 -0.6875 1.390625q-0.28125 0.828125 -0.28125 1.453125zm10.4921875 2.328125l-0.234375 1.171875q-0.515625 0.125 -0.984375 0.125q-0.84375 0 -1.34375 -0.421875q-0.375 -0.3125 -0.375 -0.84375q0 -0.28125 0.203125 -1.265625l1.0 -4.8125l-1.109375 0l0.21875 -1.09375l1.125 0l0.421875 -2.046875l1.625 -0.96875l-0.640625 3.015625l1.390625 0l-0.234375 1.09375l-1.375 0l-0.96875 4.578125q-0.171875 0.875 -0.171875 1.046875q0 0.25 0.140625 0.390625q0.140625 0.125 0.46875 0.125q0.46875 0 0.84375 -0.09375zm1.1328125 1.15625l2.390625 -11.453125l1.421875 0l-0.921875 4.390625q0.796875 -0.765625 1.46875 -1.09375q0.6875 -0.328125 1.40625 -0.328125q1.03125 0 1.59375 0.546875q0.578125 0.53125 0.578125 1.421875q0 0.4375 -0.25 1.609375l-1.03125 4.90625l-1.40625 0l1.046875 -5.03125q0.234375 -1.09375 0.234375 -1.375q0 -0.40625 -0.28125 -0.65625q-0.28125 -0.265625 -0.8125 -0.265625q-0.765625 0 -1.46875 0.40625q-0.6875 0.40625 -1.09375 1.109375q-0.390625 0.6875 -0.71875 2.25l-0.734375 3.5625l-1.421875 0zm13.6875 -3.0l1.375 -0.171875q0.15625 1.203125 0.6875 1.71875q0.546875 0.515625 1.40625 0.515625q1.046875 0 1.8125 -0.75q0.765625 -0.75 0.765625 -1.71875q0 -0.84375 -0.578125 -1.390625q-0.5625 -0.546875 -1.53125 -0.546875q-0.109375 0 -0.453125 0.03125l0.25 -1.1875q0.203125 0.03125 0.390625 0.03125q1.203125 0 1.859375 -0.578125q0.65625 -0.59375 0.65625 -1.453125q0 -0.796875 -0.546875 -1.328125q-0.53125 -0.546875 -1.296875 -0.546875q-0.765625 0 -1.375 0.5625q-0.59375 0.546875 -0.765625 1.546875l-1.390625 -0.28125q0.34375 -1.40625 1.3125 -2.171875q0.984375 -0.78125 2.3125 -0.78125q1.40625 0 2.28125 0.859375q0.875 0.84375 0.875 2.078125q0 0.90625 -0.484375 1.59375q-0.46875 0.671875 -1.40625 1.109375q0.671875 0.40625 1.0 0.96875q0.328125 0.5625 0.328125 1.28125q0 1.546875 -1.15625 2.6875q-1.140625 1.125 -2.75 1.125q-1.546875 0 -2.515625 -0.875q-0.953125 -0.875 -1.0625 -2.328125zm9.1640625 -0.765625q0 -1.453125 0.421875 -2.953125q0.4375 -1.5 0.96875 -2.390625q0.53125 -0.90625 1.09375 -1.40625q0.578125 -0.515625 1.125 -0.75q0.5625 -0.234375 1.234375 -0.234375q1.3125 0 2.1875 0.984375q0.875 0.96875 0.875 2.8125q0 1.890625 -0.609375 3.75q-0.71875 2.203125 -2.0 3.3125q-0.984375 0.84375 -2.234375 0.84375q-1.296875 0 -2.1875 -1.015625q-0.875 -1.015625 -0.875 -2.953125zm1.359375 0.359375q0 1.0625 0.359375 1.65625q0.46875 0.8125 1.40625 0.8125q0.828125 0 1.5 -0.734375q0.96875 -1.046875 1.453125 -3.0625q0.484375 -2.03125 0.484375 -3.3125q0 -1.234375 -0.46875 -1.78125q-0.46875 -0.546875 -1.25 -0.546875q-0.5625 0 -1.046875 0.296875q-0.484375 0.28125 -0.9375 0.984375q-0.625 1.0 -1.09375 2.96875q-0.40625 1.6875 -0.40625 2.71875zm6.2265625 6.59375l2.40625 -11.484375l1.3125 0l-0.25 1.15625q0.734375 -0.765625 1.296875 -1.046875q0.578125 -0.296875 1.21875 -0.296875q1.1875 0 1.96875 0.859375q0.78125 0.859375 0.78125 2.46875q0 1.296875 -0.4375 2.375q-0.421875 1.0625 -1.046875 1.71875q-0.625 0.640625 -1.265625 0.953125q-0.640625 0.296875 -1.3125 0.296875q-1.484375 0 -2.3125 -1.515625l-0.9375 4.515625l-1.421875 0zm2.8125 -6.578125q0 0.921875 0.125 1.28125q0.203125 0.515625 0.640625 0.828125q0.453125 0.3125 1.03125 0.3125q1.21875 0 1.96875 -1.375q0.75 -1.375 0.75 -2.796875q0 -1.0625 -0.5 -1.625q-0.5 -0.578125 -1.25 -0.578125q-0.546875 0 -1.015625 0.28125q-0.453125 0.28125 -0.84375 0.859375q-0.390625 0.5625 -0.65625 1.390625q-0.25 0.8125 -0.25 1.421875zm6.2265625 3.390625l3.625 -4.21875l-2.078125 -4.078125l1.5625 0l0.703125 1.46875q0.390625 0.828125 0.703125 1.59375l2.390625 -3.0625l1.734375 0l-3.484375 4.1875l2.09375 4.109375l-1.5625 0l-0.828125 -1.6875q-0.265625 -0.546875 -0.609375 -1.34375l-2.46875 3.03125l-1.78125 0z" fill-rule="nonzero"/><path fill="#000000" d="m363.55487 275.98993l1.734375 -8.296875l1.40625 0l-0.28125 1.359375q0.78125 -0.875 1.40625 -1.203125q0.625 -0.34375 1.34375 -0.34375q0.78125 0 1.296875 0.40625q0.515625 0.40625 0.6875 1.140625q0.625 -0.78125 1.328125 -1.15625q0.703125 -0.390625 1.46875 -0.390625q1.046875 0 1.5625 0.5q0.515625 0.484375 0.515625 1.375q0 0.375 -0.171875 1.265625l-1.125 5.34375l-1.40625 0l1.140625 -5.484375q0.140625 -0.671875 0.140625 -0.96875q0 -0.40625 -0.265625 -0.640625q-0.25 -0.234375 -0.71875 -0.234375q-0.625 0 -1.28125 0.390625q-0.65625 0.375 -1.03125 1.0q-0.359375 0.625 -0.625 1.90625l-0.84375 4.03125l-1.421875 0l1.171875 -5.609375q0.125 -0.5625 0.125 -0.8125q0 -0.40625 -0.25 -0.65625q-0.25 -0.25 -0.65625 -0.25q-0.609375 0 -1.265625 0.390625q-0.65625 0.375 -1.078125 1.0625q-0.40625 0.6875 -0.671875 1.953125l-0.828125 3.921875l-1.40625 0zm18.921875 -1.03125q-0.734375 0.625 -1.421875 0.921875q-0.671875 0.296875 -1.4375 0.296875q-1.15625 0 -1.859375 -0.671875q-0.703125 -0.6875 -0.703125 -1.734375q0 -0.703125 0.3125 -1.234375q0.328125 -0.53125 0.84375 -0.859375q0.53125 -0.328125 1.28125 -0.46875q0.484375 -0.09375 1.8125 -0.140625q1.328125 -0.0625 1.90625 -0.28125q0.171875 -0.578125 0.171875 -0.96875q0 -0.484375 -0.359375 -0.765625q-0.5 -0.390625 -1.4375 -0.390625q-0.890625 0 -1.46875 0.390625q-0.5625 0.390625 -0.8125 1.125l-1.4375 -0.125q0.4375 -1.234375 1.390625 -1.890625q0.953125 -0.65625 2.390625 -0.65625q1.546875 0 2.4375 0.734375q0.6875 0.546875 0.6875 1.421875q0 0.65625 -0.1875 1.53125l-0.46875 2.0625q-0.21875 0.984375 -0.21875 1.609375q0 0.390625 0.171875 1.125l-1.421875 0q-0.125 -0.40625 -0.171875 -1.03125zm0.53125 -3.171875q-0.296875 0.109375 -0.640625 0.171875q-0.34375 0.0625 -1.140625 0.140625q-1.234375 0.109375 -1.75 0.28125q-0.5 0.15625 -0.765625 0.53125q-0.25 0.359375 -0.25 0.8125q0 0.59375 0.40625 0.984375q0.421875 0.375 1.171875 0.375q0.703125 0 1.34375 -0.375q0.65625 -0.375 1.03125 -1.03125q0.375 -0.671875 0.59375 -1.890625zm2.7734375 4.203125l1.734375 -8.296875l1.25 0l-0.34375 1.6875q0.640625 -0.953125 1.25 -1.40625q0.609375 -0.46875 1.25 -0.46875q0.421875 0 1.046875 0.296875l-0.578125 1.3125q-0.375 -0.265625 -0.8125 -0.265625q-0.734375 0 -1.515625 0.828125q-0.78125 0.828125 -1.234375 2.984375l-0.703125 3.328125l-1.34375 0zm5.25 0.75l1.4375 0.140625q-0.015625 0.484375 0.109375 0.71875q0.140625 0.25 0.421875 0.375q0.390625 0.171875 1.0 0.171875q1.28125 0 1.84375 -0.65625q0.359375 -0.453125 0.671875 -1.953125l0.140625 -0.671875q-1.09375 1.125 -2.34375 1.125q-1.25 0 -2.109375 -0.921875q-0.84375 -0.9375 -0.84375 -2.625q0 -1.40625 0.671875 -2.578125q0.671875 -1.171875 1.59375 -1.765625q0.921875 -0.59375 1.890625 -0.59375q1.640625 0 2.515625 1.546875l0.28125 -1.359375l1.296875 0l-1.671875 8.0q-0.265625 1.328125 -0.71875 2.0625q-0.4375 0.75 -1.234375 1.15625q-0.796875 0.40625 -1.828125 0.40625q-1.0 0 -1.734375 -0.265625q-0.71875 -0.25 -1.078125 -0.75q-0.34375 -0.5 -0.34375 -1.140625q0 -0.1875 0.03125 -0.421875zm1.765625 -4.421875q0 0.84375 0.171875 1.28125q0.234375 0.59375 0.65625 0.921875q0.4375 0.3125 0.96875 0.3125q0.703125 0 1.390625 -0.484375q0.6875 -0.5 1.109375 -1.515625q0.421875 -1.03125 0.421875 -1.953125q0 -1.03125 -0.5625 -1.625q-0.5625 -0.609375 -1.40625 -0.609375q-0.515625 0 -1.0 0.28125q-0.484375 0.265625 -0.90625 0.84375q-0.40625 0.5625 -0.625 1.359375q-0.21875 0.78125 -0.21875 1.1875zm9.2265625 -6.1875l0.328125 -1.59375l1.40625 0l-0.328125 1.59375l-1.40625 0zm-2.0625 9.859375l1.734375 -8.296875l1.40625 0l-1.734375 8.296875l-1.40625 0zm3.6015625 0l1.734375 -8.296875l1.28125 0l-0.296875 1.4375q0.828125 -0.84375 1.546875 -1.234375q0.734375 -0.390625 1.5 -0.390625q1.0 0 1.578125 0.546875q0.578125 0.546875 0.578125 1.453125q0 0.46875 -0.203125 1.453125l-1.0625 5.03125l-1.40625 0l1.09375 -5.265625q0.171875 -0.765625 0.171875 -1.125q0 -0.421875 -0.296875 -0.671875q-0.28125 -0.265625 -0.8125 -0.265625q-1.09375 0 -1.9375 0.78125q-0.84375 0.78125 -1.25 2.6875l-0.796875 3.859375l-1.421875 0z" fill-rule="nonzero"/><path fill="#000000" fill-opacity="0.0" d="m417.72702 161.07611l0 50.48819" fill-rule="evenodd"/><path stroke="#ff0000" stroke-width="1.0" stroke-linejoin="round" stroke-linecap="butt" d="m417.72702 161.07611l0 44.48819" fill-rule="evenodd"/><path fill="#ff0000" stroke="#ff0000" stroke-width="1.0" stroke-linecap="butt" d="m416.0753 205.5643l1.6517334 4.538101l1.6517334 -4.538101z" fill-rule="evenodd"/><path fill="#000000" fill-opacity="0.0" d="m417.47507 182.58792l0.50393677 -21.51181" fill-rule="evenodd"/><path stroke="#ff0000" stroke-width="1.0" stroke-linejoin="round" stroke-linecap="butt" d="m417.47507 182.58792l0.36343384 -15.513458" fill-rule="evenodd"/><path fill="#ff0000" stroke="#ff0000" stroke-width="1.0" stroke-linecap="butt" d="m419.48978 167.11316l-1.5450134 -4.5755463l-1.7575684 4.498169z" fill-rule="evenodd"/><defs><radialGradient id="p.4" gradientUnits="userSpaceOnUse" gradientTransform="matrix(8.55335186730971 0.0 0.0 8.55335186730971 0.0 0.0)" spreadMethod="pad" cx="56.0465457528798" cy="28.084030933331757" fx="56.0465457528798" fy="28.084030933331757" r="8.553351402282715"><stop offset="0.0" stop-color="#dcecd5"/><stop offset="1.0" stop-color="#93bc81"/></radialGradient></defs><path fill="url(#p.4)" d="m409.3071 219.20473l140.15744 0l0 42.01573l-140.15744 0z" fill-rule="evenodd"/><path stroke="#000000" stroke-width="1.0" stroke-linejoin="round" stroke-linecap="butt" d="m409.3071 219.20473l140.15744 0l0 42.01573l-140.15744 0z" fill-rule="evenodd"/><path fill="#000000" d="m437.88074 239.99973l0 -1.4375l-5.53125 0l0 -4.265625l6.375 0l0 -1.4375l-8.0625 0l0 13.265625l8.140625 0l0 -1.4375l-6.453125 0l0 -4.6875l5.53125 0zm5.804962 4.6875l0 -11.828125l-1.6875 0l0 13.265625l8.171875 0l0 -1.4375l-6.484375 0zm16.586182 -4.6875l0 -1.4375l-5.53125 0l0 -4.265625l6.375 0l0 -1.4375l-8.0625 0l0 13.265625l8.140625 0l0 -1.4375l-6.453125 0l0 -4.6875l5.53125 0zm5.758087 -7.140625l-2.09375 0l0 13.265625l1.640625 0l0 -5.296875l-0.140625 -5.34375l2.25 6.953125l0.96875 0l2.453125 -7.140625l-0.140625 5.53125l0 5.296875l1.640625 0l0 -13.265625l-2.09375 0l-2.328125 6.640625l-2.15625 -6.640625zm16.633087 7.140625l0 -1.4375l-5.53125 0l0 -4.265625l6.375 0l0 -1.4375l-8.0625 0l0 13.265625l8.140625 0l0 -1.4375l-6.453125 0l0 -4.6875l5.53125 0zm12.211182 6.125l0 -13.265625l-1.703125 0l-0.03125 9.890625l-5.140625 -9.890625l-1.71875 0l0 13.265625l1.703125 0l0.03125 -9.90625l5.15625 9.90625l1.703125 0zm11.836212 -11.828125l0 -1.4375l-9.84375 0l0 1.4375l4.109375 0l0 11.828125l1.640625 0l0 -11.828125l4.09375 0zm10.429932 13.203125l0 -1.375l-8.359375 0l0 1.375l8.359375 0zm11.148682 -1.375l0 -1.375l-6.65625 0l3.5625 -3.859375q0.5 -0.546875 0.953125 -1.09375q0.453125 -0.5625 0.796875 -1.125q0.328125 -0.5625 0.53125 -1.140625q0.203125 -0.578125 0.203125 -1.171875q0 -0.796875 -0.28125 -1.46875q-0.28125 -0.671875 -0.796875 -1.15625q-0.515625 -0.5 -1.265625 -0.78125q-0.75 -0.28125 -1.6875 -0.28125q-1.03125 0 -1.828125 0.328125q-0.796875 0.328125 -1.34375 0.890625q-0.546875 0.5625 -0.84375 1.3125q-0.28125 0.734375 -0.28125 1.5625l1.6875 0q0 -0.609375 0.15625 -1.109375q0.15625 -0.515625 0.484375 -0.859375q0.328125 -0.34375 0.8125 -0.53125q0.484375 -0.203125 1.15625 -0.203125q0.546875 0 0.96875 0.1875q0.4375 0.1875 0.75 0.5q0.296875 0.328125 0.453125 0.765625q0.171875 0.421875 0.171875 0.921875q0 0.390625 -0.109375 0.78125q-0.09375 0.375 -0.328125 0.796875q-0.25 0.421875 -0.640625 0.921875q-0.390625 0.5 -0.96875 1.140625l-4.34375 4.828125l0 1.21875l8.6875 0z" fill-rule="nonzero"/><path fill="#000000" fill-opacity="0.0" d="m322.62466 -34.175854l0 421.00787" fill-rule="evenodd"/><path stroke="#666666" stroke-width="2.0" stroke-linejoin="round" stroke-linecap="butt" stroke-dasharray="8.0,6.0" d="m322.62466 -34.175854l0 421.00787" fill-rule="evenodd"/><path fill="#000000" fill-opacity="0.0" d="m322.0 177.0l-383.46457 -2.0472412" fill-rule="evenodd"/><path stroke="#666666" stroke-width="2.0" stroke-linejoin="round" stroke-linecap="butt" stroke-dasharray="8.0,6.0" d="m322.0 177.0l-383.46457 -2.0472412" fill-rule="evenodd"/></g></svg>