<svg version="1.1" viewBox="0.0 0.0 608.1417322834645 135.0" fill="none" stroke="none" stroke-linecap="square" stroke-miterlimit="10" xmlns:xlink="http://www.w3.org/1999/xlink" xmlns="http://www.w3.org/2000/svg"><clipPath id="p.0"><path d="m0 0l608.1417 0l0 135.0l-608.1417 0l0 -135.0z" clip-rule="nonzero"/></clipPath><g clip-path="url(#p.0)"><path fill="#000000" fill-opacity="0.0" d="m0 0l608.1417 0l0 135.0l-608.1417 0z" fill-rule="evenodd"/><path fill="#000000" fill-opacity="0.0" d="m7.7139106 5.1443567l707.1496 0l0 42.01575l-707.1496 0z" fill-rule="evenodd"/><path fill="#efefef" d="m16.713911 14.144357l582.1693 0l0 22.399998l-582.1693 0l0 -22.399998z" fill-rule="nonzero"/><path fill="#000000" fill-opacity="0.0" d="m16.713911 12.515374l582.1693 0l0 24.604752l-582.1693 0l0 -24.604752z" fill-rule="nonzero"/><path fill="#000000" d="m26.651411 27.251856l0 -0.203125q0 -0.765625 -0.125 -1.453125q-0.125 -0.703125 -0.375 -1.28125q-0.234375 -0.515625 -0.546875 -0.921875q-0.3125 -0.421875 -0.703125 -0.703125q-0.4375 -0.3125 -0.984375 -0.484375q-0.53125 -0.171875 -1.15625 -0.171875q-0.515625 0 -0.953125 0.09375q-0.4375 0.09375 -0.796875 0.296875q-0.296875 0.15625 -0.5625 0.375q-0.25 0.203125 -0.453125 0.46875l0 -5.203125l-1.6875 0l0 13.999998l1.546875 0l0.078125 -1.1249981q0.171875 0.21875 0.34375 0.390625q0.1875 0.171875 0.390625 0.3125q0.421875 0.296875 0.9375 0.4531231q0.53125 0.15625 1.171875 0.15625q0.546875 0 1.015625 -0.140625q0.484375 -0.1406231 0.890625 -0.3906231q0.5625 -0.34375 0.953125 -0.890625q0.390625 -0.546875 0.640625 -1.21875q0.1875 -0.53125 0.28125 -1.125q0.09375 -0.59375 0.09375 -1.234375zm-1.6875 -0.203125l0 0.203125q0 0.4375 -0.0625 0.859375q-0.046875 0.40625 -0.15625 0.78125q-0.15625 0.46875 -0.40625 0.875q-0.234375 0.390625 -0.609375 0.640625q-0.265625 0.203125 -0.609375 0.3125q-0.34375 0.09375 -0.765625 0.09375q-0.4375 0 -0.8125 -0.109375q-0.359375 -0.109375 -0.640625 -0.328125q-0.296875 -0.203125 -0.53125 -0.484375q-0.21875 -0.28125 -0.375 -0.609375l0 -4.3125q0.15625 -0.328125 0.375 -0.59375q0.21875 -0.28125 0.515625 -0.5q0.28125 -0.1875 0.640625 -0.296875q0.375 -0.125 0.8125 -0.125q0.390625 0 0.71875 0.09375q0.328125 0.09375 0.59375 0.25q0.390625 0.234375 0.65625 0.640625q0.265625 0.390625 0.421875 0.875q0.125 0.390625 0.171875 0.84375q0.0625 0.4375 0.0625 0.890625zm4.054947 0l0 0.203125q0 1.0625 0.3125 1.96875q0.3125 0.90625 0.890625 1.59375q0.578125 0.671875 1.40625 1.0625q0.8437481 0.3749981 1.8906231 0.3749981q1.03125 0 1.859375 -0.3749981q0.828125 -0.390625 1.40625 -1.0625q0.578125 -0.6875 0.890625 -1.59375q0.3125 -0.90625 0.3125 -1.96875l0 -0.203125q0 -1.0625 -0.3125 -1.984375q-0.3125 -0.921875 -0.890625 -1.59375q-0.578125 -0.671875 -1.421875 -1.046875q-0.828125 -0.390625 -1.875 -0.390625q-1.03125 0 -1.8593731 0.390625q-0.828125 0.375 -1.40625 1.046875q-0.578125 0.671875 -0.890625 1.59375q-0.3125 0.921875 -0.3125 1.984375zm1.6875 0.203125l0 -0.203125q0 -0.71875 0.171875 -1.375q0.171875 -0.671875 0.53125 -1.171875q0.34375 -0.5 0.8593731 -0.796875q0.515625 -0.296875 1.21875 -0.296875q0.703125 0 1.21875 0.296875q0.53125 0.296875 0.890625 0.796875q0.34375 0.5 0.515625 1.171875q0.1875 0.65625 0.1875 1.375l0 0.203125q0 0.71875 -0.171875 1.390625q-0.171875 0.65625 -0.515625 1.15625q-0.359375 0.5 -0.890625 0.796875q-0.515625 0.28125 -1.203125 0.28125q-0.703125 0 -1.234375 -0.28125q-0.5312481 -0.296875 -0.8749981 -0.796875q-0.359375 -0.5 -0.53125 -1.15625q-0.171875 -0.671875 -0.171875 -1.390625zm16.44557 -5.21875q-1.078125 0 -1.921875 0.46875q-0.84375 0.46875 -1.4375 1.265625l-0.015625 -0.234375l-0.078125 -1.328125l-1.59375 0l0 9.859373l1.6875 0l0 -6.328123q0.171875 -0.453125 0.421875 -0.8125q0.25 -0.375 0.578125 -0.625q0.375 -0.296875 0.875 -0.4375q0.5 -0.15625 1.125 -0.15625q0.484375 0 0.921875 0.046875q0.453125 0.046875 0.9375 0.15625l0.234375 -1.640625q-0.265625 -0.109375 -0.765625 -0.171875q-0.5 -0.0625 -0.96875 -0.0625zm4.414322 5.015625l0 0.203125q0 1.046875 0.28125 1.96875q0.28125 0.90625 0.796875 1.59375q0.5 0.671875 1.21875 1.0625q0.734375 0.3749981 1.625 0.3749981q0.921875 0 1.59375 -0.3124981q0.6875 -0.3125 1.1875 -0.90625l0.0625 1.0312481l1.546875 0l0 -13.999998l-1.6875 0l0 5.125q-0.46875 -0.578125 -1.140625 -0.859375q-0.65625 -0.296875 -1.546875 -0.296875q-0.890625 0 -1.625 0.375q-0.734375 0.359375 -1.234375 1.03125q-0.515625 0.65625 -0.796875 1.59375q-0.28125 0.921875 -0.28125 2.015625zm1.6875 0.203125l0 -0.203125q0 -0.71875 0.15625 -1.359375q0.15625 -0.65625 0.484375 -1.15625q0.3125 -0.5 0.8125 -0.78125q0.515625 -0.296875 1.21875 -0.296875q0.828125 0 1.375 0.390625q0.5625 0.390625 0.890625 0.984375l0 4.578125q-0.328125 0.640625 -0.890625 1.03125q-0.546875 0.375 -1.390625 0.375q-0.703125 0 -1.203125 -0.28125q-0.5 -0.296875 -0.8125 -0.78125q-0.328125 -0.5 -0.484375 -1.140625q-0.15625 -0.640625 -0.15625 -1.359375zm14.179951 4.999998q1.4375 0 2.421875 -0.5781231q0.984375 -0.578125 1.46875 -1.328125l-1.03125 -0.796875q-0.46875 0.59375 -1.171875 0.96875q-0.6875 0.359375 -1.59375 0.359375q-0.6875 0 -1.25 -0.25q-0.5625 -0.265625 -0.96875 -0.71875q-0.390625 -0.40625 -0.609375 -0.953125q-0.21875 -0.546875 -0.28125 -1.265625l0 -0.078125l7.03125 0l0 -0.75q0 -1.03125 -0.265625 -1.90625q-0.25 -0.890625 -0.78125 -1.546875q-0.53125 -0.640625 -1.328125 -1.0q-0.796875 -0.375 -1.859375 -0.375q-0.84375 0 -1.65625 0.34375q-0.796875 0.34375 -1.4375 0.984375q-0.6250038 0.65625 -1.0156288 1.609375q-0.375 0.9375 -0.375 2.125l0 0.390625q0 1.03125 0.34375 1.90625q0.34375 0.875 0.9687538 1.5q0.609375 0.640625 1.484375 1.0q0.875 0.3593731 1.90625 0.3593731zm-0.21875 -8.843748q0.65625 0 1.125 0.234375q0.46875 0.234375 0.765625 0.625q0.3125 0.375 0.484375 0.90625q0.171875 0.515625 0.171875 0.984375l0 0.078125l-5.296875 0q0.09375 -0.6875 0.34375 -1.203125q0.265625 -0.53125 0.625 -0.890625q0.359375 -0.359375 0.8125 -0.546875q0.453125 -0.1875 0.96875 -0.1875zm13.523697 -1.375q-1.078125 0 -1.921875 0.46875q-0.84375 0.46875 -1.4375 1.265625l-0.015625 -0.234375l-0.078125 -1.328125l-1.59375 0l0 9.859373l1.6875 0l0 -6.328123q0.171875 -0.453125 0.421875 -0.8125q0.25 -0.375 0.578125 -0.625q0.375 -0.296875 0.875 -0.4375q0.5 -0.15625 1.125 -0.15625q0.484375 0 0.921875 0.046875q0.453125 0.046875 0.9375 0.15625l0.234375 -1.640625q-0.265625 -0.109375 -0.765625 -0.171875q-0.5 -0.0625 -0.96875 -0.0625zm8.117447 8.9375q0 0.53125 0.328125 0.90625q0.34375 0.3593731 1.0 0.3593731q0.640625 0 0.984375 -0.3593731q0.34375 -0.375 0.34375 -0.90625q0 -0.546875 -0.34375 -0.921875q-0.328125 -0.375 -0.984375 -0.375q-0.671875 0 -1.0 0.390625q-0.328125 0.375 -0.328125 0.90625zm0 -7.984375q0 0.53125 0.328125 0.90625q0.34375 0.359375 1.0 0.359375q0.640625 0 0.984375 -0.359375q0.34375 -0.375 0.34375 -0.90625q0 -0.546875 -0.34375 -0.921875q-0.328125 -0.375 -0.984375 -0.375q-0.671875 0 -1.0 0.390625q-0.328125 0.375 -0.328125 0.90625zm30.180466 9.078123l4.25 0q0.84375 -0.015625 1.640625 -0.2656231q0.796875 -0.25 1.40625 -0.734375q0.609375 -0.46875 0.96875 -1.171875q0.375 -0.71875 0.359375 -1.65625q0 -0.59375 -0.171875 -1.09375q-0.171875 -0.515625 -0.5 -0.921875q-0.296875 -0.375 -0.765625 -0.6875q-0.453125 -0.3125 -0.96875 -0.421875l0 -0.03125q0.484375 -0.21875 0.828125 -0.453125q0.34375 -0.234375 0.625 -0.578125q0.28125 -0.34375 0.4375 -0.765625q0.15625 -0.421875 0.171875 -0.953125q0 -0.921875 -0.359375 -1.578125q-0.359375 -0.671875 -0.96875 -1.109375q-0.625 -0.421875 -1.40625 -0.625q-0.78125 -0.203125 -1.59375 -0.21875l-3.953125 0l0 13.265623zm1.703125 -6.203123l2.6875 0q0.53125 0.015625 1.0 0.1875q0.46875 0.15625 0.8125 0.453125q0.34375 0.3125 0.53125 0.75q0.203125 0.4375 0.1875 1.0q0 0.5625 -0.21875 1.0q-0.203125 0.4375 -0.5625 0.734375q-0.375 0.296875 -0.84375 0.46875q-0.46875 0.171875 -1.0 0.171875l-2.59375 0l0 -4.765625zm0 -1.40625l0 -4.21875l2.296875 0q0.5 0.015625 0.96875 0.140625q0.46875 0.109375 0.828125 0.359375q0.359375 0.25 0.5625 0.640625q0.21875 0.390625 0.21875 0.953125q0 0.515625 -0.21875 0.90625q-0.21875 0.390625 -0.578125 0.65625q-0.34375 0.28125 -0.8125 0.421875q-0.453125 0.140625 -0.921875 0.140625l-2.34375 0zm18.148697 1.75l0 -1.515625q-0.015625 -0.71875 -0.140625 -1.4375q-0.109375 -0.734375 -0.34375 -1.40625q-0.25 -0.671875 -0.625 -1.25q-0.359375 -0.59375 -0.859375 -1.03125q-0.515625 -0.4375 -1.1875 -0.6875q-0.65625 -0.265625 -1.484375 -0.265625q-0.8125 0 -1.484375 0.265625q-0.65625 0.25 -1.15625 0.6875q-0.515625 0.4375 -0.890625 1.03125q-0.359375 0.578125 -0.59375 1.25q-0.25 0.6875 -0.375 1.40625q-0.109375 0.71875 -0.109375 1.4375l0 1.515625q0 0.703125 0.125 1.421875q0.125 0.71875 0.359375 1.390625q0.234375 0.671875 0.609375 1.265625q0.375 0.59375 0.890625 1.03125q0.515625 0.4375 1.171875 0.6874981q0.65625 0.25 1.484375 0.25q0.8125 0 1.46875 -0.25q0.671875 -0.2499981 1.171875 -0.6874981q0.515625 -0.4375 0.875 -1.015625q0.375 -0.59375 0.609375 -1.265625q0.234375 -0.671875 0.34375 -1.390625q0.125 -0.734375 0.140625 -1.4375zm-1.671875 -1.53125l0 1.53125q-0.015625 0.46875 -0.0625 0.984375q-0.046875 0.515625 -0.171875 1.015625q-0.140625 0.515625 -0.359375 0.984375q-0.203125 0.453125 -0.53125 0.796875q-0.328125 0.359375 -0.78125 0.578125q-0.453125 0.203125 -1.03125 0.203125q-0.59375 0 -1.046875 -0.203125q-0.4375 -0.21875 -0.765625 -0.578125q-0.328125 -0.34375 -0.546875 -0.8125q-0.21875 -0.46875 -0.359375 -0.96875q-0.140625 -0.5 -0.203125 -1.015625q-0.0625 -0.53125 -0.0625 -0.984375l0 -1.53125q0 -0.46875 0.0625 -0.984375q0.0625 -0.515625 0.203125 -1.03125q0.125 -0.5 0.34375 -0.953125q0.21875 -0.46875 0.546875 -0.8125q0.328125 -0.359375 0.765625 -0.5625q0.453125 -0.203125 1.03125 -0.203125q0.59375 0 1.03125 0.203125q0.453125 0.203125 0.78125 0.546875q0.328125 0.359375 0.546875 0.828125q0.21875 0.453125 0.359375 0.953125q0.125 0.5 0.171875 1.015625q0.0625 0.515625 0.078125 1.0zm8.617447 1.984375l2.609375 5.406248l1.78125 0l0 -0.10937309l-2.8125 -5.671875q0.546875 -0.234375 1.0 -0.5625q0.46875 -0.34375 0.796875 -0.78125q0.328125 -0.4375 0.5 -0.96875q0.1875 -0.546875 0.1875 -1.1875q0 -1.0 -0.34375 -1.734375q-0.34375 -0.75 -0.953125 -1.25q-0.625 -0.484375 -1.453125 -0.734375q-0.8125 -0.25 -1.75 -0.265625l-3.875 0l0 13.265623l1.671875 0l0 -5.406248l2.640625 0zm-2.640625 -1.390625l0 -5.078125l2.203125 0q0.625 0 1.125 0.171875q0.515625 0.15625 0.890625 0.484375q0.375 0.328125 0.578125 0.8125q0.21875 0.46875 0.21875 1.109375q0 0.59375 -0.21875 1.0625q-0.21875 0.453125 -0.59375 0.78125q-0.375 0.3125 -0.875 0.484375q-0.5 0.15625 -1.078125 0.171875l-2.25 0zm9.273697 6.796873l3.078125 0q0.953125 -0.015625 1.78125 -0.2343731q0.828125 -0.21875 1.484375 -0.625q0.609375 -0.390625 1.109375 -0.9375q0.5 -0.5625 0.828125 -1.25q0.328125 -0.65625 0.484375 -1.4375q0.171875 -0.78125 0.171875 -1.65625l0 -0.96875q0 -0.921875 -0.1875 -1.71875q-0.171875 -0.796875 -0.515625 -1.46875q-0.359375 -0.796875 -0.984375 -1.40625q-0.625 -0.609375 -1.4375 -0.984375q-0.59375 -0.265625 -1.28125 -0.40625q-0.6875 -0.15625 -1.453125 -0.171875l-3.078125 0l0 13.265623zm1.71875 -11.874998l1.359375 0q0.625 0 1.15625 0.140625q0.53125 0.125 0.953125 0.359375q0.609375 0.328125 1.015625 0.84375q0.421875 0.515625 0.65625 1.15625q0.203125 0.484375 0.296875 1.0625q0.09375 0.5625 0.09375 1.1875l0 0.984375q0 0.609375 -0.09375 1.171875q-0.09375 0.5625 -0.265625 1.046875q-0.21875 0.59375 -0.578125 1.078125q-0.359375 0.46875 -0.84375 0.796875q-0.46875 0.3125 -1.078125 0.484375q-0.59375 0.171875 -1.3125 0.1875l-1.359375 0l0 -10.5zm16.945572 5.75l0 -1.4375l-5.53125 0l0 -4.265625l6.375 0l0 -1.4375l-8.0625 0l0 13.265623l8.140625 0l0 -1.4374981l-6.453125 0l0 -4.6875l5.53125 0zm8.289322 0.71875l2.609375 5.406248l1.78125 0l0 -0.10937309l-2.8125 -5.671875q0.546875 -0.234375 1.0 -0.5625q0.46875 -0.34375 0.796875 -0.78125q0.328125 -0.4375 0.5 -0.96875q0.1875 -0.546875 0.1875 -1.1875q0 -1.0 -0.34375 -1.734375q-0.34375 -0.75 -0.953125 -1.25q-0.625 -0.484375 -1.453125 -0.734375q-0.8125 -0.25 -1.75 -0.265625l-3.875 0l0 13.265623l1.671875 0l0 -5.406248l2.640625 0zm-2.640625 -1.390625l0 -5.078125l2.203125 0q0.625 0 1.125 0.171875q0.515625 0.15625 0.890625 0.484375q0.375 0.328125 0.578125 0.8125q0.21875 0.46875 0.21875 1.109375q0 0.59375 -0.21875 1.0625q-0.21875 0.453125 -0.59375 0.78125q-0.375 0.3125 -0.875 0.484375q-0.5 0.15625 -1.078125 0.171875l-2.25 0zm16.820572 1.6875l0 -1.390625l-6.96875 0l0 1.390625l6.96875 0zm10.773697 1.75q0 0.546875 -0.25 0.953125q-0.234375 0.390625 -0.609375 0.640625q-0.359375 0.265625 -0.84375 0.390625q-0.484375 0.125 -0.96875 0.125q-0.625 0 -1.15625 -0.15625q-0.515625 -0.171875 -0.90625 -0.515625q-0.40625 -0.328125 -0.671875 -0.796875q-0.25 -0.484375 -0.328125 -1.109375l-1.71875 0q0.03125 0.859375 0.375 1.5625q0.34375 0.6875 0.953125 1.203125q0.671875 0.609375 1.578125 0.9375q0.921875 0.3124981 1.875 0.3124981q0.796875 0 1.578125 -0.21875q0.796875 -0.2343731 1.421875 -0.6718731q0.625 -0.4375 1.015625 -1.109375q0.40625 -0.671875 0.40625 -1.5625q0 -0.875 -0.375 -1.546875q-0.359375 -0.6875 -0.953125 -1.140625q-0.625 -0.5 -1.359375 -0.828125q-0.734375 -0.328125 -1.46875 -0.546875q-0.453125 -0.140625 -0.953125 -0.3125q-0.5 -0.1875 -0.9375 -0.46875q-0.4375 -0.265625 -0.71875 -0.65625q-0.28125 -0.40625 -0.296875 -0.984375q0 -0.53125 0.21875 -0.921875q0.21875 -0.40625 0.578125 -0.671875q0.359375 -0.28125 0.8125 -0.40625q0.46875 -0.140625 0.953125 -0.140625q0.59375 0 1.0625 0.1875q0.484375 0.171875 0.828125 0.515625q0.359375 0.34375 0.5625 0.8125q0.203125 0.46875 0.28125 1.03125l1.734375 0q-0.015625 -0.90625 -0.390625 -1.640625q-0.375 -0.734375 -1.0 -1.265625q-0.609375 -0.515625 -1.421875 -0.796875q-0.796875 -0.296875 -1.65625 -0.296875q-0.796875 0 -1.578125 0.25q-0.765625 0.234375 -1.375 0.703125q-0.609375 0.46875 -0.984375 1.140625q-0.375 0.671875 -0.375 1.53125q0 0.859375 0.375 1.5q0.375 0.625 0.984375 1.09375q0.59375 0.453125 1.3125 0.78125q0.71875 0.3125 1.421875 0.546875q0.484375 0.15625 1.0 0.34375q0.53125 0.1875 0.96875 0.46875q0.4375 0.296875 0.71875 0.71875q0.28125 0.40625 0.28125 1.015625zm13.195572 -8.46875l0 -1.4375l-9.84375 0l0 1.4375l4.109375 0l0 11.828123l1.640625 0l0 -11.828123l4.09375 0zm6.164322 5.21875l-3.015625 -6.65625l-1.921875 0l4.125 8.3125l0.015625 4.953123l1.578125 0l0.015625 -4.953123l4.140625 -8.3125l-1.921875 0l-3.015625 6.65625zm9.179947 5.171875l0 -11.828125l-1.6875 0l0 13.265623l8.171875 0l0 -1.4374981l-6.484375 0zm16.586197 -4.6875l0 -1.4375l-5.53125 0l0 -4.265625l6.375 0l0 -1.4375l-8.0625 0l0 13.265623l8.140625 0l0 -1.4374981l-6.453125 0l0 -4.6875l5.53125 0zm26.274216 6.124998l4.25 0q0.84375 -0.015625 1.640625 -0.2656231q0.796875 -0.25 1.40625 -0.734375q0.609375 -0.46875 0.96875 -1.171875q0.375 -0.71875 0.359375 -1.65625q0 -0.59375 -0.171875 -1.09375q-0.171875 -0.515625 -0.5 -0.921875q-0.296875 -0.375 -0.765625 -0.6875q-0.453125 -0.3125 -0.96875 -0.421875l0 -0.03125q0.484375 -0.21875 0.828125 -0.453125q0.34375 -0.234375 0.625 -0.578125q0.28125 -0.34375 0.4375 -0.765625q0.15625 -0.421875 0.171875 -0.953125q0 -0.921875 -0.359375 -1.578125q-0.359375 -0.671875 -0.96875 -1.109375q-0.625 -0.421875 -1.40625 -0.625q-0.78125 -0.203125 -1.59375 -0.21875l-3.953125 0l0 13.265623zm1.703125 -6.203123l2.6875 0q0.53125 0.015625 1.0 0.1875q0.46875 0.15625 0.8125 0.453125q0.34375 0.3125 0.53125 0.75q0.203125 0.4375 0.1875 1.0q0 0.5625 -0.21875 1.0q-0.203125 0.4375 -0.5625 0.734375q-0.375 0.296875 -0.84375 0.46875q-0.46875 0.171875 -1.0 0.171875l-2.59375 0l0 -4.765625zm0 -1.40625l0 -4.21875l2.296875 0q0.5 0.015625 0.96875 0.140625q0.46875 0.109375 0.828125 0.359375q0.359375 0.25 0.5625 0.640625q0.21875 0.390625 0.21875 0.953125q0 0.515625 -0.21875 0.90625q-0.21875 0.390625 -0.578125 0.65625q-0.34375 0.28125 -0.8125 0.421875q-0.453125 0.140625 -0.921875 0.140625l-2.34375 0zm18.148682 1.75l0 -1.515625q-0.015625 -0.71875 -0.140625 -1.4375q-0.109375 -0.734375 -0.34375 -1.40625q-0.25 -0.671875 -0.625 -1.25q-0.359375 -0.59375 -0.859375 -1.03125q-0.515625 -0.4375 -1.1875 -0.6875q-0.65625 -0.265625 -1.484375 -0.265625q-0.8125 0 -1.484375 0.265625q-0.65625 0.25 -1.15625 0.6875q-0.515625 0.4375 -0.890625 1.03125q-0.359375 0.578125 -0.59375 1.25q-0.25 0.6875 -0.375 1.40625q-0.109375 0.71875 -0.109375 1.4375l0 1.515625q0 0.703125 0.125 1.421875q0.125 0.71875 0.359375 1.390625q0.234375 0.671875 0.609375 1.265625q0.375 0.59375 0.890625 1.03125q0.515625 0.4375 1.171875 0.6874981q0.65625 0.25 1.484375 0.25q0.8125 0 1.46875 -0.25q0.671875 -0.2499981 1.171875 -0.6874981q0.515625 -0.4375 0.875 -1.015625q0.375 -0.59375 0.609375 -1.265625q0.234375 -0.671875 0.34375 -1.390625q0.125 -0.734375 0.140625 -1.4375zm-1.671875 -1.53125l0 1.53125q-0.015625 0.46875 -0.0625 0.984375q-0.046875 0.515625 -0.171875 1.015625q-0.140625 0.515625 -0.359375 0.984375q-0.203125 0.453125 -0.53125 0.796875q-0.328125 0.359375 -0.78125 0.578125q-0.453125 0.203125 -1.03125 0.203125q-0.59375 0 -1.046875 -0.203125q-0.4375 -0.21875 -0.765625 -0.578125q-0.328125 -0.34375 -0.546875 -0.8125q-0.21875 -0.46875 -0.359375 -0.96875q-0.140625 -0.5 -0.203125 -1.015625q-0.0625 -0.53125 -0.0625 -0.984375l0 -1.53125q0 -0.46875 0.0625 -0.984375q0.0625 -0.515625 0.203125 -1.03125q0.125 -0.5 0.34375 -0.953125q0.21875 -0.46875 0.546875 -0.8125q0.328125 -0.359375 0.765625 -0.5625q0.453125 -0.203125 1.03125 -0.203125q0.59375 0 1.03125 0.203125q0.453125 0.203125 0.78125 0.546875q0.328125 0.359375 0.546875 0.828125q0.21875 0.453125 0.359375 0.953125q0.125 0.5 0.171875 1.015625q0.0625 0.515625 0.078125 1.0zm8.617432 1.984375l2.609375 5.406248l1.78125 0l0 -0.10937309l-2.8125 -5.671875q0.546875 -0.234375 1.0 -0.5625q0.46875 -0.34375 0.796875 -0.78125q0.328125 -0.4375 0.5 -0.96875q0.1875 -0.546875 0.1875 -1.1875q0 -1.0 -0.34375 -1.734375q-0.34375 -0.75 -0.953125 -1.25q-0.625 -0.484375 -1.453125 -0.734375q-0.8125 -0.25 -1.75 -0.265625l-3.875 0l0 13.265623l1.671875 0l0 -5.406248l2.640625 0zm-2.640625 -1.390625l0 -5.078125l2.203125 0q0.625 0 1.125 0.171875q0.515625 0.15625 0.890625 0.484375q0.375 0.328125 0.578125 0.8125q0.21875 0.46875 0.21875 1.109375q0 0.59375 -0.21875 1.0625q-0.21875 0.453125 -0.59375 0.78125q-0.375 0.3125 -0.875 0.484375q-0.5 0.15625 -1.078125 0.171875l-2.25 0zm9.273682 6.796873l3.078125 0q0.953125 -0.015625 1.78125 -0.2343731q0.828125 -0.21875 1.484375 -0.625q0.609375 -0.390625 1.109375 -0.9375q0.5 -0.5625 0.828125 -1.25q0.328125 -0.65625 0.484375 -1.4375q0.171875 -0.78125 0.171875 -1.65625l0 -0.96875q0 -0.921875 -0.1875 -1.71875q-0.171875 -0.796875 -0.515625 -1.46875q-0.359375 -0.796875 -0.984375 -1.40625q-0.625 -0.609375 -1.4375 -0.984375q-0.59375 -0.265625 -1.28125 -0.40625q-0.6875 -0.15625 -1.453125 -0.171875l-3.078125 0l0 13.265623zm1.71875 -11.874998l1.359375 0q0.625 0 1.15625 0.140625q0.53125 0.125 0.953125 0.359375q0.609375 0.328125 1.015625 0.84375q0.421875 0.515625 0.65625 1.15625q0.203125 0.484375 0.296875 1.0625q0.09375 0.5625 0.09375 1.1875l0 0.984375q0 0.609375 -0.09375 1.171875q-0.09375 0.5625 -0.265625 1.046875q-0.21875 0.59375 -0.578125 1.078125q-0.359375 0.46875 -0.84375 0.796875q-0.46875 0.3125 -1.078125 0.484375q-0.59375 0.171875 -1.3125 0.1875l-1.359375 0l0 -10.5zm16.945557 5.75l0 -1.4375l-5.53125 0l0 -4.265625l6.375 0l0 -1.4375l-8.0625 0l0 13.265623l8.140625 0l0 -1.4374981l-6.453125 0l0 -4.6875l5.53125 0zm8.289307 0.71875l2.609375 5.406248l1.78125 0l0 -0.10937309l-2.8125 -5.671875q0.546875 -0.234375 1.0 -0.5625q0.46875 -0.34375 0.796875 -0.78125q0.328125 -0.4375 0.5 -0.96875q0.1875 -0.546875 0.1875 -1.1875q0 -1.0 -0.34375 -1.734375q-0.34375 -0.75 -0.953125 -1.25q-0.625 -0.484375 -1.453125 -0.734375q-0.8125 -0.25 -1.75 -0.265625l-3.875 0l0 13.265623l1.671875 0l0 -5.406248l2.640625 0zm-2.640625 -1.390625l0 -5.078125l2.203125 0q0.625 0 1.125 0.171875q0.515625 0.15625 0.890625 0.484375q0.375 0.328125 0.578125 0.8125q0.21875 0.46875 0.21875 1.109375q0 0.59375 -0.21875 1.0625q-0.21875 0.453125 -0.59375 0.78125q-0.375 0.3125 -0.875 0.484375q-0.5 0.15625 -1.078125 0.171875l-2.25 0zm16.820557 1.6875l0 -1.390625l-6.96875 0l0 1.390625l6.96875 0zm12.414307 1.125l-1.6875 0q-0.078125 0.59375 -0.28125 1.109375q-0.203125 0.515625 -0.53125 0.890625q-0.34375 0.375 -0.828125 0.59375q-0.484375 0.203125 -1.15625 0.203125q-0.609375 0 -1.0625 -0.1875q-0.453125 -0.203125 -0.796875 -0.546875q-0.328125 -0.34375 -0.546875 -0.78125q-0.21875 -0.453125 -0.359375 -0.953125q-0.140625 -0.5 -0.203125 -1.015625q-0.046875 -0.53125 -0.046875 -1.03125l0 -1.859375q0 -0.5 0.046875 -1.015625q0.0625 -0.53125 0.203125 -1.03125q0.140625 -0.5 0.359375 -0.9375q0.21875 -0.453125 0.5625 -0.796875q0.328125 -0.328125 0.78125 -0.515625q0.46875 -0.203125 1.0625 -0.203125q0.671875 0 1.15625 0.21875q0.484375 0.21875 0.828125 0.609375q0.328125 0.390625 0.53125 0.921875q0.203125 0.515625 0.28125 1.109375l1.6875 0q-0.109375 -0.9375 -0.453125 -1.71875q-0.34375 -0.796875 -0.90625 -1.359375q-0.5625 -0.546875 -1.34375 -0.859375q-0.78125 -0.3125 -1.78125 -0.3125q-0.828125 0 -1.5 0.234375q-0.65625 0.234375 -1.171875 0.640625q-0.53125 0.421875 -0.90625 0.984375q-0.375 0.546875 -0.625 1.203125q-0.25 0.65625 -0.375 1.375q-0.125 0.71875 -0.140625 1.46875l0 1.84375q0.015625 0.734375 0.140625 1.453125q0.125 0.71875 0.375 1.375q0.25 0.65625 0.625 1.21875q0.375 0.546875 0.90625 0.96875q0.515625 0.40625 1.1875 0.6406231q0.671875 0.234375 1.484375 0.234375q0.96875 0 1.734375 -0.2968731q0.78125 -0.3125 1.359375 -0.875q0.5625 -0.546875 0.921875 -1.3125q0.359375 -0.765625 0.46875 -1.6875zm11.242432 -1.875l0 -1.515625q-0.015625 -0.71875 -0.140625 -1.4375q-0.109375 -0.734375 -0.34375 -1.40625q-0.25 -0.671875 -0.625 -1.25q-0.359375 -0.59375 -0.859375 -1.03125q-0.515625 -0.4375 -1.1875 -0.6875q-0.65625 -0.265625 -1.484375 -0.265625q-0.8125 0 -1.484375 0.265625q-0.65625 0.25 -1.15625 0.6875q-0.515625 0.4375 -0.890625 1.03125q-0.359375 0.578125 -0.59375 1.25q-0.25 0.6875 -0.375 1.40625q-0.109375 0.71875 -0.109375 1.4375l0 1.515625q0 0.703125 0.125 1.421875q0.125 0.71875 0.359375 1.390625q0.234375 0.671875 0.609375 1.265625q0.375 0.59375 0.890625 1.03125q0.515625 0.4375 1.171875 0.6874981q0.65625 0.25 1.484375 0.25q0.8125 0 1.46875 -0.25q0.671875 -0.2499981 1.171875 -0.6874981q0.515625 -0.4375 0.875 -1.015625q0.375 -0.59375 0.609375 -1.265625q0.234375 -0.671875 0.34375 -1.390625q0.125 -0.734375 0.140625 -1.4375zm-1.671875 -1.53125l0 1.53125q-0.015625 0.46875 -0.0625 0.984375q-0.046875 0.515625 -0.171875 1.015625q-0.140625 0.515625 -0.359375 0.984375q-0.203125 0.453125 -0.53125 0.796875q-0.328125 0.359375 -0.78125 0.578125q-0.453125 0.203125 -1.03125 0.203125q-0.59375 0 -1.046875 -0.203125q-0.4375 -0.21875 -0.765625 -0.578125q-0.328125 -0.34375 -0.546875 -0.8125q-0.21875 -0.46875 -0.359375 -0.96875q-0.140625 -0.5 -0.203125 -1.015625q-0.0625 -0.53125 -0.0625 -0.984375l0 -1.53125q0 -0.46875 0.0625 -0.984375q0.0625 -0.515625 0.203125 -1.03125q0.125 -0.5 0.34375 -0.953125q0.21875 -0.46875 0.546875 -0.8125q0.328125 -0.359375 0.765625 -0.5625q0.453125 -0.203125 1.03125 -0.203125q0.59375 0 1.03125 0.203125q0.453125 0.203125 0.78125 0.546875q0.328125 0.359375 0.546875 0.828125q0.21875 0.453125 0.359375 0.953125q0.125 0.5 0.171875 1.015625q0.0625 0.515625 0.078125 1.0zm6.1330566 5.953125l0 -11.828125l-1.6875 0l0 13.265623l8.171875 0l0 -1.4374981l-6.484375 0zm17.929932 -4.421875l0 -1.515625q-0.015625 -0.71875 -0.140625 -1.4375q-0.109375 -0.734375 -0.34375 -1.40625q-0.25 -0.671875 -0.625 -1.25q-0.359375 -0.59375 -0.859375 -1.03125q-0.515625 -0.4375 -1.1875 -0.6875q-0.65625 -0.265625 -1.484375 -0.265625q-0.8125 0 -1.484375 0.265625q-0.65625 0.25 -1.15625 0.6875q-0.515625 0.4375 -0.890625 1.03125q-0.359375 0.578125 -0.59375 1.25q-0.25 0.6875 -0.375 1.40625q-0.109375 0.71875 -0.109375 1.4375l0 1.515625q0 0.703125 0.125 1.421875q0.125 0.71875 0.359375 1.390625q0.234375 0.671875 0.609375 1.265625q0.375 0.59375 0.890625 1.03125q0.515625 0.4375 1.171875 0.6874981q0.65625 0.25 1.484375 0.25q0.8125 0 1.46875 -0.25q0.671875 -0.2499981 1.171875 -0.6874981q0.515625 -0.4375 0.875 -1.015625q0.375 -0.59375 0.609375 -1.265625q0.234375 -0.671875 0.34375 -1.390625q0.125 -0.734375 0.140625 -1.4375zm-1.671875 -1.53125l0 1.53125q-0.015625 0.46875 -0.0625 0.984375q-0.046875 0.515625 -0.171875 1.015625q-0.140625 0.515625 -0.359375 0.984375q-0.203125 0.453125 -0.53125 0.796875q-0.328125 0.359375 -0.78125 0.578125q-0.453125 0.203125 -1.03125 0.203125q-0.59375 0 -1.046875 -0.203125q-0.4375 -0.21875 -0.765625 -0.578125q-0.328125 -0.34375 -0.546875 -0.8125q-0.21875 -0.46875 -0.359375 -0.96875q-0.140625 -0.5 -0.203125 -1.015625q-0.0625 -0.53125 -0.0625 -0.984375l0 -1.53125q0 -0.46875 0.0625 -0.984375q0.0625 -0.515625 0.203125 -1.03125q0.125 -0.5 0.34375 -0.953125q0.21875 -0.46875 0.546875 -0.8125q0.328125 -0.359375 0.765625 -0.5625q0.453125 -0.203125 1.03125 -0.203125q0.59375 0 1.03125 0.203125q0.453125 0.203125 0.78125 0.546875q0.328125 0.359375 0.546875 0.828125q0.21875 0.453125 0.359375 0.953125q0.125 0.5 0.171875 1.015625q0.0625 0.515625 0.078125 1.0zm8.617432 1.984375l2.609375 5.406248l1.78125 0l0 -0.10937309l-2.8125 -5.671875q0.546875 -0.234375 1.0 -0.5625q0.46875 -0.34375 0.796875 -0.78125q0.328125 -0.4375 0.5 -0.96875q0.1875 -0.546875 0.1875 -1.1875q0 -1.0 -0.34375 -1.734375q-0.34375 -0.75 -0.953125 -1.25q-0.625 -0.484375 -1.453125 -0.734375q-0.8125 -0.25 -1.75 -0.265625l-3.875 0l0 13.265623l1.671875 0l0 -5.406248l2.640625 0zm-2.640625 -1.390625l0 -5.078125l2.203125 0q0.625 0 1.125 0.171875q0.515625 0.15625 0.890625 0.484375q0.375 0.328125 0.578125 0.8125q0.21875 0.46875 0.21875 1.109375q0 0.59375 -0.21875 1.0625q-0.21875 0.453125 -0.59375 0.78125q-0.375 0.3125 -0.875 0.484375q-0.5 0.15625 -1.078125 0.171875l-2.25 0zm31.821045 6.796873l4.25 0q0.84375 -0.015625 1.640625 -0.2656231q0.796875 -0.25 1.40625 -0.734375q0.609375 -0.46875 0.96875 -1.171875q0.375 -0.71875 0.359375 -1.65625q0 -0.59375 -0.171875 -1.09375q-0.171875 -0.515625 -0.5 -0.921875q-0.296875 -0.375 -0.765625 -0.6875q-0.453125 -0.3125 -0.96875 -0.421875l0 -0.03125q0.484375 -0.21875 0.828125 -0.453125q0.34375 -0.234375 0.625 -0.578125q0.28125 -0.34375 0.4375 -0.765625q0.15625 -0.421875 0.171875 -0.953125q0 -0.921875 -0.359375 -1.578125q-0.359375 -0.671875 -0.96875 -1.109375q-0.625 -0.421875 -1.40625 -0.625q-0.78125 -0.203125 -1.59375 -0.21875l-3.953125 0l0 13.265623zm1.703125 -6.203123l2.6875 0q0.53125 0.015625 1.0 0.1875q0.46875 0.15625 0.8125 0.453125q0.34375 0.3125 0.53125 0.75q0.203125 0.4375 0.1875 1.0q0 0.5625 -0.21875 1.0q-0.203125 0.4375 -0.5625 0.734375q-0.375 0.296875 -0.84375 0.46875q-0.46875 0.171875 -1.0 0.171875l-2.59375 0l0 -4.765625zm0 -1.40625l0 -4.21875l2.296875 0q0.5 0.015625 0.96875 0.140625q0.46875 0.109375 0.828125 0.359375q0.359375 0.25 0.5625 0.640625q0.21875 0.390625 0.21875 0.953125q0 0.515625 -0.21875 0.90625q-0.21875 0.390625 -0.578125 0.65625q-0.34375 0.28125 -0.8125 0.421875q-0.453125 0.140625 -0.921875 0.140625l-2.34375 0zm18.148682 1.75l0 -1.515625q-0.015625 -0.71875 -0.140625 -1.4375q-0.109375 -0.734375 -0.34375 -1.40625q-0.25 -0.671875 -0.625 -1.25q-0.359375 -0.59375 -0.859375 -1.03125q-0.515625 -0.4375 -1.1875 -0.6875q-0.65625 -0.265625 -1.484375 -0.265625q-0.8125 0 -1.484375 0.265625q-0.65625 0.25 -1.15625 0.6875q-0.515625 0.4375 -0.890625 1.03125q-0.359375 0.578125 -0.59375 1.25q-0.25 0.6875 -0.375 1.40625q-0.109375 0.71875 -0.109375 1.4375l0 1.515625q0 0.703125 0.125 1.421875q0.125 0.71875 0.359375 1.390625q0.234375 0.671875 0.609375 1.265625q0.375 0.59375 0.890625 1.03125q0.515625 0.4375 1.171875 0.6874981q0.65625 0.25 1.484375 0.25q0.8125 0 1.46875 -0.25q0.671875 -0.2499981 1.171875 -0.6874981q0.515625 -0.4375 0.875 -1.015625q0.375 -0.59375 0.609375 -1.265625q0.234375 -0.671875 0.34375 -1.390625q0.125 -0.734375 0.140625 -1.4375zm-1.671875 -1.53125l0 1.53125q-0.015625 0.46875 -0.0625 0.984375q-0.046875 0.515625 -0.171875 1.015625q-0.140625 0.515625 -0.359375 0.984375q-0.203125 0.453125 -0.53125 0.796875q-0.328125 0.359375 -0.78125 0.578125q-0.453125 0.203125 -1.03125 0.203125q-0.59375 0 -1.046875 -0.203125q-0.4375 -0.21875 -0.765625 -0.578125q-0.328125 -0.34375 -0.546875 -0.8125q-0.21875 -0.46875 -0.359375 -0.96875q-0.140625 -0.5 -0.203125 -1.015625q-0.0625 -0.53125 -0.0625 -0.984375l0 -1.53125q0 -0.46875 0.0625 -0.984375q0.0625 -0.515625 0.203125 -1.03125q0.125 -0.5 0.34375 -0.953125q0.21875 -0.46875 0.546875 -0.8125q0.328125 -0.359375 0.765625 -0.5625q0.453125 -0.203125 1.03125 -0.203125q0.59375 0 1.03125 0.203125q0.453125 0.203125 0.78125 0.546875q0.328125 0.359375 0.546875 0.828125q0.21875 0.453125 0.359375 0.953125q0.125 0.5 0.171875 1.015625q0.0625 0.515625 0.078125 1.0zm8.617432 1.984375l2.609375 5.406248l1.78125 0l0 -0.10937309l-2.8125 -5.671875q0.546875 -0.234375 1.0 -0.5625q0.46875 -0.34375 0.796875 -0.78125q0.328125 -0.4375 0.5 -0.96875q0.1875 -0.546875 0.1875 -1.1875q0 -1.0 -0.34375 -1.734375q-0.34375 -0.75 -0.953125 -1.25q-0.625 -0.484375 -1.453125 -0.734375q-0.8125 -0.25 -1.75 -0.265625l-3.875 0l0 13.265623l1.671875 0l0 -5.406248l2.640625 0zm-2.640625 -1.390625l0 -5.078125l2.203125 0q0.625 0 1.125 0.171875q0.515625 0.15625 0.890625 0.484375q0.375 0.328125 0.578125 0.8125q0.21875 0.46875 0.21875 1.109375q0 0.59375 -0.21875 1.0625q-0.21875 0.453125 -0.59375 0.78125q-0.375 0.3125 -0.875 0.484375q-0.5 0.15625 -1.078125 0.171875l-2.25 0zm9.273682 6.796873l3.078125 0q0.953125 -0.015625 1.78125 -0.2343731q0.828125 -0.21875 1.484375 -0.625q0.609375 -0.390625 1.109375 -0.9375q0.5 -0.5625 0.828125 -1.25q0.328125 -0.65625 0.484375 -1.4375q0.171875 -0.78125 0.171875 -1.65625l0 -0.96875q0 -0.921875 -0.1875 -1.71875q-0.171875 -0.796875 -0.515625 -1.46875q-0.359375 -0.796875 -0.984375 -1.40625q-0.625 -0.609375 -1.4375 -0.984375q-0.59375 -0.265625 -1.28125 -0.40625q-0.6875 -0.15625 -1.453125 -0.171875l-3.078125 0l0 13.265623zm1.71875 -11.874998l1.359375 0q0.625 0 1.15625 0.140625q0.53125 0.125 0.953125 0.359375q0.609375 0.328125 1.015625 0.84375q0.421875 0.515625 0.65625 1.15625q0.203125 0.484375 0.296875 1.0625q0.09375 0.5625 0.09375 1.1875l0 0.984375q0 0.609375 -0.09375 1.171875q-0.09375 0.5625 -0.265625 1.046875q-0.21875 0.59375 -0.578125 1.078125q-0.359375 0.46875 -0.84375 0.796875q-0.46875 0.3125 -1.078125 0.484375q-0.59375 0.171875 -1.3125 0.1875l-1.359375 0l0 -10.5zm16.945557 5.75l0 -1.4375l-5.53125 0l0 -4.265625l6.375 0l0 -1.4375l-8.0625 0l0 13.265623l8.140625 0l0 -1.4374981l-6.453125 0l0 -4.6875l5.53125 0zm8.289307 0.71875l2.609375 5.406248l1.78125 0l0 -0.10937309l-2.8125 -5.671875q0.546875 -0.234375 1.0 -0.5625q0.46875 -0.34375 0.796875 -0.78125q0.328125 -0.4375 0.5 -0.96875q0.1875 -0.546875 0.1875 -1.1875q0 -1.0 -0.34375 -1.734375q-0.34375 -0.75 -0.953125 -1.25q-0.625 -0.484375 -1.453125 -0.734375q-0.8125 -0.25 -1.75 -0.265625l-3.875 0l0 13.265623l1.671875 0l0 -5.406248l2.640625 0zm-2.640625 -1.390625l0 -5.078125l2.203125 0q0.625 0 1.125 0.171875q0.515625 0.15625 0.890625 0.484375q0.375 0.328125 0.578125 0.8125q0.21875 0.46875 0.21875 1.109375q0 0.59375 -0.21875 1.0625q-0.21875 0.453125 -0.59375 0.78125q-0.375 0.3125 -0.875 0.484375q-0.5 0.15625 -1.078125 0.171875l-2.25 0zm16.820557 1.6875l0 -1.390625l-6.96875 0l0 1.390625l6.96875 0zm4.5236816 5.109373l1.7344055 0l1.609375 -9.421873l0.109375 -0.578125l0.09375 0.5625l1.609375 9.437498l1.71875 0l1.609375 -13.265623l-1.59375 0l-0.953125 9.125l-0.0625 0.546875l-0.09375 -0.53125l-1.609375 -9.140625l-1.46875 0l-1.609375 9.125l-0.09375 0.546875l-0.0625 -0.53125l-0.9531555 -9.140625l-1.59375 0l1.609375 13.265623zm10.492462 -13.265623l0 1.46875l3.109375 0l0 10.34375l-3.109375 0l0 1.4531231l8.015625 0l0 -1.4531231l-3.171875 0l0 -10.34375l3.171875 0l0 -1.46875l-8.015625 0zm11.023682 13.265623l3.078125 0q0.953125 -0.015625 1.78125 -0.2343731q0.828125 -0.21875 1.484375 -0.625q0.609375 -0.390625 1.109375 -0.9375q0.5 -0.5625 0.828125 -1.25q0.328125 -0.65625 0.484375 -1.4375q0.171875 -0.78125 0.171875 -1.65625l0 -0.96875q0 -0.921875 -0.1875 -1.71875q-0.171875 -0.796875 -0.515625 -1.46875q-0.359375 -0.796875 -0.984375 -1.40625q-0.625 -0.609375 -1.4375 -0.984375q-0.59375 -0.265625 -1.28125 -0.40625q-0.6875 -0.15625 -1.453125 -0.171875l-3.078125 0l0 13.265623zm1.71875 -11.874998l1.359375 0q0.625 0 1.15625 0.140625q0.53125 0.125 0.953125 0.359375q0.609375 0.328125 1.015625 0.84375q0.421875 0.515625 0.65625 1.15625q0.203125 0.484375 0.296875 1.0625q0.09375 0.5625 0.09375 1.1875l0 0.984375q0 0.609375 -0.09375 1.171875q-0.09375 0.5625 -0.265625 1.046875q-0.21875 0.59375 -0.578125 1.078125q-0.359375 0.46875 -0.84375 0.796875q-0.46875 0.3125 -1.078125 0.484375q-0.59375 0.171875 -1.3125 0.1875l-1.359375 0l0 -10.5zm18.601807 0.046875l0 -1.4375l-9.84375 0l0 1.4375l4.109375 0l0 11.828123l1.640625 0l0 -11.828123l4.09375 0zm10.570557 11.828123l0 -13.265623l-1.59375 0l0 5.703125l-5.4375 0l0 -5.703125l-1.59375 0l0 13.265623l1.59375 0l0 -6.124998l5.4375 0l0 6.124998l1.59375 0zm28.571045 -9.078123q0 0.53125 0.328125 0.90625q0.34375 0.359375 1.0 0.359375q0.640625 0 0.984375 -0.359375q0.34375 -0.375 0.34375 -0.90625q0 -0.546875 -0.34375 -0.921875q-0.328125 -0.375 -0.984375 -0.375q-0.671875 0 -1.0 0.390625q-0.328125 0.375 -0.328125 0.90625zm2.171875 8.6875l0 -1.609375l-1.828125 0l0 1.640625q0 0.7656231 -0.1875 1.4843731q-0.1875 0.71875 -0.625 1.359375l1.046875 0.578125q0.734375 -0.65625 1.15625 -1.609375q0.4375 -0.9375 0.4375 -1.8437481z" fill-rule="nonzero"/><path fill="#000000" fill-opacity="0.0" d="m598.88324 12.515374l0 0l0 24.604752l0 0l0 -24.604752z" fill-rule="nonzero"/><path fill="#00ff00" fill-opacity="0.2191" d="m110.57218 7.7139106l147.84253 0l0 61.417324l-147.84253 0z" fill-rule="evenodd"/><path fill="#666666" d="m155.73563 54.473907l-2.1875 0l0 -8.296875l2.03125 0l0 1.171875q0.53125 -0.828125 0.9375 -1.09375q0.421875 -0.265625 0.953125 -0.265625q0.75 0 1.453125 0.40625l-0.6875 1.921875q-0.546875 -0.359375 -1.03125 -0.359375q-0.453125 0 -0.78125 0.25q-0.3125 0.25 -0.5 0.921875q-0.1875 0.65625 -0.1875 2.78125l0 2.5625zm8.9296875 -2.640625l2.1875 0.359375q-0.421875 1.203125 -1.328125 1.84375q-0.90625 0.625 -2.28125 0.625q-2.15625 0 -3.203125 -1.421875q-0.8125 -1.125 -0.8125 -2.859375q0 -2.0625 1.078125 -3.21875q1.078125 -1.171875 2.71875 -1.171875q1.859375 0 2.921875 1.21875q1.078125 1.21875 1.03125 3.75l-5.5 0q0.015625 0.96875 0.515625 1.515625q0.515625 0.546875 1.28125 0.546875q0.515625 0 0.859375 -0.28125q0.359375 -0.28125 0.53125 -0.90625zm0.125 -2.21875q-0.015625 -0.953125 -0.484375 -1.453125q-0.46875 -0.5 -1.140625 -0.5q-0.71875 0 -1.1875 0.53125q-0.46875 0.515625 -0.46875 1.421875l3.28125 0zm9.3984375 8.015625l0 -4.171875q-0.4375 0.546875 -1.078125 0.875q-0.640625 0.328125 -1.375 0.328125q-1.421875 0 -2.328125 -1.0625q-1.078125 -1.25 -1.078125 -3.375q0 -2.0 1.0 -3.109375q1.015625 -1.125 2.515625 -1.125q0.828125 0 1.4375 0.359375q0.609375 0.34375 1.078125 1.046875l0 -1.21875l2.015625 0l0 11.453125l-2.1875 0zm0.0625 -7.40625q0 -1.28125 -0.515625 -1.890625q-0.515625 -0.625 -1.296875 -0.625q-0.796875 0 -1.34375 0.640625q-0.53125 0.625 -0.53125 2.0q0 1.359375 0.515625 1.96875q0.515625 0.609375 1.28125 0.609375q0.75 0 1.3125 -0.671875q0.578125 -0.6875 0.578125 -2.03125zm9.7421875 4.25l0 -1.25q-0.453125 0.671875 -1.1875 1.0625q-0.734375 0.375 -1.5625 0.375q-0.828125 0 -1.5 -0.359375q-0.65625 -0.375 -0.953125 -1.03125q-0.296875 -0.671875 -0.296875 -1.84375l0 -5.25l2.1875 0l0 3.8125q0 1.75 0.125 2.140625q0.125 0.390625 0.4375 0.625q0.328125 0.234375 0.8125 0.234375q0.5625 0 1.0 -0.3125q0.453125 -0.3125 0.609375 -0.765625q0.171875 -0.453125 0.171875 -2.234375l0 -3.5l2.203125 0l0 8.296875l-2.046875 0zm4.3203125 -9.421875l0 -2.03125l2.1875 0l0 2.03125l-2.1875 0zm0 9.421875l0 -8.296875l2.1875 0l0 8.296875l-2.1875 0zm6.5390625 0l-2.1875 0l0 -8.296875l2.03125 0l0 1.171875q0.53125 -0.828125 0.9375 -1.09375q0.421875 -0.265625 0.953125 -0.265625q0.75 0 1.453125 0.40625l-0.6875 1.921875q-0.546875 -0.359375 -1.03125 -0.359375q-0.453125 0 -0.78125 0.25q-0.3125 0.25 -0.5 0.921875q-0.1875 0.65625 -0.1875 2.78125l0 2.5625zm8.9296875 -2.640625l2.1875 0.359375q-0.421875 1.203125 -1.328125 1.84375q-0.90625 0.625 -2.28125 0.625q-2.15625 0 -3.203125 -1.421875q-0.8125 -1.125 -0.8125 -2.859375q0 -2.0625 1.078125 -3.21875q1.078125 -1.171875 2.71875 -1.171875q1.859375 0 2.921875 1.21875q1.078125 1.21875 1.03125 3.75l-5.5 0q0.015625 0.96875 0.515625 1.515625q0.515625 0.546875 1.28125 0.546875q0.515625 0 0.859375 -0.28125q0.359375 -0.28125 0.53125 -0.90625zm0.125 -2.21875q-0.015625 -0.953125 -0.484375 -1.453125q-0.46875 -0.5 -1.140625 -0.5q-0.71875 0 -1.1875 0.53125q-0.46875 0.515625 -0.46875 1.421875l3.28125 0zm11.5859375 4.859375l-2.046875 0l0 -1.21875q-0.5 0.703125 -1.203125 1.0625q-0.6875 0.34375 -1.390625 0.34375q-1.421875 0 -2.453125 -1.15625q-1.015625 -1.15625 -1.015625 -3.21875q0 -2.109375 0.984375 -3.203125q1.0 -1.09375 2.515625 -1.09375q1.390625 0 2.40625 1.15625l0 -4.125l2.203125 0l0 11.453125zm-5.859375 -4.328125q0 1.328125 0.359375 1.921875q0.53125 0.859375 1.484375 0.859375q0.765625 0 1.296875 -0.640625q0.53125 -0.65625 0.53125 -1.9375q0 -1.421875 -0.515625 -2.046875q-0.515625 -0.640625 -1.328125 -0.640625q-0.78125 0 -1.3125 0.625q-0.515625 0.625 -0.515625 1.859375z" fill-rule="nonzero"/><path fill="#ff9900" fill-opacity="0.2472" d="m269.2861 7.7139106l147.8425 0l0 61.417324l-147.8425 0z" fill-rule="evenodd"/><path fill="#666666" d="m315.71515 50.317657q0 -2.296875 1.28125 -3.40625q1.078125 -0.921875 2.609375 -0.921875q1.71875 0 2.796875 1.125q1.09375 1.109375 1.09375 3.09375q0 1.59375 -0.484375 2.515625q-0.484375 0.921875 -1.40625 1.4375q-0.90625 0.5 -2.0 0.5q-1.734375 0 -2.8125 -1.109375q-1.078125 -1.125 -1.078125 -3.234375zm1.453125 0q0 1.59375 0.6875 2.390625q0.703125 0.796875 1.75 0.796875q1.046875 0 1.734375 -0.796875q0.703125 -0.796875 0.703125 -2.4375q0 -1.53125 -0.703125 -2.328125q-0.6875 -0.796875 -1.734375 -0.796875q-1.046875 0 -1.75 0.796875q-0.6875 0.78125 -0.6875 2.375zm7.9765625 7.34375l0 -11.484375l1.28125 0l0 1.078125q0.453125 -0.640625 1.015625 -0.953125q0.578125 -0.3125 1.390625 -0.3125q1.0625 0 1.875 0.546875q0.8125 0.546875 1.21875 1.546875q0.421875 0.984375 0.421875 2.171875q0 1.28125 -0.46875 2.296875q-0.453125 1.015625 -1.328125 1.5625q-0.859375 0.546875 -1.828125 0.546875q-0.703125 0 -1.265625 -0.296875q-0.546875 -0.296875 -0.90625 -0.75l0 4.046875l-1.40625 0zm1.265625 -7.296875q0 1.609375 0.640625 2.375q0.65625 0.765625 1.578125 0.765625q0.9375 0 1.609375 -0.796875q0.671875 -0.796875 0.671875 -2.453125q0 -1.59375 -0.65625 -2.375q-0.65625 -0.796875 -1.5625 -0.796875q-0.890625 0 -1.59375 0.84375q-0.6875 0.84375 -0.6875 2.4375zm10.6953125 2.84375l0.203125 1.25q-0.59375 0.125 -1.0625 0.125q-0.765625 0 -1.1875 -0.234375q-0.421875 -0.25 -0.59375 -0.640625q-0.171875 -0.40625 -0.171875 -1.671875l0 -4.765625l-1.03125 0l0 -1.09375l1.03125 0l0 -2.0625l1.40625 -0.84375l0 2.90625l1.40625 0l0 1.09375l-1.40625 0l0 4.84375q0 0.609375 0.0625 0.78125q0.078125 0.171875 0.25 0.28125q0.171875 0.09375 0.484375 0.09375q0.234375 0 0.609375 -0.0625zm1.3828125 -8.578125l0 -1.609375l1.40625 0l0 1.609375l-1.40625 0zm0 9.84375l0 -8.296875l1.40625 0l0 8.296875l-1.40625 0zm3.0234375 -4.15625q0 -2.296875 1.28125 -3.40625q1.078125 -0.921875 2.609375 -0.921875q1.71875 0 2.796875 1.125q1.09375 1.109375 1.09375 3.09375q0 1.59375 -0.484375 2.515625q-0.484375 0.921875 -1.40625 1.4375q-0.90625 0.5 -2.0 0.5q-1.734375 0 -2.8125 -1.109375q-1.078125 -1.125 -1.078125 -3.234375zm1.453125 0q0 1.59375 0.6875 2.390625q0.703125 0.796875 1.75 0.796875q1.046875 0 1.734375 -0.796875q0.703125 -0.796875 0.703125 -2.4375q0 -1.53125 -0.703125 -2.328125q-0.6875 -0.796875 -1.734375 -0.796875q-1.046875 0 -1.75 0.796875q-0.6875 0.78125 -0.6875 2.375zm7.9765625 4.15625l0 -8.296875l1.265625 0l0 1.171875q0.90625 -1.359375 2.640625 -1.359375q0.75 0 1.375 0.265625q0.625 0.265625 0.9375 0.703125q0.3125 0.4375 0.4375 1.046875q0.078125 0.390625 0.078125 1.359375l0 5.109375l-1.40625 0l0 -5.046875q0 -0.859375 -0.171875 -1.28125q-0.15625 -0.4375 -0.578125 -0.6875q-0.40625 -0.25 -0.96875 -0.25q-0.90625 0 -1.5625 0.578125q-0.640625 0.5625 -0.640625 2.15625l0 4.53125l-1.40625 0zm14.3046875 -1.03125q-0.78125 0.671875 -1.5 0.953125q-0.71875 0.265625 -1.546875 0.265625q-1.375 0 -2.109375 -0.671875q-0.734375 -0.671875 -0.734375 -1.703125q0 -0.609375 0.28125 -1.109375q0.28125 -0.515625 0.71875 -0.8125q0.453125 -0.3125 1.015625 -0.46875q0.421875 -0.109375 1.25 -0.203125q1.703125 -0.203125 2.515625 -0.484375q0 -0.296875 0 -0.375q0 -0.859375 -0.390625 -1.203125q-0.546875 -0.484375 -1.609375 -0.484375q-0.984375 0 -1.46875 0.359375q-0.46875 0.34375 -0.6875 1.21875l-1.375 -0.1875q0.1875 -0.875 0.609375 -1.421875q0.4375 -0.546875 1.25 -0.828125q0.8125 -0.296875 1.875 -0.296875q1.0625 0 1.71875 0.25q0.671875 0.25 0.984375 0.625q0.3125 0.375 0.4375 0.953125q0.078125 0.359375 0.078125 1.296875l0 1.875q0 1.96875 0.078125 2.484375q0.09375 0.515625 0.359375 1.0l-1.46875 0q-0.21875 -0.4375 -0.28125 -1.03125zm-0.109375 -3.140625q-0.765625 0.3125 -2.296875 0.53125q-0.875 0.125 -1.234375 0.28125q-0.359375 0.15625 -0.5625 0.46875q-0.1875 0.296875 -0.1875 0.65625q0 0.5625 0.421875 0.9375q0.4375 0.375 1.25 0.375q0.8125 0 1.4375 -0.34375q0.640625 -0.359375 0.9375 -0.984375q0.234375 -0.46875 0.234375 -1.40625l0 -0.515625zm3.5703125 4.171875l0 -11.453125l1.40625 0l0 11.453125l-1.40625 0z" fill-rule="nonzero"/><path fill="#00ffff" fill-opacity="0.191" d="m428.0 7.7139106l147.84253 0l0 61.417324l-147.84253 0z" fill-rule="evenodd"/><path fill="#666666" d="m474.42908 50.317657q0 -2.296875 1.28125 -3.40625q1.078125 -0.921875 2.609375 -0.921875q1.71875 0 2.796875 1.125q1.09375 1.109375 1.09375 3.09375q0 1.59375 -0.484375 2.515625q-0.484375 0.921875 -1.40625 1.4375q-0.90625 0.5 -2.0 0.5q-1.734375 0 -2.8125 -1.109375q-1.078125 -1.125 -1.078125 -3.234375zm1.453125 0q0 1.59375 0.6875 2.390625q0.703125 0.796875 1.75 0.796875q1.046875 0 1.734375 -0.796875q0.703125 -0.796875 0.703125 -2.4375q0 -1.53125 -0.703125 -2.328125q-0.6875 -0.796875 -1.734375 -0.796875q-1.046875 0 -1.75 0.796875q-0.6875 0.78125 -0.6875 2.375zm7.9765625 7.34375l0 -11.484375l1.28125 0l0 1.078125q0.453125 -0.640625 1.015625 -0.953125q0.578125 -0.3125 1.390625 -0.3125q1.0625 0 1.875 0.546875q0.8125 0.546875 1.21875 1.546875q0.421875 0.984375 0.421875 2.171875q0 1.28125 -0.46875 2.296875q-0.453125 1.015625 -1.328125 1.5625q-0.859375 0.546875 -1.828125 0.546875q-0.703125 0 -1.265625 -0.296875q-0.546875 -0.296875 -0.90625 -0.75l0 4.046875l-1.40625 0zm1.265625 -7.296875q0 1.609375 0.640625 2.375q0.65625 0.765625 1.578125 0.765625q0.9375 0 1.609375 -0.796875q0.671875 -0.796875 0.671875 -2.453125q0 -1.59375 -0.65625 -2.375q-0.65625 -0.796875 -1.5625 -0.796875q-0.890625 0 -1.59375 0.84375q-0.6875 0.84375 -0.6875 2.4375zm10.6953125 2.84375l0.203125 1.25q-0.59375 0.125 -1.0625 0.125q-0.765625 0 -1.1875 -0.234375q-0.421875 -0.25 -0.59375 -0.640625q-0.171875 -0.40625 -0.171875 -1.671875l0 -4.765625l-1.03125 0l0 -1.09375l1.03125 0l0 -2.0625l1.40625 -0.84375l0 2.90625l1.40625 0l0 1.09375l-1.40625 0l0 4.84375q0 0.609375 0.0625 0.78125q0.078125 0.171875 0.25 0.28125q0.171875 0.09375 0.484375 0.09375q0.234375 0 0.609375 -0.0625zm1.3828125 -8.578125l0 -1.609375l1.40625 0l0 1.609375l-1.40625 0zm0 9.84375l0 -8.296875l1.40625 0l0 8.296875l-1.40625 0zm3.0234375 -4.15625q0 -2.296875 1.28125 -3.40625q1.078125 -0.921875 2.609375 -0.921875q1.71875 0 2.796875 1.125q1.09375 1.109375 1.09375 3.09375q0 1.59375 -0.484375 2.515625q-0.484375 0.921875 -1.40625 1.4375q-0.90625 0.5 -2.0 0.5q-1.734375 0 -2.8125 -1.109375q-1.078125 -1.125 -1.078125 -3.234375zm1.453125 0q0 1.59375 0.6875 2.390625q0.703125 0.796875 1.75 0.796875q1.046875 0 1.734375 -0.796875q0.703125 -0.796875 0.703125 -2.4375q0 -1.53125 -0.703125 -2.328125q-0.6875 -0.796875 -1.734375 -0.796875q-1.046875 0 -1.75 0.796875q-0.6875 0.78125 -0.6875 2.375zm7.9765625 4.15625l0 -8.296875l1.265625 0l0 1.171875q0.90625 -1.359375 2.640625 -1.359375q0.75 0 1.375 0.265625q0.625 0.265625 0.9375 0.703125q0.3125 0.4375 0.4375 1.046875q0.078125 0.390625 0.078125 1.359375l0 5.109375l-1.40625 0l0 -5.046875q0 -0.859375 -0.171875 -1.28125q-0.15625 -0.4375 -0.578125 -0.6875q-0.40625 -0.25 -0.96875 -0.25q-0.90625 0 -1.5625 0.578125q-0.640625 0.5625 -0.640625 2.15625l0 4.53125l-1.40625 0zm14.3046875 -1.03125q-0.78125 0.671875 -1.5 0.953125q-0.71875 0.265625 -1.546875 0.265625q-1.375 0 -2.109375 -0.671875q-0.734375 -0.671875 -0.734375 -1.703125q0 -0.609375 0.28125 -1.109375q0.28125 -0.515625 0.71875 -0.8125q0.453125 -0.3125 1.015625 -0.46875q0.421875 -0.109375 1.25 -0.203125q1.703125 -0.203125 2.515625 -0.484375q0 -0.296875 0 -0.375q0 -0.859375 -0.390625 -1.203125q-0.546875 -0.484375 -1.609375 -0.484375q-0.984375 0 -1.46875 0.359375q-0.46875 0.34375 -0.6875 1.21875l-1.375 -0.1875q0.1875 -0.875 0.609375 -1.421875q0.4375 -0.546875 1.25 -0.828125q0.8125 -0.296875 1.875 -0.296875q1.0625 0 1.71875 0.25q0.671875 0.25 0.984375 0.625q0.3125 0.375 0.4375 0.953125q0.078125 0.359375 0.078125 1.296875l0 1.875q0 1.96875 0.078125 2.484375q0.09375 0.515625 0.359375 1.0l-1.46875 0q-0.21875 -0.4375 -0.28125 -1.03125zm-0.109375 -3.140625q-0.765625 0.3125 -2.296875 0.53125q-0.875 0.125 -1.234375 0.28125q-0.359375 0.15625 -0.5625 0.46875q-0.1875 0.296875 -0.1875 0.65625q0 0.5625 0.421875 0.9375q0.4375 0.375 1.25 0.375q0.8125 0 1.4375 -0.34375q0.640625 -0.359375 0.9375 -0.984375q0.234375 -0.46875 0.234375 -1.40625l0 -0.515625zm3.5703125 4.171875l0 -11.453125l1.40625 0l0 11.453125l-1.40625 0z" fill-rule="nonzero"/><path fill="#000000" fill-opacity="0.0" d="m599.1417 57.855644l0 0c0 6.82045 -2.7094116 13.361549 -7.5321655 18.184334c-4.822815 4.8227844 -11.363892 7.5322037 -18.184387 7.5322037l-203.13382 0c-14.20285 0 -25.716553 11.5136795 -25.716553 25.71653l0 0c0 -14.20285 -11.513672 -25.71653 -25.716522 -25.71653l-203.13387 0c-14.20285 0 -25.716537 -11.513687 -25.716537 -25.716537z" fill-rule="evenodd"/><path fill="#000000" fill-opacity="0.0" d="m599.1417 57.855644l0 0c0 6.82045 -2.7094116 13.361549 -7.5321655 18.184334c-4.822815 4.8227844 -11.363892 7.5322037 -18.184387 7.5322037l-203.13382 0c-14.20285 0 -25.716553 11.5136795 -25.716553 25.71653l0 0c0 -14.20285 -11.513672 -25.71653 -25.716522 -25.71653l-203.13387 0c-14.20285 0 -25.716537 -11.513687 -25.716537 -25.716537" fill-rule="evenodd"/><path stroke="#666666" stroke-width="2.0" stroke-linejoin="round" stroke-linecap="butt" d="m599.1417 57.855644l0 0c0 6.82045 -2.7094116 13.361549 -7.5321655 18.184334c-4.822815 4.8227844 -11.363892 7.5322037 -18.184387 7.5322037l-203.13382 0c-14.20285 0 -25.716553 11.5136795 -25.716553 25.71653l0 0c0 -14.20285 -11.513672 -25.71653 -25.716522 -25.71653l-203.13387 0c-14.20285 0 -25.716537 -11.513687 -25.716537 -25.716537" fill-rule="evenodd"/><path fill="#000000" fill-opacity="0.0" d="m110.561676 99.002625l465.29135 0l0 42.015747l-465.29135 0z" fill-rule="evenodd"/><path fill="#666666" d="m125.54143 121.07887q0 -2.6875 1.484375 -3.96875q1.25 -1.078125 3.046875 -1.078125q2.0 0 3.265625 1.3125q1.265625 1.296875 1.265625 3.609375q0 1.859375 -0.5625 2.9375q-0.5625 1.0625 -1.640625 1.65625q-1.0625 0.59375 -2.328125 0.59375q-2.03125 0 -3.28125 -1.296875q-1.25 -1.3125 -1.25 -3.765625zm1.6875 0q0 1.859375 0.796875 2.796875q0.8125 0.921875 2.046875 0.921875q1.21875 0 2.03125 -0.921875q0.8125 -0.9375 0.8125 -2.84375q0 -1.796875 -0.8125 -2.71875q-0.8125 -0.921875 -2.03125 -0.921875q-1.234375 0 -2.046875 0.921875q-0.796875 0.90625 -0.796875 2.765625zm9.281967 4.84375l0 -9.671875l1.46875 0l0 1.46875q0.5625 -1.03125 1.03125 -1.359375q0.484375 -0.328125 1.0625 -0.328125q0.828125 0 1.6875 0.53125l-0.5625 1.515625q-0.609375 -0.359375 -1.203125 -0.359375q-0.546875 0 -0.96875 0.328125q-0.421875 0.328125 -0.609375 0.890625q-0.28125 0.875 -0.28125 1.921875l0 5.0625l-1.625 0zm12.493927 0l0 -1.21875q-0.90625 1.4375 -2.703125 1.4375q-1.15625 0 -2.125 -0.640625q-0.96875 -0.640625 -1.5 -1.78125q-0.53125 -1.140625 -0.53125 -2.625q0 -1.453125 0.484375 -2.625q0.484375 -1.1875 1.4375 -1.8125q0.96875 -0.625 2.171875 -0.625q0.875 0 1.546875 0.375q0.6875 0.359375 1.109375 0.953125l0 -4.796875l1.640625 0l0 13.359375l-1.53125 0zm-5.171875 -4.828125q0 1.859375 0.78125 2.78125q0.78125 0.921875 1.84375 0.921875q1.078125 0 1.828125 -0.875q0.75 -0.890625 0.75 -2.6875q0 -1.984375 -0.765625 -2.90625q-0.765625 -0.9375 -1.890625 -0.9375q-1.078125 0 -1.8125 0.890625q-0.734375 0.890625 -0.734375 2.8125zm15.906967 1.71875l1.6875 0.203125q-0.40625 1.484375 -1.484375 2.3125q-1.078125 0.8125 -2.765625 0.8125q-2.125 0 -3.375 -1.296875q-1.234375 -1.3125 -1.234375 -3.671875q0 -2.453125 1.25 -3.796875q1.265625 -1.34375 3.265625 -1.34375q1.9375 0 3.15625 1.328125q1.234375 1.3125 1.234375 3.703125q0 0.15625 0 0.4375l-7.21875 0q0.09375 1.59375 0.90625 2.453125q0.8125 0.84375 2.015625 0.84375q0.90625 0 1.546875 -0.46875q0.640625 -0.484375 1.015625 -1.515625zm-5.390625 -2.65625l5.40625 0q-0.109375 -1.21875 -0.625 -1.828125q-0.78125 -0.953125 -2.03125 -0.953125q-1.125 0 -1.90625 0.765625q-0.765625 0.75 -0.84375 2.015625zm9.125717 5.765625l0 -9.671875l1.46875 0l0 1.46875q0.5625 -1.03125 1.03125 -1.359375q0.484375 -0.328125 1.0625 -0.328125q0.828125 0 1.6875 0.53125l-0.5625 1.515625q-0.609375 -0.359375 -1.203125 -0.359375q-0.546875 0 -0.96875 0.328125q-0.421875 0.328125 -0.609375 0.890625q-0.28125 0.875 -0.28125 1.921875l0 5.0625l-1.625 0zm11.411606 -11.46875l0 -1.890625l1.640625 0l0 1.890625l-1.640625 0zm0 11.46875l0 -9.671875l1.640625 0l0 9.671875l-1.640625 0zm3.4885712 -2.890625l1.625 -0.25q0.125 0.96875 0.75 1.5q0.625 0.515625 1.75 0.515625q1.125 0 1.671875 -0.453125q0.546875 -0.46875 0.546875 -1.09375q0 -0.546875 -0.484375 -0.875q-0.328125 -0.21875 -1.671875 -0.546875q-1.8125 -0.46875 -2.515625 -0.796875q-0.6875 -0.328125 -1.046875 -0.90625q-0.359375 -0.59375 -0.359375 -1.3125q0 -0.640625 0.296875 -1.1875q0.296875 -0.5625 0.8125 -0.921875q0.375 -0.28125 1.03125 -0.46875q0.671875 -0.203125 1.421875 -0.203125q1.140625 0 2.0 0.328125q0.859375 0.328125 1.265625 0.890625q0.421875 0.5625 0.578125 1.5l-1.609375 0.21875q-0.109375 -0.75 -0.640625 -1.171875q-0.515625 -0.421875 -1.46875 -0.421875q-1.140625 0 -1.625 0.375q-0.46875 0.375 -0.46875 0.875q0 0.3125 0.1875 0.578125q0.203125 0.265625 0.640625 0.4375q0.234375 0.09375 1.4375 0.421875q1.75 0.453125 2.4375 0.75q0.6875 0.296875 1.078125 0.859375q0.390625 0.5625 0.390625 1.40625q0 0.828125 -0.484375 1.546875q-0.46875 0.71875 -1.375 1.125q-0.90625 0.390625 -2.046875 0.390625q-1.875 0 -2.875 -0.78125q-0.984375 -0.78125 -1.25 -2.328125zm15.558304 2.890625l0 -8.40625l-1.453125 0l0 -1.265625l1.453125 0l0 -1.03125q0 -0.96875 0.171875 -1.453125q0.234375 -0.640625 0.828125 -1.03125q0.59375 -0.390625 1.671875 -0.390625q0.6875 0 1.53125 0.15625l-0.25 1.4375q-0.5 -0.09375 -0.953125 -0.09375q-0.75 0 -1.0625 0.328125q-0.3125 0.3125 -0.3125 1.1875l0 0.890625l1.890625 0l0 1.265625l-1.890625 0l0 8.40625l-1.625 0zm4.745804 0l0 -13.359375l1.640625 0l0 13.359375l-1.640625 0zm10.816696 -3.109375l1.6875 0.203125q-0.40625 1.484375 -1.484375 2.3125q-1.078125 0.8125 -2.765625 0.8125q-2.125 0 -3.375 -1.296875q-1.234375 -1.3125 -1.234375 -3.671875q0 -2.453125 1.25 -3.796875q1.265625 -1.34375 3.265625 -1.34375q1.9375 0 3.15625 1.328125q1.234375 1.3125 1.234375 3.703125q0 0.15625 0 0.4375l-7.21875 0q0.09375 1.59375 0.90625 2.453125q0.8125 0.84375 2.015625 0.84375q0.90625 0 1.546875 -0.46875q0.640625 -0.484375 1.015625 -1.515625zm-5.390625 -2.65625l5.40625 0q-0.109375 -1.21875 -0.625 -1.828125q-0.78125 -0.953125 -2.03125 -0.953125q-1.125 0 -1.90625 0.765625q-0.765625 0.75 -0.84375 2.015625zm8.047592 5.765625l3.53125 -5.03125l-3.265625 -4.640625l2.046875 0l1.484375 2.265625q0.421875 0.640625 0.671875 1.078125q0.40625 -0.59375 0.734375 -1.0625l1.640625 -2.28125l1.953125 0l-3.34375 4.546875l3.59375 5.125l-2.015625 0l-1.984375 -3.0l-0.515625 -0.8125l-2.546875 3.8125l-1.984375 0zm10.421875 -11.46875l0 -1.890625l1.640625 0l0 1.890625l-1.640625 0zm0 11.46875l0 -9.671875l1.640625 0l0 9.671875l-1.640625 0zm5.644821 0l-1.515625 0l0 -13.359375l1.640625 0l0 4.765625q1.046875 -1.296875 2.65625 -1.296875q0.890625 0 1.6875 0.359375q0.796875 0.359375 1.3125 1.015625q0.515625 0.640625 0.796875 1.5625q0.296875 0.921875 0.296875 1.96875q0 2.484375 -1.234375 3.84375q-1.21875 1.359375 -2.953125 1.359375q-1.703125 0 -2.6875 -1.4375l0 1.21875zm-0.015625 -4.90625q0 1.734375 0.484375 2.515625q0.765625 1.265625 2.09375 1.265625q1.078125 0 1.859375 -0.9375q0.78125 -0.9375 0.78125 -2.78125q0 -1.890625 -0.75 -2.796875q-0.75 -0.90625 -1.828125 -0.90625q-1.0625 0 -1.859375 0.9375q-0.78125 0.9375 -0.78125 2.703125zm8.844467 4.90625l0 -13.359375l1.640625 0l0 13.359375l-1.640625 0zm10.816696 -3.109375l1.6875 0.203125q-0.40625 1.484375 -1.484375 2.3125q-1.078125 0.8125 -2.765625 0.8125q-2.125 0 -3.375 -1.296875q-1.234375 -1.3125 -1.234375 -3.671875q0 -2.453125 1.25 -3.796875q1.265625 -1.34375 3.265625 -1.34375q1.9375 0 3.15625 1.328125q1.234375 1.3125 1.234375 3.703125q0 0.15625 0 0.4375l-7.21875 0q0.09375 1.59375 0.90625 2.453125q0.8125 0.84375 2.015625 0.84375q0.90625 0 1.546875 -0.46875q0.640625 -0.484375 1.015625 -1.515625zm-5.390625 -2.65625l5.40625 0q-0.109375 -1.21875 -0.625 -1.828125q-0.78125 -0.953125 -2.03125 -0.953125q-1.125 0 -1.90625 0.765625q-0.765625 0.75 -0.84375 2.015625zm9.563217 5.765625l0 -1.875l1.875 0l0 1.875q0 1.03125 -0.375 1.65625q-0.359375 0.640625 -1.15625 0.984375l-0.453125 -0.703125q0.515625 -0.21875 0.765625 -0.671875q0.25 -0.4375 0.28125 -1.265625l-0.9375 0zm9.944733 0l0 -9.671875l1.46875 0l0 1.375q1.0625 -1.59375 3.078125 -1.59375q0.875 0 1.609375 0.3125q0.734375 0.3125 1.09375 0.828125q0.375 0.5 0.515625 1.203125q0.09375 0.453125 0.09375 1.59375l0 5.953125l-1.640625 0l0 -5.890625q0 -1.0 -0.203125 -1.484375q-0.1875 -0.5 -0.671875 -0.796875q-0.484375 -0.296875 -1.140625 -0.296875q-1.046875 0 -1.8125 0.671875q-0.75 0.65625 -0.75 2.515625l0 5.28125l-1.640625 0zm9.766357 -4.84375q0 -2.6875 1.484375 -3.96875q1.25 -1.078125 3.046875 -1.078125q2.0 0 3.265625 1.3125q1.265625 1.296875 1.265625 3.609375q0 1.859375 -0.5625 2.9375q-0.5625 1.0625 -1.640625 1.65625q-1.0625 0.59375 -2.328125 0.59375q-2.03125 0 -3.28125 -1.296875q-1.25 -1.3125 -1.25 -3.765625zm1.6875 0q0 1.859375 0.796875 2.796875q0.8125 0.921875 2.046875 0.921875q1.21875 0 2.03125 -0.921875q0.8125 -0.9375 0.8125 -2.84375q0 -1.796875 -0.8125 -2.71875q-0.8125 -0.921875 -2.03125 -0.921875q-1.234375 0 -2.046875 0.921875q-0.796875 0.90625 -0.796875 2.765625zm20.793396 1.296875l1.609375 0.21875q-0.265625 1.65625 -1.359375 2.609375q-1.078125 0.9375 -2.671875 0.9375q-1.984375 0 -3.1875 -1.296875q-1.203125 -1.296875 -1.203125 -3.71875q0 -1.578125 0.515625 -2.75q0.515625 -1.171875 1.578125 -1.75q1.0625 -0.59375 2.3125 -0.59375q1.578125 0 2.578125 0.796875q1.0 0.796875 1.28125 2.265625l-1.59375 0.234375q-0.234375 -0.96875 -0.8125 -1.453125q-0.578125 -0.5 -1.390625 -0.5q-1.234375 0 -2.015625 0.890625q-0.78125 0.890625 -0.78125 2.8125q0 1.953125 0.75 2.84375q0.75 0.875 1.953125 0.875q0.96875 0 1.609375 -0.59375q0.65625 -0.59375 0.828125 -1.828125zm2.40625 -1.296875q0 -2.6875 1.484375 -3.96875q1.25 -1.078125 3.046875 -1.078125q2.0 0 3.265625 1.3125q1.265625 1.296875 1.265625 3.609375q0 1.859375 -0.5625 2.9375q-0.5625 1.0625 -1.640625 1.65625q-1.0625 0.59375 -2.328125 0.59375q-2.03125 0 -3.28125 -1.296875q-1.25 -1.3125 -1.25 -3.765625zm1.6875 0q0 1.859375 0.796875 2.796875q0.8125 0.921875 2.046875 0.921875q1.21875 0 2.03125 -0.921875q0.8125 -0.9375 0.8125 -2.84375q0 -1.796875 -0.8125 -2.71875q-0.8125 -0.921875 -2.03125 -0.921875q-1.234375 0 -2.046875 0.921875q-0.796875 0.90625 -0.796875 2.765625zm9.250702 4.84375l0 -13.359375l1.640625 0l0 13.359375l-1.640625 0zm4.1917114 -11.46875l0 -1.890625l1.640625 0l0 1.890625l-1.640625 0zm0 11.46875l0 -9.671875l1.640625 0l0 9.671875l-1.640625 0zm3.535431 -4.84375q0 -2.6875 1.484375 -3.96875q1.25 -1.078125 3.046875 -1.078125q2.0 0 3.265625 1.3125q1.265625 1.296875 1.265625 3.609375q0 1.859375 -0.5625 2.9375q-0.5625 1.0625 -1.640625 1.65625q-1.0625 0.59375 -2.328125 0.59375q-2.03125 0 -3.28125 -1.296875q-1.25 -1.3125 -1.25 -3.765625zm1.6875 0q0 1.859375 0.796875 2.796875q0.8125 0.921875 2.046875 0.921875q1.21875 0 2.03125 -0.921875q0.8125 -0.9375 0.8125 -2.84375q0 -1.796875 -0.8125 -2.71875q-0.8125 -0.921875 -2.03125 -0.921875q-1.234375 0 -2.046875 0.921875q-0.796875 0.90625 -0.796875 2.765625zm9.297607 4.84375l0 -9.671875l1.46875 0l0 1.375q1.0625 -1.59375 3.078125 -1.59375q0.875 0 1.609375 0.3125q0.734375 0.3125 1.09375 0.828125q0.375 0.5 0.515625 1.203125q0.09375 0.453125 0.09375 1.59375l0 5.953125l-1.640625 0l0 -5.890625q0 -1.0 -0.203125 -1.484375q-0.1875 -0.5 -0.671875 -0.796875q-0.484375 -0.296875 -1.140625 -0.296875q-1.046875 0 -1.8125 0.671875q-0.75 0.65625 -0.75 2.515625l0 5.28125l-1.640625 0zm10.797577 0l0 -1.875l1.875 0l0 1.875q0 1.03125 -0.375 1.65625q-0.359375 0.640625 -1.15625 0.984375l-0.453125 -0.703125q0.515625 -0.21875 0.765625 -0.671875q0.25 -0.4375 0.28125 -1.265625l-0.9375 0zm9.929108 -11.453125l0 -1.90625l1.640625 0l0 1.90625l-1.640625 0zm-2.078125 15.203125l0.3125 -1.390625q0.5 0.125 0.78125 0.125q0.5 0 0.734375 -0.328125q0.25 -0.328125 0.25 -1.671875l0 -10.15625l1.640625 0l0 10.203125q0 1.78125 -0.46875 2.484375q-0.59375 0.90625 -1.96875 0.90625q-0.65625 0 -1.28125 -0.171875zm12.566711 -3.75l0 -1.421875q-1.125 1.640625 -3.0625 1.640625q-0.859375 0 -1.609375 -0.328125q-0.734375 -0.328125 -1.09375 -0.828125q-0.359375 -0.5 -0.5 -1.21875q-0.109375 -0.46875 -0.109375 -1.53125l0 -5.984375l1.640625 0l0 5.359375q0 1.28125 0.109375 1.734375q0.15625 0.640625 0.65625 1.015625q0.5 0.375 1.234375 0.375q0.734375 0 1.375 -0.375q0.65625 -0.390625 0.921875 -1.03125q0.265625 -0.65625 0.265625 -1.890625l0 -5.1875l1.640625 0l0 9.671875l-1.46875 0zm3.391327 -2.890625l1.625 -0.25q0.125 0.96875 0.75 1.5q0.625 0.515625 1.75 0.515625q1.125 0 1.671875 -0.453125q0.546875 -0.46875 0.546875 -1.09375q0 -0.546875 -0.484375 -0.875q-0.328125 -0.21875 -1.671875 -0.546875q-1.8125 -0.46875 -2.515625 -0.796875q-0.6875 -0.328125 -1.046875 -0.90625q-0.359375 -0.59375 -0.359375 -1.3125q0 -0.640625 0.296875 -1.1875q0.296875 -0.5625 0.8125 -0.921875q0.375 -0.28125 1.03125 -0.46875q0.671875 -0.203125 1.421875 -0.203125q1.140625 0 2.0 0.328125q0.859375 0.328125 1.265625 0.890625q0.421875 0.5625 0.578125 1.5l-1.609375 0.21875q-0.109375 -0.75 -0.640625 -1.171875q-0.515625 -0.421875 -1.46875 -0.421875q-1.140625 0 -1.625 0.375q-0.46875 0.375 -0.46875 0.875q0 0.3125 0.1875 0.578125q0.203125 0.265625 0.640625 0.4375q0.234375 0.09375 1.4375 0.421875q1.75 0.453125 2.4375 0.75q0.6875 0.296875 1.078125 0.859375q0.390625 0.5625 0.390625 1.40625q0 0.828125 -0.484375 1.546875q-0.46875 0.71875 -1.375 1.125q-0.90625 0.390625 -2.046875 0.390625q-1.875 0 -2.875 -0.78125q-0.984375 -0.78125 -1.25 -2.328125zm13.5625 1.421875l0.234375 1.453125q-0.6875 0.140625 -1.234375 0.140625q-0.890625 0 -1.390625 -0.28125q-0.484375 -0.28125 -0.6875 -0.734375q-0.203125 -0.46875 -0.203125 -1.9375l0 -5.578125l-1.203125 0l0 -1.265625l1.203125 0l0 -2.390625l1.625 -0.984375l0 3.375l1.65625 0l0 1.265625l-1.65625 0l0 5.671875q0 0.6875 0.078125 0.890625q0.09375 0.203125 0.28125 0.328125q0.203125 0.109375 0.578125 0.109375q0.265625 0 0.71875 -0.0625zm13.413483 -1.640625l1.6875 0.203125q-0.40625 1.484375 -1.484375 2.3125q-1.078125 0.8125 -2.765625 0.8125q-2.125 0 -3.375 -1.296875q-1.234375 -1.3125 -1.234375 -3.671875q0 -2.453125 1.25 -3.796875q1.265625 -1.34375 3.265625 -1.34375q1.9375 0 3.15625 1.328125q1.234375 1.3125 1.234375 3.703125q0 0.15625 0 0.4375l-7.21875 0q0.09375 1.59375 0.90625 2.453125q0.8125 0.84375 2.015625 0.84375q0.90625 0 1.546875 -0.46875q0.640625 -0.484375 1.015625 -1.515625zm-5.390625 -2.65625l5.40625 0q-0.109375 -1.21875 -0.625 -1.828125q-0.78125 -0.953125 -2.03125 -0.953125q-1.125 0 -1.90625 0.765625q-0.765625 0.75 -0.84375 2.015625zm9.141357 5.765625l0 -9.671875l1.46875 0l0 1.359375q0.453125 -0.71875 1.203125 -1.140625q0.765625 -0.4375 1.71875 -0.4375q1.078125 0 1.765625 0.453125q0.6875 0.4375 0.96875 1.234375q1.15625 -1.6875 2.984375 -1.6875q1.453125 0 2.21875 0.796875q0.78125 0.796875 0.78125 2.453125l0 6.640625l-1.640625 0l0 -6.09375q0 -0.984375 -0.15625 -1.40625q-0.15625 -0.4375 -0.578125 -0.703125q-0.421875 -0.265625 -0.984375 -0.265625q-1.015625 0 -1.6875 0.6875q-0.671875 0.671875 -0.671875 2.15625l0 5.625l-1.640625 0l0 -6.28125q0 -1.09375 -0.40625 -1.640625q-0.40625 -0.546875 -1.3125 -0.546875q-0.6875 0 -1.28125 0.359375q-0.59375 0.359375 -0.859375 1.0625q-0.25 0.703125 -0.25 2.03125l0 5.015625l-1.640625 0zm15.5407715 3.703125l0 -13.375l1.484375 0l0 1.25q0.53125 -0.734375 1.1875 -1.09375q0.671875 -0.375 1.625 -0.375q1.234375 0 2.171875 0.640625q0.953125 0.625 1.4375 1.796875q0.484375 1.15625 0.484375 2.546875q0 1.484375 -0.53125 2.671875q-0.53125 1.1875 -1.546875 1.828125q-1.015625 0.625 -2.140625 0.625q-0.8125 0 -1.46875 -0.34375q-0.65625 -0.34375 -1.0625 -0.875l0 4.703125l-1.640625 0zm1.484375 -8.484375q0 1.859375 0.75 2.765625q0.765625 0.890625 1.828125 0.890625q1.09375 0 1.875 -0.921875q0.78125 -0.9375 0.78125 -2.875q0 -1.84375 -0.765625 -2.765625q-0.75 -0.921875 -1.8125 -0.921875q-1.046875 0 -1.859375 0.984375q-0.796875 0.96875 -0.796875 2.84375zm12.469482 3.3125l0.234375 1.453125q-0.6875 0.140625 -1.234375 0.140625q-0.890625 0 -1.390625 -0.28125q-0.484375 -0.28125 -0.6875 -0.734375q-0.203125 -0.46875 -0.203125 -1.9375l0 -5.578125l-1.203125 0l0 -1.265625l1.203125 0l0 -2.390625l1.625 -0.984375l0 3.375l1.65625 0l0 1.265625l-1.65625 0l0 5.671875q0 0.6875 0.078125 0.890625q0.09375 0.203125 0.28125 0.328125q0.203125 0.109375 0.578125 0.109375q0.265625 0 0.71875 -0.0625zm1.5270386 5.1875l-0.1875 -1.53125q0.546875 0.140625 0.9375 0.140625q0.546875 0 0.875 -0.1875q0.328125 -0.171875 0.546875 -0.5q0.15625 -0.25 0.5 -1.21875q0.046875 -0.140625 0.140625 -0.40625l-3.671875 -9.6875l1.765625 0l2.015625 5.59375q0.390625 1.078125 0.703125 2.25q0.28125 -1.125 0.671875 -2.203125l2.078125 -5.640625l1.640625 0l-3.6875 9.828125q-0.59375 1.609375 -0.921875 2.203125q-0.4375 0.8125 -1.0 1.1875q-0.5625 0.375 -1.34375 0.375q-0.484375 0 -1.0625 -0.203125zm13.933289 -6.609375l1.625 -0.25q0.125 0.96875 0.75 1.5q0.625 0.515625 1.75 0.515625q1.125 0 1.671875 -0.453125q0.546875 -0.46875 0.546875 -1.09375q0 -0.546875 -0.484375 -0.875q-0.328125 -0.21875 -1.671875 -0.546875q-1.8125 -0.46875 -2.515625 -0.796875q-0.6875 -0.328125 -1.046875 -0.90625q-0.359375 -0.59375 -0.359375 -1.3125q0 -0.640625 0.296875 -1.1875q0.296875 -0.5625 0.8125 -0.921875q0.375 -0.28125 1.03125 -0.46875q0.671875 -0.203125 1.421875 -0.203125q1.140625 0 2.0 0.328125q0.859375 0.328125 1.265625 0.890625q0.421875 0.5625 0.578125 1.5l-1.609375 0.21875q-0.109375 -0.75 -0.640625 -1.171875q-0.515625 -0.421875 -1.46875 -0.421875q-1.140625 0 -1.625 0.375q-0.46875 0.375 -0.46875 0.875q0 0.3125 0.1875 0.578125q0.203125 0.265625 0.640625 0.4375q0.234375 0.09375 1.4375 0.421875q1.75 0.453125 2.4375 0.75q0.6875 0.296875 1.078125 0.859375q0.390625 0.5625 0.390625 1.40625q0 0.828125 -0.484375 1.546875q-0.46875 0.71875 -1.375 1.125q-0.90625 0.390625 -2.046875 0.390625q-1.875 0 -2.875 -0.78125q-0.984375 -0.78125 -1.25 -2.328125zm9.984375 6.59375l0 -13.375l1.484375 0l0 1.25q0.53125 -0.734375 1.1875 -1.09375q0.671875 -0.375 1.625 -0.375q1.234375 0 2.171875 0.640625q0.953125 0.625 1.4375 1.796875q0.484375 1.15625 0.484375 2.546875q0 1.484375 -0.53125 2.671875q-0.53125 1.1875 -1.546875 1.828125q-1.015625 0.625 -2.140625 0.625q-0.8125 0 -1.46875 -0.34375q-0.65625 -0.34375 -1.0625 -0.875l0 4.703125l-1.640625 0zm1.484375 -8.484375q0 1.859375 0.75 2.765625q0.765625 0.890625 1.828125 0.890625q1.09375 0 1.875 -0.921875q0.78125 -0.9375 0.78125 -2.875q0 -1.84375 -0.765625 -2.765625q-0.75 -0.921875 -1.8125 -0.921875q-1.046875 0 -1.859375 0.984375q-0.796875 0.96875 -0.796875 2.84375zm15.203857 3.59375q-0.921875 0.765625 -1.765625 1.09375q-0.828125 0.3125 -1.796875 0.3125q-1.59375 0 -2.453125 -0.78125q-0.859375 -0.78125 -0.859375 -1.984375q0 -0.71875 0.328125 -1.296875q0.328125 -0.59375 0.84375 -0.9375q0.53125 -0.359375 1.1875 -0.546875q0.46875 -0.125 1.453125 -0.25q1.984375 -0.234375 2.921875 -0.5625q0.015625 -0.34375 0.015625 -0.421875q0 -1.0 -0.46875 -1.421875q-0.625 -0.546875 -1.875 -0.546875q-1.15625 0 -1.703125 0.40625q-0.546875 0.40625 -0.8125 1.421875l-1.609375 -0.21875q0.21875 -1.015625 0.71875 -1.640625q0.5 -0.640625 1.453125 -0.984375q0.953125 -0.34375 2.1875 -0.34375q1.25 0 2.015625 0.296875q0.78125 0.28125 1.140625 0.734375q0.375 0.4375 0.515625 1.109375q0.078125 0.421875 0.078125 1.515625l0 2.1875q0 2.28125 0.109375 2.890625q0.109375 0.59375 0.40625 1.15625l-1.703125 0q-0.265625 -0.515625 -0.328125 -1.1875zm-0.140625 -3.671875q-0.890625 0.375 -2.671875 0.625q-1.015625 0.140625 -1.4375 0.328125q-0.421875 0.1875 -0.65625 0.53125q-0.21875 0.34375 -0.21875 0.78125q0 0.65625 0.5 1.09375q0.5 0.4375 1.453125 0.4375q0.9375 0 1.671875 -0.40625q0.75 -0.421875 1.09375 -1.140625q0.265625 -0.5625 0.265625 -1.640625l0 -0.609375zm10.516357 1.3125l1.609375 0.21875q-0.265625 1.65625 -1.359375 2.609375q-1.078125 0.9375 -2.671875 0.9375q-1.984375 0 -3.1875 -1.296875q-1.203125 -1.296875 -1.203125 -3.71875q0 -1.578125 0.515625 -2.75q0.515625 -1.171875 1.578125 -1.75q1.0625 -0.59375 2.3125 -0.59375q1.578125 0 2.578125 0.796875q1.0 0.796875 1.28125 2.265625l-1.59375 0.234375q-0.234375 -0.96875 -0.8125 -1.453125q-0.578125 -0.5 -1.390625 -0.5q-1.234375 0 -2.015625 0.890625q-0.78125 0.890625 -0.78125 2.8125q0 1.953125 0.75 2.84375q0.75 0.875 1.953125 0.875q0.96875 0 1.609375 -0.59375q0.65625 -0.59375 0.828125 -1.828125zm9.640625 0.4375l1.6875 0.203125q-0.40625 1.484375 -1.484375 2.3125q-1.078125 0.8125 -2.765625 0.8125q-2.125 0 -3.375 -1.296875q-1.234375 -1.3125 -1.234375 -3.671875q0 -2.453125 1.25 -3.796875q1.265625 -1.34375 3.265625 -1.34375q1.9375 0 3.15625 1.328125q1.234375 1.3125 1.234375 3.703125q0 0.15625 0 0.4375l-7.21875 0q0.09375 1.59375 0.90625 2.453125q0.8125 0.84375 2.015625 0.84375q0.90625 0 1.546875 -0.46875q0.640625 -0.484375 1.015625 -1.515625zm-5.390625 -2.65625l5.40625 0q-0.109375 -1.21875 -0.625 -1.828125q-0.78125 -0.953125 -2.03125 -0.953125q-1.125 0 -1.90625 0.765625q-0.765625 0.75 -0.84375 2.015625zm15.824646 5.765625l-1.515625 0l0 -13.359375l1.640625 0l0 4.765625q1.046875 -1.296875 2.65625 -1.296875q0.890625 0 1.6875 0.359375q0.796875 0.359375 1.3125 1.015625q0.515625 0.640625 0.796875 1.5625q0.296875 0.921875 0.296875 1.96875q0 2.484375 -1.234375 3.84375q-1.21875 1.359375 -2.953125 1.359375q-1.703125 0 -2.6875 -1.4375l0 1.21875zm-0.015625 -4.90625q0 1.734375 0.484375 2.515625q0.765625 1.265625 2.09375 1.265625q1.078125 0 1.859375 -0.9375q0.78125 -0.9375 0.78125 -2.78125q0 -1.890625 -0.75 -2.796875q-0.75 -0.90625 -1.828125 -0.90625q-1.0625 0 -1.859375 0.9375q-0.78125 0.9375 -0.78125 2.703125zm15.516357 1.796875l1.6875 0.203125q-0.40625 1.484375 -1.484375 2.3125q-1.078125 0.8125 -2.765625 0.8125q-2.125 0 -3.375 -1.296875q-1.234375 -1.3125 -1.234375 -3.671875q0 -2.453125 1.25 -3.796875q1.265625 -1.34375 3.265625 -1.34375q1.9375 0 3.15625 1.328125q1.234375 1.3125 1.234375 3.703125q0 0.15625 0 0.4375l-7.21875 0q0.09375 1.59375 0.90625 2.453125q0.8125 0.84375 2.015625 0.84375q0.90625 0 1.546875 -0.46875q0.640625 -0.484375 1.015625 -1.515625zm-5.390625 -2.65625l5.40625 0q-0.109375 -1.21875 -0.625 -1.828125q-0.78125 -0.953125 -2.03125 -0.953125q-1.125 0 -1.90625 0.765625q-0.765625 0.75 -0.84375 2.015625zm12.719513 4.296875l0.234375 1.453125q-0.6875 0.140625 -1.234375 0.140625q-0.890625 0 -1.390625 -0.28125q-0.484375 -0.28125 -0.6875 -0.734375q-0.203125 -0.46875 -0.203125 -1.9375l0 -5.578125l-1.203125 0l0 -1.265625l1.203125 0l0 -2.390625l1.625 -0.984375l0 3.375l1.65625 0l0 1.265625l-1.65625 0l0 5.671875q0 0.6875 0.078125 0.890625q0.09375 0.203125 0.28125 0.328125q0.203125 0.109375 0.578125 0.109375q0.265625 0 0.71875 -0.0625zm3.3864136 1.46875l-2.96875 -9.671875l1.703125 0l1.53125 5.578125l0.578125 2.078125q0.046875 -0.15625 0.5 -2.0l1.546875 -5.65625l1.6875 0l1.4375 5.609375l0.484375 1.84375l0.5625 -1.859375l1.65625 -5.59375l1.59375 0l-3.03125 9.671875l-1.703125 0l-1.53125 -5.796875l-0.375 -1.640625l-1.953125 7.4375l-1.71875 0zm18.316711 -3.109375l1.6875 0.203125q-0.40625 1.484375 -1.484375 2.3125q-1.078125 0.8125 -2.765625 0.8125q-2.125 0 -3.375 -1.296875q-1.234375 -1.3125 -1.234375 -3.671875q0 -2.453125 1.25 -3.796875q1.265625 -1.34375 3.265625 -1.34375q1.9375 0 3.15625 1.328125q1.234375 1.3125 1.234375 3.703125q0 0.15625 0 0.4375l-7.21875 0q0.09375 1.59375 0.90625 2.453125q0.8125 0.84375 2.015625 0.84375q0.90625 0 1.546875 -0.46875q0.640625 -0.484375 1.015625 -1.515625zm-5.390625 -2.65625l5.40625 0q-0.109375 -1.21875 -0.625 -1.828125q-0.78125 -0.953125 -2.03125 -0.953125q-1.125 0 -1.90625 0.765625q-0.765625 0.75 -0.84375 2.015625zm15.766357 2.65625l1.6875 0.203125q-0.40625 1.484375 -1.484375 2.3125q-1.078125 0.8125 -2.765625 0.8125q-2.125 0 -3.375 -1.296875q-1.234375 -1.3125 -1.234375 -3.671875q0 -2.453125 1.25 -3.796875q1.265625 -1.34375 3.265625 -1.34375q1.9375 0 3.15625 1.328125q1.234375 1.3125 1.234375 3.703125q0 0.15625 0 0.4375l-7.21875 0q0.09375 1.59375 0.90625 2.453125q0.8125 0.84375 2.015625 0.84375q0.90625 0 1.546875 -0.46875q0.640625 -0.484375 1.015625 -1.515625zm-5.390625 -2.65625l5.40625 0q-0.109375 -1.21875 -0.625 -1.828125q-0.78125 -0.953125 -2.03125 -0.953125q-1.125 0 -1.90625 0.765625q-0.765625 0.75 -0.84375 2.015625zm9.141357 5.765625l0 -9.671875l1.46875 0l0 1.375q1.0625 -1.59375 3.078125 -1.59375q0.875 0 1.609375 0.3125q0.734375 0.3125 1.09375 0.828125q0.375 0.5 0.515625 1.203125q0.09375 0.453125 0.09375 1.59375l0 5.953125l-1.640625 0l0 -5.890625q0 -1.0 -0.203125 -1.484375q-0.1875 -0.5 -0.671875 -0.796875q-0.484375 -0.296875 -1.140625 -0.296875q-1.046875 0 -1.8125 0.671875q-0.75 0.65625 -0.75 2.515625l0 5.28125l-1.640625 0z" fill-rule="nonzero"/></g></svg>