<svg version="1.1" viewBox="0.0 0.0 607.0 201.6010498687664" fill="none" stroke="none" stroke-linecap="square" stroke-miterlimit="10" xmlns:xlink="http://www.w3.org/1999/xlink" xmlns="http://www.w3.org/2000/svg"><clipPath id="p.0"><path d="m0 0l607.0 0l0 201.60104l-607.0 0l0 -201.60104z" clip-rule="nonzero"/></clipPath><g clip-path="url(#p.0)"><path fill="#000000" fill-opacity="0.0" d="m0 0l607.0 0l0 201.60104l-607.0 0z" fill-rule="evenodd"/><path stroke="#ff0000" stroke-width="4.0" stroke-linecap="butt" d="m428.93176 76.33202l0 45.595795" fill-rule="nonzero"/><path stroke="#ff0000" stroke-width="4.0" stroke-linecap="butt" d="m531.5827 76.33202l0 45.595795" fill-rule="nonzero"/><path stroke="#ff0000" stroke-width="4.0" stroke-linecap="butt" d="m426.93176 78.33202l106.65094 0" fill-rule="nonzero"/><path stroke="#ff0000" stroke-width="4.0" stroke-linecap="butt" d="m426.93176 119.92782l106.65094 0" fill-rule="nonzero"/><path fill="#000000" d="m454.9307 102.14265l1.6875 0.203125q-0.40625 1.484375 -1.484375 2.3125q-1.078125 0.8125 -2.765625 0.8125q-2.125 0 -3.375 -1.296875q-1.234375 -1.3125 -1.234375 -3.671875q0 -2.453125 1.25 -3.796875q1.265625 -1.34375 3.265625 -1.34375q1.9375 0 3.15625 1.328125q1.234375 1.3125 1.234375 3.703125q0 0.15625 0 0.4375l-7.21875 0q0.09375 1.59375 0.90625 2.453125q0.8125 0.84375 2.015625 0.84375q0.90625 0 1.546875 -0.46875q0.640625 -0.484375 1.015625 -1.515625zm-5.390625 -2.65625l5.40625 0q-0.109375 -1.21875 -0.625 -1.828125q-0.78125 -0.953125 -2.03125 -0.953125q-1.125 0 -1.90625 0.765625q-0.765625 0.75 -0.84375 2.015625zm9.094452 5.765625l0 -13.359375l1.640625 0l0 13.359375l-1.640625 0zm10.816711 -3.109375l1.6875 0.203125q-0.40625 1.484375 -1.484375 2.3125q-1.078125 0.8125 -2.765625 0.8125q-2.125 0 -3.375 -1.296875q-1.234375 -1.3125 -1.234375 -3.671875q0 -2.453125 1.25 -3.796875q1.265625 -1.34375 3.265625 -1.34375q1.9375 0 3.15625 1.328125q1.234375 1.3125 1.234375 3.703125q0 0.15625 0 0.4375l-7.21875 0q0.09375 1.59375 0.90625 2.453125q0.8125 0.84375 2.015625 0.84375q0.90625 0 1.546875 -0.46875q0.640625 -0.484375 1.015625 -1.515625zm-5.390625 -2.65625l5.40625 0q-0.109375 -1.21875 -0.625 -1.828125q-0.78125 -0.953125 -2.03125 -0.953125q-1.125 0 -1.90625 0.765625q-0.765625 0.75 -0.84375 2.015625zm9.141327 5.765625l0 -9.671875l1.46875 0l0 1.359375q0.453125 -0.71875 1.203125 -1.140625q0.765625 -0.4375 1.71875 -0.4375q1.078125 0 1.765625 0.453125q0.6875 0.4375 0.96875 1.234375q1.15625 -1.6875 2.984375 -1.6875q1.453125 0 2.21875 0.796875q0.78125 0.796875 0.78125 2.453125l0 6.640625l-1.640625 0l0 -6.09375q0 -0.984375 -0.15625 -1.40625q-0.15625 -0.4375 -0.578125 -0.703125q-0.421875 -0.265625 -0.984375 -0.265625q-1.015625 0 -1.6875 0.6875q-0.671875 0.671875 -0.671875 2.15625l0 5.625l-1.640625 0l0 -6.28125q0 -1.09375 -0.40625 -1.640625q-0.40625 -0.546875 -1.3125 -0.546875q-0.6875 0 -1.28125 0.359375q-0.59375 0.359375 -0.859375 1.0625q-0.25 0.703125 -0.25 2.03125l0 5.015625l-1.640625 0zm22.165802 -3.109375l1.6875 0.203125q-0.40625 1.484375 -1.484375 2.3125q-1.078125 0.8125 -2.765625 0.8125q-2.125 0 -3.375 -1.296875q-1.234375 -1.3125 -1.234375 -3.671875q0 -2.453125 1.25 -3.796875q1.265625 -1.34375 3.265625 -1.34375q1.9375 0 3.15625 1.328125q1.234375 1.3125 1.234375 3.703125q0 0.15625 0 0.4375l-7.21875 0q0.09375 1.59375 0.90625 2.453125q0.8125 0.84375 2.015625 0.84375q0.90625 0 1.546875 -0.46875q0.640625 -0.484375 1.015625 -1.515625zm-5.390625 -2.65625l5.40625 0q-0.109375 -1.21875 -0.625 -1.828125q-0.78125 -0.953125 -2.03125 -0.953125q-1.125 0 -1.90625 0.765625q-0.765625 0.75 -0.84375 2.015625zm9.141357 5.765625l0 -9.671875l1.46875 0l0 1.375q1.0625 -1.59375 3.078125 -1.59375q0.875 0 1.609375 0.3125q0.734375 0.3125 1.09375 0.828125q0.375 0.5 0.515625 1.203125q0.09375 0.453125 0.09375 1.59375l0 5.953125l-1.640625 0l0 -5.890625q0 -1.0 -0.203125 -1.484375q-0.1875 -0.5 -0.671875 -0.796875q-0.484375 -0.296875 -1.140625 -0.296875q-1.046875 0 -1.8125 0.671875q-0.75 0.65625 -0.75 2.515625l0 5.28125l-1.640625 0zm13.953857 -1.46875l0.234375 1.453125q-0.6875 0.140625 -1.234375 0.140625q-0.8906555 0 -1.3906555 -0.28125q-0.484375 -0.28125 -0.6875 -0.734375q-0.203125 -0.46875 -0.203125 -1.9375l0 -5.578125l-1.203125 0l0 -1.265625l1.203125 0l0 -2.390625l1.625 -0.984375l0 3.375l1.6562805 0l0 1.265625l-1.6562805 0l0 5.671875q0 0.6875 0.078125 0.890625q0.09375 0.203125 0.28125 0.328125q0.203125 0.109375 0.5781555 0.109375q0.265625 0 0.71875 -0.0625z" fill-rule="nonzero"/><path fill="#000000" fill-opacity="0.0" d="m-6.0 -5.7375326l389.66928 0l0 87.27559l-389.66928 0z" fill-rule="evenodd"/><path fill="#000000" fill-opacity="0.0" d="m3.0 1.6334846l0 0l0 24.604752l0 0l0 -24.604752z" fill-rule="nonzero"/><path fill="#efefef" d="m3.0 25.662464l100.76015 0l0 22.399998l-100.76015 0l0 -22.399998z" fill-rule="nonzero"/><path fill="#000000" fill-opacity="0.0" d="m3.0 24.033482l100.76015 0l0 24.604752l-100.76015 0l0 -24.604752z" fill-rule="nonzero"/><path fill="#000000" d="m6.421875 38.269962l2.625 0q0.890625 -0.015625 1.6875 -0.28125q0.796875 -0.265625 1.390625 -0.765625q0.609375 -0.5 0.953125 -1.234375q0.359375 -0.734375 0.359375 -1.6875q0 -0.953125 -0.359375 -1.6875q-0.34375 -0.75 -0.953125 -1.25q-0.59375 -0.5 -1.390625 -0.765625q-0.796875 -0.265625 -1.6875 -0.28125l-4.3125 0l0 13.265625l1.6875 0l0 -5.3125zm0 -1.390625l0 -5.171875l2.625 0q0.578125 0 1.0625 0.1875q0.5 0.1875 0.875 0.515625q0.34375 0.34375 0.546875 0.828125q0.21875 0.484375 0.21875 1.078125q0 0.609375 -0.21875 1.078125q-0.203125 0.46875 -0.5625 0.796875q-0.359375 0.328125 -0.859375 0.5q-0.484375 0.171875 -1.0625 0.1875l-2.625 0zm13.742447 1.296875l2.609375 5.40625l1.78125 0l0 -0.109375l-2.8125 -5.671875q0.546875 -0.234375 1.0 -0.5625q0.46875 -0.34375 0.796875 -0.78125q0.328125 -0.4375 0.5 -0.96875q0.1875 -0.546875 0.1875 -1.1875q0 -1.0 -0.34375 -1.734375q-0.34375 -0.75 -0.953125 -1.25q-0.625 -0.484375 -1.453125 -0.734375q-0.8125 -0.25 -1.75 -0.265625l-3.875 0l0 13.265625l1.671875 0l0 -5.40625l2.640625 0zm-2.640625 -1.390625l0 -5.078125l2.203125 0q0.625 0 1.125 0.171875q0.515625 0.15625 0.890625 0.484375q0.375 0.328125 0.578125 0.8125q0.21875 0.46875 0.21875 1.109375q0 0.59375 -0.21875 1.0625q-0.21875 0.453125 -0.59375 0.78125q-0.375 0.3125 -0.875 0.484375q-0.5 0.15625 -1.078125 0.171875l-2.25 0zm18.086197 0.9375l0 -1.515625q-0.015625 -0.71875 -0.140625 -1.4375q-0.109375 -0.734375 -0.34375 -1.40625q-0.25 -0.671875 -0.625 -1.25q-0.359375 -0.59375 -0.859375 -1.03125q-0.515625 -0.4375 -1.1875 -0.6875q-0.65625 -0.265625 -1.484375 -0.265625q-0.8125 0 -1.484375 0.265625q-0.65625 0.25 -1.15625 0.6875q-0.515625 0.4375 -0.890625 1.03125q-0.359375 0.578125 -0.59375 1.25q-0.25 0.6875 -0.375 1.40625q-0.109375 0.71875 -0.109375 1.4375l0 1.515625q0 0.703125 0.125 1.421875q0.125 0.71875 0.359375 1.390625q0.234375 0.671875 0.609375 1.265625q0.375 0.59375 0.890625 1.03125q0.515625 0.4375 1.171875 0.6875q0.65625 0.25 1.484375 0.25q0.8125 0 1.46875 -0.25q0.671875 -0.25 1.171875 -0.6875q0.515625 -0.4375 0.875 -1.015625q0.375 -0.59375 0.609375 -1.265625q0.234375 -0.671875 0.34375 -1.390625q0.125 -0.734375 0.140625 -1.4375zm-1.671875 -1.53125l0 1.53125q-0.015625 0.46875 -0.0625 0.984375q-0.046875 0.515625 -0.171875 1.015625q-0.140625 0.515625 -0.359375 0.984375q-0.203125 0.453125 -0.53125 0.796875q-0.328125 0.359375 -0.78125 0.578125q-0.453125 0.203125 -1.03125 0.203125q-0.59375 0 -1.046875 -0.203125q-0.4375 -0.21875 -0.765625 -0.578125q-0.328125 -0.34375 -0.546875 -0.8125q-0.21875 -0.46875 -0.359375 -0.96875q-0.140625 -0.5 -0.203125 -1.015625q-0.0625 -0.53125 -0.0625 -0.984375l0 -1.53125q0 -0.46875 0.0625 -0.984375q0.0625 -0.515625 0.203125 -1.03125q0.125 -0.5 0.34375 -0.953125q0.21875 -0.46875 0.546875 -0.8125q0.328125 -0.359375 0.765625 -0.5625q0.453125 -0.203125 1.03125 -0.203125q0.59375 0 1.03125 0.203125q0.453125 0.203125 0.78125 0.546875q0.328125 0.359375 0.546875 0.828125q0.21875 0.453125 0.359375 0.953125q0.125 0.5 0.171875 1.015625q0.0625 0.515625 0.078125 1.0zm6.070572 2.078125l2.625 0q0.890625 -0.015625 1.6875 -0.28125q0.796875 -0.265625 1.390625 -0.765625q0.609375 -0.5 0.953125 -1.234375q0.359375 -0.734375 0.359375 -1.6875q0 -0.953125 -0.359375 -1.6875q-0.34375 -0.75 -0.953125 -1.25q-0.59375 -0.5 -1.390625 -0.765625q-0.796875 -0.265625 -1.6875 -0.28125l-4.3125 0l0 13.265625l1.6875 0l0 -5.3125zm0 -1.390625l0 -5.171875l2.625 0q0.578125 0 1.0625 0.1875q0.5 0.1875 0.875 0.515625q0.34375 0.34375 0.546875 0.828125q0.21875 0.484375 0.21875 1.078125q0 0.609375 -0.21875 1.078125q-0.203125 0.46875 -0.5625 0.796875q-0.359375 0.328125 -0.859375 0.5q-0.484375 0.171875 -1.0625 0.1875l-2.625 0zm16.648697 0.578125l0 -1.4375l-5.53125 0l0 -4.265625l6.375 0l0 -1.4375l-8.0625 0l0 13.265625l8.140625 0l0 -1.4375l-6.453125 0l0 -4.6875l5.53125 0zm8.289322 0.71875l2.609375 5.40625l1.78125 0l0 -0.109375l-2.8125 -5.671875q0.546875 -0.234375 1.0 -0.5625q0.46875 -0.34375 0.796875 -0.78125q0.328125 -0.4375 0.5 -0.96875q0.1875 -0.546875 0.1875 -1.1875q0 -1.0 -0.34375 -1.734375q-0.34375 -0.75 -0.953125 -1.25q-0.625 -0.484375 -1.453125 -0.734375q-0.8125 -0.25 -1.75 -0.265625l-3.875 0l0 13.265625l1.671875 0l0 -5.40625l2.640625 0zm-2.640625 -1.390625l0 -5.078125l2.203125 0q0.625 0 1.125 0.171875q0.515625 0.15625 0.890625 0.484375q0.375 0.328125 0.578125 0.8125q0.21875 0.46875 0.21875 1.109375q0 0.59375 -0.21875 1.0625q-0.21875 0.453125 -0.59375 0.78125q-0.375 0.3125 -0.875 0.484375q-0.5 0.15625 -1.078125 0.171875l-2.25 0zm18.398697 -5.03125l0 -1.4375l-9.84375 0l0 1.4375l4.109375 0l0 11.828125l1.640625 0l0 -11.828125l4.09375 0zm6.164322 5.21875l-3.015625 -6.65625l-1.921875 0l4.125 8.3125l0.015625 4.953125l1.578125 0l0.015625 -4.953125l4.140625 -8.3125l-1.921875 0l-3.015625 6.65625zm10.664322 5.515625q0 0.53125 0.328125 0.90625q0.34375 0.359375 1.0 0.359375q0.640625 0 0.984375 -0.359375q0.34375 -0.375 0.34375 -0.90625q0 -0.546875 -0.34375 -0.921875q-0.328125 -0.375 -0.984375 -0.375q-0.671875 0 -1.0 0.390625q-0.328125 0.375 -0.328125 0.90625zm0 -7.984375q0 0.53125 0.328125 0.90625q0.34375 0.359375 1.0 0.359375q0.640625 0 0.984375 -0.359375q0.34375 -0.375 0.34375 -0.90625q0 -0.546875 -0.34375 -0.921875q-0.328125 -0.375 -0.984375 -0.375q-0.671875 0 -1.0 0.390625q-0.328125 0.375 -0.328125 0.90625z" fill-rule="nonzero"/><path fill="#000000" fill-opacity="0.0" d="m103.76015 24.033482l0 0l0 24.604752l0 0l0 -24.604752z" fill-rule="nonzero"/><path fill="#ff9900" d="m3.0 48.06246l67.17343 0l0 22.400002l-67.17343 0l0 -22.400002z" fill-rule="nonzero"/><path fill="#efefef" d="m70.17343 48.06246l11.195572 0l0 22.400002l-11.195572 0l0 -22.400002z" fill-rule="nonzero"/><path fill="#00ff00" d="m81.369 48.06246l70.16968 0l0 22.400002l-70.16968 0l0 -22.400002z" fill-rule="nonzero"/><path fill="#efefef" d="m151.53868 48.06246l182.63478 0l0 22.400002l-182.63478 0l0 -22.400002z" fill-rule="nonzero"/><path fill="#000000" fill-opacity="0.0" d="m3.0 46.43348l67.17343 0l0 24.604752l-67.17343 0l0 -24.604752z" fill-rule="nonzero"/><path fill="#000000" d="m7.84375 65.98246l1.453125 0l4.1875 -13.265625l-1.796875 0l-2.9375 9.890625l-0.1875 0.65625l-0.203125 -0.640625l-2.90625 -9.90625l-1.8125 0l4.203125 13.265625zm14.273697 -3.4375l1.046875 3.4375l1.671875 0l-4.203125 -13.265625l-1.421875 0l-4.28125 13.265625l1.6875 0l1.0625 -3.4375l4.4375 0zm-3.984375 -1.46875l1.78125 -5.75l1.75 5.75l-3.53125 0zm10.742447 3.46875l0 -11.828125l-1.6875 0l0 13.265625l8.171875 0l0 -1.4375l-6.484375 0zm17.617447 -11.828125l-1.625 0l-0.03125 8.984375q-0.015625 0.59375 -0.1875 1.140625q-0.171875 0.546875 -0.5 0.96875q-0.34375 0.421875 -0.84375 0.671875q-0.484375 0.25 -1.125 0.25q-0.640625 0 -1.140625 -0.25q-0.5 -0.265625 -0.828125 -0.671875q-0.34375 -0.421875 -0.515625 -0.96875q-0.171875 -0.546875 -0.1875 -1.140625l-0.03125 -8.984375l-1.609375 0l-0.015625 8.984375q0.015625 0.921875 0.328125 1.75q0.3125 0.8125 0.890625 1.40625q0.5625 0.609375 1.34375 0.96875q0.796875 0.34375 1.765625 0.34375q0.953125 0 1.734375 -0.34375q0.796875 -0.359375 1.375 -0.96875q0.578125 -0.609375 0.890625 -1.421875q0.328125 -0.8125 0.328125 -1.734375l-0.015625 -8.984375zm10.164322 7.140625l0 -1.4375l-5.53125 0l0 -4.265625l6.375 0l0 -1.4375l-8.0625 0l0 13.265625l8.140625 0l0 -1.4375l-6.453125 0l0 -4.6875l5.53125 0zm9.367447 6.125l0 -13.265625l-0.125 0l-5.03125 1.9375l0 1.53125l3.46875 -1.3125l0 11.109375l1.6875 0z" fill-rule="nonzero"/><path fill="#010000" fill-opacity="0.0" d="m70.17343 46.43348l11.195572 0l0 24.604752l-11.195572 0l0 -24.604752z" fill-rule="nonzero"/><path fill="#000000" fill-opacity="0.0" d="m81.369 49.093452l70.16968 0l0 21.452866l-70.16968 0l0 -21.452866z" fill-rule="nonzero"/><path fill="#000000" d="m86.619 65.98246l-5.171875 -13.359375l1.921875 0l3.46875 9.703125q0.421875 1.171875 0.703125 2.1875q0.3125 -1.09375 0.71875 -2.1875l3.609375 -9.703125l1.796875 0l-5.234375 13.359375l-1.8125 0zm5.7769012 0l5.125 -13.359375l1.90625 0l5.46875 13.359375l-2.015625 0l-1.546875 -4.046875l-5.59375 0l-1.46875 4.046875l-1.875 0zm3.859375 -5.484375l4.53125 0l-1.40625 -3.703125q-0.625 -1.6875 -0.9375 -2.765625q-0.265625 1.28125 -0.71875 2.546875l-1.46875 3.921875zm9.974823 5.484375l0 -13.359375l1.78125 0l0 11.78125l6.5625 0l0 1.578125l-8.34375 0zm19.219467 -13.359375l1.765625 0l0 7.71875q0 2.015625 -0.453125 3.203125q-0.453125 1.1875 -1.640625 1.9375q-1.1875 0.734375 -3.125 0.734375q-1.875 0 -3.078125 -0.640625q-1.1875 -0.65625 -1.703125 -1.875q-0.5 -1.234375 -0.5 -3.359375l0 -7.71875l1.765625 0l0 7.71875q0 1.734375 0.3125 2.5625q0.328125 0.8125 1.109375 1.265625q0.796875 0.453125 1.9375 0.453125q1.953125 0 2.78125 -0.890625q0.828125 -0.890625 0.828125 -3.390625l0 -7.71875zm4.738571 13.359375l0 -13.359375l9.65625 0l0 1.578125l-7.875 0l0 4.09375l7.375 0l0 1.5625l-7.375 0l0 4.546875l8.1875 0l0 1.578125l-9.96875 0zm20.365448 -1.578125l0 1.578125l-8.828125 0q-0.015625 -0.59375 0.1875 -1.140625q0.34375 -0.90625 1.078125 -1.78125q0.75 -0.875 2.15625 -2.015625q2.171875 -1.78125 2.9375 -2.828125q0.765625 -1.046875 0.765625 -1.96875q0 -0.984375 -0.703125 -1.640625q-0.6875 -0.671875 -1.8125 -0.671875q-1.1875 0 -1.90625 0.71875q-0.703125 0.703125 -0.703125 1.953125l-1.6875 -0.171875q0.171875 -1.890625 1.296875 -2.875q1.140625 -0.984375 3.03125 -0.984375q1.921875 0 3.046875 1.0625q1.125 1.0625 1.125 2.640625q0 0.796875 -0.328125 1.578125q-0.328125 0.78125 -1.09375 1.640625q-0.75 0.84375 -2.53125 2.34375q-1.46875 1.234375 -1.890625 1.6875q-0.421875 0.4375 -0.6875 0.875l6.546875 0z" fill-rule="nonzero"/><path fill="#010000" fill-opacity="0.0" d="m151.53868 49.093452l5.183304 0l0 21.452866l-5.183304 0l0 -21.452866z" fill-rule="nonzero"/><path fill="#000000" fill-opacity="0.0" d="m156.72198 49.093452l155.88928 0l0 21.452866l-155.88928 0l0 -21.452866z" fill-rule="nonzero"/><path fill="#efefef" d="m167.15529 65.98246l-5.171875 -13.359375l1.921875 0l3.46875 9.703125q0.421875 1.171875 0.703125 2.1875q0.3125 -1.09375 0.71875 -2.1875l3.609375 -9.703125l1.796875 0l-5.234375 13.359375l-1.8125 0zm5.7769012 0l5.125 -13.359375l1.90625 0l5.46875 13.359375l-2.015625 0l-1.546875 -4.046875l-5.59375 0l-1.46875 4.046875l-1.875 0zm3.859375 -5.484375l4.53125 0l-1.40625 -3.703125q-0.625 -1.6875 -0.9375 -2.765625q-0.265625 1.28125 -0.71875 2.546875l-1.46875 3.921875zm9.974823 5.484375l0 -13.359375l1.78125 0l0 11.78125l6.5625 0l0 1.578125l-8.34375 0zm19.219467 -13.359375l1.765625 0l0 7.71875q0 2.015625 -0.453125 3.203125q-0.453125 1.1875 -1.640625 1.9375q-1.1875 0.734375 -3.125 0.734375q-1.875 0 -3.078125 -0.640625q-1.1875 -0.65625 -1.703125 -1.875q-0.5 -1.234375 -0.5 -3.359375l0 -7.71875l1.765625 0l0 7.71875q0 1.734375 0.3125 2.5625q0.328125 0.8125 1.109375 1.265625q0.796875 0.453125 1.9375 0.453125q1.953125 0 2.78125 -0.890625q0.828125 -0.890625 0.828125 -3.390625l0 -7.71875zm4.738571 13.359375l0 -13.359375l9.65625 0l0 1.578125l-7.875 0l0 4.09375l7.375 0l0 1.5625l-7.375 0l0 4.546875l8.1875 0l0 1.578125l-9.96875 0zm11.756073 -3.53125l1.640625 -0.21875q0.28125 1.40625 0.953125 2.015625q0.6875 0.609375 1.65625 0.609375q1.15625 0 1.953125 -0.796875q0.796875 -0.796875 0.796875 -1.984375q0 -1.125 -0.734375 -1.859375q-0.734375 -0.734375 -1.875 -0.734375q-0.46875 0 -1.15625 0.171875l0.1875 -1.4375q0.15625 0.015625 0.265625 0.015625q1.046875 0 1.875 -0.546875q0.84375 -0.546875 0.84375 -1.671875q0 -0.90625 -0.609375 -1.5q-0.609375 -0.59375 -1.578125 -0.59375q-0.953125 0 -1.59375 0.609375q-0.640625 0.59375 -0.8125 1.796875l-1.640625 -0.296875q0.296875 -1.640625 1.359375 -2.546875q1.0625 -0.90625 2.65625 -0.90625q1.09375 0 2.0 0.46875q0.921875 0.46875 1.40625 1.28125q0.5 0.8125 0.5 1.71875q0 0.859375 -0.46875 1.578125q-0.46875 0.703125 -1.375 1.125q1.1875 0.28125 1.84375 1.140625q0.65625 0.859375 0.65625 2.15625q0 1.734375 -1.28125 2.953125q-1.265625 1.21875 -3.21875 1.21875q-1.765625 0 -2.921875 -1.046875q-1.15625 -1.046875 -1.328125 -2.71875zm25.211075 3.53125l-5.171875 -13.359375l1.921875 0l3.46875 9.703125q0.421875 1.171875 0.703125 2.1875q0.3125 -1.09375 0.71875 -2.1875l3.6093903 -9.703125l1.796875 0l-5.2343903 13.359375l-1.8125 0zm5.7769012 0l5.125 -13.359375l1.90625 0l5.46875 13.359375l-2.015625 0l-1.546875 -4.046875l-5.59375 0l-1.46875 4.046875l-1.875 0zm3.859375 -5.484375l4.53125 0l-1.40625 -3.703125q-0.625 -1.6875 -0.9375 -2.765625q-0.265625 1.28125 -0.71875 2.546875l-1.46875 3.921875zm9.974823 5.484375l0 -13.359375l1.78125 0l0 11.78125l6.5625 0l0 1.578125l-8.34375 0zm19.219482 -13.359375l1.765625 0l0 7.71875q0 2.015625 -0.453125 3.203125q-0.453125 1.1875 -1.640625 1.9375q-1.1875 0.734375 -3.125 0.734375q-1.875 0 -3.078125 -0.640625q-1.1875 -0.65625 -1.703125 -1.875q-0.5 -1.234375 -0.5 -3.359375l0 -7.71875l1.765625 0l0 7.71875q0 1.734375 0.3125 2.5625q0.328125 0.8125 1.109375 1.265625q0.796875 0.453125 1.9375 0.453125q1.953125 0 2.78125 -0.890625q0.828125 -0.890625 0.828125 -3.390625l0 -7.71875zm4.738556 13.359375l0 -13.359375l9.65625 0l0 1.578125l-7.875 0l0 4.09375l7.375 0l0 1.5625l-7.375 0l0 4.546875l8.1875 0l0 1.578125l-9.96875 0zm17.006073 0l0 -3.203125l-5.796875 0l0 -1.5l6.09375 -8.65625l1.34375 0l0 8.65625l1.796875 0l0 1.5l-1.796875 0l0 3.203125l-1.640625 0zm0 -4.703125l0 -6.015625l-4.1875 6.015625l4.1875 0z" fill-rule="nonzero"/><path fill="#010000" fill-opacity="0.0" d="m312.61127 49.093452l10.366608 0l0 21.452866l-10.366608 0l0 -21.452866z" fill-rule="nonzero"/><path fill="#000000" fill-opacity="0.0" d="m322.97787 46.43348l11.195587 0l0 24.604752l-11.195587 0l0 -24.604752z" fill-rule="nonzero"/><path fill="#000000" d="m327.8685 56.904335q0 0.53125 0.328125 0.90625q0.34375 0.359375 1.0 0.359375q0.640625 0 0.984375 -0.359375q0.34375 -0.375 0.34375 -0.90625q0 -0.546875 -0.34375 -0.921875q-0.328125 -0.375 -0.984375 -0.375q-0.671875 0 -1.0 0.390625q-0.328125 0.375 -0.328125 0.90625zm2.171875 8.6875l0 -1.609375l-1.828125 0l0 1.640625q0 0.765625 -0.1875 1.484375q-0.1875 0.71875 -0.625 1.359375l1.046875 0.578125q0.734375 -0.65625 1.15625 -1.609375q0.4375 -0.9375 0.4375 -1.84375z" fill-rule="nonzero"/><path fill="#000000" fill-opacity="0.0" d="m334.17346 46.43348l0 0l0 24.604752l0 0l0 -24.604752z" fill-rule="nonzero"/><path fill="#ff9900" d="m371.14417 5.1878295l47.165344 47.165356l7.4252014 -7.4251976l0 29.70079l-29.700775 0l7.4252014 -7.4252014l-47.165375 -47.16535z" fill-rule="evenodd"/><path fill="#000000" d="m369.44153 26.62287l0.8838806 0.88388443l10.584503 -5.5021763l-1.093811 -1.0938053l-7.7671204 4.2094955l-0.5303345 0.28726196l0.28726196 -0.5082321l4.231598 -7.767126l-1.093811 -1.0938072l-5.5021667 10.584505zm10.74472 6.5683575l-1.458435 2.717945l1.0164795 1.0164642l5.4911194 -10.595552l-0.8507385 -0.8507385l-10.63974 5.446932l1.0164795 1.0164661l2.7400208 -1.4363098l2.6848145 2.6847935zm-1.5247192 -3.2924652l4.5630493 -2.41963l-2.430664 4.552l-2.1323853 -2.13237zm4.41391 8.612339l7.1705017 -7.1705036l-1.0275269 -1.0275135l-8.043335 8.043339l4.960785 4.9607964l0.87283325 -0.87283325l-3.933258 -3.9332848zm17.848907 3.5079155l-0.9833069 -0.98332214l-5.4690247 5.424835q-0.36462402 0.3425064 -0.8065491 0.56347656q-0.4309082 0.23201752 -0.8838806 0.28726196q-0.4640503 0.06629181 -0.9170532 -0.07733917q-0.44192505 -0.15468216 -0.83969116 -0.5524292q-0.38668823 -0.38669968 -0.5413513 -0.8507385q-0.14364624 -0.45298767 -0.088409424 -0.90597916q0.055236816 -0.4529915 0.2762146 -0.8949318q0.22097778 -0.4419403 0.5745239 -0.7954941l5.424835 -5.4690285l-0.9722595 -0.9722748l-5.4579773 5.4358864q-0.56347656 0.56347275 -0.87283325 1.2484818q-0.28726196 0.6850128 -0.3093567 1.3921165q-0.033172607 0.7181587 0.23199463 1.4031677q0.2762146 0.69605637 0.8617859 1.2816315q0.5745239 0.5745239 1.259552 0.83968735q0.7070923 0.26516724 1.4252625 0.25411606q0.7070923 -0.022094727 1.3921204 -0.3093567q0.6960449 -0.29831314 1.2595215 -0.8617897l5.4358826 -5.4579773zm1.850647 10.490589l0.8617859 -0.8617859l-3.3587646 -3.358757l2.5853577 -2.5853577l3.8669739 3.8669891l0.87283325 -0.87283325l-4.8945007 -4.8945045l-8.043335 8.043339l4.93869 4.938698l0.87286377 -0.87283325l-3.9111938 -3.9111862l2.850525 -2.850525l3.3587646 3.358757zm1.9500427 9.39679l8.0433655 -8.043343l-0.07736206 -0.07733917l-4.22052 -1.8782501l-0.9281006 0.9280777l2.9057617 1.3147736l-6.7395935 6.7396126l1.016449 1.016468z" fill-rule="nonzero"/><path fill="#00ff00" d="m534.7683 74.63053l0 -28.692913l7.173218 7.173229l47.66931 -47.66929l14.346436 14.346457l-47.66931 47.669292l7.173279 7.1732254z" fill-rule="evenodd"/><path fill="#000000" d="m556.0774 61.60877l0.8838501 -0.88388443l-5.5021973 -10.584503l-1.09375 1.0938034l4.2094727 7.767128l0.28723145 0.53033066l-0.50823975 -0.28726578l-7.76709 -4.2315903l-1.093811 1.0938072l10.584534 5.5021744zm6.5683594 -10.744709l2.7178955 1.4584084l1.0164795 -1.016468l-10.595581 -5.491127l-0.850708 0.8507385l5.4469604 10.639748l1.0164185 -1.0164642l-1.4362793 -2.7400398l2.6848145 -2.6847954zm-3.2924805 1.5247002l-2.4196167 -4.5630493l4.551941 2.4306793l-2.1323242 2.13237zm8.612305 -4.4138947l-7.170471 -7.1705055l-1.0275269 1.0275154l8.043335 8.043339l4.9608154 -4.9607964l-0.87286377 -0.87283325l-3.9332886 3.933281zm3.5079346 -17.848923l-0.9833374 0.98332024l5.4248657 5.4690304q0.34246826 0.36460114 0.56347656 0.80654144q0.23199463 0.43089294 0.28723145 0.88388443q0.06628418 0.46403885 -0.07733154 0.91703033q-0.15466309 0.4419403 -0.5524292 0.83968735q-0.38671875 0.38669968 -0.850708 0.541378q-0.45300293 0.1436348 -0.90600586 0.08839035q-0.45300293 -0.055244446 -0.8949585 -0.2762146q-0.44189453 -0.22097015 -0.7954712 -0.5745239l-5.468994 -5.424835l-0.97229004 0.97227097l5.435852 5.457981q0.56347656 0.56347656 1.2485352 0.87283707q0.68499756 0.28726196 1.3920898 0.3093567q0.71813965 0.033145905 1.4031372 -0.23201752q0.69610596 -0.2762146 1.2816772 -0.8617859q0.5745239 -0.5745239 0.83966064 -1.2595329q0.26519775 -0.70710754 0.2541504 -1.4252625q-0.022094727 -0.70710754 -0.3093872 -1.3921165q-0.29833984 -0.6960602 -0.8617554 -1.2595367l-5.458008 -5.4358826zm10.490601 -1.8506298l-0.8618164 -0.8617878l-3.3587646 3.358757l-2.5853271 -2.5853577l3.8670044 -3.866991l-0.87286377 -0.87283516l-4.89447 4.8945045l8.043335 8.043339l4.9386597 -4.938698l-0.87280273 -0.87283516l-3.9111938 3.9111843l-2.850525 -2.850523l3.3587646 -3.358757zm11.020935 -3.5742054l-0.8397217 -0.83968925l-4.043762 4.043768l-0.17675781 -4.507807q-0.03314209 -0.62976646 -0.088378906 -1.2374363q-0.05529785 -0.60766983 -0.18786621 -1.1600971q-0.14361572 -0.541378 -0.37561035 -1.0164661q-0.23205566 -0.4750862 -0.5855713 -0.82864q-0.48614502 -0.48613548 -1.060669 -0.7292042q-0.5745239 -0.2430687 -1.1932373 -0.22097015q-0.607666 0.011047363 -1.2374878 0.3093586q-0.6187134 0.28726196 -1.18219 0.8507385q-0.6187134 0.6187172 -0.9059448 1.3037281q-0.28729248 0.685009 -0.28729248 1.3479214q0.011047363 0.67396164 0.28729248 1.3037281q0.26513672 0.6187191 0.77337646 1.1269512l1.0275269 -1.0275135q-0.3756714 -0.3756504 -0.5855713 -0.7623501q-0.2098999 -0.4087963 -0.22094727 -0.8175926q-0.011047363 -0.4087963 0.16571045 -0.80654335q0.17675781 -0.41984367 0.5855713 -0.82864q0.3314209 -0.33145714 0.6960449 -0.47508812q0.3756714 -0.15468025 0.7623291 -0.14363098q0.3756714 0 0.72924805 0.17677689q0.364563 0.16572762 0.66290283 0.46403885q0.24304199 0.24306679 0.40881348 0.541378q0.16571045 0.2762146 0.27618408 0.67396164q0.121520996 0.4087963 0.18780518 0.9612236q0.066345215 0.53032875 0.099487305 1.2705822l0.2982788 5.557417l0.7402344 0.74025345l5.2702026 -5.270157z" fill-rule="nonzero"/><path fill="#000000" fill-opacity="0.0" d="m342.51443 0l-1.0078735 208.0" fill-rule="evenodd"/><path stroke="#666666" stroke-width="1.0" stroke-linejoin="round" stroke-linecap="butt" stroke-dasharray="4.0,3.0" d="m342.51443 0l-1.0078735 208.0" fill-rule="evenodd"/><path fill="#ff9900" d="m534.7683 126.614784l28.692932 0l-7.173279 7.1732254l47.66931 47.669296l-14.346436 14.346451l-47.66931 -47.66928l-7.173218 7.173218z" fill-rule="evenodd"/><path fill="#000000" d="m547.7901 147.92384l0.8838501 0.8838806l10.584534 -5.5021667l-1.093811 -1.093811l-7.767151 4.209488l-0.5303345 0.28726196l0.28729248 -0.5082245l4.2315674 -7.7671356l-1.093811 -1.0937958l-5.502136 10.584503zm10.74469 6.5683594l-1.458435 2.7179413l1.0164795 1.0164642l5.49115 -10.595551l-0.85076904 -0.8507385l-10.639709 5.44693l1.0164185 1.0164642l2.7400513 -1.4363098l2.6848145 2.6847992zm-1.5247192 -3.2924652l4.5630493 -2.419632l-2.430664 4.552002l-2.1323853 -2.13237zm4.4138794 8.612335l7.170532 -7.1705017l-1.0275269 -1.0275116l-8.043335 8.043335l4.9608154 4.9608l0.87280273 -0.87283325l-3.9332886 -3.9332886zm17.848938 3.5079193l-0.9833374 -0.98332214l-5.468994 5.424835q-0.36462402 0.34249878 -0.8065796 0.56347656q-0.43084717 0.23200989 -0.8838501 0.28726196q-0.4640503 0.06628418 -0.9170532 -0.0773468q-0.44189453 -0.15467834 -0.83966064 -0.5524292q-0.38671875 -0.38668823 -0.54138184 -0.8507385q-0.14361572 -0.45298767 -0.088378906 -0.90597534q0.055236816 -0.45298767 0.27618408 -0.894928q0.2210083 -0.4419403 0.5745239 -0.7955017l5.4248657 -5.4690247l-0.97229004 -0.9722748l-5.458008 5.4358826q-0.56347656 0.56347656 -0.87280273 1.2484894q-0.28729248 0.6850128 -0.3093872 1.3921204q-0.03314209 0.7181549 0.23205566 1.4031525q0.27618408 0.6960602 0.8617554 1.2816315q0.5745239 0.5745239 1.2595215 0.83969116q0.7071533 0.26516724 1.425293 0.25411987q0.7070923 -0.022094727 1.3920898 -0.3093567q0.69610596 -0.29830933 1.2595825 -0.8617859l5.435852 -5.4579773zm1.850647 10.490585l0.8617554 -0.8617859l-3.3587646 -3.3587494l2.5853882 -2.585373l3.8670044 3.8670044l0.87280273 -0.8728485l-4.89447 -4.8945007l-8.043335 8.043335l4.9386597 4.9387054l0.87286377 -0.87283325l-3.9111938 -3.9111786l2.850525 -2.850525l3.3587646 3.3587494zm1.9500732 9.39679l8.043335 -8.043335l-0.07733154 -0.0773468l-4.220581 -1.8782501l-0.92803955 0.92807007l2.9057617 1.3147888l-6.739624 6.739609l1.0164795 1.0164642z" fill-rule="nonzero"/><path fill="#00ff00" d="m356.29376 177.70227l47.165375 -47.16536l-7.4252014 -7.425194l29.700775 0l0 29.700783l-7.4252014 -7.4252014l-47.165344 47.16536z" fill-rule="evenodd"/><path fill="#000000" d="m377.72882 179.4049l0.8838806 -0.8838806l-5.5021667 -10.584503l-1.093811 1.0937958l4.209503 7.7671356l0.28726196 0.5303345l-0.50823975 -0.28726196l-7.7671204 -4.231598l-1.093811 1.093811l10.584503 5.5021667zm6.5683594 -10.744705l2.717926 1.4584045l1.0164795 -1.0164642l-10.595551 -5.4911194l-0.8507385 0.85072327l5.44693 10.639755l1.016449 -1.0164642l-1.4363098 -2.740036l2.6848145 -2.6847992zm-3.2924805 1.524704l-2.4196167 -4.5630493l4.552002 2.4306793l-2.1323853 2.13237zm8.612335 -4.4138947l-7.1705017 -7.170517l-1.0274963 1.0275269l8.043335 8.043335l4.960785 -4.9608l-0.87283325 -0.87283325l-3.9332886 3.9332886zm3.5079346 -17.848923l-0.9833374 0.98332214l5.424835 5.4690247q0.34249878 0.3645935 0.56347656 0.8065491q0.23202515 0.43089294 0.28726196 0.8838806q0.06628418 0.46403503 -0.07733154 0.9170227q-0.1546936 0.4419403 -0.5524292 0.83969116q-0.38668823 0.3867035 -0.8507385 0.54138184q-0.45300293 0.14363098 -0.90597534 0.088378906q-0.45300293 -0.055236816 -0.894928 -0.2762146q-0.44195557 -0.22096252 -0.7955017 -0.5745239l-5.4690247 -5.424835l-0.97229004 0.9722748l5.4358826 5.4579926q0.56347656 0.5634613 1.2485046 0.87283325q0.68499756 0.28726196 1.3921204 0.3093567q0.71813965 0.03314209 1.4031677 -0.23202515q0.6960449 -0.2762146 1.2816162 -0.8617859q0.5745239 -0.5745239 0.83969116 -1.2595367q0.26516724 -0.70710754 0.25411987 -1.4252625q-0.022094727 -0.70710754 -0.3093567 -1.3921051q-0.29830933 -0.6960602 -0.8617859 -1.2595367l-5.4579773 -5.4358826zm10.49057 -1.8506317l-0.8617859 -0.8617859l-3.3587341 3.3587494l-2.5853577 -2.5853577l3.8669739 -3.8669891l-0.87283325 -0.87283325l-4.8945007 4.8945007l8.043335 8.04335l4.93869 -4.9387054l-0.87283325 -0.87283325l-3.9111633 3.9111786l-2.850525 -2.850525l3.3587341 -3.3587494zm11.020935 -3.5742035l-0.83969116 -0.83969116l-4.043762 4.043762l-0.17678833 -4.5077972q-0.03314209 -0.629776 -0.088378906 -1.237442q-0.055236816 -0.607666 -0.1878357 -1.1600952q-0.14361572 -0.54138184 -0.37564087 -1.0164642q-0.23202515 -0.47509766 -0.5855713 -0.8286438q-0.48614502 -0.48612976 -1.060669 -0.7292023q-0.5745239 -0.24307251 -1.1932373 -0.22097778q-0.607666 0.011047363 -1.2374268 0.3093567q-0.6187134 0.28726196 -1.18219 0.8507385q-0.6187439 0.61872864 -0.90600586 1.3037415q-0.28726196 0.68499756 -0.28726196 1.3479156q0.011047363 0.67396545 0.28726196 1.3037262q0.26516724 0.6187134 0.773407 1.1269531l1.0275269 -1.0275116q-0.3756714 -0.37565613 -0.5855713 -0.7623596q-0.20993042 -0.40878296 -0.22097778 -0.8175812q-0.011047363 -0.40879822 0.16571045 -0.8065491q0.17678833 -0.41984558 0.5856018 -0.8286438q0.33145142 -0.33145142 0.6960449 -0.4750824q0.37564087 -0.15467834 0.7623596 -0.14363098q0.37564087 0 0.729187 0.17677307q0.3645935 0.16572571 0.66293335 0.46403503q0.24304199 0.24307251 0.40878296 0.54138184q0.16574097 0.2762146 0.2762146 0.67396545q0.121520996 0.40879822 0.1878357 0.9612274q0.06628418 0.5303192 0.09942627 1.2705841l0.29830933 5.5574036l0.7402649 0.7402649l5.2701416 -5.270157z" fill-rule="nonzero"/></g></svg>