<svg version="1.1" viewBox="0.0 0.0 713.5721784776903 118.8005249343832" fill="none" stroke="none" stroke-linecap="square" stroke-miterlimit="10" xmlns:xlink="http://www.w3.org/1999/xlink" xmlns="http://www.w3.org/2000/svg"><clipPath id="p.0"><path d="m0 0l713.5722 0l0 118.80052l-713.5722 0l0 -118.80052z" clip-rule="nonzero"/></clipPath><g clip-path="url(#p.0)"><path fill="#000000" fill-opacity="0.0" d="m0 0l713.5722 0l0 118.80052l-713.5722 0z" fill-rule="evenodd"/><path stroke="#00ff00" stroke-width="4.0" stroke-linecap="butt" d="m450.3727 37.940945l0 45.5958" fill-rule="nonzero"/><path stroke="#00ff00" stroke-width="4.0" stroke-linecap="butt" d="m611.52496 37.940945l0 45.5958" fill-rule="nonzero"/><path stroke="#ff9900" stroke-width="4.0" stroke-linecap="butt" d="m448.3727 39.940945l165.15225 0" fill-rule="nonzero"/><path stroke="#00ffff" stroke-width="4.0" stroke-linecap="butt" d="m448.3727 81.53674l165.15225 0" fill-rule="nonzero"/><path fill="#000000" d="m505.62228 63.751568l1.6875 0.203125q-0.40625 1.4843788 -1.484375 2.3125038q-1.078125 0.8125 -2.765625 0.8125q-2.125 0 -3.375 -1.296875q-1.234375 -1.3125 -1.234375 -3.6718788q0 -2.453125 1.25 -3.796875q1.265625 -1.34375 3.265625 -1.34375q1.9375 0 3.15625 1.328125q1.234375 1.3125 1.234375 3.703125q0 0.15625 0 0.4375l-7.21875 0q0.09375 1.5937538 0.90625 2.4531288q0.8125 0.84375 2.015625 0.84375q0.90625 0 1.546875 -0.46875q0.640625 -0.484375 1.015625 -1.5156288zm-5.390625 -2.65625l5.40625 0q-0.109375 -1.21875 -0.625 -1.828125q-0.78125 -0.953125 -2.03125 -0.953125q-1.125 0 -1.90625 0.765625q-0.765625 0.75 -0.84375 2.015625zm9.094482 5.765629l0 -13.359379l1.640625 0l0 13.359379l-1.640625 0zm10.816681 -3.1093788l1.6875 0.203125q-0.40625 1.4843788 -1.484375 2.3125038q-1.078125 0.8125 -2.765625 0.8125q-2.125 0 -3.375 -1.296875q-1.234375 -1.3125 -1.234375 -3.6718788q0 -2.453125 1.25 -3.796875q1.265625 -1.34375 3.265625 -1.34375q1.9375 0 3.15625 1.328125q1.234375 1.3125 1.234375 3.703125q0 0.15625 0 0.4375l-7.21875 0q0.09375 1.5937538 0.90625 2.4531288q0.8125 0.84375 2.015625 0.84375q0.90625 0 1.546875 -0.46875q0.640625 -0.484375 1.015625 -1.5156288zm-5.390625 -2.65625l5.40625 0q-0.109375 -1.21875 -0.625 -1.828125q-0.78125 -0.953125 -2.03125 -0.953125q-1.125 0 -1.90625 0.765625q-0.765625 0.75 -0.84375 2.015625zm9.141357 5.765629l0 -9.671879l1.46875 0l0 1.359375q0.453125 -0.71875 1.203125 -1.140625q0.765625 -0.4375 1.71875 -0.4375q1.078125 0 1.765625 0.453125q0.6875 0.4375 0.96875 1.234375q1.15625 -1.6875 2.984375 -1.6875q1.453125 0 2.21875 0.796875q0.78125 0.796875 0.78125 2.453125l0 6.640629l-1.640625 0l0 -6.093754q0 -0.984375 -0.15625 -1.40625q-0.15625 -0.4375 -0.578125 -0.703125q-0.421875 -0.265625 -0.984375 -0.265625q-1.015625 0 -1.6875 0.6875q-0.671875 0.671875 -0.671875 2.15625l0 5.625004l-1.640625 0l0 -6.281254q0 -1.09375 -0.40625 -1.640625q-0.40625 -0.546875 -1.3125 -0.546875q-0.6875 0 -1.28125 0.359375q-0.59375 0.359375 -0.859375 1.0625q-0.25 0.703125 -0.25 2.03125l0 5.015629l-1.640625 0zm22.165771 -3.1093788l1.6875 0.203125q-0.40625 1.4843788 -1.484375 2.3125038q-1.078125 0.8125 -2.765625 0.8125q-2.125 0 -3.375 -1.296875q-1.234375 -1.3125 -1.234375 -3.6718788q0 -2.453125 1.25 -3.796875q1.265625 -1.34375 3.265625 -1.34375q1.9375 0 3.15625 1.328125q1.234375 1.3125 1.234375 3.703125q0 0.15625 0 0.4375l-7.21875 0q0.09375 1.5937538 0.90625 2.4531288q0.8125 0.84375 2.015625 0.84375q0.90625 0 1.546875 -0.46875q0.640625 -0.484375 1.015625 -1.5156288zm-5.390625 -2.65625l5.40625 0q-0.109375 -1.21875 -0.625 -1.828125q-0.78125 -0.953125 -2.03125 -0.953125q-1.125 0 -1.90625 0.765625q-0.765625 0.75 -0.84375 2.015625zm9.141357 5.765629l0 -9.671879l1.46875 0l0 1.375q1.0625 -1.59375 3.078125 -1.59375q0.875 0 1.609375 0.3125q0.734375 0.3125 1.09375 0.828125q0.375 0.5 0.515625 1.203125q0.09375 0.453125 0.09375 1.59375l0 5.953129l-1.640625 0l0 -5.890629q0 -1.0 -0.203125 -1.484375q-0.1875 -0.5 -0.671875 -0.796875q-0.484375 -0.296875 -1.140625 -0.296875q-1.046875 0 -1.8125 0.671875q-0.75 0.65625 -0.75 2.515625l0 5.281254l-1.640625 0zm13.953857 -1.46875l0.234375 1.453125q-0.6875 0.140625 -1.234375 0.140625q-0.890625 0 -1.390625 -0.28125q-0.484375 -0.28125 -0.6875 -0.734375q-0.203125 -0.46875 -0.203125 -1.9375l0 -5.578129l-1.203125 0l0 -1.265625l1.203125 0l0 -2.390625l1.625 -0.984375l0 3.375l1.65625 0l0 1.265625l-1.65625 0l0 5.671879q0 0.6875 0.078125 0.890625q0.09375 0.203125 0.28125 0.328125q0.203125 0.109375 0.578125 0.109375q0.265625 0 0.71875 -0.0625z" fill-rule="nonzero"/><path fill="#000000" fill-opacity="0.0" d="m-6.0 -5.7375326l389.66928 0l0 87.27559l-389.66928 0z" fill-rule="evenodd"/><path fill="#000000" fill-opacity="0.0" d="m3.0 1.6334846l0 0l0 24.604752l0 0l0 -24.604752z" fill-rule="nonzero"/><path fill="#efefef" d="m3.0 25.662464l100.76015 0l0 22.399998l-100.76015 0l0 -22.399998z" fill-rule="nonzero"/><path fill="#000000" fill-opacity="0.0" d="m3.0 24.033482l100.76015 0l0 24.604752l-100.76015 0l0 -24.604752z" fill-rule="nonzero"/><path fill="#000000" d="m6.421875 38.269962l2.625 0q0.890625 -0.015625 1.6875 -0.28125q0.796875 -0.265625 1.390625 -0.765625q0.609375 -0.5 0.953125 -1.234375q0.359375 -0.734375 0.359375 -1.6875q0 -0.953125 -0.359375 -1.6875q-0.34375 -0.75 -0.953125 -1.25q-0.59375 -0.5 -1.390625 -0.765625q-0.796875 -0.265625 -1.6875 -0.28125l-4.3125 0l0 13.265625l1.6875 0l0 -5.3125zm0 -1.390625l0 -5.171875l2.625 0q0.578125 0 1.0625 0.1875q0.5 0.1875 0.875 0.515625q0.34375 0.34375 0.546875 0.828125q0.21875 0.484375 0.21875 1.078125q0 0.609375 -0.21875 1.078125q-0.203125 0.46875 -0.5625 0.796875q-0.359375 0.328125 -0.859375 0.5q-0.484375 0.171875 -1.0625 0.1875l-2.625 0zm13.742447 1.296875l2.609375 5.40625l1.78125 0l0 -0.109375l-2.8125 -5.671875q0.546875 -0.234375 1.0 -0.5625q0.46875 -0.34375 0.796875 -0.78125q0.328125 -0.4375 0.5 -0.96875q0.1875 -0.546875 0.1875 -1.1875q0 -1.0 -0.34375 -1.734375q-0.34375 -0.75 -0.953125 -1.25q-0.625 -0.484375 -1.453125 -0.734375q-0.8125 -0.25 -1.75 -0.265625l-3.875 0l0 13.265625l1.671875 0l0 -5.40625l2.640625 0zm-2.640625 -1.390625l0 -5.078125l2.203125 0q0.625 0 1.125 0.171875q0.515625 0.15625 0.890625 0.484375q0.375 0.328125 0.578125 0.8125q0.21875 0.46875 0.21875 1.109375q0 0.59375 -0.21875 1.0625q-0.21875 0.453125 -0.59375 0.78125q-0.375 0.3125 -0.875 0.484375q-0.5 0.15625 -1.078125 0.171875l-2.25 0zm18.086197 0.9375l0 -1.515625q-0.015625 -0.71875 -0.140625 -1.4375q-0.109375 -0.734375 -0.34375 -1.40625q-0.25 -0.671875 -0.625 -1.25q-0.359375 -0.59375 -0.859375 -1.03125q-0.515625 -0.4375 -1.1875 -0.6875q-0.65625 -0.265625 -1.484375 -0.265625q-0.8125 0 -1.484375 0.265625q-0.65625 0.25 -1.15625 0.6875q-0.515625 0.4375 -0.890625 1.03125q-0.359375 0.578125 -0.59375 1.25q-0.25 0.6875 -0.375 1.40625q-0.109375 0.71875 -0.109375 1.4375l0 1.515625q0 0.703125 0.125 1.421875q0.125 0.71875 0.359375 1.390625q0.234375 0.671875 0.609375 1.265625q0.375 0.59375 0.890625 1.03125q0.515625 0.4375 1.171875 0.6875q0.65625 0.25 1.484375 0.25q0.8125 0 1.46875 -0.25q0.671875 -0.25 1.171875 -0.6875q0.515625 -0.4375 0.875 -1.015625q0.375 -0.59375 0.609375 -1.265625q0.234375 -0.671875 0.34375 -1.390625q0.125 -0.734375 0.140625 -1.4375zm-1.671875 -1.53125l0 1.53125q-0.015625 0.46875 -0.0625 0.984375q-0.046875 0.515625 -0.171875 1.015625q-0.140625 0.515625 -0.359375 0.984375q-0.203125 0.453125 -0.53125 0.796875q-0.328125 0.359375 -0.78125 0.578125q-0.453125 0.203125 -1.03125 0.203125q-0.59375 0 -1.046875 -0.203125q-0.4375 -0.21875 -0.765625 -0.578125q-0.328125 -0.34375 -0.546875 -0.8125q-0.21875 -0.46875 -0.359375 -0.96875q-0.140625 -0.5 -0.203125 -1.015625q-0.0625 -0.53125 -0.0625 -0.984375l0 -1.53125q0 -0.46875 0.0625 -0.984375q0.0625 -0.515625 0.203125 -1.03125q0.125 -0.5 0.34375 -0.953125q0.21875 -0.46875 0.546875 -0.8125q0.328125 -0.359375 0.765625 -0.5625q0.453125 -0.203125 1.03125 -0.203125q0.59375 0 1.03125 0.203125q0.453125 0.203125 0.78125 0.546875q0.328125 0.359375 0.546875 0.828125q0.21875 0.453125 0.359375 0.953125q0.125 0.5 0.171875 1.015625q0.0625 0.515625 0.078125 1.0zm6.070572 2.078125l2.625 0q0.890625 -0.015625 1.6875 -0.28125q0.796875 -0.265625 1.390625 -0.765625q0.609375 -0.5 0.953125 -1.234375q0.359375 -0.734375 0.359375 -1.6875q0 -0.953125 -0.359375 -1.6875q-0.34375 -0.75 -0.953125 -1.25q-0.59375 -0.5 -1.390625 -0.765625q-0.796875 -0.265625 -1.6875 -0.28125l-4.3125 0l0 13.265625l1.6875 0l0 -5.3125zm0 -1.390625l0 -5.171875l2.625 0q0.578125 0 1.0625 0.1875q0.5 0.1875 0.875 0.515625q0.34375 0.34375 0.546875 0.828125q0.21875 0.484375 0.21875 1.078125q0 0.609375 -0.21875 1.078125q-0.203125 0.46875 -0.5625 0.796875q-0.359375 0.328125 -0.859375 0.5q-0.484375 0.171875 -1.0625 0.1875l-2.625 0zm16.648697 0.578125l0 -1.4375l-5.53125 0l0 -4.265625l6.375 0l0 -1.4375l-8.0625 0l0 13.265625l8.140625 0l0 -1.4375l-6.453125 0l0 -4.6875l5.53125 0zm8.289322 0.71875l2.609375 5.40625l1.78125 0l0 -0.109375l-2.8125 -5.671875q0.546875 -0.234375 1.0 -0.5625q0.46875 -0.34375 0.796875 -0.78125q0.328125 -0.4375 0.5 -0.96875q0.1875 -0.546875 0.1875 -1.1875q0 -1.0 -0.34375 -1.734375q-0.34375 -0.75 -0.953125 -1.25q-0.625 -0.484375 -1.453125 -0.734375q-0.8125 -0.25 -1.75 -0.265625l-3.875 0l0 13.265625l1.671875 0l0 -5.40625l2.640625 0zm-2.640625 -1.390625l0 -5.078125l2.203125 0q0.625 0 1.125 0.171875q0.515625 0.15625 0.890625 0.484375q0.375 0.328125 0.578125 0.8125q0.21875 0.46875 0.21875 1.109375q0 0.59375 -0.21875 1.0625q-0.21875 0.453125 -0.59375 0.78125q-0.375 0.3125 -0.875 0.484375q-0.5 0.15625 -1.078125 0.171875l-2.25 0zm18.398697 -5.03125l0 -1.4375l-9.84375 0l0 1.4375l4.109375 0l0 11.828125l1.640625 0l0 -11.828125l4.09375 0zm6.164322 5.21875l-3.015625 -6.65625l-1.921875 0l4.125 8.3125l0.015625 4.953125l1.578125 0l0.015625 -4.953125l4.140625 -8.3125l-1.921875 0l-3.015625 6.65625zm10.664322 5.515625q0 0.53125 0.328125 0.90625q0.34375 0.359375 1.0 0.359375q0.640625 0 0.984375 -0.359375q0.34375 -0.375 0.34375 -0.90625q0 -0.546875 -0.34375 -0.921875q-0.328125 -0.375 -0.984375 -0.375q-0.671875 0 -1.0 0.390625q-0.328125 0.375 -0.328125 0.90625zm0 -7.984375q0 0.53125 0.328125 0.90625q0.34375 0.359375 1.0 0.359375q0.640625 0 0.984375 -0.359375q0.34375 -0.375 0.34375 -0.90625q0 -0.546875 -0.34375 -0.921875q-0.328125 -0.375 -0.984375 -0.375q-0.671875 0 -1.0 0.390625q-0.328125 0.375 -0.328125 0.90625z" fill-rule="nonzero"/><path fill="#000000" fill-opacity="0.0" d="m103.76015 24.033482l0 0l0 24.604752l0 0l0 -24.604752z" fill-rule="nonzero"/><path fill="#ff9900" d="m3.0 48.06246l67.17343 0l0 22.400002l-67.17343 0l0 -22.400002z" fill-rule="nonzero"/><path fill="#efefef" d="m70.17343 48.06246l11.195572 0l0 22.400002l-11.195572 0l0 -22.400002z" fill-rule="nonzero"/><path fill="#00ff00" d="m81.369 48.06246l70.16968 0l0 22.400002l-70.16968 0l0 -22.400002z" fill-rule="nonzero"/><path fill="#efefef" d="m151.53868 48.06246l10.366608 0l0 22.400002l-10.366608 0l0 -22.400002z" fill-rule="nonzero"/><path fill="#00ffff" d="m161.90529 48.06246l70.16968 0l0 22.400002l-70.16968 0l0 -22.400002z" fill-rule="nonzero"/><path fill="#efefef" d="m232.07497 48.06246l102.098495 0l0 22.400002l-102.098495 0l0 -22.400002z" fill-rule="nonzero"/><path fill="#000000" fill-opacity="0.0" d="m3.0 46.43348l67.17343 0l0 24.604752l-67.17343 0l0 -24.604752z" fill-rule="nonzero"/><path fill="#000000" d="m7.84375 65.98246l1.453125 0l4.1875 -13.265625l-1.796875 0l-2.9375 9.890625l-0.1875 0.65625l-0.203125 -0.640625l-2.90625 -9.90625l-1.8125 0l4.203125 13.265625zm14.273697 -3.4375l1.046875 3.4375l1.671875 0l-4.203125 -13.265625l-1.421875 0l-4.28125 13.265625l1.6875 0l1.0625 -3.4375l4.4375 0zm-3.984375 -1.46875l1.78125 -5.75l1.75 5.75l-3.53125 0zm10.742447 3.46875l0 -11.828125l-1.6875 0l0 13.265625l8.171875 0l0 -1.4375l-6.484375 0zm17.617447 -11.828125l-1.625 0l-0.03125 8.984375q-0.015625 0.59375 -0.1875 1.140625q-0.171875 0.546875 -0.5 0.96875q-0.34375 0.421875 -0.84375 0.671875q-0.484375 0.25 -1.125 0.25q-0.640625 0 -1.140625 -0.25q-0.5 -0.265625 -0.828125 -0.671875q-0.34375 -0.421875 -0.515625 -0.96875q-0.171875 -0.546875 -0.1875 -1.140625l-0.03125 -8.984375l-1.609375 0l-0.015625 8.984375q0.015625 0.921875 0.328125 1.75q0.3125 0.8125 0.890625 1.40625q0.5625 0.609375 1.34375 0.96875q0.796875 0.34375 1.765625 0.34375q0.953125 0 1.734375 -0.34375q0.796875 -0.359375 1.375 -0.96875q0.578125 -0.609375 0.890625 -1.421875q0.328125 -0.8125 0.328125 -1.734375l-0.015625 -8.984375zm10.164322 7.140625l0 -1.4375l-5.53125 0l0 -4.265625l6.375 0l0 -1.4375l-8.0625 0l0 13.265625l8.140625 0l0 -1.4375l-6.453125 0l0 -4.6875l5.53125 0zm9.367447 6.125l0 -13.265625l-0.125 0l-5.03125 1.9375l0 1.53125l3.46875 -1.3125l0 11.109375l1.6875 0z" fill-rule="nonzero"/><path fill="#010000" fill-opacity="0.0" d="m70.17343 46.43348l11.195572 0l0 24.604752l-11.195572 0l0 -24.604752z" fill-rule="nonzero"/><path fill="#000000" fill-opacity="0.0" d="m81.369 49.093452l70.16968 0l0 21.452866l-70.16968 0l0 -21.452866z" fill-rule="nonzero"/><path fill="#000000" d="m86.619 65.98246l-5.171875 -13.359375l1.921875 0l3.46875 9.703125q0.421875 1.171875 0.703125 2.1875q0.3125 -1.09375 0.71875 -2.1875l3.609375 -9.703125l1.796875 0l-5.234375 13.359375l-1.8125 0zm5.7769012 0l5.125 -13.359375l1.90625 0l5.46875 13.359375l-2.015625 0l-1.546875 -4.046875l-5.59375 0l-1.46875 4.046875l-1.875 0zm3.859375 -5.484375l4.53125 0l-1.40625 -3.703125q-0.625 -1.6875 -0.9375 -2.765625q-0.265625 1.28125 -0.71875 2.546875l-1.46875 3.921875zm9.974823 5.484375l0 -13.359375l1.78125 0l0 11.78125l6.5625 0l0 1.578125l-8.34375 0zm19.219467 -13.359375l1.765625 0l0 7.71875q0 2.015625 -0.453125 3.203125q-0.453125 1.1875 -1.640625 1.9375q-1.1875 0.734375 -3.125 0.734375q-1.875 0 -3.078125 -0.640625q-1.1875 -0.65625 -1.703125 -1.875q-0.5 -1.234375 -0.5 -3.359375l0 -7.71875l1.765625 0l0 7.71875q0 1.734375 0.3125 2.5625q0.328125 0.8125 1.109375 1.265625q0.796875 0.453125 1.9375 0.453125q1.953125 0 2.78125 -0.890625q0.828125 -0.890625 0.828125 -3.390625l0 -7.71875zm4.738571 13.359375l0 -13.359375l9.65625 0l0 1.578125l-7.875 0l0 4.09375l7.375 0l0 1.5625l-7.375 0l0 4.546875l8.1875 0l0 1.578125l-9.96875 0zm20.365448 -1.578125l0 1.578125l-8.828125 0q-0.015625 -0.59375 0.1875 -1.140625q0.34375 -0.90625 1.078125 -1.78125q0.75 -0.875 2.15625 -2.015625q2.171875 -1.78125 2.9375 -2.828125q0.765625 -1.046875 0.765625 -1.96875q0 -0.984375 -0.703125 -1.640625q-0.6875 -0.671875 -1.8125 -0.671875q-1.1875 0 -1.90625 0.71875q-0.703125 0.703125 -0.703125 1.953125l-1.6875 -0.171875q0.171875 -1.890625 1.296875 -2.875q1.140625 -0.984375 3.03125 -0.984375q1.921875 0 3.046875 1.0625q1.125 1.0625 1.125 2.640625q0 0.796875 -0.328125 1.578125q-0.328125 0.78125 -1.09375 1.640625q-0.75 0.84375 -2.53125 2.34375q-1.46875 1.234375 -1.890625 1.6875q-0.421875 0.4375 -0.6875 0.875l6.546875 0z" fill-rule="nonzero"/><path fill="#010000" fill-opacity="0.0" d="m151.53868 49.093452l10.366608 0l0 21.452866l-10.366608 0l0 -21.452866z" fill-rule="nonzero"/><path fill="#000000" fill-opacity="0.0" d="m161.90529 49.093452l70.16968 0l0 21.452866l-70.16968 0l0 -21.452866z" fill-rule="nonzero"/><path fill="#000000" d="m167.15529 65.98246l-5.171875 -13.359375l1.921875 0l3.46875 9.703125q0.421875 1.171875 0.703125 2.1875q0.3125 -1.09375 0.71875 -2.1875l3.609375 -9.703125l1.796875 0l-5.234375 13.359375l-1.8125 0zm5.7769012 0l5.125 -13.359375l1.90625 0l5.46875 13.359375l-2.015625 0l-1.546875 -4.046875l-5.59375 0l-1.46875 4.046875l-1.875 0zm3.859375 -5.484375l4.53125 0l-1.40625 -3.703125q-0.625 -1.6875 -0.9375 -2.765625q-0.265625 1.28125 -0.71875 2.546875l-1.46875 3.921875zm9.974823 5.484375l0 -13.359375l1.78125 0l0 11.78125l6.5625 0l0 1.578125l-8.34375 0zm19.219467 -13.359375l1.765625 0l0 7.71875q0 2.015625 -0.453125 3.203125q-0.453125 1.1875 -1.640625 1.9375q-1.1875 0.734375 -3.125 0.734375q-1.875 0 -3.078125 -0.640625q-1.1875 -0.65625 -1.703125 -1.875q-0.5 -1.234375 -0.5 -3.359375l0 -7.71875l1.765625 0l0 7.71875q0 1.734375 0.3125 2.5625q0.328125 0.8125 1.109375 1.265625q0.796875 0.453125 1.9375 0.453125q1.953125 0 2.78125 -0.890625q0.828125 -0.890625 0.828125 -3.390625l0 -7.71875zm4.738571 13.359375l0 -13.359375l9.65625 0l0 1.578125l-7.875 0l0 4.09375l7.375 0l0 1.5625l-7.375 0l0 4.546875l8.1875 0l0 1.578125l-9.96875 0zm11.756073 -3.53125l1.640625 -0.21875q0.28125 1.40625 0.953125 2.015625q0.6875 0.609375 1.65625 0.609375q1.15625 0 1.953125 -0.796875q0.796875 -0.796875 0.796875 -1.984375q0 -1.125 -0.734375 -1.859375q-0.734375 -0.734375 -1.875 -0.734375q-0.46875 0 -1.15625 0.171875l0.1875 -1.4375q0.15625 0.015625 0.265625 0.015625q1.046875 0 1.875 -0.546875q0.84375 -0.546875 0.84375 -1.671875q0 -0.90625 -0.609375 -1.5q-0.609375 -0.59375 -1.578125 -0.59375q-0.953125 0 -1.59375 0.609375q-0.640625 0.59375 -0.8125 1.796875l-1.640625 -0.296875q0.296875 -1.640625 1.359375 -2.546875q1.0625 -0.90625 2.65625 -0.90625q1.09375 0 2.0 0.46875q0.921875 0.46875 1.40625 1.28125q0.5 0.8125 0.5 1.71875q0 0.859375 -0.46875 1.578125q-0.46875 0.703125 -1.375 1.125q1.1875 0.28125 1.84375 1.140625q0.65625 0.859375 0.65625 2.15625q0 1.734375 -1.28125 2.953125q-1.265625 1.21875 -3.21875 1.21875q-1.765625 0 -2.921875 -1.046875q-1.15625 -1.046875 -1.328125 -2.71875z" fill-rule="nonzero"/><path fill="#010000" fill-opacity="0.0" d="m232.07497 49.093452l10.366608 0l0 21.452866l-10.366608 0l0 -21.452866z" fill-rule="nonzero"/><path fill="#000000" fill-opacity="0.0" d="m242.44157 49.093452l70.16969 0l0 21.452866l-70.16969 0l0 -21.452866z" fill-rule="nonzero"/><path fill="#efefef" d="m247.69157 65.98246l-5.171875 -13.359375l1.921875 0l3.46875 9.703125q0.421875 1.171875 0.703125 2.1875q0.3125 -1.09375 0.71875 -2.1875l3.6093903 -9.703125l1.796875 0l-5.2343903 13.359375l-1.8125 0zm5.7769012 0l5.125 -13.359375l1.90625 0l5.46875 13.359375l-2.015625 0l-1.546875 -4.046875l-5.59375 0l-1.46875 4.046875l-1.875 0zm3.859375 -5.484375l4.53125 0l-1.40625 -3.703125q-0.625 -1.6875 -0.9375 -2.765625q-0.265625 1.28125 -0.71875 2.546875l-1.46875 3.921875zm9.974823 5.484375l0 -13.359375l1.78125 0l0 11.78125l6.5625 0l0 1.578125l-8.34375 0zm19.219482 -13.359375l1.765625 0l0 7.71875q0 2.015625 -0.453125 3.203125q-0.453125 1.1875 -1.640625 1.9375q-1.1875 0.734375 -3.125 0.734375q-1.875 0 -3.078125 -0.640625q-1.1875 -0.65625 -1.703125 -1.875q-0.5 -1.234375 -0.5 -3.359375l0 -7.71875l1.765625 0l0 7.71875q0 1.734375 0.3125 2.5625q0.328125 0.8125 1.109375 1.265625q0.796875 0.453125 1.9375 0.453125q1.953125 0 2.78125 -0.890625q0.828125 -0.890625 0.828125 -3.390625l0 -7.71875zm4.738556 13.359375l0 -13.359375l9.65625 0l0 1.578125l-7.875 0l0 4.09375l7.375 0l0 1.5625l-7.375 0l0 4.546875l8.1875 0l0 1.578125l-9.96875 0zm17.006073 0l0 -3.203125l-5.796875 0l0 -1.5l6.09375 -8.65625l1.34375 0l0 8.65625l1.796875 0l0 1.5l-1.796875 0l0 3.203125l-1.640625 0zm0 -4.703125l0 -6.015625l-4.1875 6.015625l4.1875 0z" fill-rule="nonzero"/><path fill="#010000" fill-opacity="0.0" d="m312.61127 49.093452l10.366608 0l0 21.452866l-10.366608 0l0 -21.452866z" fill-rule="nonzero"/><path fill="#000000" fill-opacity="0.0" d="m322.97787 46.43348l11.195587 0l0 24.604752l-11.195587 0l0 -24.604752z" fill-rule="nonzero"/><path fill="#000000" d="m327.8685 56.904335q0 0.53125 0.328125 0.90625q0.34375 0.359375 1.0 0.359375q0.640625 0 0.984375 -0.359375q0.34375 -0.375 0.34375 -0.90625q0 -0.546875 -0.34375 -0.921875q-0.328125 -0.375 -0.984375 -0.375q-0.671875 0 -1.0 0.390625q-0.328125 0.375 -0.328125 0.90625zm2.171875 8.6875l0 -1.609375l-1.828125 0l0 1.640625q0 0.765625 -0.1875 1.484375q-0.1875 0.71875 -0.625 1.359375l1.046875 0.578125q0.734375 -0.65625 1.15625 -1.609375q0.4375 -0.9375 0.4375 -1.84375z" fill-rule="nonzero"/><path fill="#000000" fill-opacity="0.0" d="m334.17346 46.43348l0 0l0 24.604752l0 0l0 -24.604752z" fill-rule="nonzero"/><path fill="#00ff00" d="m350.01312 50.23622l73.00787 0l0 -10.503937l21.007874 21.007874l-21.007874 21.007874l0 -10.503937l-73.00787 0z" fill-rule="evenodd"/><path fill="#000000" d="m367.1206 66.60016l1.25 0l3.59375 -11.375l-1.546875 0l-2.515625 8.46875l-0.171875 0.578125l-0.15625 -0.5625l-2.5 -8.484375l-1.546875 0l3.59375 11.375zm12.2421875 -2.953125l0.890625 2.953125l1.4375 0l-3.609375 -11.375l-1.203125 0l-3.671875 11.375l1.4375 0l0.921875 -2.953125l3.796875 0zm-3.40625 -1.25l1.515625 -4.9375l1.5 4.9375l-3.015625 0zm9.2109375 2.96875l0 -10.140625l-1.453125 0l0 11.375l7.015625 0l0 -1.234375l-5.5625 0zm15.1015625 -10.140625l-1.390625 0l-0.03125 7.703125q-0.015625 0.5 -0.171875 0.96875q-0.140625 0.46875 -0.421875 0.828125q-0.28125 0.375 -0.703125 0.59375q-0.421875 0.203125 -0.984375 0.203125q-0.546875 0 -0.984375 -0.21875q-0.421875 -0.21875 -0.703125 -0.578125q-0.28125 -0.359375 -0.4375 -0.828125q-0.15625 -0.46875 -0.15625 -0.96875l-0.03125 -7.703125l-1.375 0l-0.015625 7.703125q0 0.796875 0.265625 1.5q0.28125 0.6875 0.765625 1.203125q0.484375 0.53125 1.15625 0.828125q0.6875 0.296875 1.515625 0.296875q0.8125 0 1.484375 -0.296875q0.6875 -0.3125 1.1875 -0.828125q0.484375 -0.515625 0.765625 -1.203125q0.28125 -0.703125 0.28125 -1.5l-0.015625 -7.703125zm8.7265625 6.109375l0 -1.21875l-4.75 0l0 -3.65625l5.46875 0l0 -1.234375l-6.921875 0l0 11.375l6.984375 0l0 -1.234375l-5.53125 0l0 -4.03125l4.75 0zm10.3203125 5.265625l0 -1.1875l-5.71875 0l3.0625 -3.3125q0.421875 -0.46875 0.8125 -0.9375q0.390625 -0.46875 0.6875 -0.953125q0.28125 -0.484375 0.453125 -0.984375q0.171875 -0.5 0.171875 -1.0q0 -0.6875 -0.234375 -1.265625q-0.234375 -0.578125 -0.6875 -1.0q-0.4375 -0.421875 -1.09375 -0.65625q-0.640625 -0.234375 -1.4375 -0.234375q-0.875 0 -1.5625 0.28125q-0.6875 0.28125 -1.15625 0.75q-0.46875 0.484375 -0.71875 1.125q-0.25 0.625 -0.25 1.34375l1.453125 0q0 -0.53125 0.125 -0.953125q0.140625 -0.4375 0.421875 -0.734375q0.28125 -0.296875 0.6875 -0.453125q0.421875 -0.171875 1.0 -0.171875q0.46875 0 0.828125 0.15625q0.375 0.15625 0.640625 0.4375q0.265625 0.265625 0.390625 0.640625q0.140625 0.375 0.140625 0.796875q0 0.34375 -0.09375 0.671875q-0.078125 0.3125 -0.28125 0.671875q-0.203125 0.375 -0.546875 0.8125q-0.328125 0.421875 -0.828125 0.96875l-3.71875 4.140625l0 1.046875l7.453125 0z" fill-rule="nonzero"/><path fill="#ff9900" d="m444.02887 18.91601l33.9841 0l0 -13.086614l99.52786 0l0 13.086614l33.98413 0l-83.74805 13.086615z" fill-rule="evenodd"/><path fill="#000000" d="m503.12845 20.887913l1.25 0l3.59375 -11.375001l-1.546875 0l-2.515625 8.468751l-0.171875 0.578125l-0.15625 -0.5625l-2.5 -8.484376l-1.546875 0l3.59375 11.375001zm12.242218 -2.953125l0.890625 2.953125l1.4375 0l-3.609375 -11.375001l-1.203125 0l-3.6719055 11.375001l1.4375 0l0.921875 -2.953125l3.7969055 0zm-3.4062805 -1.25l1.5156555 -4.937501l1.5 4.937501l-3.0156555 0zm9.210968 2.96875l0 -10.140626l-1.453125 0l0 11.375001l7.015625 0l0 -1.234375l-5.5625 0zm15.1015625 -10.140626l-1.390625 0l-0.03125 7.703126q-0.015625 0.5 -0.171875 0.96875q-0.140625 0.46875 -0.421875 0.828125q-0.28125 0.375 -0.703125 0.59375q-0.421875 0.203125 -0.984375 0.203125q-0.546875 0 -0.984375 -0.21875q-0.421875 -0.21875 -0.703125 -0.578125q-0.28125 -0.359375 -0.4375 -0.828125q-0.15625 -0.46875 -0.15625 -0.96875l-0.03125 -7.703126l-1.375 0l-0.015625 7.703126q0 0.796875 0.265625 1.5q0.28125 0.6875 0.765625 1.203125q0.484375 0.53125 1.15625 0.828125q0.6875 0.296875 1.515625 0.296875q0.8125 0 1.484375 -0.296875q0.6875 -0.3125 1.1875 -0.828125q0.484375 -0.515625 0.765625 -1.203125q0.28125 -0.703125 0.28125 -1.5l-0.015625 -7.703126zm8.7265625 6.109375l0 -1.21875l-4.75 0l0 -3.65625l5.46875 0l0 -1.234375l-6.921875 0l0 11.375001l6.984375 0l0 -1.234375l-5.53125 0l0 -4.031251l4.75 0zm8.0234375 5.265626l0 -11.375001l-0.109375 0l-4.3125 1.65625l0 1.3125l2.984375 -1.125l0 9.531251l1.4375 0z" fill-rule="nonzero"/><path fill="#00ff00" d="m617.8478 62.484253l20.283447 -20.283466l0 10.141731l73.7323 0l0 20.283466l-73.7323 0l0 10.141731z" fill-rule="evenodd"/><path fill="#000000" d="m645.2781 68.34425l1.25 0l3.59375 -11.375004l-1.546875 0l-2.515625 8.468754l-0.171875 0.578125l-0.15625 -0.5625l-2.5 -8.484379l-1.546875 0l3.59375 11.375004zm12.2421875 -2.953125l0.890625 2.953125l1.4375 0l-3.609375 -11.375004l-1.203125 0l-3.671875 11.375004l1.4375 0l0.921875 -2.953125l3.796875 0zm-3.40625 -1.25l1.515625 -4.937504l1.5 4.937504l-3.015625 0zm9.2109375 2.96875l0 -10.140629l-1.453125 0l0 11.375004l7.015625 0l0 -1.234375l-5.5625 0zm15.1015625 -10.140629l-1.390625 0l-0.03125 7.703129q-0.015625 0.5 -0.171875 0.96875q-0.140625 0.46875 -0.421875 0.828125q-0.28125 0.375 -0.703125 0.59375q-0.421875 0.203125 -0.984375 0.203125q-0.546875 0 -0.984375 -0.21875q-0.421875 -0.21875 -0.703125 -0.578125q-0.28125 -0.359375 -0.4375 -0.828125q-0.15625 -0.46875 -0.15625 -0.96875l-0.03125 -7.703129l-1.375 0l-0.015625 7.703129q0 0.796875 0.265625 1.5q0.28125 0.6875 0.765625 1.203125q0.484375 0.53125 1.15625 0.828125q0.6875 0.296875 1.515625 0.296875q0.8125 0 1.484375 -0.296875q0.6875 -0.3125 1.1875 -0.828125q0.484375 -0.515625 0.765625 -1.203125q0.28125 -0.703125 0.28125 -1.5l-0.015625 -7.703129zm8.7265625 6.109375l0 -1.21875l-4.75 0l0 -3.65625l5.46875 0l0 -1.234375l-6.921875 0l0 11.375004l6.984375 0l0 -1.234375l-5.53125 0l0 -4.031254l4.75 0zm10.3203125 5.265629l0 -1.1875l-5.71875 0l3.0625 -3.3125038q0.421875 -0.46875 0.8125 -0.9375q0.390625 -0.46875 0.6875 -0.953125q0.28125 -0.484375 0.453125 -0.984375q0.171875 -0.5 0.171875 -1.0q0 -0.6875 -0.234375 -1.265625q-0.234375 -0.578125 -0.6875 -1.0q-0.4375 -0.421875 -1.09375 -0.65625q-0.640625 -0.234375 -1.4375 -0.234375q-0.875 0 -1.5625 0.28125q-0.6875 0.28125 -1.15625 0.75q-0.46875 0.484375 -0.71875 1.125q-0.25 0.625 -0.25 1.34375l1.453125 0q0 -0.53125 0.125 -0.953125q0.140625 -0.4375 0.421875 -0.734375q0.28125 -0.296875 0.6875 -0.453125q0.421875 -0.171875 1.0 -0.171875q0.46875 0 0.828125 0.15625q0.375 0.15625 0.640625 0.4375q0.265625 0.265625 0.390625 0.640625q0.140625 0.375 0.140625 0.796875q0 0.34375 -0.09375 0.671875q-0.078125 0.3125 -0.28125 0.671875q-0.203125 0.375 -0.546875 0.8125q-0.328125 0.421875 -0.828125 0.96875l-3.71875 4.140629l0 1.046875l7.453125 0z" fill-rule="nonzero"/><path fill="#00ffff" d="m444.02887 102.56431l83.74805 -13.0866165l83.74805 13.0866165l-33.98413 0l0 13.086609l-99.52786 0l0 -13.086609z" fill-rule="evenodd"/><path fill="#000000" d="m503.12845 112.3124l1.25 0l3.59375 -11.375l-1.546875 0l-2.515625 8.46875l-0.171875 0.578125l-0.15625 -0.5625l-2.5 -8.484375l-1.546875 0l3.59375 11.375zm12.242218 -2.953125l0.890625 2.953125l1.4375 0l-3.609375 -11.375l-1.203125 0l-3.6719055 11.375l1.4375 0l0.921875 -2.953125l3.7969055 0zm-3.4062805 -1.25l1.5156555 -4.9375l1.5 4.9375l-3.0156555 0zm9.210968 2.96875l0 -10.140625l-1.453125 0l0 11.375l7.015625 0l0 -1.234375l-5.5625 0zm15.1015625 -10.140625l-1.390625 0l-0.03125 7.703125q-0.015625 0.5 -0.171875 0.96875q-0.140625 0.46875 -0.421875 0.828125q-0.28125 0.375 -0.703125 0.59375q-0.421875 0.203125 -0.984375 0.203125q-0.546875 0 -0.984375 -0.21875q-0.421875 -0.21875 -0.703125 -0.578125q-0.28125 -0.359375 -0.4375 -0.828125q-0.15625 -0.46875 -0.15625 -0.96875l-0.03125 -7.703125l-1.375 0l-0.015625 7.703125q0 0.796875 0.265625 1.5q0.28125 0.6875 0.765625 1.203125q0.484375 0.53125 1.15625 0.828125q0.6875 0.296875 1.515625 0.296875q0.8125 0 1.484375 -0.296875q0.6875 -0.3125 1.1875 -0.828125q0.484375 -0.515625 0.765625 -1.203125q0.28125 -0.703125 0.28125 -1.5l-0.015625 -7.703125zm8.7265625 6.109375l0 -1.21875l-4.75 0l0 -3.65625l5.46875 0l0 -1.234375l-6.921875 0l0 11.375l6.984375 0l0 -1.234375l-5.53125 0l0 -4.03125l4.75 0zm5.0234375 -1.125l0 1.171875l1.03125 0q0.546875 0 0.984375 0.125q0.453125 0.125 0.78125 0.390625q0.3125 0.25 0.484375 0.640625q0.171875 0.390625 0.171875 0.921875q0 0.53125 -0.15625 0.9375q-0.140625 0.390625 -0.421875 0.65625q-0.28125 0.265625 -0.6875 0.390625q-0.390625 0.125 -0.890625 0.125q-0.484375 0 -0.890625 -0.140625q-0.40625 -0.140625 -0.6875 -0.390625q-0.28125 -0.265625 -0.4375 -0.625q-0.140625 -0.375 -0.140625 -0.8125l-1.453125 0q0 0.75 0.28125 1.34375q0.296875 0.578125 0.78125 0.984375q0.484375 0.40625 1.140625 0.625q0.65625 0.203125 1.40625 0.203125q0.765625 0 1.421875 -0.21875q0.671875 -0.234375 1.15625 -0.65625q0.484375 -0.421875 0.75 -1.03125q0.28125 -0.625 0.28125 -1.421875q0 -0.390625 -0.09375 -0.78125q-0.09375 -0.40625 -0.3125 -0.765625q-0.21875 -0.359375 -0.59375 -0.640625q-0.375 -0.296875 -0.921875 -0.484375q0.453125 -0.1875 0.78125 -0.484375q0.34375 -0.296875 0.546875 -0.625q0.21875 -0.328125 0.3125 -0.671875q0.109375 -0.359375 0.109375 -0.6875q0 -0.796875 -0.25 -1.390625q-0.25 -0.609375 -0.703125 -1.015625q-0.453125 -0.40625 -1.09375 -0.609375q-0.625 -0.203125 -1.390625 -0.203125q-0.796875 0 -1.4375 0.25q-0.640625 0.234375 -1.109375 0.65625q-0.453125 0.4375 -0.71875 1.015625q-0.25 0.5625 -0.25 1.21875l1.453125 0q0 -0.453125 0.140625 -0.8125q0.15625 -0.359375 0.4375 -0.609375q0.265625 -0.265625 0.640625 -0.390625q0.375 -0.140625 0.84375 -0.140625q0.46875 0 0.84375 0.125q0.375 0.109375 0.625 0.359375q0.25 0.25 0.375 0.625q0.140625 0.375 0.140625 0.890625q0 0.421875 -0.15625 0.78125q-0.140625 0.359375 -0.421875 0.625q-0.28125 0.25 -0.703125 0.40625q-0.421875 0.140625 -0.96875 0.140625l-1.03125 0z" fill-rule="nonzero"/><path fill="#000000" fill-opacity="0.0" d="m344.01312 -41.0l-1.0078735 208.0" fill-rule="evenodd"/><path stroke="#666666" stroke-width="1.0" stroke-linejoin="round" stroke-linecap="butt" stroke-dasharray="4.0,3.0" d="m344.01312 -41.0l-1.0078735 208.0" fill-rule="evenodd"/></g></svg>