<svg version="1.1" viewBox="0.0 0.0 589.3070866141733 319.6036745406824" fill="none" stroke="none" stroke-linecap="square" stroke-miterlimit="10" xmlns:xlink="http://www.w3.org/1999/xlink" xmlns="http://www.w3.org/2000/svg"><clipPath id="p.0"><path d="m0 0l589.30707 0l0 319.60367l-589.30707 0l0 -319.60367z" clip-rule="nonzero"/></clipPath><g clip-path="url(#p.0)"><path fill="#000000" fill-opacity="0.0" d="m0 0l589.30707 0l0 319.60367l-589.30707 0z" fill-rule="evenodd"/><defs><radialGradient id="p.1" gradientUnits="userSpaceOnUse" gradientTransform="matrix(8.008587410892972 0.0 0.0 8.008587410892972 0.0 0.0)" spreadMethod="pad" cx="10.122991981265363" cy="7.767580709271249" fx="10.122991981265363" fy="7.767580709271249" r="8.008587837219238"><stop offset="0.0" stop-color="#dfe9fb"/><stop offset="1.0" stop-color="#6e9be7"/></radialGradient></defs><path fill="url(#p.1)" d="m20.755905 40.396324l120.62993 0l0 43.622047l-120.62993 0z" fill-rule="evenodd"/><path fill="#000000" d="m57.607975 68.59632l0 -14.312496l4.921875 0q1.6718788 0 2.5625038 0.203125q1.21875 0.28125 2.09375 1.015625q1.125 0.96875 1.6875 2.453125q0.5625 1.484375 0.5625 3.40625q0 1.625 -0.375 2.8906212q-0.375 1.25 -0.984375 2.078125q-0.59375 0.828125 -1.296875 1.3125q-0.703125 0.46875 -1.703125 0.71875q-1.0 0.234375 -2.3125038 0.234375l-5.15625 0zm1.890625 -1.6875l3.0625 0q1.40625 0 2.2031288 -0.265625q0.8125 -0.265625 1.296875 -0.75q0.671875 -0.671875 1.046875 -1.796875q0.375 -1.1406212 0.375 -2.7656212q0 -2.25 -0.734375 -3.453125q-0.734375 -1.203125 -1.796875 -1.609375q-0.75 -0.296875 -2.4375038 -0.296875l-3.015625 0l0 10.937496zm12.865238 1.6875l0 -14.312496l1.90625 0l0 14.312496l-1.90625 0zm9.337891 0l-5.546875 -14.312496l2.046875 0l3.71875 10.390621q0.453125 1.25 0.75 2.34375q0.328125 -1.171875 0.78125 -2.34375l3.8593674 -10.390621l1.9375 0l-5.6093674 14.312496l-1.9375 0zm20.708977 0l-1.765625 0l0 -11.203121q-0.625 0.609375 -1.65625 1.21875q-1.03125 0.59375 -1.859375 0.90625l0 -1.703125q1.484375 -0.6875 2.578125 -1.671875q1.109375 -1.0 1.5625 -1.921875l1.140625 0l0 14.374996z" fill-rule="nonzero"/><defs><radialGradient id="p.2" gradientUnits="userSpaceOnUse" gradientTransform="matrix(8.008587410892972 0.0 0.0 8.008587410892972 0.0 0.0)" spreadMethod="pad" cx="9.715620865210168" cy="20.99249241757879" fx="9.715620865210168" fy="20.99249241757879" r="8.008587837219238"><stop offset="0.0" stop-color="#dfe9fb"/><stop offset="1.0" stop-color="#6e9be7"/></radialGradient></defs><path fill="url(#p.2)" d="m17.493439 146.30919l120.62991 0l0 43.62204l-120.62991 0z" fill-rule="evenodd"/><path fill="#000000" d="m54.34551 174.50919l0 -14.3125l4.921875 0q1.671875 0 2.5625 0.203125q1.21875 0.28125 2.09375 1.015625q1.1249962 0.96875 1.6874962 2.453125q0.5625 1.484375 0.5625 3.40625q0 1.625 -0.375 2.890625q-0.375 1.25 -0.984375 2.078125q-0.59375 0.828125 -1.2968712 1.3125q-0.703125 0.46875 -1.703125 0.71875q-1.0 0.234375 -2.3125 0.234375l-5.15625 0zm1.890625 -1.6875l3.0625 0q1.40625 0 2.203125 -0.265625q0.8125 -0.265625 1.296875 -0.75q0.671875 -0.671875 1.046875 -1.796875q0.3749962 -1.140625 0.3749962 -2.765625q0 -2.25 -0.7343712 -3.453125q-0.734375 -1.203125 -1.796875 -1.609375q-0.75 -0.296875 -2.4375 -0.296875l-3.015625 0l0 10.9375zm12.865231 1.6875l0 -14.3125l1.90625 0l0 14.3125l-1.90625 0zm9.337891 0l-5.546875 -14.3125l2.046875 0l3.71875 10.390625q0.453125 1.25 0.75 2.34375q0.328125 -1.171875 0.78125 -2.34375l3.859375 -10.390625l1.9375 0l-5.609375 14.3125l-1.9375 0zm23.31836 -1.6875l0 1.6875l-9.453125 0q-0.015625 -0.640625 0.203125 -1.21875q0.359375 -0.96875 1.15625 -1.90625q0.796875 -0.9375 2.296875 -2.171875q2.34375 -1.90625 3.15625 -3.015625q0.828125 -1.125 0.828125 -2.125q0 -1.046875 -0.75 -1.765625q-0.75 -0.71875 -1.953125 -0.71875q-1.265625 0 -2.03125 0.765625q-0.765625 0.765625 -0.765625 2.109375l-1.8125 -0.1875q0.1875 -2.015625 1.390625 -3.078125q1.21875 -1.0625 3.265625 -1.0625q2.046875 0 3.25 1.140625q1.203125 1.140625 1.203125 2.828125q0 0.859375 -0.359375 1.703125q-0.34375 0.828125 -1.15625 1.75q-0.8125 0.90625 -2.703125 2.515625q-1.59375 1.328125 -2.046875 1.796875q-0.4375 0.46875 -0.734375 0.953125l7.015625 0z" fill-rule="nonzero"/><defs><radialGradient id="p.3" gradientUnits="userSpaceOnUse" gradientTransform="matrix(8.008587410892972 0.0 0.0 8.008587410892972 0.0 0.0)" spreadMethod="pad" cx="10.161008915667939" cy="33.98733619185856" fx="10.161008915667939" fy="33.98733619185856" r="8.008587837219238"><stop offset="0.0" stop-color="#dfe9fb"/><stop offset="1.0" stop-color="#6e9be7"/></radialGradient></defs><path fill="url(#p.3)" d="m21.060368 250.37953l120.62993 0l0 43.622055l-120.62993 0z" fill-rule="evenodd"/><path fill="#000000" d="m57.912437 278.57953l0 -14.3125l4.921875 0q1.671875 0 2.5625 0.203125q1.21875 0.28125 2.09375 1.015625q1.125 0.96875 1.6875 2.453125q0.5625 1.484375 0.5625 3.40625q0 1.625 -0.375 2.890625q-0.375 1.25 -0.984375 2.078125q-0.59375 0.828125 -1.296875 1.3125q-0.703125 0.46875 -1.703125 0.71875q-1.0 0.234375 -2.3125 0.234375l-5.15625 0zm1.890625 -1.6875l3.0625 0q1.40625 0 2.203125 -0.265625q0.8125 -0.265625 1.296875 -0.75q0.671875 -0.671875 1.046875 -1.796875q0.375 -1.140625 0.375 -2.765625q0 -2.25 -0.734375 -3.453125q-0.734375 -1.203125 -1.796875 -1.609375q-0.75 -0.296875 -2.4375 -0.296875l-3.015625 0l0 10.9375zm12.865234 1.6875l0 -14.3125l1.90625 0l0 14.3125l-1.90625 0zm9.337891 0l-5.546875 -14.3125l2.046875 0l3.71875 10.390625q0.453125 1.25 0.75 2.34375q0.328125 -1.171875 0.78125 -2.34375l3.8593674 -10.390625l1.9375 0l-5.6093674 14.3125l-1.9375 0zm14.099602 -3.78125l1.75 -0.234375q0.3125 1.5 1.03125 2.15625q0.734375 0.65625 1.78125 0.65625q1.234375 0 2.078125 -0.859375q0.859375 -0.859375 0.859375 -2.125q0 -1.21875 -0.796875 -2.0q-0.78125 -0.78125 -2.0 -0.78125q-0.5 0 -1.234375 0.1875l0.1875 -1.546875q0.171875 0.03125 0.28125 0.03125q1.125 0 2.015625 -0.578125q0.90625 -0.59375 0.90625 -1.8125q0 -0.96875 -0.65625 -1.609375q-0.65625 -0.640625 -1.6875 -0.640625q-1.015625 0 -1.703125 0.65625q-0.6875 0.640625 -0.875 1.921875l-1.765625 -0.3125q0.328125 -1.765625 1.46875 -2.734375q1.140625 -0.96875 2.84375 -0.96875q1.171875 0 2.15625 0.5q0.984375 0.5 1.5 1.375q0.53125 0.875 0.53125 1.84375q0 0.921875 -0.5 1.6875q-0.5 0.765625 -1.46875 1.21875q1.265625 0.28125 1.96875 1.21875q0.703125 0.921875 0.703125 2.296875q0 1.875 -1.375 3.1875q-1.359375 1.296875 -3.453125 1.296875q-1.890625 0 -3.140625 -1.125q-1.234375 -1.125 -1.40625 -2.90625z" fill-rule="nonzero"/><defs><radialGradient id="p.4" gradientUnits="userSpaceOnUse" gradientTransform="matrix(8.008587410892972 0.0 0.0 8.008587410892972 0.0 0.0)" spreadMethod="pad" cx="36.085280856293835" cy="7.997320976652337" fx="36.085280856293835" fy="7.997320976652337" r="8.008587837219238"><stop offset="0.0" stop-color="#dfe9fb"/><stop offset="1.0" stop-color="#6e9be7"/></radialGradient></defs><path fill="url(#p.4)" d="m228.67717 42.23622l120.62993 0l0 43.622047l-120.62993 0z" fill-rule="evenodd"/><path fill="#000000" d="m265.52924 70.43622l0 -14.3125l4.921875 0q1.671875 0 2.5625 0.203125q1.21875 0.28125 2.09375 1.015625q1.125 0.96875 1.6875 2.453125q0.5625 1.484375 0.5625 3.40625q0 1.625 -0.375 2.890625q-0.375 1.25 -0.984375 2.078125q-0.59375 0.828125 -1.296875 1.3125q-0.703125 0.46875 -1.703125 0.71875q-1.0 0.234375 -2.3125 0.234375l-5.15625 0zm1.890625 -1.6875l3.0625 0q1.40625 0 2.203125 -0.265625q0.8125 -0.265625 1.296875 -0.75q0.671875 -0.671875 1.046875 -1.796875q0.375 -1.140625 0.375 -2.765625q0 -2.25 -0.734375 -3.453125q-0.734375 -1.203125 -1.796875 -1.609375q-0.75 -0.296875 -2.4375 -0.296875l-3.015625 0l0 10.9375zm12.865234 1.6875l0 -14.3125l1.90625 0l0 14.3125l-1.90625 0zm9.337891 0l-5.546875 -14.3125l2.046875 0l3.71875 10.390625q0.453125 1.25 0.75 2.34375q0.328125 -1.171875 0.78125 -2.34375l3.859375 -10.390625l1.9375 0l-5.609375 14.3125l-1.9375 0zm20.708984 0l-1.765625 0l0 -11.203125q-0.625 0.609375 -1.65625 1.21875q-1.03125 0.59375 -1.859375 0.90625l0 -1.703125q1.484375 -0.6875 2.578125 -1.671875q1.109375 -1.0 1.5625 -1.921875l1.140625 0l0 14.375z" fill-rule="nonzero"/><path fill="#000000" fill-opacity="0.0" d="m218.28084 139.0328l134.89763 0l0 58.173233l-134.89763 0z" fill-rule="evenodd"/><path stroke="#000000" stroke-width="1.0" stroke-linejoin="round" stroke-linecap="butt" stroke-dasharray="4.0,3.0" d="m218.28084 139.0328l134.89763 0l0 58.173233l-134.89763 0z" fill-rule="evenodd"/><path fill="#efefef" d="m232.92107 148.0328l105.61717 0l0 19.199997l-105.61717 0l0 -19.199997z" fill-rule="nonzero"/><path fill="#000000" fill-opacity="0.0" d="m232.92107 146.62718l105.6172 0l0 21.101562l-105.6172 0l0 -21.101562z" fill-rule="nonzero"/><path fill="#000000" d="m237.17107 163.3928l1.09375 0l3.453125 -8.453125l-1.484375 0l-2.359375 6.375l-0.140625 0.515625l-0.140625 -0.515625l-2.421875 -6.375l-1.484375 0l3.484375 8.453125zm6.9453125 -8.453125l0 1.25l2.875 0l0 5.953125l-2.875 0l0 1.25l7.078125 0l0 -1.25l-2.765625 0l0 -7.203125l-4.3125 0zm2.6875 -2.21875q0 0.34375 0.203125 0.578125q0.21875 0.234375 0.65625 0.234375q0.4375 0 0.65625 -0.234375q0.21875 -0.234375 0.21875 -0.578125q0 -0.203125 -0.0625 -0.359375q-0.0625 -0.171875 -0.1875 -0.28125q-0.109375 -0.09375 -0.265625 -0.15625q-0.15625 -0.0625 -0.359375 -0.0625q-0.203125 0 -0.359375 0.0625q-0.15625 0.0625 -0.265625 0.15625q-0.125 0.125 -0.1875 0.296875q-0.046875 0.15625 -0.046875 0.34375zm12.304672 8.421875q0 0.203125 -0.078125 0.390625q-0.078125 0.171875 -0.234375 0.328125q-0.234375 0.234375 -0.671875 0.375q-0.421875 0.140625 -1.0 0.140625q-0.375 0 -0.75 -0.078125q-0.37498474 -0.078125 -0.67185974 -0.265625q-0.3125 -0.1875 -0.53125 -0.484375q-0.203125 -0.3125 -0.234375 -0.765625l-1.4375 0q0 0.546875 0.234375 1.046875q0.25 0.5 0.71875 0.875q0.46875 0.375 1.140625 0.609375q0.67185974 0.234375 1.5312347 0.234375q0.75 0 1.375 -0.171875q0.640625 -0.1875 1.09375 -0.515625q0.453125 -0.328125 0.703125 -0.78125q0.25 -0.46875 0.25 -1.03125q0 -0.53125 -0.21875 -0.921875q-0.21875 -0.40625 -0.640625 -0.703125q-0.421875 -0.296875 -1.046875 -0.515625q-0.609375 -0.21875 -1.390625 -0.375q-0.59375 -0.125 -0.984375 -0.25q-0.39060974 -0.125 -0.60935974 -0.28125q-0.234375 -0.15625 -0.328125 -0.34375q-0.09375 -0.203125 -0.09375 -0.453125q0 -0.234375 0.109375 -0.453125q0.125 -0.234375 0.359375 -0.40625q0.21875 -0.171875 0.56248474 -0.265625q0.359375 -0.109375 0.8125 -0.109375q0.453125 0 0.796875 0.125q0.359375 0.125 0.609375 0.328125q0.25 0.203125 0.390625 0.46875q0.140625 0.25 0.140625 0.53125l1.453125 0q0 -0.5625 -0.25 -1.03125q-0.234375 -0.484375 -0.671875 -0.84375q-0.4375 -0.359375 -1.0625 -0.5625q-0.625 -0.203125 -1.40625 -0.203125q-0.71875 0 -1.3281097 0.203125q-0.609375 0.1875 -1.046875 0.515625q-0.4375 0.34375 -0.6875 0.796875q-0.234375 0.4375 -0.234375 0.953125q0 0.53125 0.234375 0.921875q0.234375 0.390625 0.671875 0.6875q0.421875 0.296875 1.015625 0.515625q0.59373474 0.203125 1.3281097 0.34375q0.59375 0.125 0.984375 0.265625q0.40625 0.140625 0.640625 0.3125q0.25 0.171875 0.34375 0.390625q0.109375 0.203125 0.109375 0.453125zm4.2109375 -6.203125l0 1.25l2.875 0l0 5.953125l-2.875 0l0 1.25l7.078125 0l0 -1.25l-2.765625 0l0 -7.203125l-4.3125 0zm2.6875 -2.21875q0 0.34375 0.203125 0.578125q0.21875 0.234375 0.65625 0.234375q0.4375 0 0.65625 -0.234375q0.21875 -0.234375 0.21875 -0.578125q0 -0.203125 -0.0625 -0.359375q-0.0625 -0.171875 -0.1875 -0.28125q-0.109375 -0.09375 -0.265625 -0.15625q-0.15625 -0.0625 -0.359375 -0.0625q-0.203125 0 -0.359375 0.0625q-0.15625 0.0625 -0.265625 0.15625q-0.125 0.125 -0.1875 0.296875q-0.046875 0.15625 -0.046875 0.34375zm13.8515625 6.53125l0 -0.15625q0 -0.671875 -0.109375 -1.265625q-0.109375 -0.59375 -0.328125 -1.09375q-0.203125 -0.4375 -0.46875 -0.78125q-0.265625 -0.359375 -0.59375 -0.609375q-0.375 -0.265625 -0.84375 -0.40625q-0.453125 -0.15625 -1.0 -0.15625q-0.4375 0 -0.8125 0.09375q-0.375 0.078125 -0.6875 0.234375q-0.25 0.140625 -0.46875 0.328125q-0.21875 0.171875 -0.40625 0.40625l0 -4.453125l-1.4375 0l0 12.0l1.328125 0l0.0625 -0.96875q0.140625 0.1875 0.296875 0.34375q0.15625 0.140625 0.328125 0.265625q0.359375 0.25 0.8125 0.375q0.453125 0.140625 1.0 0.140625q0.46875 0 0.875 -0.125q0.421875 -0.109375 0.765625 -0.328125q0.46875 -0.296875 0.8125 -0.765625q0.34375 -0.46875 0.546875 -1.046875q0.15625 -0.453125 0.234375 -0.953125q0.09375 -0.515625 0.09375 -1.078125zm-1.453125 -0.15625l0 0.15625q0 0.375 -0.046875 0.734375q-0.046875 0.359375 -0.140625 0.671875q-0.125 0.421875 -0.34375 0.765625q-0.203125 0.328125 -0.515625 0.546875q-0.234375 0.171875 -0.53125 0.265625q-0.296875 0.078125 -0.65625 0.078125q-0.375 0 -0.6875 -0.09375q-0.3125 -0.09375 -0.5625 -0.28125q-0.25 -0.171875 -0.453125 -0.40625q-0.1875 -0.25 -0.328125 -0.53125l0 -3.6875q0.140625 -0.28125 0.328125 -0.515625q0.1875 -0.25 0.4375 -0.421875q0.25 -0.171875 0.5625 -0.265625q0.3125 -0.109375 0.6875 -0.109375q0.34375 0 0.625 0.078125q0.28125 0.078125 0.5 0.21875q0.328125 0.203125 0.546875 0.546875q0.234375 0.34375 0.375 0.75q0.109375 0.34375 0.15625 0.71875q0.046875 0.375 0.046875 0.78125zm4.117218 -4.15625l0 1.25l2.875 0l0 5.953125l-2.875 0l0 1.25l7.078125 0l0 -1.25l-2.765625 0l0 -7.203125l-4.3125 0zm2.6875 -2.21875q0 0.34375 0.203125 0.578125q0.21875 0.234375 0.65625 0.234375q0.4375 0 0.65625 -0.234375q0.21875 -0.234375 0.21875 -0.578125q0 -0.203125 -0.0625 -0.359375q-0.0625 -0.171875 -0.1875 -0.28125q-0.109375 -0.09375 -0.265625 -0.15625q-0.15625 -0.0625 -0.359375 -0.0625q-0.203125 0 -0.359375 0.0625q-0.15625 0.0625 -0.265625 0.15625q-0.125 0.125 -0.1875 0.296875q-0.046875 0.15625 -0.046875 0.34375zm6.9140625 -1.328125l0 1.25l2.875 0l0 9.5l-2.875 0l0 1.25l7.078125 0l0 -1.25l-2.765625 0l0 -10.75l-4.3125 0zm9.6015625 3.546875l0 1.25l2.875 0l0 5.953125l-2.875 0l0 1.25l7.078125 0l0 -1.25l-2.765625 0l0 -7.203125l-4.3125 0zm2.6875 -2.21875q0 0.34375 0.203125 0.578125q0.21875 0.234375 0.65625 0.234375q0.4375 0 0.65625 -0.234375q0.21875 -0.234375 0.21875 -0.578125q0 -0.203125 -0.0625 -0.359375q-0.0625 -0.171875 -0.1875 -0.28125q-0.109375 -0.09375 -0.265625 -0.15625q-0.15625 -0.0625 -0.359375 -0.0625q-0.203125 0 -0.359375 0.0625q-0.15625 0.0625 -0.265625 0.15625q-0.125 0.125 -0.1875 0.296875q-0.046875 0.15625 -0.046875 0.34375zm10.1015625 0.171875l-1.453125 0l0 2.046875l-2.21875 0l0 1.109375l2.21875 0l0 4.59375q0 0.78125 0.203125 1.34375q0.21875 0.546875 0.578125 0.890625q0.359375 0.34375 0.84375 0.515625q0.484375 0.15625 1.046875 0.15625q0.34375 0 0.671875 -0.03125q0.34375 -0.03125 0.65625 -0.09375q0.296875 -0.0625 0.546875 -0.140625q0.265625 -0.078125 0.453125 -0.1875l-0.203125 -1.03125q-0.140625 0.03125 -0.34375 0.078125q-0.203125 0.046875 -0.4375 0.078125q-0.25 0.046875 -0.5 0.078125q-0.25 0.015625 -0.484375 0.015625q-0.3125 0 -0.609375 -0.078125q-0.28125 -0.078125 -0.5 -0.265625q-0.21875 -0.1875 -0.34375 -0.5q-0.125 -0.328125 -0.125 -0.828125l0 -4.59375l3.21875 0l0 -1.109375l-3.21875 0l0 -2.046875zm6.8671875 13.921875q0.5625 0 1.0 -0.21875q0.4375 -0.203125 0.765625 -0.515625q0.328125 -0.3125 0.5625 -0.6875q0.234375 -0.359375 0.375 -0.6875l4.296875 -9.765625l-1.625 0l-2.171875 5.484375l-0.40625 0.984375l-0.375 -1.015625l-2.3125 -5.453125l-1.625 0l3.640625 8.046875l-0.578125 1.140625q-0.078125 0.15625 -0.21875 0.390625q-0.125 0.25 -0.3125 0.46875q-0.203125 0.234375 -0.453125 0.390625q-0.234375 0.171875 -0.53125 0.171875q-0.109375 0 -0.3125 -0.015625q-0.1875 -0.015625 -0.375 -0.03125l-0.234375 1.1875q0.140625 0.03125 0.40625 0.078125q0.28125 0.046875 0.484375 0.046875zm11.8203125 -4.359375q0 0.453125 0.28125 0.78125q0.296875 0.3125 0.859375 0.3125q0.546875 0 0.84375 -0.3125q0.296875 -0.328125 0.296875 -0.78125q0 -0.46875 -0.296875 -0.796875q-0.28125 -0.328125 -0.84375 -0.328125q-0.578125 0 -0.859375 0.328125q-0.28125 0.328125 -0.28125 0.796875zm0 -6.84375q0 0.453125 0.28125 0.78125q0.296875 0.3125 0.859375 0.3125q0.546875 0 0.84375 -0.3125q0.296875 -0.328125 0.296875 -0.78125q0 -0.46875 -0.296875 -0.796875q-0.28125 -0.328125 -0.84375 -0.328125q-0.578125 0 -0.859375 0.328125q-0.28125 0.328125 -0.28125 0.796875z" fill-rule="nonzero"/><path fill="#000000" fill-opacity="0.0" d="m338.53827 146.62718l9.6015625 0l0 21.101562l-9.6015625 0l0 -21.101562z" fill-rule="nonzero"/><path fill="#efefef" d="m252.12419 167.2328l67.21092 0l0 19.200012l-67.21092 0l0 -19.200012z" fill-rule="nonzero"/><path fill="#000000" fill-opacity="0.0" d="m252.12419 165.82718l67.21095 0l0 21.101562l-67.21095 0l0 -21.101562z" fill-rule="nonzero"/><path fill="#000000" d="m254.93669 175.38968l0 -4.796875l-1.453125 0l0 12.0l1.453125 0l0 -6.140625q0.15625 -0.25 0.34375 -0.453125q0.203125 -0.21875 0.4375 -0.375q0.29685974 -0.203125 0.64060974 -0.3125q0.359375 -0.109375 0.75 -0.109375q0.484375 0 0.84375 0.140625q0.375 0.125 0.609375 0.40625q0.234375 0.25 0.34375 0.625q0.125 0.375 0.125 0.875l0 5.34375l1.4375 0l0 -5.328125q0 -0.84375 -0.203125 -1.46875q-0.203125 -0.625 -0.59375 -1.03125q-0.375 -0.40625 -0.921875 -0.59375q-0.546875 -0.1875 -1.203125 -0.1875q-0.515625 0 -0.96875 0.140625q-0.4375 0.140625 -0.81248474 0.421875q-0.234375 0.15625 -0.453125 0.375q-0.203125 0.21875 -0.375 0.46875zm8.382797 -1.25l0 1.25l2.875 0l0 5.953125l-2.875 0l0 1.25l7.078125 0l0 -1.25l-2.765625 0l0 -7.203125l-4.3125 0zm2.6875 -2.21875q0 0.34375 0.203125 0.578125q0.21875 0.234375 0.65625 0.234375q0.4375 0 0.65625 -0.234375q0.21875 -0.234375 0.21875 -0.578125q0 -0.203125 -0.0625 -0.359375q-0.0625 -0.171875 -0.1875 -0.28125q-0.109375 -0.09375 -0.265625 -0.15625q-0.15625 -0.0625 -0.359375 -0.0625q-0.203125 0 -0.359375 0.0625q-0.15625 0.0625 -0.265625 0.15625q-0.125 0.125 -0.1875 0.296875q-0.046875 0.15625 -0.046875 0.34375zm6.4140625 6.375l0 0.15625q0 0.90625 0.234375 1.703125q0.25 0.78125 0.6875 1.359375q0.4375 0.578125 1.046875 0.90625q0.625 0.328125 1.390625 0.328125q0.78125 0 1.359375 -0.265625q0.59375 -0.265625 1.015625 -0.78125l0.0625 0.890625l1.328125 0l0 -12.0l-1.4375 0l0 4.375q-0.421875 -0.484375 -0.984375 -0.734375q-0.5625 -0.25 -1.328125 -0.25q-0.765625 0 -1.390625 0.328125q-0.625 0.3125 -1.0625 0.875q-0.453125 0.578125 -0.6875 1.375q-0.234375 0.78125 -0.234375 1.734375zm1.4375 0.15625l0 -0.15625q0 -0.625 0.125 -1.171875q0.140625 -0.5625 0.421875 -1.0q0.28125 -0.421875 0.703125 -0.671875q0.4375 -0.25 1.046875 -0.25q0.71875 0 1.1875 0.34375q0.484375 0.328125 0.765625 0.84375l0 3.921875q-0.28125 0.546875 -0.765625 0.875q-0.46875 0.328125 -1.203125 0.328125q-0.59375 0 -1.03125 -0.234375q-0.421875 -0.25 -0.703125 -0.671875q-0.28125 -0.421875 -0.421875 -0.96875q-0.125 -0.5625 -0.125 -1.1875zm8.1640625 -0.15625l0 0.15625q0 0.90625 0.234375 1.703125q0.25003052 0.78125 0.6875305 1.359375q0.4375 0.578125 1.046875 0.90625q0.625 0.328125 1.390625 0.328125q0.78125 0 1.359375 -0.265625q0.59375 -0.265625 1.015625 -0.78125l0.0625 0.890625l1.328125 0l0 -12.0l-1.4375 0l0 4.375q-0.421875 -0.484375 -0.984375 -0.734375q-0.5625 -0.25 -1.328125 -0.25q-0.765625 0 -1.390625 0.328125q-0.625 0.3125 -1.0625 0.875q-0.453125 0.578125 -0.6875305 1.375q-0.234375 0.78125 -0.234375 1.734375zm1.4375305 0.15625l0 -0.15625q0 -0.625 0.125 -1.171875q0.140625 -0.5625 0.421875 -1.0q0.28125 -0.421875 0.703125 -0.671875q0.4375 -0.25 1.046875 -0.25q0.71875 0 1.1875 0.34375q0.484375 0.328125 0.765625 0.84375l0 3.921875q-0.28125 0.546875 -0.765625 0.875q-0.46875 0.328125 -1.203125 0.328125q-0.59375 0 -1.03125 -0.234375q-0.421875 -0.25 -0.703125 -0.671875q-0.28125 -0.421875 -0.421875 -0.96875q-0.125 -0.5625 -0.125 -1.1875zm12.1640625 4.296875q1.234375 0 2.078125 -0.5q0.84375 -0.5 1.265625 -1.140625l-0.890625 -0.6875q-0.390625 0.515625 -1.0 0.828125q-0.59375 0.3125 -1.375 0.3125q-0.578125 0 -1.0625 -0.21875q-0.484375 -0.21875 -0.828125 -0.59375q-0.34375 -0.359375 -0.53125 -0.828125q-0.1875 -0.46875 -0.25 -1.09375l0 -0.046875l6.046875 0l0 -0.65625q0 -0.875 -0.234375 -1.625q-0.21875 -0.765625 -0.671875 -1.328125q-0.453125 -0.5625 -1.140625 -0.875q-0.671875 -0.3125 -1.59375 -0.3125q-0.71875 0 -1.421875 0.296875q-0.6875 0.296875 -1.21875 0.84375q-0.546875 0.5625 -0.875 1.375q-0.328125 0.8125 -0.328125 1.828125l0 0.328125q0 0.890625 0.296875 1.640625q0.296875 0.75 0.828125 1.296875q0.53125 0.546875 1.265625 0.859375q0.75 0.296875 1.640625 0.296875zm-0.1875 -7.578125q0.5625 0 0.953125 0.203125q0.40625 0.203125 0.671875 0.53125q0.265625 0.328125 0.40625 0.78125q0.15625 0.4375 0.15625 0.828125l0 0.078125l-4.546875 0q0.09375 -0.59375 0.296875 -1.03125q0.21875 -0.453125 0.53125 -0.765625q0.3125 -0.3125 0.703125 -0.46875q0.390625 -0.15625 0.828125 -0.15625zm6.0546875 7.421875l1.453125 0l0 -6.0625q0.140625 -0.28125 0.34375 -0.5q0.203125 -0.234375 0.4375 -0.40625q0.28125 -0.1875 0.625 -0.296875q0.34375 -0.125 0.75 -0.125q0.453125 0 0.8125 0.109375q0.359375 0.109375 0.609375 0.359375q0.234375 0.234375 0.359375 0.625q0.125 0.390625 0.125 0.953125l0 5.34375l1.453125 0l0 -5.375q0 -0.84375 -0.21875 -1.453125q-0.203125 -0.609375 -0.578125 -1.015625q-0.390625 -0.390625 -0.9375 -0.578125q-0.53125 -0.1875 -1.203125 -0.1875q-0.484375 0 -0.9375 0.140625q-0.4375 0.140625 -0.8125 0.390625q-0.25 0.15625 -0.46875 0.390625q-0.21875 0.21875 -0.40625 0.484375l-0.109375 -1.25l-1.296875 0l0 8.453125zm12.4453125 -7.78125q0 0.453125 0.28125 0.78125q0.296875 0.3125 0.859375 0.3125q0.546875 0 0.84375 -0.3125q0.296875 -0.328125 0.296875 -0.78125q0 -0.46875 -0.296875 -0.796875q-0.28125 -0.328125 -0.84375 -0.328125q-0.578125 0 -0.859375 0.328125q-0.28125 0.328125 -0.28125 0.796875zm1.859375 7.4375l0 -1.375l-1.578125 0l0 1.40625q0 0.671875 -0.15625 1.28125q-0.15625 0.625 -0.53125 1.171875l0.90625 0.484375q0.625 -0.546875 0.984375 -1.359375q0.375 -0.8125 0.375 -1.609375z" fill-rule="nonzero"/><path fill="#010000" fill-opacity="0.0" d="m319.33514 165.82718l0 0l0 21.101562l0 0l0 -21.101562z" fill-rule="nonzero"/><defs><radialGradient id="p.5" gradientUnits="userSpaceOnUse" gradientTransform="matrix(8.008587410892972 0.0 0.0 8.008587410892972 0.0 0.0)" spreadMethod="pad" cx="36.12329779069641" cy="33.75737506575252" fx="36.12329779069641" fy="33.75737506575252" r="8.008587837219238"><stop offset="0.0" stop-color="#dfe9fb"/><stop offset="1.0" stop-color="#6e9be7"/></radialGradient></defs><path fill="url(#p.5)" d="m228.98163 248.53787l120.62991 0l0 43.62204l-120.62991 0z" fill-rule="evenodd"/><path fill="#000000" d="m265.8337 276.73785l0 -14.3125l4.921875 0q1.671875 0 2.5625 0.203125q1.21875 0.28125 2.09375 1.015625q1.125 0.96875 1.6875 2.453125q0.5625 1.484375 0.5625 3.40625q0 1.625 -0.375 2.890625q-0.375 1.25 -0.984375 2.078125q-0.59375 0.828125 -1.296875 1.3125q-0.703125 0.46875 -1.703125 0.71875q-1.0 0.234375 -2.3125 0.234375l-5.15625 0zm1.890625 -1.6875l3.0625 0q1.40625 0 2.203125 -0.265625q0.8125 -0.265625 1.296875 -0.75q0.671875 -0.671875 1.046875 -1.796875q0.375 -1.140625 0.375 -2.765625q0 -2.25 -0.734375 -3.453125q-0.734375 -1.203125 -1.796875 -1.609375q-0.75 -0.296875 -2.4375 -0.296875l-3.015625 0l0 10.9375zm12.865234 1.6875l0 -14.3125l1.90625 0l0 14.3125l-1.90625 0zm9.337891 0l-5.546875 -14.3125l2.046875 0l3.71875 10.390625q0.453125 1.25 0.75 2.34375q0.328125 -1.171875 0.78125 -2.34375l3.8593445 -10.390625l1.9375 0l-5.6093445 14.3125l-1.9375 0zm14.099579 -3.78125l1.75 -0.234375q0.3125 1.5 1.03125 2.15625q0.734375 0.65625 1.78125 0.65625q1.234375 0 2.078125 -0.859375q0.859375 -0.859375 0.859375 -2.125q0 -1.21875 -0.796875 -2.0q-0.78125 -0.78125 -2.0 -0.78125q-0.5 0 -1.234375 0.1875l0.1875 -1.546875q0.171875 0.03125 0.28125 0.03125q1.125 0 2.015625 -0.578125q0.90625 -0.59375 0.90625 -1.8125q0 -0.96875 -0.65625 -1.609375q-0.65625 -0.640625 -1.6875 -0.640625q-1.015625 0 -1.703125 0.65625q-0.6875 0.640625 -0.875 1.921875l-1.765625 -0.3125q0.328125 -1.765625 1.46875 -2.734375q1.140625 -0.96875 2.84375 -0.96875q1.171875 0 2.15625 0.5q0.984375 0.5 1.5 1.375q0.53125 0.875 0.53125 1.84375q0 0.921875 -0.5 1.6875q-0.5 0.765625 -1.46875 1.21875q1.265625 0.28125 1.96875 1.21875q0.703125 0.921875 0.703125 2.296875q0 1.875 -1.375 3.1875q-1.359375 1.296875 -3.453125 1.296875q-1.890625 0 -3.140625 -1.125q-1.234375 -1.125 -1.40625 -2.90625z" fill-rule="nonzero"/><defs><radialGradient id="p.6" gradientUnits="userSpaceOnUse" gradientTransform="matrix(8.008587410892972 0.0 0.0 8.008587410892972 0.0 0.0)" spreadMethod="pad" cx="62.93834583223785" cy="7.997320976652337" fx="62.93834583223785" fy="7.997320976652337" r="8.008587837219238"><stop offset="0.0" stop-color="#dfe9fb"/><stop offset="1.0" stop-color="#6e9be7"/></radialGradient></defs><path fill="url(#p.6)" d="m443.73227 42.23622l120.62991 0l0 43.622047l-120.62991 0z" fill-rule="evenodd"/><path fill="#000000" d="m480.58435 70.43622l0 -14.3125l4.921875 0q1.671875 0 2.5625 0.203125q1.21875 0.28125 2.09375 1.015625q1.125 0.96875 1.6875 2.453125q0.5625 1.484375 0.5625 3.40625q0 1.625 -0.375 2.890625q-0.375 1.25 -0.984375 2.078125q-0.59375 0.828125 -1.296875 1.3125q-0.703125 0.46875 -1.703125 0.71875q-1.0 0.234375 -2.3125 0.234375l-5.15625 0zm1.890625 -1.6875l3.0625 0q1.40625 0 2.203125 -0.265625q0.8125 -0.265625 1.296875 -0.75q0.671875 -0.671875 1.046875 -1.796875q0.375 -1.140625 0.375 -2.765625q0 -2.25 -0.734375 -3.453125q-0.734375 -1.203125 -1.796875 -1.609375q-0.75 -0.296875 -2.4375 -0.296875l-3.015625 0l0 10.9375zm12.865234 1.6875l0 -14.3125l1.90625 0l0 14.3125l-1.90625 0zm9.337891 0l-5.546875 -14.3125l2.046875 0l3.71875 10.390625q0.453125 1.25 0.75 2.34375q0.328125 -1.171875 0.78125 -2.34375l3.859375 -10.390625l1.9375 0l-5.609375 14.3125l-1.9375 0zm20.708984 0l-1.765625 0l0 -11.203125q-0.625 0.609375 -1.65625 1.21875q-1.03125 0.59375 -1.859375 0.90625l0 -1.703125q1.484375 -0.6875 2.578125 -1.671875q1.109375 -1.0 1.5625 -1.921875l1.140625 0l0 14.375z" fill-rule="nonzero"/><path fill="#000000" fill-opacity="0.0" d="m436.9029 241.26247l134.89764 0l0 58.173233l-134.89764 0z" fill-rule="evenodd"/><path stroke="#000000" stroke-width="1.0" stroke-linejoin="round" stroke-linecap="butt" stroke-dasharray="1.0,3.0" d="m436.9029 241.26247l134.89764 0l0 58.173233l-134.89764 0z" fill-rule="evenodd"/><path fill="#efefef" d="m465.94547 250.26247l76.81247 0l0 19.199997l-76.81247 0l0 -19.199997z" fill-rule="nonzero"/><path fill="#000000" fill-opacity="0.0" d="m465.94547 248.85684l76.81247 0l0 21.101562l-76.81247 0l0 -21.101562z" fill-rule="nonzero"/><path fill="#000000" d="m467.0392 261.3256l0 0.15625q0 0.90625 0.234375 1.703125q0.25 0.78125 0.6875 1.359375q0.4375 0.578125 1.046875 0.90625q0.625 0.328125 1.390625 0.328125q0.78125 0 1.359375 -0.265625q0.59375 -0.265625 1.015625 -0.78125l0.0625 0.890625l1.328125 0l0 -12.0l-1.4375 0l0 4.375q-0.421875 -0.484375 -0.984375 -0.734375q-0.5625 -0.25 -1.328125 -0.25q-0.765625 0 -1.390625 0.328125q-0.625 0.3125 -1.0625 0.875q-0.453125 0.578125 -0.6875 1.375q-0.234375 0.78125 -0.234375 1.734375zm1.4375 0.15625l0 -0.15625q0 -0.625 0.125 -1.171875q0.140625 -0.5625 0.421875 -1.0q0.28125 -0.421875 0.703125 -0.671875q0.4375 -0.25 1.046875 -0.25q0.71875 0 1.1875 0.34375q0.484375 0.328125 0.765625 0.84375l0 3.921875q-0.28125 0.546875 -0.765625 0.875q-0.46875 0.328125 -1.203125 0.328125q-0.59375 0 -1.03125 -0.234375q-0.421875 -0.25 -0.703125 -0.671875q-0.28125 -0.421875 -0.421875 -0.96875q-0.125 -0.5625 -0.125 -1.1875zm8.6640625 -4.3125l0 1.25l2.875 0l0 5.953125l-2.875 0l0 1.25l7.078125 0l0 -1.25l-2.765625 0l0 -7.203125l-4.3125 0zm2.6875 -2.21875q0 0.34375 0.203125 0.578125q0.21875 0.234375 0.65625 0.234375q0.4375 0 0.65625 -0.234375q0.21875 -0.234375 0.21875 -0.578125q0 -0.203125 -0.0625 -0.359375q-0.0625 -0.171875 -0.1875 -0.28125q-0.109375 -0.09375 -0.265625 -0.15625q-0.15625 -0.0625 -0.359375 -0.0625q-0.203125 0 -0.359375 0.0625q-0.15625 0.0625 -0.265625 0.15625q-0.125 0.125 -0.1875 0.296875q-0.046875 0.15625 -0.046875 0.34375zm12.3046875 8.421875q0 0.203125 -0.078125 0.390625q-0.078125 0.171875 -0.234375 0.328125q-0.234375 0.234375 -0.671875 0.375q-0.421875 0.140625 -1.0 0.140625q-0.375 0 -0.75 -0.078125q-0.375 -0.078125 -0.671875 -0.265625q-0.3125 -0.1875 -0.53125 -0.484375q-0.203125 -0.3125 -0.234375 -0.765625l-1.4375 0q0 0.546875 0.234375 1.046875q0.25 0.5 0.71875 0.875q0.46875 0.375 1.140625 0.609375q0.671875 0.234375 1.53125 0.234375q0.75 0 1.375 -0.171875q0.640625 -0.1875 1.09375 -0.515625q0.453125 -0.328125 0.703125 -0.78125q0.25 -0.46875 0.25 -1.03125q0 -0.53125 -0.21875 -0.921875q-0.21875 -0.40625 -0.640625 -0.703125q-0.421875 -0.296875 -1.046875 -0.515625q-0.609375 -0.21875 -1.390625 -0.375q-0.59375 -0.125 -0.984375 -0.25q-0.390625 -0.125 -0.609375 -0.28125q-0.234375 -0.15625 -0.328125 -0.34375q-0.09375 -0.203125 -0.09375 -0.453125q0 -0.234375 0.109375 -0.453125q0.125 -0.234375 0.359375 -0.40625q0.21875 -0.171875 0.5625 -0.265625q0.359375 -0.109375 0.8125 -0.109375q0.453125 0 0.796875 0.125q0.359375 0.125 0.609375 0.328125q0.25 0.203125 0.390625 0.46875q0.140625 0.25 0.140625 0.53125l1.453125 0q0 -0.5625 -0.25 -1.03125q-0.234375 -0.484375 -0.671875 -0.84375q-0.4375 -0.359375 -1.0625 -0.5625q-0.625 -0.203125 -1.40625 -0.203125q-0.71875 0 -1.328125 0.203125q-0.609375 0.1875 -1.046875 0.515625q-0.4375 0.34375 -0.6875 0.796875q-0.234375 0.4375 -0.234375 0.953125q0 0.53125 0.234375 0.921875q0.234375 0.390625 0.671875 0.6875q0.421875 0.296875 1.015625 0.515625q0.59375 0.203125 1.328125 0.34375q0.59375 0.125 0.984375 0.265625q0.40625 0.140625 0.640625 0.3125q0.25 0.171875 0.34375 0.390625q0.109375 0.203125 0.109375 0.453125zm3.9765625 5.5l1.4375 0l0 -4.0625q0.15625 0.171875 0.328125 0.3125q0.1875 0.140625 0.390625 0.265625q0.34375 0.1875 0.75 0.28125q0.421875 0.109375 0.90625 0.109375q0.796875 0 1.421875 -0.328125q0.625 -0.328125 1.046875 -0.90625q0.421875 -0.578125 0.640625 -1.359375q0.21875 -0.796875 0.21875 -1.703125l0 -0.15625q0 -0.953125 -0.21875 -1.734375q-0.21875 -0.796875 -0.640625 -1.375q-0.421875 -0.5625 -1.046875 -0.875q-0.625 -0.328125 -1.4375 -0.328125q-0.46875 0 -0.875 0.09375q-0.390625 0.09375 -0.71875 0.28125q-0.234375 0.125 -0.4375 0.3125q-0.203125 0.171875 -0.375 0.390625l-0.078125 -0.921875l-1.3125 0l0 11.703125zm5.6875 -7.546875l0 0.15625q0 0.625 -0.140625 1.1875q-0.125 0.5625 -0.40625 0.984375q-0.28125 0.4375 -0.71875 0.6875q-0.4375 0.25 -1.046875 0.25q-0.375 0 -0.6875 -0.09375q-0.296875 -0.09375 -0.546875 -0.25q-0.21875 -0.140625 -0.390625 -0.34375q-0.171875 -0.203125 -0.3125 -0.4375l0 -4.078125q0.15625 -0.265625 0.34375 -0.484375q0.203125 -0.21875 0.453125 -0.359375q0.21875 -0.15625 0.5 -0.234375q0.296875 -0.078125 0.625 -0.078125q0.609375 0 1.046875 0.25q0.4375 0.25 0.734375 0.671875q0.28125 0.4375 0.40625 1.0q0.140625 0.546875 0.140625 1.171875zm4.1484375 -7.703125l0 1.25l2.875 0l0 9.5l-2.875 0l0 1.25l7.0780945 0l0 -1.25l-2.7655945 0l0 -10.75l-4.3125 0zm14.929657 12.0l1.5 0l0 -0.125q-0.140625 -0.359375 -0.21875 -0.828125q-0.078125 -0.46875 -0.078125 -0.890625l0 -3.9375q0 -0.703125 -0.265625 -1.234375q-0.25 -0.53125 -0.6875 -0.890625q-0.453125 -0.359375 -1.078125 -0.53125q-0.609375 -0.171875 -1.328125 -0.171875q-0.796875 0 -1.421875 0.21875q-0.609375 0.21875 -1.046875 0.5625q-0.4375 0.359375 -0.671875 0.8125q-0.21875 0.4375 -0.234375 0.90625l1.453125 0q0 -0.265625 0.125 -0.515625q0.140625 -0.25 0.375 -0.421875q0.234375 -0.1875 0.5625 -0.296875q0.34375 -0.109375 0.78125 -0.109375q0.453125 0 0.828125 0.125q0.375 0.109375 0.625 0.328125q0.265625 0.21875 0.40625 0.53125q0.140625 0.296875 0.140625 0.671875l0 0.671875l-1.578125 0q-0.890625 0 -1.609375 0.171875q-0.703125 0.171875 -1.21875 0.515625q-0.5 0.34375 -0.78125 0.875q-0.28125 0.515625 -0.28125 1.21875q0 0.53125 0.203125 0.984375q0.21875 0.453125 0.59375 0.78125q0.375 0.34375 0.921875 0.546875q0.546875 0.1875 1.21875 0.1875q0.40625 0 0.765625 -0.09375q0.375 -0.078125 0.703125 -0.234375q0.328125 -0.140625 0.59375 -0.328125q0.265625 -0.203125 0.484375 -0.421875q0.03125 0.265625 0.078125 0.515625q0.046875 0.234375 0.140625 0.40625zm-2.5625 -1.109375q-0.421875 0 -0.75 -0.109375q-0.3125 -0.109375 -0.515625 -0.296875q-0.21875 -0.1875 -0.328125 -0.453125q-0.09375 -0.265625 -0.09375 -0.578125q0 -0.328125 0.109375 -0.578125q0.125 -0.265625 0.359375 -0.453125q0.328125 -0.265625 0.890625 -0.390625q0.5625 -0.140625 1.3125 -0.140625l1.34375 0l0 1.71875q-0.125 0.25 -0.34375 0.484375q-0.21875 0.21875 -0.515625 0.40625q-0.3125 0.171875 -0.6875 0.28125q-0.359375 0.109375 -0.78125 0.109375zm7.2890625 4.53125q0.5625 0 1.0 -0.21875q0.4375 -0.203125 0.765625 -0.515625q0.328125 -0.3125 0.5625 -0.6875q0.234375 -0.359375 0.375 -0.6875l4.296875 -9.765625l-1.625 0l-2.171875 5.484375l-0.40625 0.984375l-0.375 -1.015625l-2.3125 -5.453125l-1.625 0l3.640625 8.046875l-0.578125 1.140625q-0.078125 0.15625 -0.21875 0.390625q-0.125 0.25 -0.3125 0.46875q-0.203125 0.234375 -0.453125 0.390625q-0.234375 0.171875 -0.53125 0.171875q-0.109375 0 -0.3125 -0.015625q-0.1875 -0.015625 -0.375 -0.03125l-0.234375 1.1875q0.140625 0.03125 0.40625 0.078125q0.28125 0.046875 0.484375 0.046875zm11.8203125 -4.359375q0 0.453125 0.28125 0.78125q0.296875 0.3125 0.859375 0.3125q0.546875 0 0.84375 -0.3125q0.296875 -0.328125 0.296875 -0.78125q0 -0.46875 -0.296875 -0.796875q-0.28125 -0.328125 -0.84375 -0.328125q-0.578125 0 -0.859375 0.328125q-0.28125 0.328125 -0.28125 0.796875zm0 -6.84375q0 0.453125 0.28125 0.78125q0.296875 0.3125 0.859375 0.3125q0.546875 0 0.84375 -0.3125q0.296875 -0.328125 0.296875 -0.78125q0 -0.46875 -0.296875 -0.796875q-0.28125 -0.328125 -0.84375 -0.328125q-0.578125 0 -0.859375 0.328125q-0.28125 0.328125 -0.28125 0.796875z" fill-rule="nonzero"/><path fill="#010000" fill-opacity="0.0" d="m542.75793 248.85684l9.6015625 0l0 21.101562l-9.6015625 0l0 -21.101562z" fill-rule="nonzero"/><path fill="#efefef" d="m480.3478 269.46246l48.007782 0l0 19.200012l-48.007782 0l0 -19.200012z" fill-rule="nonzero"/><path fill="#010000" fill-opacity="0.0" d="m480.3478 268.05685l48.007782 0l0 21.101562l-48.007782 0l0 -21.101562z" fill-rule="nonzero"/><path fill="#000000" d="m481.70718 284.82248l1.453125 0l0 -6.0625q0.140625 -0.28125 0.34375 -0.5q0.203125 -0.234375 0.4375 -0.40625q0.28125 -0.1875 0.625 -0.296875q0.34375 -0.125 0.75 -0.125q0.453125 0 0.8125 0.109375q0.359375 0.109375 0.609375 0.359375q0.234375 0.234375 0.359375 0.625q0.125 0.390625 0.125 0.953125l0 5.34375l1.453125 0l0 -5.375q0 -0.84375 -0.21875 -1.453125q-0.203125 -0.609375 -0.578125 -1.015625q-0.390625 -0.390625 -0.9375 -0.578125q-0.53125 -0.1875 -1.203125 -0.1875q-0.484375 0 -0.9375 0.140625q-0.4375 0.140625 -0.8125 0.390625q-0.25 0.15625 -0.46875 0.390625q-0.21875 0.21875 -0.40625 0.484375l-0.109375 -1.25l-1.296875 0l0 8.453125zm9.1953125 -4.3125l0 0.171875q0 0.921875 0.265625 1.703125q0.265625 0.78125 0.765625 1.359375q0.5 0.578125 1.203125 0.90625q0.71875 0.328125 1.625 0.328125q0.890625 0 1.59375 -0.328125q0.71875 -0.328125 1.21875 -0.90625q0.484375 -0.578125 0.75 -1.359375q0.265625 -0.78125 0.265625 -1.703125l0 -0.171875q0 -0.90625 -0.265625 -1.6875q-0.265625 -0.796875 -0.75 -1.375q-0.5 -0.578125 -1.21875 -0.90625q-0.71875 -0.328125 -1.609375 -0.328125q-0.890625 0 -1.609375 0.328125q-0.703125 0.328125 -1.203125 0.90625q-0.5 0.578125 -0.765625 1.375q-0.265625 0.78125 -0.265625 1.6875zm1.453125 0.171875l0 -0.171875q0 -0.609375 0.140625 -1.171875q0.15625 -0.578125 0.453125 -1.0q0.296875 -0.4375 0.734375 -0.6875q0.453125 -0.25 1.0625 -0.25q0.59375 0 1.046875 0.25q0.453125 0.25 0.75 0.6875q0.296875 0.421875 0.453125 1.0q0.15625 0.5625 0.15625 1.171875l0 0.171875q0 0.625 -0.15625 1.203125q-0.140625 0.5625 -0.4375 0.984375q-0.3125 0.4375 -0.765625 0.6875q-0.4375 0.25 -1.03125 0.25q-0.609375 0 -1.0625 -0.25q-0.453125 -0.25 -0.75 -0.6875q-0.296875 -0.421875 -0.453125 -0.984375q-0.140625 -0.578125 -0.140625 -1.203125zm8.5546875 4.140625l1.453125 0l0 -6.0625q0.140625 -0.28125 0.34375 -0.5q0.203125 -0.234375 0.4375 -0.40625q0.28125 -0.1875 0.625 -0.296875q0.34375 -0.125 0.75 -0.125q0.453125 0 0.8125 0.109375q0.359375 0.109375 0.609375 0.359375q0.234375 0.234375 0.359375 0.625q0.125 0.390625 0.125 0.953125l0 5.34375l1.453125 0l0 -5.375q0 -0.84375 -0.21875 -1.453125q-0.203125 -0.609375 -0.578125 -1.015625q-0.390625 -0.390625 -0.9375 -0.578125q-0.53125 -0.1875 -1.203125 -0.1875q-0.484375 0 -0.9375 0.140625q-0.4375 0.140625 -0.8125 0.390625q-0.25 0.15625 -0.46875 0.390625q-0.21875 0.21875 -0.40625 0.484375l-0.109375 -1.25l-1.296875 0l0 8.453125zm13.335907 0.15625q1.234375 0 2.078125 -0.5q0.84375 -0.5 1.265625 -1.140625l-0.890625 -0.6875q-0.390625 0.515625 -1.0 0.828125q-0.59375 0.3125 -1.375 0.3125q-0.578125 0 -1.0625 -0.21875q-0.484375 -0.21875 -0.828125 -0.59375q-0.34375 -0.359375 -0.5312195 -0.828125q-0.1875 -0.46875 -0.25 -1.09375l0 -0.046875l6.0468445 0l0 -0.65625q0 -0.875 -0.234375 -1.625q-0.21875 -0.765625 -0.671875 -1.328125q-0.453125 -0.5625 -1.140625 -0.875q-0.671875 -0.3125 -1.59375 -0.3125q-0.71875 0 -1.421875 0.296875q-0.6874695 0.296875 -1.2187195 0.84375q-0.546875 0.5625 -0.875 1.375q-0.328125 0.8125 -0.328125 1.828125l0 0.328125q0 0.890625 0.296875 1.640625q0.296875 0.75 0.828125 1.296875q0.53125 0.546875 1.2655945 0.859375q0.75 0.296875 1.640625 0.296875zm-0.1875 -7.578125q0.5625 0 0.953125 0.203125q0.40625 0.203125 0.671875 0.53125q0.265625 0.328125 0.40625 0.78125q0.15625 0.4375 0.15625 0.828125l0 0.078125l-4.5468445 0q0.09375 -0.59375 0.296875 -1.03125q0.21871948 -0.453125 0.5312195 -0.765625q0.3125 -0.3125 0.703125 -0.46875q0.390625 -0.15625 0.828125 -0.15625zm8.8984375 -0.359375q0 0.453125 0.28125 0.78125q0.296875 0.3125 0.859375 0.3125q0.546875 0 0.84375 -0.3125q0.296875 -0.328125 0.296875 -0.78125q0 -0.46875 -0.296875 -0.796875q-0.28125 -0.328125 -0.84375 -0.328125q-0.578125 0 -0.859375 0.328125q-0.28125 0.328125 -0.28125 0.796875zm1.859375 7.4375l0 -1.375l-1.578125 0l0 1.40625q0 0.671875 -0.15625 1.28125q-0.15625 0.625 -0.53125 1.171875l0.90625 0.484375q0.625 -0.546875 0.984375 -1.359375q0.375 -0.8125 0.375 -1.609375z" fill-rule="nonzero"/><path fill="#010000" fill-opacity="0.0" d="m528.3556 268.05685l0 0l0 21.101562l0 0l0 -21.101562z" fill-rule="nonzero"/><defs><radialGradient id="p.7" gradientUnits="userSpaceOnUse" gradientTransform="matrix(8.008587410892972 0.0 0.0 8.008587410892972 0.0 0.0)" spreadMethod="pad" cx="62.93834583223785" cy="20.992697741797787" fx="62.93834583223785" fy="20.992697741797787" r="8.008587837219238"><stop offset="0.0" stop-color="#dfe9fb"/><stop offset="1.0" stop-color="#6e9be7"/></radialGradient></defs><path fill="url(#p.7)" d="m443.73227 146.31084l120.62991 0l0 43.62204l-120.62991 0z" fill-rule="evenodd"/><path fill="#000000" d="m480.58435 174.51083l0 -14.3125l4.921875 0q1.671875 0 2.5625 0.203125q1.21875 0.28125 2.09375 1.015625q1.125 0.96875 1.6875 2.453125q0.5625 1.484375 0.5625 3.40625q0 1.625 -0.375 2.890625q-0.375 1.25 -0.984375 2.078125q-0.59375 0.828125 -1.296875 1.3125q-0.703125 0.46875 -1.703125 0.71875q-1.0 0.234375 -2.3125 0.234375l-5.15625 0zm1.890625 -1.6875l3.0625 0q1.40625 0 2.203125 -0.265625q0.8125 -0.265625 1.296875 -0.75q0.671875 -0.671875 1.046875 -1.796875q0.375 -1.140625 0.375 -2.765625q0 -2.25 -0.734375 -3.453125q-0.734375 -1.203125 -1.796875 -1.609375q-0.75 -0.296875 -2.4375 -0.296875l-3.015625 0l0 10.9375zm12.865234 1.6875l0 -14.3125l1.90625 0l0 14.3125l-1.90625 0zm9.337891 0l-5.546875 -14.3125l2.046875 0l3.71875 10.390625q0.453125 1.25 0.75 2.34375q0.328125 -1.171875 0.78125 -2.34375l3.859375 -10.390625l1.9375 0l-5.609375 14.3125l-1.9375 0zm14.099609 -3.78125l1.75 -0.234375q0.3125 1.5 1.03125 2.15625q0.734375 0.65625 1.78125 0.65625q1.234375 0 2.078125 -0.859375q0.859375 -0.859375 0.859375 -2.125q0 -1.21875 -0.796875 -2.0q-0.78125 -0.78125 -2.0 -0.78125q-0.5 0 -1.234375 0.1875l0.1875 -1.546875q0.171875 0.03125 0.28125 0.03125q1.125 0 2.015625 -0.578125q0.90625 -0.59375 0.90625 -1.8125q0 -0.96875 -0.65625 -1.609375q-0.65625 -0.640625 -1.6875 -0.640625q-1.015625 0 -1.703125 0.65625q-0.6875 0.640625 -0.875 1.921875l-1.765625 -0.3125q0.328125 -1.765625 1.46875 -2.734375q1.140625 -0.96875 2.84375 -0.96875q1.171875 0 2.15625 0.5q0.984375 0.5 1.5 1.375q0.53125 0.875 0.53125 1.84375q0 0.921875 -0.5 1.6875q-0.5 0.765625 -1.46875 1.21875q1.265625 0.28125 1.96875 1.21875q0.703125 0.921875 0.703125 2.296875q0 1.875 -1.375 3.1875q-1.359375 1.296875 -3.453125 1.296875q-1.890625 0 -3.140625 -1.125q-1.234375 -1.125 -1.40625 -2.90625z" fill-rule="nonzero"/><path fill="#ff9900" d="m342.16272 223.95514l-26.433075 0l0 13.669296l-52.86612 0l0 -13.669296l-26.433075 0l52.86615 -13.669281z" fill-rule="evenodd"/><path fill="#ff9900" d="m556.9134 116.083755l-26.433105 0l0 13.669296l-52.86612 0l0 -13.669296l-26.433075 0l52.86615 -13.669289z" fill-rule="evenodd"/><path fill="#000000" fill-opacity="0.0" d="m176.0 -34.0l0 414.01575" fill-rule="evenodd"/><path stroke="#666666" stroke-width="4.0" stroke-linejoin="round" stroke-linecap="butt" stroke-dasharray="16.0,12.0" d="m176.0 -34.0l0 414.01575" fill-rule="evenodd"/><path fill="#000000" fill-opacity="0.0" d="m-408.0 260.0l4.0 -5.984253" fill-rule="evenodd"/><path stroke="#666666" stroke-width="4.0" stroke-linejoin="round" stroke-linecap="butt" stroke-dasharray="16.0,12.0" d="m-408.0 260.0l4.0 -5.984253" fill-rule="evenodd"/><path fill="#000000" fill-opacity="0.0" d="m388.0 -34.0l0 414.01575" fill-rule="evenodd"/><path stroke="#666666" stroke-width="4.0" stroke-linejoin="round" stroke-linecap="butt" stroke-dasharray="16.0,12.0" d="m388.0 -34.0l0 414.01575" fill-rule="evenodd"/></g></svg>